<svg width="375" height="81" viewBox="0 0 375 81" fill="none" xmlns="http://www.w3.org/2000/svg">
<path d="M14.7138 22.0725H7.36816V14.7149H14.7138V22.0725Z" fill="#DCE9FB"/>
<path d="M29.4042 22.0725H22.0586V14.7149H29.4042V22.0725Z" fill="#DCE9FB"/>
<path d="M44.118 22.0725H36.7725V14.7149H44.118V22.0725Z" fill="#DCE9FB"/>
<path d="M58.8309 22.0725H51.4854V14.7149H58.8309V22.0725Z" fill="#DCE9FB"/>
<path d="M73.5224 22.0725H66.1768V14.7149H73.5224V22.0725Z" fill="#DCE9FB"/>
<path d="M88.2352 22.0725H80.8896V14.7149H88.2352V22.0725Z" fill="#DCE9FB"/>
<path d="M102.949 22.0725H95.6035V14.7149H102.949V22.0725Z" fill="#DCE9FB"/>
<path d="M117.64 22.0725H110.294V14.7149H117.64V22.0725Z" fill="#DCE9FB"/>
<path d="M132.353 22.0725H125.008V14.7149H132.353V22.0725Z" fill="#DCE9FB"/>
<path d="M147.066 22.0725H139.721V14.7149H147.066V22.0725Z" fill="#DCE9FB"/>
<path d="M161.758 22.0725H154.412V14.7149H161.758V22.0725Z" fill="#DCE9FB"/>
<path d="M176.471 22.0725H169.125V14.7149H176.471V22.0725Z" fill="#DCE9FB"/>
<path d="M191.183 22.0725H183.838V14.7149H191.183V22.0725Z" fill="#DCE9FB"/>
<path d="M205.875 22.0725H198.529V14.7149H205.875V22.0725Z" fill="#DCE9FB"/>
<path d="M220.588 22.0725H213.242V14.7149H220.588V22.0725Z" fill="#DCE9FB"/>
<path d="M235.302 22.0725H227.956V14.7149H235.302V22.0725Z" fill="#DCE9FB"/>
<path d="M249.992 22.0725H242.646V14.7149H249.992V22.0725Z" fill="#DCE9FB"/>
<path d="M264.706 22.0725H257.36V14.7149H264.706V22.0725Z" fill="#DCE9FB"/>
<path d="M279.419 22.0725H272.073V14.7149H279.419V22.0725Z" fill="#DCE9FB"/>
<path d="M294.11 22.0725H286.765V14.7149H294.11V22.0725Z" fill="#DCE9FB"/>
<path d="M308.824 22.0725H301.479V14.7149H308.824V22.0725Z" fill="#DCE9FB"/>
<path d="M323.537 22.0725H316.191V14.7149H323.537V22.0725Z" fill="#DCE9FB"/>
<path d="M338.228 22.0725H330.883V14.7149H338.228V22.0725Z" fill="#DCE9FB"/>
<path d="M352.941 22.0725H345.596V14.7149H352.941V22.0725Z" fill="#DCE9FB"/>
<path d="M367.654 22.0725H360.309V14.7149H367.654V22.0725Z" fill="#DCE9FB"/>
<path d="M14.7138 58.905H7.36816V51.5474H14.7138V58.905Z" fill="#DCE9FB"/>
<path d="M44.118 58.905H36.7725V51.5474H44.118V58.905Z" fill="#DCE9FB"/>
<path d="M73.5224 58.905H66.1768V51.5474H73.5224V58.905Z" fill="#DCE9FB"/>
<path d="M102.949 58.905H95.6035V51.5474H102.949V58.905Z" fill="#DCE9FB"/>
<path d="M132.353 58.905H125.008V51.5474H132.353V58.905Z" fill="#DCE9FB"/>
<path d="M161.758 58.905H154.412V51.5474H161.758V58.905Z" fill="#DCE9FB"/>
<path d="M191.183 58.905H183.838V51.5474H191.183V58.905Z" fill="#DCE9FB"/>
<path d="M220.588 58.905H213.242V51.5474H220.588V58.905Z" fill="#DCE9FB"/>
<path d="M249.992 58.905H242.646V51.5474H249.992V58.905Z" fill="#DCE9FB"/>
<path d="M279.419 58.905H272.073V51.5474H279.419V58.905Z" fill="#DCE9FB"/>
<path d="M308.824 58.905H301.479V51.5474H308.824V58.905Z" fill="#DCE9FB"/>
<path d="M338.228 58.905H330.883V51.5474H338.228V58.905Z" fill="#DCE9FB"/>
<path d="M367.654 58.905H360.309V51.5474H367.654V58.905Z" fill="#DCE9FB"/>
<path d="M352.941 81H345.596V73.6424H352.941V81Z" fill="#DCE9FB"/>
<path d="M323.537 81H316.191V73.6424H323.537V81Z" fill="#DCE9FB"/>
<path d="M294.11 81H286.765V73.6424H294.11V81Z" fill="#DCE9FB"/>
<path d="M264.706 81H257.36V73.6424H264.706V81Z" fill="#DCE9FB"/>
<path d="M235.302 81H227.956V73.6424H235.302V81Z" fill="#DCE9FB"/>
<path d="M205.875 81H198.529V73.6424H205.875V81Z" fill="#DCE9FB"/>
<path d="M176.471 81H169.125V73.6424H176.471V81Z" fill="#DCE9FB"/>
<path d="M147.066 81H139.721V73.6424H147.066V81Z" fill="#DCE9FB"/>
<path d="M117.64 81H110.294V73.6424H117.64V81Z" fill="#DCE9FB"/>
<path d="M88.2352 81H80.8896V73.6424H88.2352V81Z" fill="#DCE9FB"/>
<path d="M58.8309 81H51.4854V73.6424H58.8309V81Z" fill="#DCE9FB"/>
<path d="M29.4042 81H22.0586V73.6424H29.4042V81Z" fill="#DCE9FB"/>
<path d="M29.4042 44.1675H22.0586V36.8099H29.4042V44.1675Z" fill="#DCE9FB"/>
<path d="M58.8309 44.1675H51.4854V36.8099H58.8309V44.1675Z" fill="#DCE9FB"/>
<path d="M88.2352 44.1675H80.8896V36.8099H88.2352V44.1675Z" fill="#DCE9FB"/>
<path d="M117.64 44.1675H110.294V36.8099H117.64V44.1675Z" fill="#DCE9FB"/>
<path d="M147.066 44.1675H139.721V36.8099H147.066V44.1675Z" fill="#DCE9FB"/>
<path d="M176.471 44.1675H169.125V36.8099H176.471V44.1675Z" fill="#DCE9FB"/>
<path d="M205.875 44.1675H198.529V36.8099H205.875V44.1675Z" fill="#DCE9FB"/>
<path d="M235.302 44.1675H227.956V36.8099H235.302V44.1675Z" fill="#DCE9FB"/>
<path d="M264.706 44.1675H257.36V36.8099H264.706V44.1675Z" fill="#DCE9FB"/>
<path d="M294.11 44.1675H286.765V36.8099H294.11V44.1675Z" fill="#DCE9FB"/>
<path d="M323.537 44.1675H316.191V36.8099H323.537V44.1675Z" fill="#DCE9FB"/>
<path d="M352.941 44.1675H345.596V36.8099H352.941V44.1675Z" fill="#DCE9FB"/>
<path d="M14.7138 36.8101H7.36816V29.4524H14.7138V36.8101Z" fill="#DCE9FB"/>
<path d="M44.118 36.8101H36.7725V29.4524H44.118V36.8101Z" fill="#DCE9FB"/>
<path d="M73.5224 36.8101H66.1768V29.4524H73.5224V36.8101Z" fill="#DCE9FB"/>
<path d="M102.949 36.8101H95.6035V29.4524H102.949V36.8101Z" fill="#DCE9FB"/>
<path d="M132.353 36.8101H125.008V29.4524H132.353V36.8101Z" fill="#DCE9FB"/>
<path d="M161.758 36.8101H154.412V29.4524H161.758V36.8101Z" fill="#DCE9FB"/>
<path d="M191.183 36.8101H183.838V29.4524H191.183V36.8101Z" fill="#DCE9FB"/>
<path d="M220.588 36.8101H213.242V29.4524H220.588V36.8101Z" fill="#DCE9FB"/>
<path d="M249.992 36.8101H242.646V29.4524H249.992V36.8101Z" fill="#DCE9FB"/>
<path d="M279.419 36.8101H272.073V29.4524H279.419V36.8101Z" fill="#DCE9FB"/>
<path d="M308.824 36.8101H301.479V29.4524H308.824V36.8101Z" fill="#DCE9FB"/>
<path d="M338.228 36.8101H330.883V29.4524H338.228V36.8101Z" fill="#DCE9FB"/>
<path d="M367.654 36.8101H360.309V29.4524H367.654V36.8101Z" fill="#DCE9FB"/>
<path d="M7.34559 29.4524H0V22.0948H7.34559V29.4524Z" fill="#DCE9FB"/>
<path d="M7.34559 7.45239H0V0.0947671H7.34559V7.45239Z" fill="#DCE9FB"/>
<path d="M22.0585 29.4524H14.7129V22.0948H22.0585V29.4524Z" fill="#DCE9FB"/>
<path d="M36.7723 29.4524H29.4268V22.0948H36.7723V29.4524Z" fill="#DCE9FB"/>
<path d="M51.4628 29.4524H44.1172V22.0948H51.4628V29.4524Z" fill="#DCE9FB"/>
<path d="M66.1766 29.4524H58.8311V22.0948H66.1766V29.4524Z" fill="#DCE9FB"/>
<path d="M80.8895 29.4524H73.5439V22.0948H80.8895V29.4524Z" fill="#DCE9FB"/>
<path d="M95.581 29.4524H88.2354V22.0948H95.581V29.4524Z" fill="#DCE9FB"/>
<path d="M110.295 29.4524H102.949V22.0948H110.295V29.4524Z" fill="#DCE9FB"/>
<path d="M125.008 29.4524H117.662V22.0948H125.008V29.4524Z" fill="#DCE9FB"/>
<path d="M139.699 29.4524H132.354V22.0948H139.699V29.4524Z" fill="#DCE9FB"/>
<path d="M154.412 29.4524H147.066V22.0948H154.412V29.4524Z" fill="#DCE9FB"/>
<path d="M169.125 29.4524H161.779V22.0948H169.125V29.4524Z" fill="#DCE9FB"/>
<path d="M183.816 29.4524H176.471V22.0948H183.816V29.4524Z" fill="#DCE9FB"/>
<path d="M198.529 29.4524H191.184V22.0948H198.529V29.4524Z" fill="#DCE9FB"/>
<path d="M213.242 29.4524H205.896V22.0948H213.242V29.4524Z" fill="#DCE9FB"/>
<path d="M227.934 29.4524H220.588V22.0948H227.934V29.4524Z" fill="#DCE9FB"/>
<path d="M242.647 29.4524H235.302V22.0948H242.647V29.4524Z" fill="#DCE9FB"/>
<path d="M257.36 29.4524H250.015V22.0948H257.36V29.4524Z" fill="#DCE9FB"/>
<path d="M272.052 29.4524H264.706V22.0948H272.052V29.4524Z" fill="#DCE9FB"/>
<path d="M286.765 29.4524H279.419V22.0948H286.765V29.4524Z" fill="#DCE9FB"/>
<path d="M301.478 29.4524H294.133V22.0948H301.478V29.4524Z" fill="#DCE9FB"/>
<path d="M316.17 29.4524H308.824V22.0948H316.17V29.4524Z" fill="#DCE9FB"/>
<path d="M330.883 29.4524H323.537V22.0948H330.883V29.4524Z" fill="#DCE9FB"/>
<path d="M345.596 29.4524H338.25V22.0948H345.596V29.4524Z" fill="#DCE9FB"/>
<path d="M360.287 29.4524H352.941V22.0948H360.287V29.4524Z" fill="#DCE9FB"/>
<path d="M375 29.4524H367.654V22.0948H375V29.4524Z" fill="#DCE9FB"/>
<path d="M375 7.45239H367.654V0.0947671H375V7.45239Z" fill="#DCE9FB"/>
<path d="M375 14.7151H352.941V7.35746H375V14.7151Z" fill="#DCE9FB"/>
<path d="M345.596 14.7151H323.537V7.35746H345.596V14.7151Z" fill="#DCE9FB"/>
<path d="M316.192 14.7151H294.133V7.35746H316.192V14.7151Z" fill="#DCE9FB"/>
<path d="M286.765 14.7151H264.706V7.35746H286.765V14.7151Z" fill="#DCE9FB"/>
<path d="M257.361 14.7151H235.302V7.35746H257.361V14.7151Z" fill="#DCE9FB"/>
<path d="M227.955 14.7151H205.896V7.35746H227.955V14.7151Z" fill="#DCE9FB"/>
<path d="M198.53 14.7151H176.471V7.35746H198.53V14.7151Z" fill="#DCE9FB"/>
<path d="M169.125 14.7151H147.066V7.35746H169.125V14.7151Z" fill="#DCE9FB"/>
<path d="M139.721 14.7151H117.662V7.35746H139.721V14.7151Z" fill="#DCE9FB"/>
<path d="M110.294 14.7151H88.2354V7.35746H110.294V14.7151Z" fill="#DCE9FB"/>
<path d="M80.8899 14.7151H58.8311V7.35746H80.8899V14.7151Z" fill="#DCE9FB"/>
<path d="M51.4856 14.7151H29.4268V7.35746H51.4856V14.7151Z" fill="#DCE9FB"/>
<path d="M22.0588 14.7151H0V7.35746H22.0588V14.7151Z" fill="#DCE9FB"/>
<path d="M360.309 7.35742H338.25V-0.000198841H360.309V7.35742Z" fill="#DCE9FB"/>
<path d="M330.883 7.35742H308.824V-0.000198841H330.883V7.35742Z" fill="#DCE9FB"/>
<path d="M301.478 7.35742H279.419V-0.000198841H301.478V7.35742Z" fill="#DCE9FB"/>
<path d="M272.073 7.35742H250.015V-0.000198841H272.073V7.35742Z" fill="#DCE9FB"/>
<path d="M242.647 7.35742H220.588V-0.000198841H242.647V7.35742Z" fill="#DCE9FB"/>
<path d="M213.242 7.35742H191.184V-0.000198841H213.242V7.35742Z" fill="#DCE9FB"/>
<path d="M183.838 7.35742H161.779V-0.000198841H183.838V7.35742Z" fill="#DCE9FB"/>
<path d="M154.412 7.35742H132.354V-0.000198841H154.412V7.35742Z" fill="#DCE9FB"/>
<path d="M125.008 7.35742H102.949V-0.000198841H125.008V7.35742Z" fill="#DCE9FB"/>
<path d="M95.6028 7.35742H73.5439V-0.000198841H95.6028V7.35742Z" fill="#DCE9FB"/>
<path d="M66.176 7.35742H44.1172V-0.000198841H66.176V7.35742Z" fill="#DCE9FB"/>
<path d="M36.7717 7.35742H14.7129V-0.000198841H36.7717V7.35742Z" fill="#DCE9FB"/>
</svg>
