<svg width="235" height="72" viewBox="0 0 235 72" fill="none" xmlns="http://www.w3.org/2000/svg">
<path fill-rule="evenodd" clip-rule="evenodd" d="M30 8.5V14.838H34.7368V18.007H37.8947V21.1761H41.0526V24.3451L44.2105 24.3451V27.5141L37.8947 27.5141H12.6316V24.3451H18.9474V18.007H22.1053V24.3451H31.5789V18.007H22.1053V14.838H26.8421V8.5H30ZM9.47368 21.1761H12.6316V24.3451H9.47368V21.1761ZM6.31579 21.1761V18.007H9.47368V21.1761H6.31579ZM6.31579 14.838V18.007H3.15789V14.838H6.31579ZM6.31579 14.838V11.669H12.6316V18.007H9.47368V14.838H6.31579ZM3.15789 14.838V11.669H0V14.838H3.15789ZM3.15789 18.007H0V24.3451H6.31579V21.1761H3.15789V18.007ZM12.6316 33.0599V27.5141H9.47368V33.0599H6.31579V36.2289H3.15789V42.5669H6.31579V45.7359H9.47368V52.0739H12.6316V55.243H18.9474V61.581H22.1053V64.75H34.7368V61.581H37.8947V58.412H41.0526V55.243L44.2105 55.243V52.0739L47.3684 52.0739V58.412H50.5263V61.581H47.3684V64.75H50.5263V61.581H53.6842V64.75H60V58.412H56.8421V55.243H60V52.0739H56.8421V55.243H53.6842V52.0739H47.3684V48.9049H50.5263V45.7359L53.6842 45.7359V33.0599H50.5263V30.6831H47.3684V27.5141H37.8947V33.0599L12.6316 33.0599ZM53.6842 58.412H50.5263V55.243H53.6842V58.412ZM53.6842 58.412V61.581H56.8421V58.412H53.6842ZM22.1053 61.581H31.5789V55.243H22.1053V61.581ZM12.6316 52.0739H37.8947V45.7359H12.6316V52.0739ZM6.31579 42.5669V36.2289H15.7895V42.5669H6.31579ZM44.2105 36.2289H22.1053V42.5669H44.2105V36.2289Z" fill="white"/>
<path d="M216.085 20H222.39V26.4H216.085V20ZM216.085 26.4H222.39V32.8H216.085V26.4ZM216.085 32.8H222.39V39.2H216.085V32.8ZM216.085 39.2H222.39V45.6H216.085V39.2ZM216.085 45.6H222.39V52H216.085V45.6ZM222.39 20H228.695V26.4H222.39V20ZM222.39 45.6H228.695V52H222.39V45.6ZM222.39 32.8H228.695V39.2H222.39V32.8ZM228.695 20H235V26.4H228.695V20ZM228.695 45.6H235V52H228.695V45.6Z" fill="white"/>
<path d="M190.394 20H196.699V26.4H190.394V20ZM190.394 26.4H196.699V32.8H190.394V26.4ZM190.394 32.8H196.699V39.2H190.394V32.8ZM190.394 39.2H196.699V45.6H190.394V39.2ZM196.699 45.6H203.004V52H196.699V45.6ZM203.004 39.2H209.309V45.6H203.004V39.2ZM203.004 32.8H209.309V39.2H203.004V32.8ZM203.004 26.4H209.309V32.8H203.004V26.4ZM203.004 20H209.309V26.4H203.004V20Z" fill="white"/>
<path d="M177.301 20H183.606V26.4H177.301V20ZM177.301 26.4H183.606V32.8H177.301V26.4ZM177.301 32.8H183.606V39.2H177.301V32.8ZM177.301 39.2H183.606V45.6H177.301V39.2ZM177.301 45.6H183.606V52H177.301V45.6Z" fill="white"/>
<path d="M151.611 45.6H157.916V52H151.611V45.6ZM151.611 39.2H157.916V45.6H151.611V39.2ZM151.611 32.8H157.916V39.2H151.611V32.8ZM151.611 26.4H157.916V32.8H151.611V26.4ZM151.611 20H157.916V26.4H151.611V20ZM157.916 32.8H164.221V39.2H157.916V32.8ZM164.221 20H170.526V26.4H164.221V20ZM164.221 26.4H170.526V32.8H164.221V26.4ZM164.221 32.8H170.526V39.2H164.221V32.8ZM164.221 39.2H170.526V45.6H164.221V39.2ZM164.221 45.6H170.526V52H164.221V45.6Z" fill="white"/>
<path d="M109.691 20H115.996V26.4H109.691V20ZM109.691 26.4H115.996V32.8H109.691V26.4ZM109.691 32.8H115.996V39.2H109.691V32.8ZM109.691 39.2H115.996V45.6H109.691V39.2ZM109.691 45.6H115.996V52H109.691V45.6ZM115.996 20H122.301V26.4H115.996V20ZM122.301 20H128.606V26.4H122.301V20ZM122.301 26.4H128.606V32.8H122.301V26.4ZM122.301 32.8H128.606V39.2H122.301V32.8ZM115.996 32.8H122.301V39.2H115.996V32.8Z" fill="white"/>
<path d="M96.6099 20H102.915V26.4H96.6099V20ZM90.305 20H96.6099V26.4H90.305V20ZM84 26.4H90.305V32.8H84V26.4ZM84 32.8H90.305V39.2H84V32.8ZM90.305 32.8H96.6099V39.2H90.305V32.8ZM96.6099 32.8H102.915V39.2H96.6099V32.8ZM96.6099 39.2H102.915V45.6H96.6099V39.2ZM96.6099 45.6H102.915V52H96.6099V45.6ZM90.305 45.6H96.6099V52H90.305V45.6ZM84 45.6H90.305V52H84V45.6ZM84 20H90.305V26.4H84V20Z" fill="white"/>
</svg>
