<svg width="61" height="87" viewBox="0 0 61 87" fill="none" xmlns="http://www.w3.org/2000/svg">
<g clip-path="url(#clip0_2082_4648)">
<path d="M39.8906 0.049342C45.1287 0.049342 50.3647 0.049342 55.6027 0.049342C55.8935 0.316468 55.9692 0.668679 55.9791 1.03672C56.007 2.12303 56.0369 3.21132 55.9672 4.29566C55.9034 5.27512 55.521 5.60359 54.5113 5.66097C53.3322 5.72825 53.3243 5.72825 53.3282 6.91745C53.3282 7.77225 53.2924 8.62904 53.3601 9.48582C53.4119 9.88354 53.3103 10.2377 53.0514 10.5444L53.0614 10.5345C52.6531 10.8947 52.1432 10.8848 51.6513 10.8848C51.0637 10.8848 50.8228 11.1499 50.8188 11.7257C50.8128 12.6458 50.8188 13.5659 50.8068 14.486C50.7989 15.0242 50.7471 15.5407 50.293 15.9166C49.9683 16.2016 49.562 16.2214 49.1697 16.2055C48.4228 16.1758 48.1838 16.5419 48.2137 17.2285C48.2535 18.1803 48.1858 19.1281 48.0345 20.0719C47.9827 20.3984 47.9468 20.7229 47.7258 20.992C47.3454 21.362 46.8833 21.5006 46.3675 21.4254C45.6465 21.3205 45.4354 21.6885 45.4294 22.3257C45.4214 23.2418 45.4314 24.156 45.4194 25.0721C45.4135 25.5312 45.4194 25.9942 45.0868 26.3702L45.0968 26.3603C44.6905 26.7145 44.1866 26.7145 43.6967 26.7145C43.1171 26.7145 42.912 26.9855 42.8462 27.5435C42.675 29.0355 42.4121 29.2927 40.9243 29.263C39.6576 29.2373 38.3611 29.5302 37.1242 29.0137C37.0267 28.9346 36.953 28.8356 36.8992 28.7229C36.8195 28.4716 36.7677 28.2163 36.7379 27.9531C36.6004 26.7441 36.5287 26.6274 35.286 26.6492C33.6668 26.6769 32.0495 26.7422 30.4303 26.7046C29.082 26.6729 28.7992 26.3939 28.7673 25.0721C28.7454 24.152 28.7255 23.2319 28.7813 22.3138C28.843 21.3007 29.1517 20.9881 30.1535 20.8417C31.5138 20.6418 31.4879 20.626 31.5576 19.2369C31.6134 18.1051 31.2748 16.9337 31.8583 15.8494C32.181 15.4971 32.6271 15.4734 33.0434 15.5011C33.9277 15.5565 34.1866 15.135 34.1487 14.3238C34.1089 13.4472 34.1328 12.5647 34.1487 11.6861C34.1567 11.2587 34.1906 10.8373 34.5052 10.4989L34.4973 10.5088C34.8976 10.1348 35.4075 10.1467 35.8994 10.1447C36.4909 10.1428 36.7199 9.86573 36.7239 9.29784C36.7319 8.41138 36.7219 7.52492 36.7359 6.64043C36.7438 6.17741 36.7518 5.71637 37.0764 5.33646L37.0665 5.34635C37.4469 5.02382 37.9149 4.99217 38.373 5.01591C39.1995 5.05746 39.4704 4.60632 39.5023 3.87815C39.5381 3.02928 39.5102 2.17844 39.5301 1.32957C39.5401 0.872486 39.5242 0.40551 39.8926 0.0473633L39.8906 0.049342Z" fill="#C1272F"/>
<path d="M5.44301 0.043457C10.685 0.0474145 15.927 0.0533506 21.167 0.057308C21.5434 0.415455 21.5235 0.886388 21.5315 1.34545C21.5514 2.23191 21.5414 3.12035 21.5434 4.00682C21.5434 4.63011 21.7446 4.9566 22.4457 5.012C23.9593 5.13073 24.1007 5.32266 24.1246 6.8245C24.1366 7.61203 24.1147 8.40154 24.1505 9.18906C24.1804 9.82423 24.4731 10.1468 25.1384 10.1487C25.6283 10.1487 26.1441 10.127 26.5305 10.5306H26.5345C26.9328 10.9145 26.9029 11.4171 26.9109 11.9078C26.9268 12.7923 26.9288 13.6768 26.9169 14.5593C26.9069 15.2301 27.1897 15.515 27.8589 15.4932C28.319 15.4794 28.787 15.5071 29.1694 15.8257H29.1615C29.5817 16.3342 29.4921 16.9456 29.4961 17.5313C29.504 18.3881 29.5379 19.2469 29.4742 20.1017C29.4025 21.0752 29.0878 21.3542 28.0959 21.4056C27.0025 21.463 26.9428 21.5224 26.9149 22.6305C26.891 23.5862 26.9348 24.5419 26.887 25.4976C26.8512 26.1882 26.5225 26.574 25.8036 26.6769C24.3058 26.8926 24.3078 26.9104 24.043 28.436C24.025 28.533 23.9991 28.6279 23.9732 28.7249C23.9274 28.8397 23.8577 28.9366 23.7661 29.0197C22.2445 29.5124 20.689 29.2868 19.1455 29.1998C18.3847 29.1562 18.2094 28.5132 18.2313 27.8918C18.2652 26.9896 17.8689 26.6967 16.9905 26.6829C15.9589 26.667 15.7358 26.3643 15.7 25.3472C15.6561 24.1323 15.7776 22.9134 15.6283 21.7044C15.5805 21.6094 15.5187 21.5224 15.443 21.4492C14.7559 21.0574 13.9254 21.5323 13.2463 21.091C12.826 20.7606 12.8599 20.2817 12.8439 19.8286C12.8141 18.9105 12.836 17.9924 12.828 17.0742C12.824 16.5083 12.597 16.2293 12.0055 16.2273C11.5155 16.2254 11.0037 16.2432 10.6093 15.8593L10.6133 15.8652C10.1592 15.3785 10.2608 14.769 10.2488 14.1893C10.2309 13.4057 10.2309 12.6221 10.2429 11.8386C10.2528 11.1895 10.0059 10.867 9.32074 10.8848C8.86465 10.8967 8.39263 10.8927 8.00824 10.5722C7.35698 9.40474 7.77921 8.13639 7.65772 6.91948C7.61987 6.54748 7.81705 6.12206 7.40876 5.83515C4.85747 5.65508 4.84552 5.37015 4.86145 2.90467C4.86543 2.31106 4.84552 1.71943 4.88137 1.12581C4.90925 0.686538 4.98493 0.267051 5.44102 0.0454357L5.44301 0.043457Z" fill="#9D252E"/>
<path d="M23.8264 28.7129C23.8105 28.517 23.7846 28.3211 23.7806 28.1232C23.7487 26.4175 23.8125 26.3147 25.4834 26.3562C26.2901 26.376 26.6147 26.1583 26.5589 25.3154C26.4912 24.3003 26.541 23.2773 26.543 22.2583C26.547 21.1502 26.7561 20.9563 27.8814 21.0256C28.7192 21.077 29.1394 20.6918 29.1421 19.87C29.1461 18.5225 29.154 17.173 29.16 15.8255C30.0085 15.8334 30.8569 15.8413 31.7073 15.8473C31.789 15.782 31.8667 15.7919 31.9384 15.8651C31.9284 17.1829 31.9145 18.5007 31.9085 19.8205C31.9025 20.9622 31.7292 21.1443 30.604 21.1819C29.6294 21.2149 29.1421 21.7102 29.1421 22.6679C29.1421 23.59 29.1759 24.516 29.1301 25.4361C29.0963 26.1168 29.3213 26.3681 30.0304 26.3522C31.9543 26.3127 33.8782 26.3364 35.8041 26.3404C37.1047 26.3443 37.1047 26.3483 37.1027 27.6226C37.1027 27.9847 37.0927 28.3468 37.0887 28.7109C36.3439 28.9543 35.9177 28.5526 35.7464 27.9293C35.5572 27.2407 35.1768 27.1279 34.5653 27.2902C33.7866 27.4959 32.984 27.4267 32.1913 27.4386C31.7013 27.4465 31.3249 27.492 31.1736 28.1113C31.0102 28.7782 30.4745 29.0176 29.7754 28.8593C29.2257 28.7346 28.6621 28.6436 28.208 28.2815C27.8236 27.9748 27.5886 27.5335 28.1483 27.2625C28.7199 26.9854 28.6123 26.7757 28.2936 26.4136C28.0427 26.1287 28.0606 25.7567 28.0686 25.4757C27.8117 26.1306 27.8635 26.8944 27.8017 27.6443C27.736 28.4437 27.3576 28.6673 26.6446 28.2795C26.4693 28.1845 26.3259 28.044 26.1566 27.9412C25.585 27.5949 25.0493 27.2644 24.7465 28.2637C24.639 28.6179 24.3303 28.9602 23.8284 28.7129H23.8264Z" fill="#A3764A"/>
<path d="M37.1342 28.885C38.5821 28.8969 40.03 28.885 41.478 28.9286C42.191 28.9484 42.5315 28.6971 42.4678 27.9649C42.4419 27.6721 42.4857 27.3753 42.4638 27.0824C42.422 26.5284 42.6729 26.3167 43.2187 26.3424C43.842 26.3721 44.4694 26.3582 45.0948 26.3642C45.0888 27.87 45.1008 29.3777 45.0689 30.8835C45.0569 31.4376 45.2601 31.6117 45.8118 31.6315C47.7397 31.7027 47.7417 31.7205 47.7178 33.6518C47.7158 33.8477 47.6859 34.0416 47.668 34.2355C47.6282 34.283 47.5903 34.3285 47.5505 34.376C46.6821 34.8113 45.76 34.5402 44.8618 34.5837C44.6327 34.6312 44.4017 34.6233 44.1707 34.6213C42.8283 34.6055 42.0755 34.7282 42.0934 32.8009C42.0994 32.1855 41.7687 31.9125 41.1812 31.8788C40.4881 31.8393 39.797 31.8412 39.1039 31.9164C37.1202 32.1341 36.5606 31.582 36.7637 29.6192C36.7817 29.4549 36.8175 29.2966 36.8832 29.1443C36.939 29.0335 37.0227 28.9464 37.1302 28.885H37.1342Z" fill="#A2774B"/>
<path d="M23.8265 28.7131C24.2806 28.5489 24.6829 28.349 24.5933 27.7515C24.5017 27.142 24.8323 27.0708 25.3103 27.2232C25.7504 27.3636 26.1965 27.4863 26.5471 27.8227C26.7701 28.0364 26.9474 28.3807 27.3736 28.1987C27.8476 27.9949 27.5728 27.6506 27.5509 27.3538C27.4812 26.4218 27.5309 25.5234 28.2937 24.6924C28.3396 25.5314 28.3037 26.2694 29.0565 26.8235C29.5664 27.1994 29.0984 27.4131 28.6742 27.3854C28.3874 27.3656 28.1026 27.3399 28.0448 27.6743C27.999 27.9474 28.3097 28.0305 28.4889 28.1492C28.9988 28.4816 29.6062 28.5924 30.1838 28.6557C30.6041 28.7032 31.1119 28.3827 30.9187 27.8741C30.6538 27.1776 31.1677 27.1776 31.4943 27.1638C32.7471 27.1084 34.0058 27.1678 35.2466 26.8868C35.6768 26.7898 36.0572 27.2073 36.0014 27.4863C35.8142 28.446 36.569 28.448 37.0868 28.7111C37.1028 28.7685 37.1187 28.8259 37.1327 28.8833C37.1088 28.9051 37.0849 28.9288 37.059 28.9506C36.6208 29.3542 36.0691 29.2751 35.5473 29.2771C32.2989 29.2889 29.0526 29.2771 25.8042 29.285C24.4539 29.2889 24.4539 29.2968 24.3105 30.5988C24.1989 31.61 23.9818 31.7762 22.9422 31.9048C22.1097 32.0077 21.2891 31.883 20.4646 31.8909C19.2318 31.9008 19.0565 32.0848 18.939 33.276C18.8374 34.3247 18.5925 34.5622 17.4951 34.6117C16.4694 34.6572 15.4417 34.6077 14.414 34.6413C13.8982 34.6572 13.6592 34.8709 13.5875 35.4031C13.3445 37.1998 12.9999 37.4135 11.09 37.0653C10.5144 36.7704 10.7793 36.3292 11.084 36.159C11.9185 35.7 12.5658 35.0984 13.0039 34.2674C13.4839 33.6619 13.1891 32.9614 13.225 32.3084C13.2529 31.8177 13.4003 31.6278 13.9081 31.6119C14.5833 31.5902 15.2804 31.7683 15.9376 31.4714C16.312 30.9491 16.7801 31.0124 17.3895 31.0183C18.7558 31.0282 20.2157 31.3943 21.4784 30.5177C21.9265 30.2071 22.2013 30.6345 22.5459 30.7393C22.992 30.1358 22.8825 29.1999 23.7588 28.9209L23.8285 28.7111L23.8265 28.7131Z" fill="#A27747"/>
<path d="M2.66874 63.3247C2.02544 63.0912 1.35824 63.2158 0.702987 63.2099C0.201094 63.2059 0.00192939 63.0377 0.00392103 62.5213C0.0178625 58.5797 0.0178625 54.6401 0.00392103 50.6985C0.00192939 50.1544 0.248893 50.0317 0.728879 50.0495C1.35625 50.0712 1.9856 50.0495 2.61297 50.0495C2.66475 50.0891 2.71455 50.1266 2.76633 50.1642C2.95553 50.4116 3.01528 50.7044 3.01528 51.0012C3.01727 54.9468 3.12482 58.8923 2.9635 62.8379C2.92765 62.9626 2.87587 63.0793 2.81014 63.1921C2.76434 63.2376 2.71853 63.2831 2.67073 63.3266L2.66874 63.3247Z" fill="#A1774A"/>
<path d="M37.1304 84.3402C37.0109 85.1732 37.5128 86.2952 36.8814 86.776C36.3496 87.1797 35.2881 86.9125 34.4616 86.9145C31.3108 86.9204 28.158 86.8789 25.0092 86.9402C24.0592 86.958 23.7684 86.6395 23.88 85.7649C23.9298 85.3751 23.9158 84.9774 23.9318 84.5816C23.8501 84.457 23.8581 84.3402 23.9596 84.2314C24.1727 84.0454 24.4376 84.0236 24.7025 84.0236C28.5882 84.0058 32.4739 84.0216 36.3576 84.0098C36.5229 84.0098 36.6862 84.0197 36.8436 84.083C36.9651 84.1404 37.0607 84.2254 37.1324 84.3382L37.1304 84.3402Z" fill="#A27749"/>
<path d="M26.5305 10.5304C26.0346 10.5304 25.5287 10.4711 25.0427 10.5423C24.0091 10.6947 23.778 10.1248 23.78 9.28583C23.78 8.26679 23.7521 7.24578 23.786 6.22674C23.8059 5.61334 23.6346 5.31851 22.9555 5.3482C20.9638 5.43526 21.1849 5.40953 21.175 3.51195C21.169 2.36034 21.171 1.20873 21.167 0.0571198C22.9847 -0.0286244 23.8949 0.828158 23.8975 2.62747C23.8975 2.76004 23.8975 2.89063 23.8975 3.02321C23.9035 3.71378 23.6705 4.54484 23.9792 5.05535C24.3417 5.65687 25.2558 5.26113 25.925 5.29477C26.5145 5.32643 26.5325 5.64896 26.5305 6.07834C26.5245 7.56237 26.5305 9.04641 26.5305 10.5285V10.5304Z" fill="#A1764B"/>
<path d="M47.6693 34.2358C48.2946 34.2358 48.924 34.2754 49.5434 34.222C50.2624 34.1586 50.4217 34.4673 50.4177 35.1262C50.4078 36.8101 50.4377 36.8339 52.1983 36.8358C52.8197 36.8358 53.0666 36.9882 53.0606 37.655C53.0547 38.2862 52.8356 38.959 53.2379 39.5605C53.4968 39.9088 53.8434 39.6931 54.1521 39.6971C55.1718 39.7129 55.7434 40.5558 55.1598 41.3433C54.4409 42.3129 54.5424 43.1242 55.2375 44.0087C55.4387 44.2639 55.6816 44.632 55.2275 44.9367C54.4747 45.1524 53.7278 45.2177 53.0029 44.8338C52.5229 44.2342 52.7161 43.5219 52.6723 42.8511C52.6544 42.5899 52.6783 42.3287 52.6683 42.0676C52.6444 41.4502 52.8475 40.7656 52.5269 40.2333C52.1445 39.5981 51.3737 39.984 50.7882 39.8435C50.6249 39.8039 50.4775 39.7426 50.352 39.6278C50.0174 39.1707 50.0712 38.6325 50.0632 38.12C50.0553 37.5225 49.8222 37.196 49.1909 37.2118C49.0594 37.2158 49.2247 37.2197 49.0933 37.2078C47.2789 37.0416 46.7252 35.9019 47.6553 34.2516L47.6673 34.2358H47.6693Z" fill="#A27949"/>
<path d="M18.5913 81.7249C17.1055 81.715 15.6198 81.6754 14.136 81.7111C13.4389 81.7289 13.1521 81.4934 13.2418 80.8088C13.2537 80.7118 13.2437 80.6129 13.2418 80.5139C13.2198 78.8241 13.4748 78.9844 11.7002 79.0358C10.8538 79.0596 10.4674 78.8657 10.5909 77.9614C10.6626 77.4469 10.6108 76.9147 10.6148 76.3903C10.6586 76.3448 10.7004 76.3013 10.7442 76.2557C11.5927 75.9391 12.4331 75.8996 13.2597 76.3309C13.5385 76.6554 13.5325 77.0551 13.5644 77.4469C13.654 78.5352 13.6879 78.5708 14.8132 78.5966C15.7054 78.6163 16.5977 78.5886 17.4899 78.6104C17.8863 78.6203 18.2866 78.6342 18.6232 78.8934C19.1071 79.7759 19.0334 80.6801 18.7267 81.5943C18.6809 81.6378 18.6371 81.6814 18.5913 81.7249Z" fill="#A27949"/>
<path d="M23.7562 28.9229C23.4654 29.4908 23.0731 30.0152 22.9974 30.6701C22.9735 30.87 23.2344 31.1391 22.8799 31.2459C22.5792 31.337 22.3063 31.3073 22.1509 30.9452C21.9777 30.5475 21.7427 30.3615 21.5535 30.9452C21.4081 31.3904 21.0376 31.2776 20.7269 31.2855C19.7729 31.3093 18.813 31.2103 17.8769 31.4933C17.7275 31.5388 17.4606 31.5803 17.4108 31.5111C16.9229 30.8086 16.429 31.329 15.937 31.4735C15.8315 29.7698 16.1083 28.0543 15.7877 26.3565C15.6104 26.1527 15.473 25.9272 15.4829 25.6501C15.5267 24.4055 15.475 23.1609 15.5128 21.9163C15.5208 21.6512 15.5586 21.392 15.7956 21.2139C16.1939 22.4961 15.9709 23.8139 15.945 25.106C15.9251 26.1033 16.1999 26.4337 17.2177 26.3704C18.572 26.2873 18.6377 26.3585 18.56 27.7515C18.5043 28.729 18.8568 28.9922 19.7928 28.9407C21.1113 28.8675 22.4377 28.9229 23.7602 28.9229H23.7562Z" fill="#A2754A"/>
<path d="M2.60938 50.0473C2.61933 48.5692 2.65518 47.0911 2.62531 45.6149C2.61336 44.9976 2.76671 44.7502 3.44586 44.7463C5.27419 44.7384 5.27419 44.7067 5.27419 42.8546C5.27419 41.9998 5.30805 41.145 5.26423 40.2942C5.23038 39.6293 5.51518 39.475 6.13458 39.4433C6.75199 39.4117 7.465 39.7876 7.98482 39.1426C8.28356 39.1485 8.58828 39.1446 8.68189 39.5225C8.23377 40.6227 8.41302 41.7782 8.39709 42.912C8.3692 44.96 8.33734 45.0095 6.23018 45.1183C5.99915 45.1302 5.77011 45.146 5.54505 45.1836C5.34987 45.2073 5.14872 45.241 4.95553 45.2192C4.25646 45.146 3.90793 45.3795 3.9856 46.1393C4.01747 46.4599 3.85017 46.7804 3.69084 47.0673C3.41798 47.562 3.3662 48.0052 3.6749 48.5395C4.14095 49.3488 3.40006 49.6931 2.93003 50.1205C2.83642 50.1581 2.7468 50.1482 2.66315 50.0947L2.60938 50.0492V50.0473Z" fill="#A2794B"/>
<path d="M59.0023 50.091C60.3327 50.0144 60.9979 50.6153 60.9979 51.8936C60.9979 55.2455 60.9999 58.5974 60.9999 61.9474C60.9999 62.7798 60.5651 63.1966 59.6954 63.1979C59.3329 63.1979 58.9685 63.1762 58.606 63.1643C58.4128 62.3154 58.6518 61.9514 59.4843 62.0503C60.3307 62.1512 60.5598 61.8089 60.4941 61.057C60.3746 59.6541 60.5259 58.2432 60.3507 56.8384C59.8727 58.1107 59.6954 59.3869 60.2869 60.683C60.4383 61.0154 60.6454 61.3617 60.3029 61.6743C59.9583 61.989 59.5301 62.0444 59.0999 61.8524C58.6836 61.6684 58.5323 61.3221 58.5841 60.8848C58.7633 59.3494 58.6378 57.8218 58.5801 56.2823C58.5084 54.3986 58.3311 52.4852 58.7235 50.6015C58.7653 50.3996 58.8709 50.2394 59.0043 50.091H59.0023Z" fill="#A27947"/>
<path d="M5.44347 0.043698C5.04116 1.65635 5.30605 3.29076 5.29011 4.91529C5.28613 5.27937 5.64064 5.34269 5.95333 5.3506C6.57871 5.36445 7.20408 5.3783 7.82946 5.39216C7.94099 6.29049 7.62432 6.78913 6.7699 6.68228C5.794 6.5596 5.71633 7.01866 5.76612 7.73495C5.78404 7.99812 5.78404 8.26327 5.76811 8.52446C5.72827 9.21107 6.02503 9.55339 6.73206 9.61473C7.24192 9.66024 7.83742 9.68002 7.90912 10.4102C7.87925 10.4497 7.84738 10.4893 7.81751 10.5289C6.12063 10.5711 5.27219 9.74862 5.27219 8.06144C5.27219 7.40253 5.24032 6.74362 5.28215 6.08866C5.32198 5.47724 5.08099 5.30905 4.4835 5.30114C2.63526 5.27739 2.63525 5.25365 2.63525 3.41542C2.63525 2.49334 2.65318 1.57324 2.63326 0.653141C2.62331 0.196059 2.77666 -0.00576975 3.25864 0.0140174C3.98559 0.0456768 4.71453 0.0357832 5.44148 0.043698H5.44347Z" fill="#A2774D"/>
<path d="M15.7942 21.2135C15.7922 22.927 15.7903 24.6426 15.7863 26.3561C14.0881 26.3839 13.239 25.5627 13.239 23.8927C13.239 23.7284 13.2429 23.5642 13.239 23.4C13.223 22.7133 13.4361 21.8843 13.1254 21.3757C12.7689 20.794 11.8508 21.1403 11.1836 21.0868C10.5821 21.0394 10.6 20.701 10.602 20.2914C10.608 18.8133 10.61 17.3352 10.612 15.8591C13.221 15.8235 13.1932 15.8235 13.235 18.4571C13.2489 19.3159 12.982 20.2083 13.4262 21.0394C13.6572 21.1798 13.9599 20.9998 14.2368 21.2511C13.4162 22.189 13.7707 23.3248 13.7508 24.4051C13.7409 24.9117 14.0715 25.1986 14.5714 25.2085C15.1031 25.2204 15.2187 24.8187 15.2306 24.3992C15.2465 23.8412 15.2306 23.2773 15.2804 22.7232C15.3461 22.003 14.6769 21.7695 14.3125 21.2135C14.8562 21.0572 15.3142 21.0275 15.7823 21.1957L15.7962 21.2095L15.7942 21.2135Z" fill="#A2764C"/>
<path d="M58.4254 63.1824C58.4055 64.6921 58.3616 66.2019 58.3796 67.7116C58.3855 68.3072 58.1983 68.5091 57.5889 68.5071C56.9476 68.5071 56.2684 68.3152 55.659 68.6951C55.3702 69.1047 55.0695 69.5004 54.4799 69.4351C53.8127 69.3599 53.5937 69.7458 53.5698 70.3156C53.5359 71.1051 53.5379 71.8927 53.6116 72.6802C53.6514 73.1135 53.6753 73.5607 53.0957 73.6973C52.9842 73.6517 52.9006 73.5785 52.8428 73.4737C52.6377 72.0767 52.7173 70.6698 52.6974 69.2669C52.6875 68.5012 53.1615 68.2083 53.9223 68.1826C55.3124 68.1351 55.3602 68.054 55.3164 66.6887C55.2885 65.8042 55.3304 64.9217 55.3264 64.0372C55.3244 63.2853 55.7108 62.8737 56.4776 62.8638C57.1029 62.8559 57.7283 62.8044 58.3537 62.8777C58.4811 62.9568 58.505 63.0577 58.4254 63.1844V63.1824Z" fill="#A27947"/>
<path d="M47.8687 78.9998C47.5919 79.5281 47.6954 80.102 47.7333 80.6461C47.787 81.4396 47.554 81.768 46.6956 81.7126C45.6102 81.6414 44.5148 81.6869 43.4253 81.7027C43.0788 81.7087 42.6864 81.5781 42.4156 81.9323C42.1208 82.2746 41.7105 82.2528 41.3162 82.2627C40.655 82.2825 39.9937 82.2627 39.3325 82.2726C38.0399 82.2904 38.036 82.2924 37.779 83.5885C37.7173 83.8971 37.6117 84.1524 37.305 84.285C37.2532 84.3265 37.1955 84.3443 37.1298 84.3404L37.084 84.2949C36.584 83.5667 36.7832 82.7673 36.9087 82.0055C36.9903 81.5088 37.5022 81.4237 37.9404 81.398C38.8007 81.3486 39.6611 81.3387 40.5235 81.4158C41.9794 81.5445 42.1387 81.3921 42.1845 79.9813C42.2204 78.8732 42.4275 78.6793 43.5528 78.6733C44.3475 78.6694 45.1461 78.7189 45.9388 78.6377C47.2035 78.5091 47.1975 78.5051 47.3628 77.2546C47.4106 76.9024 47.2812 76.4097 47.9025 76.4077C48.3805 77.2803 48.3885 78.147 47.8667 79.0038L47.8687 78.9998Z" fill="#A27A4B"/>
<path d="M53.0518 9.51533C53.0439 8.42902 53.0638 7.34073 53.016 6.25441C52.9861 5.56384 53.243 5.27495 53.9341 5.35608C54.1293 5.37982 54.3325 5.34025 54.5296 5.36004C55.3263 5.43918 55.6828 5.1404 55.6469 4.29747C55.5892 2.88269 55.6111 1.46593 55.6011 0.0491729C57.4441 -0.0326138 58.3649 0.845275 58.3635 2.68284C58.3635 3.47234 58.6006 4.41223 58.252 5.0098C57.8378 5.72016 56.7921 5.17602 56.0413 5.33431C55.8919 5.36597 55.7644 5.48865 55.627 5.56978C55.4279 5.7538 55.1909 5.83691 54.926 5.89231C53.7768 6.13965 53.6234 6.33158 53.5776 7.52673C53.5637 7.91653 53.6055 8.3103 53.5438 8.69614C53.492 9.02263 53.5657 9.45201 53.0518 9.51335V9.51533Z" fill="#A3794D"/>
<path d="M55.6325 44.7285C56.1264 44.7384 56.6184 44.7562 57.1123 44.7562C58.365 44.7562 58.361 44.7542 58.369 46.0444C58.379 47.3839 58.3989 48.7255 58.4148 50.0651C58.4766 50.1917 58.4447 50.2867 58.3172 50.352C57.6918 50.4094 57.0645 50.3659 56.4371 50.358C56.0189 50.352 55.6564 50.2293 55.4353 49.8395C55.1724 48.1794 55.035 46.5212 55.509 44.871C55.5488 44.8235 55.5907 44.776 55.6325 44.7285Z" fill="#A37A4D"/>
<path d="M31.9381 15.8672C31.8604 15.8613 31.7847 15.8554 31.707 15.8494C31.8843 14.6365 31.7628 13.4156 31.7867 12.1987C31.8245 10.2774 31.6035 10.5742 33.4079 10.5406C33.7724 10.5346 34.1368 10.5148 34.5013 10.501C34.5013 11.9138 34.4376 13.3325 34.5192 14.7414C34.575 15.6991 34.2026 15.9602 33.3262 15.8653C32.8682 15.8158 32.4001 15.8653 31.9381 15.8692V15.8672Z" fill="#A3774B"/>
<path d="M39.8906 0.049301C39.8846 1.32557 39.8906 2.59986 39.8667 3.87613C39.8388 5.28299 39.7491 5.35818 38.349 5.35818C37.9208 5.35818 37.4926 5.35225 37.0664 5.34829C37.0843 3.84843 37.1281 2.35054 37.1082 0.850679C37.1003 0.233321 37.2576 -0.0496346 37.9268 0.00774808C38.5781 0.063152 39.2373 0.0394075 39.8925 0.049301H39.8906Z" fill="#A2764C"/>
<path d="M47.6622 21.0275C47.6841 19.5613 47.9391 18.105 47.8315 16.6348C47.7877 16.0293 48.0605 15.8156 48.6441 15.8473C49.1679 15.875 49.6957 15.8492 50.2215 15.8473C50.2992 15.7701 50.3728 15.7701 50.4406 15.8611C50.4306 17.3273 50.3868 18.7936 50.4226 20.2578C50.4406 20.9563 50.1836 21.1581 49.5125 21.1443C48.909 21.1324 48.2717 20.8653 47.6921 21.263C47.6323 21.2175 47.6084 21.166 47.6184 21.1126C47.6304 21.0552 47.6443 21.0275 47.6622 21.0275Z" fill="#A2784C"/>
<path d="M50.4398 15.8615C50.3661 15.8575 50.2944 15.8516 50.2207 15.8476C50.6628 14.601 50.3661 13.3149 50.4159 12.0485C50.4836 10.3706 50.2346 10.5328 51.9694 10.5229C52.3318 10.5209 52.6963 10.5308 53.0588 10.5348C53.0528 11.9515 52.9851 13.3723 53.0608 14.7831C53.1106 15.6972 52.778 15.9485 51.9295 15.8496C51.4396 15.7922 50.9377 15.8516 50.4398 15.8595V15.8615Z" fill="#A3764B"/>
<path d="M23.9699 84.3169C23.9559 84.406 23.944 84.493 23.93 84.5821C23.6751 84.22 23.2887 84.3169 22.9382 84.313C21.7233 84.3031 20.5064 84.2853 19.2915 84.3149C18.7338 84.3288 18.5168 84.1349 18.5526 83.5828C18.5904 82.9655 18.5805 82.3441 18.5904 81.7228L18.5805 81.7327C18.7777 81.5447 19.0127 81.4122 19.2835 81.3983C20.6737 81.3231 22.0619 81.2954 23.4501 81.4181C23.6492 81.4359 23.8324 81.525 23.9898 81.6516C24.3722 82.542 24.408 83.4305 23.9659 84.3149L23.9699 84.3169Z" fill="#A2764A"/>
<path d="M8.04638 10.5066C9.7592 10.537 10.6163 11.4017 10.6176 13.1007C10.6176 14.0208 10.6176 14.9429 10.6176 15.863C10.1535 15.8551 9.69148 15.8412 9.22743 15.8393C7.9707 15.8353 8.00058 15.8353 7.95676 14.5432C7.91095 13.2036 8.15194 11.8561 7.81934 10.5264L7.84523 10.4967C7.91493 10.4077 7.98265 10.4097 8.04638 10.5047V10.5066Z" fill="#A1764B"/>
<path d="M29.1703 15.8254C28.7102 15.8333 28.2502 15.8451 27.7901 15.8451C26.947 15.8465 26.5254 15.4125 26.5254 14.5432C26.5274 13.2036 26.5314 11.866 26.5353 10.5264C26.6011 10.5264 26.6668 10.5303 26.7325 10.5303C28.3404 10.5396 29.1504 11.3271 29.1623 12.8929C29.1683 13.8704 29.1683 14.8479 29.1703 15.8254Z" fill="#A77D56"/>
<path d="M47.6625 21.0276C47.6724 21.1067 47.6824 21.1859 47.6923 21.265C47.7003 22.6679 47.6704 24.0728 47.7342 25.4718C47.768 26.2375 47.4653 26.4394 46.7603 26.376C46.2066 26.3266 45.6449 26.3721 45.0873 26.376C45.0833 24.896 45.1032 23.4139 45.0634 21.9338C45.0415 21.1562 45.4298 20.8811 46.097 21.0513C46.6428 21.1898 47.1427 21.0375 47.6645 21.0296L47.6625 21.0276Z" fill="#A2764C"/>
<path d="M58.3988 50.2969C58.4047 50.2198 58.4087 50.1426 58.4147 50.0654C58.6099 50.0753 58.807 50.0832 59.0022 50.0931C58.7573 51.8423 58.8389 53.6053 58.825 55.3605C58.813 56.7 59.0899 58.0357 59.0042 59.3852C58.9724 59.8739 59.062 60.3706 58.8768 60.8494C58.7612 61.1521 58.807 61.4173 59.1277 61.6092C59.5081 61.8388 59.8527 61.6726 60.1594 61.5083C60.49 61.3322 60.2191 61.1343 60.0897 60.9582C59.3826 59.9887 59.4205 57.0958 60.1614 56.1895C60.259 56.0708 60.4203 55.9402 60.5577 55.9343C60.7529 55.9283 60.7887 56.1341 60.7867 56.3023C60.7768 58.1683 60.8027 60.0362 60.729 61.9001C60.7091 62.4264 60.1972 62.7173 59.6933 62.4482C58.7911 61.9614 58.6656 62.4779 58.6019 63.1665L58.5123 63.1942L58.4207 63.1823C58.4107 63.0933 58.3988 63.0042 58.3888 62.9132C58.0462 62.6085 58.114 62.193 58.112 61.8091C58.102 58.3384 58.102 54.8678 58.112 51.3971C58.112 51.0132 58.0502 50.5997 58.3948 50.2969H58.3988Z" fill="#A27746"/>
<path d="M37.0718 5.33623C37.0817 6.77871 37.0718 8.22317 37.1116 9.66565C37.1295 10.287 36.9423 10.5838 36.2751 10.5343C35.6836 10.4908 35.0881 10.5145 34.4926 10.5086C34.4886 9.06215 34.5225 7.61373 34.4687 6.16927C34.4408 5.44902 34.7216 5.24719 35.3868 5.30259C35.9465 5.35008 36.5101 5.32832 37.0737 5.33623H37.0718Z" fill="#A2764A"/>
<path d="M37.3057 84.2852C37.5028 83.9587 37.5208 83.6045 37.4849 83.2384C37.3893 82.2867 37.6761 81.9503 38.652 81.9365C39.9068 81.9206 41.1615 81.9325 42.4162 81.9325C42.4932 83.5155 41.751 84.3083 40.1896 84.3109C39.2296 84.3109 38.2676 84.2951 37.3077 84.2852H37.3057Z" fill="#A1774C"/>
<path d="M53.0509 9.51525C53.3894 9.03442 53.2281 8.4883 53.2162 7.97977C53.1664 5.96742 53.4711 5.38963 55.626 5.57167C55.626 7.02207 55.628 8.47444 55.63 9.92484C55.3731 10.2513 54.9429 10.285 54.6243 10.5066C54.0985 10.5204 53.5727 10.5323 53.0469 10.5462C53.0469 10.2019 53.0489 9.85954 53.0509 9.51525Z" fill="#A2764A"/>
<path d="M8.63424 39.4119C8.38329 39.402 8.13633 39.3901 7.98496 39.1428C7.977 38.9785 7.96107 38.8143 7.96107 38.6501C7.95907 36.891 7.95907 36.8732 9.71769 36.8633C10.3012 36.8613 10.6179 36.7841 10.6259 36.0738C10.6458 34.2079 10.6816 34.2079 12.6076 34.2435C12.739 34.2455 12.8725 34.2613 13.0039 34.2692C13.1214 35.403 12.4502 35.872 11.4723 36.149C11.1815 36.2321 10.9585 36.5328 10.827 36.8415C11.066 37.263 11.0083 37.724 10.9904 38.1732C10.9286 39.7166 10.0304 40.1855 8.63822 39.4099L8.63424 39.4119Z" fill="#A17748"/>
<path d="M53.2293 73.6179C53.4643 72.583 53.1496 71.5501 53.2113 70.5093C53.287 69.2192 53.3209 69.142 54.5995 69.1994C55.0297 69.2192 55.2806 68.8175 55.6551 68.6929C55.6511 70.3372 55.7626 71.9815 55.5893 73.6238C54.8026 73.7782 54.014 73.792 53.2273 73.6159L53.2293 73.6179Z" fill="#A17749"/>
<path d="M5.03268 68.4514C3.42742 68.5583 2.63076 67.8321 2.64271 66.2729C2.65068 65.2895 2.66064 64.308 2.6686 63.3246C3.65845 63.0377 4.49693 63.5007 5.05857 64.1458C5.59432 64.7572 5.40711 65.6001 5.01077 66.358C4.66024 67.0268 4.97691 67.751 5.03268 68.4495V68.4514Z" fill="#A1774A"/>
<path d="M8.00507 73.8394C7.8079 73.8216 7.60874 73.7939 7.41156 73.7899C5.27055 73.7444 5.27652 73.7444 5.27055 71.6588C5.26657 70.6042 5.24068 69.5495 5.22474 68.4969C5.15503 68.4118 5.16101 68.3287 5.2347 68.2495C5.39005 68.2119 5.51751 68.2693 5.639 68.3564C5.78439 68.4988 5.95966 68.58 6.1648 68.5899C7.01523 68.6294 7.32393 69.225 7.32194 69.9116C7.31796 70.6814 7.02319 71.4313 6.93158 72.205C6.9037 72.4404 6.63482 72.5354 6.42371 72.668C6.65474 72.9173 6.93158 73.1726 7.25622 73.0617C7.64459 72.9292 7.43945 72.4879 7.54102 72.201C7.65853 71.8686 7.29406 71.0989 8.20225 71.3996C8.44124 72.1852 8.49701 72.9628 8.1425 73.7305C8.09669 73.7662 8.05088 73.8018 8.00308 73.8374L8.00507 73.8394Z" fill="#A2794B"/>
<path d="M10.6169 76.3903C10.5512 76.3942 10.4855 76.4021 10.4197 76.4021C8.70028 76.4021 7.89499 75.5473 8.00387 73.8377L8.02577 73.8239C8.68302 73.2817 9.43984 73.3965 10.1807 73.5409C10.7583 73.6537 10.9395 74.1187 10.9754 74.6371C11.0172 75.2525 11.0889 75.8817 10.6129 76.3962L10.6189 76.3903H10.6169Z" fill="#A07848"/>
<path d="M47.8695 78.9997C47.8635 78.1567 47.8575 77.3158 47.8516 76.4729C48.6064 75.8436 49.417 76.0395 50.2336 76.3165C50.4088 77.1911 50.3969 78.0657 50.2415 78.9403C49.4528 79.0848 48.6602 78.9997 47.8675 78.9997H47.8695Z" fill="#A1784A"/>
<path d="M53.0376 73.8276L53.0077 74.6191C52.7568 76.5048 53.173 76.2713 51.0061 76.2891C50.783 76.2891 50.5421 76.3445 50.3489 76.1664C49.9983 75.5234 50.1557 74.8407 50.2134 74.1719C50.2413 73.8533 50.4723 73.604 50.781 73.5862C51.4841 73.5466 52.2031 73.3428 52.8862 73.701C52.936 73.7425 52.9858 73.7841 53.0356 73.8276H53.0376Z" fill="#A1784A"/>
<path d="M55.4191 44.7308C55.1702 44.1332 54.5249 43.8206 54.3576 43.1241C54.1943 42.4494 54.2719 41.8993 54.746 41.4303C55.0507 41.1276 55.2817 40.8624 55.0347 40.4232C54.7898 39.9878 54.4771 39.6732 53.9314 39.8632C53.5808 39.9839 53.3618 39.9067 53.2383 39.5604C54.8661 39.5222 55.6774 40.2926 55.6721 41.8716C55.6681 42.8253 55.6462 43.7771 55.6322 44.7288L55.6183 44.7387C55.5486 44.81 55.4829 44.804 55.4191 44.7308Z" fill="#9F774A"/>
<path d="M5.24818 68.2633C5.24021 68.3405 5.23225 68.4196 5.22428 68.4968C5.16055 68.481 5.09681 68.4671 5.03308 68.4513C4.23842 67.8794 4.35792 66.9494 4.6228 66.3459C5.38959 64.5968 5.12271 63.9042 3.22467 63.5263C3.03347 63.4887 2.85423 63.3957 2.669 63.3264C2.66502 63.273 2.66502 63.2196 2.669 63.1662C3.36209 62.5824 4.15278 62.6616 4.89765 62.9564C5.64252 63.2512 5.60667 63.9873 5.62062 64.6403C5.64053 65.4892 5.64452 66.338 5.61464 67.1869C5.6007 67.5767 5.58277 67.9784 5.24619 68.2633H5.24818Z" fill="#A27747"/>
<path d="M50.4165 76.1863C50.5141 76.1883 50.6117 76.1922 50.7093 76.1922C51.9016 76.2015 52.667 75.6771 53.0056 74.6191C53.0156 74.6844 53.0315 74.7478 53.0335 74.8131C53.0833 76.3921 53.0793 76.4514 51.5219 76.3802C50.5858 76.3367 50.3249 76.6671 50.3886 77.5358C50.4205 77.9948 50.5898 78.5053 50.2432 78.9407C50.2432 78.0977 50.2412 77.2548 50.2392 76.4119C50.1556 76.2239 50.2552 76.1823 50.4185 76.1863H50.4165Z" fill="#A27A4B"/>
<path d="M53.2283 73.6177C54.015 73.6197 54.8037 73.6216 55.5904 73.6256C54.7619 73.9857 53.8796 73.6632 53.0351 73.8294L53.0013 73.7938C52.9654 73.7206 52.9794 73.6632 53.055 73.6256C53.1128 73.6256 53.1705 73.6236 53.2283 73.6197V73.6177Z" fill="#A1784A"/>
<path d="M54.625 10.507C54.8401 10.1092 55.1568 9.88169 55.6308 9.92522C55.7423 10.8809 55.0413 10.4516 54.625 10.507Z" fill="#A3794D"/>
<path d="M8.04625 10.5066C7.97853 10.5046 7.91081 10.5026 7.8431 10.5006C7.65987 9.93077 7.1759 9.89713 6.70985 9.93275C5.70009 10.0079 5.32168 9.56668 5.42724 8.58722C5.483 8.06682 5.45512 7.53257 5.43321 7.00821C5.40334 6.30577 5.59653 6.0149 6.36331 6.31764C7.14602 6.6283 7.6997 6.24245 7.82717 5.3916C8.21155 6.26223 7.94467 7.17838 8.00243 8.07078C8.05421 8.88007 8.0343 9.6953 8.04625 10.5086V10.5066Z" fill="#A2764B"/>
<path d="M15.7804 21.1999H14.6332C15.4876 21.4156 15.639 21.9914 15.6011 22.7275C15.5693 23.3429 15.6011 23.9622 15.5912 24.5796C15.5832 25.1732 15.2845 25.6857 14.6949 25.6362C14.1273 25.5887 13.3944 25.4641 13.4044 24.5776C13.4143 23.7267 13.4621 22.87 13.3844 22.0251C13.3347 21.4769 13.8166 21.5541 14.0337 21.3127C13.8146 21.2158 13.6195 21.1267 13.4243 21.0397C14.211 21.0832 15.0176 20.8319 15.7804 21.1979V21.1999Z" fill="#A2754A"/>
<path d="M5.24726 68.2635C5.25124 66.8962 5.21938 65.527 5.27315 64.1617C5.30502 63.3761 4.99233 63.1031 4.24148 63.1545C3.71967 63.1901 3.19388 63.1624 2.67008 63.1644C2.66808 58.8073 2.6641 54.4501 2.66211 50.093C2.72983 50.093 2.79356 50.0752 2.85331 50.0475C3.20384 49.7547 3.63403 49.7171 4.05825 49.7131C4.65176 49.7072 4.8569 49.4064 4.86287 48.8563C4.87283 47.9778 4.85889 47.0992 4.87482 46.2207C4.88478 45.7636 4.87881 45.3006 5.24328 44.9464C5.7631 44.6377 6.34067 44.7367 6.88439 44.7742C7.72088 44.8316 8.07937 44.5882 8.01564 43.686C7.93797 42.6135 8.02958 41.5292 7.98378 40.4527C7.96187 39.9185 8.13514 39.588 8.63106 39.4119C8.66293 39.4159 8.69678 39.4199 8.72865 39.4218C9.93293 39.4535 10.559 38.8724 10.6068 37.6786C10.6187 37.3798 10.6486 37.0968 10.8219 36.8436C10.9214 36.8436 11.021 36.8475 11.1206 36.8475C13.0425 36.8515 13.0625 36.8535 13.2138 34.9796C13.2596 34.4157 13.5146 34.2455 14.0324 34.2515C15.2592 34.2653 16.4861 34.2277 17.711 34.2633C18.3543 34.2831 18.5694 34.0615 18.5813 33.4164C18.6191 31.5288 18.647 31.4832 20.567 31.5485C21.4572 31.5802 22.3475 31.5189 23.2298 31.5802C23.8113 31.6217 23.897 31.3784 23.9308 30.9134C24.0762 28.9366 24.0842 28.9347 26.1217 28.9366C29.7664 28.9406 33.4131 28.9485 37.0578 28.9544C37.0737 29.4155 37.1016 29.8745 37.1036 30.3356C37.1115 31.5307 37.3446 31.7781 38.5694 31.6257C39.5632 31.501 40.5531 31.5268 41.5449 31.5466C42.0787 31.5564 42.4571 31.7147 42.473 32.4113C42.5109 34.2198 42.5467 34.2178 44.385 34.2574C44.5503 34.2614 44.7156 34.2752 44.8809 34.2851C45.6895 34.9025 45.4844 35.7394 45.2872 36.5072C45.102 37.2235 44.4049 37.1602 43.8254 37.1978C43.3693 37.2274 42.9132 37.2136 42.4571 37.2492C41.1426 37.1839 39.8281 37.2077 38.5117 37.1978C37.9381 37.1938 37.3904 37.1344 37 36.6437C36.7789 36.3707 36.7192 36.0382 36.7371 35.7137C36.7769 34.9064 36.4125 34.6235 35.6118 34.6274C32.2041 34.6452 28.7944 34.6235 25.3847 34.6432C24.4666 34.6492 24.3113 34.847 24.3471 35.6623C24.371 36.1965 24.616 36.4379 25.1458 36.4399C25.4764 36.4399 25.807 36.4538 26.1376 36.4538C29.2147 36.4538 32.2938 36.4498 35.3708 36.4577C35.8648 36.4577 36.3667 36.4063 36.8367 36.62C37.484 36.9564 37.4222 37.5737 37.4561 38.1574C37.5138 39.1745 37.5935 39.2873 38.6292 39.222C39.9058 39.1428 41.1785 39.0103 42.4591 38.9905C42.9729 39.0261 43.4908 39.0103 44.0006 39.0716C44.3651 39.1151 44.8052 39.0835 44.8929 39.6059C44.1659 40.1896 43.2876 39.8651 42.487 40.0075C42.2221 40.0234 41.9572 39.9858 41.6923 39.9739C40.3021 39.9106 40.2882 39.9086 40.1149 41.2601C40.0114 42.0792 39.5871 42.4671 38.7467 42.5205C37.5656 42.5957 37.5338 42.6254 37.4421 43.8344C37.3764 44.6931 36.9622 45.1245 36.1197 45.075C35.1757 45.0196 34.8012 45.4351 34.8271 46.3473C34.8411 46.8222 34.6638 47.2516 34.2157 47.5207C33.4409 47.9817 32.7359 47.6513 32.6423 46.7569C32.5905 46.2662 32.6144 45.7676 32.6244 45.2749C32.6383 44.5863 32.3475 44.1925 31.6206 44.2499C30.573 44.333 29.4995 44.0164 28.4818 44.4695C28.1233 44.7347 28.2248 45.1265 28.2328 45.4708C28.2487 46.2484 27.9101 46.6679 27.1135 46.6065C26.2192 46.5393 25.7512 46.8064 25.813 47.8076C25.8687 48.702 25.2274 48.9572 24.4467 48.9929C23.9866 49.0146 23.5783 49.1789 23.4947 49.6834C23.421 50.1247 23.3174 50.6273 23.9468 50.8133C24.9207 51.1477 25.9245 50.9201 26.9123 50.9815C27.4461 51.0151 28.0257 50.9577 28.173 51.6582C28.3045 52.2854 28.1133 52.7781 27.4561 52.9839C26.9701 53.1383 26.9462 53.5182 26.9024 53.9238C26.757 55.2852 26.6216 55.4672 25.3011 55.5741C24.5801 55.6314 24.361 55.9461 24.2794 56.6129C24.1121 57.9722 23.8472 58.2275 22.461 58.3522C21.7859 58.4135 21.5648 58.6965 21.519 59.3376C21.4174 60.7484 21.3357 60.8295 19.9336 60.9245C19.2983 60.968 18.9896 61.1639 18.9338 61.8486C18.8143 63.3207 18.7805 63.3286 17.2011 63.5146C16.7649 63.5661 16.4781 63.6729 16.3706 64.1735C15.9165 66.2551 15.3847 66.5757 13.1919 66.178C12.7338 65.6873 12.8593 65.0659 12.8533 64.4901C12.8454 63.7184 12.3475 63.7046 11.7858 63.6729C11.1684 63.6393 10.9812 63.94 10.9692 64.498C10.9414 65.8416 11.019 67.1871 10.9234 68.5307C10.9633 68.8235 10.9912 69.1144 10.9772 69.4092C10.9414 70.082 11.0828 70.8695 10.322 71.2237C9.50738 71.6036 8.66492 71.5759 7.93398 70.9427C7.7149 70.638 7.70893 70.2798 7.67905 69.9276C7.59541 68.8868 7.44802 68.7463 6.37851 68.685C6.05786 68.6672 5.72525 68.7305 5.43447 68.5307C5.37273 68.4436 5.309 68.3565 5.24726 68.2675V68.2635Z" fill="#FAC813"/>
<path d="M44.8623 39.5841C44.0995 39.1231 43.1774 39.7206 42.4206 39.22C41.9804 38.48 41.9505 37.7478 42.4584 37.0256C42.9663 36.6655 43.5518 36.8159 44.0876 36.8515C44.9042 36.9069 45.1531 36.5666 45.0774 35.8226C45.0256 35.3061 45.1531 34.7699 44.8842 34.2811C45.8084 34.2713 46.7325 34.2614 47.6566 34.2515C47.6646 34.3821 47.6705 34.5146 47.6825 34.6452C47.7442 35.3259 47.4037 36.153 47.8339 36.6556C48.2541 37.1483 49.0826 36.806 49.7299 36.8376C50.2517 36.8634 50.419 37.0969 50.417 37.5777C50.413 38.2346 50.4449 38.8915 50.4608 39.5485C50.9169 40.1362 50.8153 40.7871 50.6759 41.4401C50.5345 42.101 50.1302 42.471 49.4411 42.5165C48.9452 42.5502 48.4473 42.568 47.9514 42.5284C47.0472 42.4255 46.121 42.6828 45.2268 42.378C45.1153 42.3286 45.0217 42.2534 44.944 42.1584C44.5974 41.3115 44.6532 40.4508 44.8583 39.5841H44.8623Z" fill="#FBD768"/>
<path d="M31.7266 27.9454C32.9376 28.0404 34.1624 27.4329 35.3614 28.1967H31.7227C31.7227 28.1136 31.7266 28.0285 31.7286 27.9454H31.7266Z" fill="#A3764A"/>
<path d="M53.0548 73.6238C53.0229 73.6753 53.005 73.7326 53.001 73.792C52.9353 73.792 52.8715 73.792 52.8058 73.792C51.2125 73.8078 50.4158 74.6066 50.4158 76.1882C50.3561 76.2634 50.2963 76.3386 50.2366 76.4138C49.4399 76.4237 48.6413 76.3208 47.8506 76.4732C47.514 77.0193 47.7072 77.6208 47.7032 78.1927C47.6992 78.7863 47.4881 79.0099 46.8886 78.996C45.7016 78.9663 44.5106 79.0099 43.3236 78.9802C42.7062 78.9644 42.4533 79.1444 42.4413 79.8112C42.4094 81.7187 42.3796 81.7187 40.4576 81.7167C39.6331 81.7167 38.8046 81.7563 37.982 81.7049C37.263 81.6594 37.0499 81.9601 37.0937 82.623C37.1316 83.177 37.0898 83.737 37.0818 84.295C32.7101 84.3029 28.3385 84.3108 23.9688 84.3188C23.9509 83.462 23.931 82.6032 23.9131 81.7464C23.3913 80.953 23.5466 80.0249 23.4311 79.1583C23.3136 78.2817 23.3295 77.3834 23.4391 76.4989C23.3514 74.9515 22.5295 74.1779 20.9734 74.1779C20.7085 74.1779 20.4436 74.1779 20.1767 74.1779C18.4958 74.164 18.3882 74.0967 18.2269 72.4405C18.1632 71.7836 17.8425 71.6194 17.257 71.6134C16.6316 71.6055 16.3369 71.8489 16.3468 72.4841C16.3528 72.8759 16.3588 73.2775 16.1795 73.6495C16.1238 73.7505 16.0401 73.8237 15.9345 73.8712C15.4984 73.7227 15.4844 73.3349 15.4765 72.9867C15.4625 72.3337 15.357 71.6906 15.2793 71.0456C15.4107 70.5113 15.4366 69.9652 15.4566 69.4171C15.4705 69.0649 15.4785 68.7008 15.7991 68.4515C16.4783 68.6909 16.3309 69.2964 16.3369 69.7792C16.3468 70.4559 16.6316 70.7191 17.2988 70.7013C18.1911 70.6795 19.0833 70.7013 19.9756 70.6914C20.4894 70.6854 20.7284 70.4777 20.8041 69.9414C21.0471 68.1923 21.6087 67.848 23.4251 68.2536C23.7717 68.7562 24.2497 68.9362 24.8611 68.9224C25.8808 68.8987 26.9025 68.9066 27.9242 68.9224C28.3504 68.9283 28.7866 68.9224 29.159 69.1875C29.8561 70.6261 29.4279 71.4591 27.8525 71.5996C27.2033 71.657 26.9443 71.8944 26.8826 72.5454C26.7671 73.7445 26.4743 74.0591 25.3052 74.1521C24.5225 74.2135 24.2636 74.5499 24.3154 75.2681C24.3413 75.6263 24.3253 75.9884 24.2676 76.3445C24.399 77.2666 24.16 78.2184 24.5006 79.1227C24.891 80.0883 24.6241 81.0519 24.5285 82.0274C24.3891 83.4402 24.5384 83.5767 25.9425 83.5708C28.8523 83.5589 31.7621 83.6321 34.6719 83.5095C35.0424 83.4936 35.3869 83.3927 35.7454 83.3452C36.2931 83.274 36.5102 82.999 36.5739 82.4449C36.7492 80.8857 37.0718 80.6324 38.6671 80.6087C39.3284 80.5988 39.9876 80.6383 40.6488 80.6957C41.312 80.7531 41.6944 80.5315 41.7124 79.7657C41.7363 78.8417 42.1127 77.9117 41.4973 77.0292C41.3718 76.8491 41.4574 76.58 41.569 76.3663C41.6546 76.2258 41.7841 76.1209 41.8797 75.9884C42.2202 75.5194 42.2123 74.9852 41.9972 74.5004C41.804 74.067 41.316 74.2095 40.9376 74.168C40.0035 74.0651 39.0316 74.3836 38.1314 73.9087C38.0019 73.2419 38.5676 73.2518 38.93 73.1905C39.9378 73.0223 40.9755 73.139 41.9792 72.8739C42.2899 72.7908 42.525 73.0282 42.7759 73.1944C43.5805 73.7287 44.3095 73.5803 44.8592 72.8007C45.2236 72.2842 45.7415 71.9162 46.1896 71.4829C46.6955 70.9921 47.4244 70.7112 47.4861 69.8623C47.4981 69.704 47.6773 69.5457 47.8367 69.5516C48.6851 69.5892 48.8882 68.8987 49.2368 68.3664C49.9219 68.1072 50.1032 67.5947 50.1032 66.9002C50.1032 65.7941 49.9757 64.68 50.2207 63.5799C50.3003 63.3543 50.4298 63.1643 50.627 63.0219C51.4037 62.6815 52.2143 62.7864 53.0229 62.8299C53.4272 63.4315 53.2061 63.9044 52.4433 64.1181C52.055 64.2269 51.4933 63.9598 51.3001 64.4921C51.0731 65.1173 51.1189 65.8 51.1886 66.447C51.2722 67.2207 52.292 67.7985 53.2539 67.6976C53.5507 67.6659 53.8474 67.6501 54.1362 67.565C54.6341 67.4166 54.9229 67.2207 54.7477 66.5796C54.5027 65.6832 54.6421 64.7434 54.7716 63.8371C54.899 62.9368 55.4866 62.5371 56.4664 62.5331C57.6037 62.5292 57.6634 62.4936 57.6674 61.4033C57.6813 58.2116 57.6813 55.02 57.6674 51.8283C57.6634 50.7301 57.6176 50.7202 56.4664 50.6807C55.7036 50.6549 54.9468 50.6549 54.188 50.7657C53.7658 50.8271 53.3216 50.8409 52.9731 50.4966C52.8954 50.3245 52.9094 50.1642 53.0249 50.0118C53.8813 49.5765 54.7616 49.6715 55.6479 49.8931C56.1956 50.2117 56.7971 50.0415 57.3746 50.0673C57.7351 50.0831 58.0936 50.0673 58.4023 50.2988C58.4003 54.5055 58.3983 58.7103 58.3963 62.917C57.8387 63.3622 57.1834 63.1525 56.574 63.1525C55.8948 63.1525 55.62 63.386 55.6399 64.0765C55.6758 65.2598 55.626 66.4431 55.6578 67.6263C55.6738 68.2477 55.4766 68.493 54.8134 68.5029C53.0368 68.5306 53.0348 68.5603 53.0388 70.3748C53.0388 71.4591 53.0528 72.5434 53.0587 73.6278L53.0548 73.6238Z" fill="#F9C917"/>
<path d="M47.8392 42.1899C48.1379 42.182 48.4347 42.1662 48.7334 42.1642C49.8474 42.1576 50.413 41.5818 50.4303 40.4368C50.4343 40.14 50.4522 39.8451 50.4642 39.5483C52.1809 39.5576 53.038 40.4111 53.0354 42.1088C53.0354 42.9913 53.0513 43.8738 53.0593 44.7563C53.5572 45.4311 53.4078 46.179 53.2883 46.9131C53.2086 47.3999 52.8143 47.5938 52.3721 47.667C51.7229 47.7758 51.0736 47.7818 50.4363 47.578C50.0638 47.2178 50.1196 46.7429 50.0937 46.2918C50.028 45.16 50.022 45.1323 48.9047 45.1046C48.2753 45.0887 47.6619 45.0313 47.4807 44.3309C47.2875 43.5889 47.0326 42.7855 47.8412 42.1899H47.8392Z" fill="#FAC814"/>
<path d="M50.4362 47.4947C51.0197 47.1089 51.6551 47.4848 52.2705 47.378C52.8381 47.281 53.0831 47.1128 53.0432 46.5212C53.0034 45.9355 53.0492 45.3458 53.0592 44.7562C53.8459 44.7483 54.6326 44.7384 55.4193 44.7305C55.485 44.7324 55.5527 44.7364 55.6184 44.7384C55.6284 46.4559 55.6363 48.1715 55.6463 49.889C54.7999 50.2946 53.8937 49.9444 53.0273 50.0967C52.3601 50.6211 51.6053 50.5024 50.8604 50.3619C50.3784 50.2709 50.1474 49.9008 50.1075 49.4457C50.0478 48.773 49.9004 48.0725 50.4362 47.4947Z" fill="#FBD766"/>
<path d="M15.3879 71.0714C15.832 71.3346 15.7982 71.762 15.8181 72.1973C15.844 72.7454 15.6608 73.3173 15.9734 73.8396C16.4893 74.6707 16.4654 75.856 15.9217 76.3843C15.4058 76.8869 14.1292 76.9007 13.225 76.4159C12.3526 76.41 11.4823 76.4041 10.61 76.3981C10.61 76.3328 10.61 76.2675 10.61 76.2022C10.61 74.5335 9.74757 73.7414 8.02281 73.8258C7.99493 72.9829 7.96904 72.1399 7.94115 71.295C7.87145 71.1347 7.90132 70.9943 8.0248 70.8716C10.128 71.5364 10.5801 71.2238 10.608 69.0848C10.61 68.8889 10.6139 68.691 10.6179 68.4951C11.2811 67.9411 12.0439 68.0856 12.7848 68.2241C13.3823 68.3349 13.5536 68.8414 13.5337 69.348C13.4978 70.2602 13.7986 70.7845 14.8004 70.7509C15.0254 70.743 15.2465 70.8617 15.3839 71.0714H15.3879Z" fill="#FBD768"/>
<path d="M13.2272 76.4139C13.7829 76.4079 14.3425 76.3644 14.8942 76.4059C15.7287 76.4673 16.0115 76.0636 15.9796 75.2998C15.9597 74.8131 15.9757 74.3243 15.9757 73.8376L16.0015 73.8138C17.6148 72.9551 18.7181 73.4557 18.9512 75.2029C19.0268 75.7747 19.2678 76.0023 19.8295 76.026C20.3453 76.0458 20.903 75.9845 21.3113 76.4336C21.383 76.5444 21.4527 76.6612 21.4686 76.7898C21.5622 77.5912 21.8371 78.5311 21.0743 79.0594C20.3274 79.5778 19.3933 79.4987 18.5588 79.0277C17.1169 79.0139 15.6749 78.9664 14.233 79C13.4562 79.0198 13.1535 78.7408 13.2172 77.979C13.2591 77.4606 13.2272 76.9382 13.2292 76.4158L13.2272 76.4139Z" fill="#F9C917"/>
<path d="M18.5566 79.0256C18.8813 79.0097 19.2079 78.986 19.5325 78.9801C21.2593 78.9444 21.1876 79.3046 21.1796 77.2902C21.1796 76.9994 21.1936 76.7065 21.2015 76.4156C22.042 75.828 22.9004 75.8933 23.7688 76.3503C23.8186 78.149 23.8664 79.9476 23.9161 81.7463C22.1376 81.7423 20.3611 81.7384 18.5825 81.7364C18.5746 80.8341 18.5646 79.9298 18.5566 79.0275V79.0256Z" fill="#FBD766"/>
<path d="M20.7209 30.2941C20.5118 30.7373 20.2588 30.9688 19.7689 30.7907C19.1515 30.5652 18.5241 30.3673 17.9007 30.1575C17.7195 30.0962 17.5601 29.9676 17.3411 30.0764C17.1539 30.1694 16.9885 30.5988 16.7276 30.1595C16.5683 29.8904 16.5484 29.5936 16.634 29.3027C16.6998 29.0791 16.881 28.9466 17.0742 29.1346C17.7613 29.8093 18.6456 29.6055 19.4642 29.7202C19.9302 29.7855 20.456 29.7875 20.7209 30.2961V30.2941Z" fill="#A27747"/>
<path d="M5.24552 44.9463C5.2495 46.3136 5.20767 47.6809 5.2734 49.0462C5.31323 49.8634 5.04635 50.178 4.2258 50.081C3.77369 50.0276 3.30964 50.0573 2.85156 50.0494C2.8675 49.7466 3.07064 49.5963 3.30765 49.4498C3.71793 49.1946 3.73585 48.8345 3.38134 48.5614C2.84758 48.1498 3.01089 47.7561 3.25387 47.2772C3.56059 46.6777 3.99476 46.092 3.5805 45.342C3.41121 45.0353 3.69801 44.9542 3.95095 44.9502C4.38314 44.9423 4.81333 44.9502 5.24552 44.9502V44.9463Z" fill="#A17748"/>
<path d="M60.803 53.8881C60.7133 54.2146 61.0001 54.7488 60.3648 54.7943C59.9486 54.824 59.7693 54.5054 59.8171 54.1433C59.8828 53.6427 59.8788 52.8987 60.4026 52.8314C60.8488 52.7741 60.7592 53.4745 60.803 53.8901V53.8881Z" fill="#A27746"/>
<path d="M8.02866 70.8712C8.00078 71.0117 7.9729 71.1521 7.94701 71.2946C7.71199 71.7972 7.86535 72.3295 7.83348 72.8459C7.79166 73.5266 7.33956 73.772 6.758 73.394C6.57078 73.2713 6.43336 73.0715 6.24216 72.9528C6.05296 72.834 5.8279 72.7747 5.61479 72.6856C5.69645 72.2998 5.98325 72.4739 6.17046 72.4403C6.36963 72.4047 6.70821 72.3453 6.67634 72.2226C6.43933 71.3025 7.21807 70.5209 7.00297 69.6266C6.88945 69.1536 6.66638 68.7737 6.05296 68.8707C5.78408 68.9122 5.51521 68.8647 5.43555 68.5284C7.09259 68.4149 7.95697 69.1965 8.02866 70.8731V70.8712Z" fill="#A27747"/>
<path d="M23.3493 68.2735C22.9629 68.5267 22.5228 68.4951 22.0966 68.4713C21.4055 68.4337 21.1246 68.7483 21.1704 69.4132C21.1904 69.708 21.1565 70.0068 21.1784 70.2997C21.2182 70.8458 20.9892 71.0733 20.4315 71.0654C19.1748 71.0456 17.9161 71.0436 16.6594 71.0615C16.1296 71.0694 16.0001 70.8181 15.9683 70.3412C15.9284 69.7357 16.1834 69.0966 15.793 68.5247C15.4963 68.7721 15.1437 68.8354 14.7713 68.8493C14.0822 68.875 13.3811 68.8295 13.0445 68.1409C12.7159 67.4701 12.6661 66.7459 13.2118 66.1087C13.6639 65.8139 14.1778 65.8753 14.6657 65.9148C15.6337 65.994 15.9683 65.525 15.9862 64.6346C16.0161 63.1644 16.036 63.1169 17.5457 63.1704C18.406 63.202 18.6211 62.8775 18.6032 62.086C18.5674 60.596 18.6052 60.5565 20.1089 60.5881C20.9095 60.604 21.2262 60.3863 21.1943 59.5355C21.1386 58.0119 21.1904 57.9505 22.6821 58.0099C23.7456 58.0534 23.8811 57.4262 23.9368 56.6525C24.0364 55.2595 24.0344 55.206 25.3788 55.2614C26.3288 55.299 26.6156 54.9231 26.5479 54.0386C26.4961 53.3461 26.3109 52.5091 27.5437 52.6218C28.0157 52.6654 27.9321 52.1885 27.95 51.8739C27.9739 51.4762 27.8086 51.2506 27.3784 51.2526C26.516 51.2565 25.6536 51.2585 24.7893 51.2466C24.4288 51.2427 24.0543 51.3218 23.7217 51.1061C23.7596 51.0567 23.7994 51.0072 23.8373 50.9577C25.09 50.4829 26.3746 50.6867 27.6512 50.7935C28.0914 50.8291 28.3344 51.1596 28.43 51.583C28.4957 51.8739 28.5096 52.1687 28.5096 52.4655C28.5176 55.4237 28.5276 58.3819 28.5077 61.34C28.4957 62.9586 28.1432 63.2851 26.5041 63.3148C25.8747 63.3267 25.2473 63.3207 24.618 63.3306C24.0524 63.3405 23.7556 63.5918 23.7536 64.1656C23.7496 65.248 23.664 66.3343 23.8612 67.4107C23.8671 67.8025 23.6939 68.0894 23.3433 68.2735H23.3493Z" fill="#FBD768"/>
<path d="M28.1162 44.1293C29.5761 43.7197 31.0618 43.9987 32.5357 43.9769C32.93 43.971 32.928 44.3569 32.932 44.6556C32.938 45.3462 32.932 46.0368 32.938 46.7274C32.94 47.0677 32.9718 47.4793 33.408 47.4496C33.8362 47.4199 34.5293 47.3843 34.4536 46.7907C34.2306 45.0712 34.9436 44.4716 36.5966 44.7289C36.975 44.7882 37.1025 44.4993 37.0985 44.155C37.0965 43.7929 37.1184 43.4308 37.0985 43.0687C37.0627 42.3821 37.3973 42.1605 38.0605 42.1466C39.7474 42.113 39.7434 42.0912 39.7215 40.4628C39.7135 39.9384 39.9008 39.5486 40.5241 39.5862C41.1754 39.6258 41.8526 39.4318 42.472 39.788C42.8265 40.0611 42.8324 40.4687 42.8225 40.8466C42.8046 41.5412 43.0914 41.8518 43.8024 41.8221C44.2525 41.8023 44.7185 41.8142 45.073 42.1743L45.0611 42.1625C45.6506 42.9322 45.4176 43.8068 45.3837 44.6556C45.4375 45.3442 45.4435 46.0348 45.3957 46.7274C45.3499 47.3863 45.0272 47.7227 44.3322 47.7781C43.0117 47.8809 42.9978 47.9027 42.8006 49.1176C42.6612 49.9823 42.1334 50.4097 41.3069 50.4038C40.3887 50.3979 40.0222 50.754 40.0163 51.688C40.0083 52.7209 39.7633 52.9484 38.6839 52.984C37.8075 53.0117 37.455 53.3244 37.4311 54.2168C37.4032 55.3189 37.1762 55.5346 36.037 55.5583C35.1885 55.5762 34.844 55.8967 34.838 56.7258C34.834 57.4282 34.5273 58.0139 33.8402 58.3068C33.3941 58.4967 33.3064 58.847 33.2925 59.2625C33.2606 60.1193 33.3024 60.9761 33.2666 61.8309C33.2487 62.2484 33.3005 62.7055 32.8623 62.9845C32.229 62.6501 32.3604 62.0367 32.3524 61.5064C32.3026 58.3226 32.6133 55.1488 32.5635 51.9611C32.5297 49.7944 32.4201 47.6336 32.3385 45.4689C32.3126 44.8001 32.0278 44.5626 31.3706 44.5251C30.3269 44.4657 29.2514 44.7467 28.2417 44.2757C28.2019 44.2282 28.162 44.1788 28.1222 44.1313L28.1162 44.1293Z" fill="#FBD768"/>
<path d="M10.6153 56.6087C10.6153 58.4865 10.5914 60.3643 10.6272 62.2421C10.6412 62.9287 10.4161 63.2275 9.71705 63.1444C9.48801 63.1167 9.24702 63.1088 9.02197 63.1444C8.02416 63.3106 7.94847 62.6675 7.95644 61.9611C7.97237 60.5463 8.04806 59.1296 8.0142 57.7168C7.95644 55.4175 8.22531 53.1123 7.86283 50.819C7.79313 50.3817 8.00026 50.1146 8.45435 50.0928C8.85069 50.073 9.25101 50.1066 9.64734 50.077C10.3922 50.0196 10.6352 50.3639 10.6252 51.0742C10.5954 52.9184 10.6153 54.7645 10.6153 56.6087Z" fill="#E3B30D"/>
<path d="M36.9005 36.8236C32.9212 36.8236 28.9419 36.786 24.9645 36.8533C23.8333 36.8731 23.9428 36.2597 23.9488 35.5454C23.9528 34.841 23.8154 34.2078 24.9566 34.2295C28.6033 34.2988 32.252 34.2869 35.8987 34.2335C36.8566 34.2197 37.243 34.4868 37.1096 35.4465C37.0558 35.8343 37.0976 36.236 37.0976 36.6317C37.0618 36.7247 36.9961 36.788 36.9025 36.8236H36.9005Z" fill="#E2B40C"/>
<path d="M13.2129 66.1084C13.2195 67.6425 13.9823 68.4367 15.5013 68.4907C15.5989 68.4947 15.6964 68.5145 15.794 68.5264C15.794 69.116 15.796 69.7057 15.794 70.2953C15.794 70.6218 15.8398 70.976 15.3877 71.069C15.2543 71.069 15.1229 71.069 14.9894 71.069C13.2686 71.069 13.2368 71.069 13.2348 69.3653C13.2348 68.6728 13.0097 68.4116 12.3126 68.4749C11.753 68.5264 11.1854 68.4907 10.6217 68.4927C10.6198 67.0522 10.6257 65.6097 10.6118 64.1692C10.6058 63.5281 10.6456 63.1403 11.5419 63.2867C13.193 63.5578 13.2049 63.4846 13.2049 65.1249C13.2049 65.4534 13.2089 65.7799 13.2129 66.1084Z" fill="#E2B30F"/>
<path d="M36.9014 36.8238C36.9671 36.7605 37.0308 36.6952 37.0965 36.6318C38.3513 37.0474 39.6439 36.7308 40.9145 36.8277C41.4324 36.8673 41.9741 36.7268 42.458 37.0256C42.4461 37.7577 42.4322 38.4879 42.4202 39.22C40.8329 39.4634 39.2376 39.6098 37.6303 39.59C37.0985 39.5821 37.1304 39.2061 37.0946 38.8341C37.0308 38.1653 37.3037 37.4609 36.9034 36.8238H36.9014Z" fill="#E4B40E"/>
<path d="M21.1767 36.8296C21.4077 36.8296 21.6408 36.8296 21.8718 36.8296C23.2009 36.8296 23.8787 37.4845 23.9053 38.7944C23.9172 39.3366 23.5746 39.576 23.0947 39.584C21.9037 39.6037 20.7107 39.6117 19.5217 39.5721C18.8803 39.5503 18.5398 39.2416 18.5637 38.5036C18.6254 36.5743 18.4243 36.8573 20.1849 36.8316C20.5155 36.8276 20.8461 36.8316 21.1787 36.8316L21.1767 36.8296Z" fill="#E3B30D"/>
<path d="M10.6152 47.3601C10.6152 46.998 10.6152 46.6359 10.6152 46.2757C10.6152 44.7482 11.1112 44.388 12.6587 44.7541C13.059 44.8491 13.2004 45.0885 13.2004 45.4585C13.2024 46.7407 13.1984 48.0229 13.2044 49.3051C13.2084 49.8394 12.9534 50.0491 12.4217 50.0887C10.7268 50.2173 10.6152 50.1303 10.6152 48.4444C10.6152 48.0823 10.6152 47.7202 10.6152 47.3601Z" fill="#E2B30E"/>
<path d="M45.0709 42.1761C44.9733 42.1741 44.8757 42.1701 44.7781 42.1701C43.23 42.1543 42.4605 41.3608 42.4698 39.7897C43.2386 39.3861 44.0691 39.7027 44.8638 39.584C45.3159 40.417 44.9594 41.3153 45.0729 42.1741L45.0709 42.1761Z" fill="#E0B311"/>
<path d="M23.7262 51.1079C22.6607 50.7873 23.2861 49.974 23.2542 49.3804C23.2283 48.8818 23.5749 48.6859 24.1086 48.6721C25.4968 48.6345 25.5108 48.6068 25.5466 47.2355C25.5605 46.7112 25.6561 46.3669 26.2915 46.3075C27.825 46.163 27.8191 46.1393 27.9545 44.5821C27.9684 44.4277 28.0601 44.2793 28.1138 44.127L28.1796 44.1863C29.1654 45.4646 28.7452 46.6221 27.1738 46.8576C26.6321 46.9387 26.3751 47.1366 26.2835 47.6966C26.0724 48.9807 25.9808 49.0797 24.7539 49.2221C24.1186 49.2973 23.8816 49.5724 23.9155 50.1719C23.9314 50.4667 23.9354 50.7655 23.78 51.0366L23.7262 51.1059V51.1079Z" fill="#FBD768"/>
<path d="M45.0984 44.7384C45.0845 43.8796 45.0705 43.0228 45.0586 42.1641C45.9867 42.172 46.9128 42.1799 47.8409 42.1898C47.6298 42.5499 47.6537 42.9457 47.6557 43.3414C47.6577 44.7008 47.7214 44.7641 49.0678 44.7463C50.4141 44.7265 50.44 44.7522 50.442 46.1175C50.442 46.5766 50.442 47.0376 50.438 47.4967C50.4088 49.1707 51.2725 50.0387 53.0291 50.1007C53.0311 50.2273 53.0331 50.3559 53.0351 50.4826C53.4215 50.8763 53.4175 51.3789 53.4195 51.8736C53.4275 55.1048 53.4295 58.3361 53.4175 61.5673C53.4175 62.0541 53.4613 62.5705 53.0351 62.9485C52.2663 63.3561 51.4358 63.0395 50.6412 63.1542C50.0556 63.0375 50.0895 62.5389 50.0835 62.1451C50.0556 59.8142 49.9859 57.4832 50.1194 55.1543C50.0178 53.9809 50.0755 52.8016 50.0875 51.6263C50.0955 50.817 49.8385 50.3876 48.9602 50.441C48.5699 50.4648 48.1675 50.4272 47.811 50.2194C47.335 49.8593 47.3151 49.329 47.2992 48.8066C47.2733 47.9281 47.2713 47.0495 47.2932 46.171C47.3111 45.4527 47.0761 45.0609 46.2854 45.1005C45.8652 45.1222 45.4251 45.0926 45.1024 44.7423L45.0984 44.7384Z" fill="#E2B40E"/>
<path d="M50.4264 55.0162C50.4303 57.3827 50.4323 59.7512 50.4443 62.1177C50.4443 62.468 50.3367 62.8499 50.6395 63.1487C50.5737 63.2773 50.508 63.4059 50.4423 63.5345C49.9862 63.7541 49.5421 63.4831 49.088 63.4989C48.3849 63.5226 47.9766 63.7759 47.9846 64.5437C47.9946 65.3252 48.0125 66.1088 47.9746 66.8904C47.9388 67.6166 48.0503 68.1904 48.9386 68.2617C49.07 68.2715 49.1696 68.3764 49.2473 68.4872C49.2573 69.2728 49.2194 70.0148 48.0802 69.7892C47.5624 69.6863 47.658 70.09 47.662 70.3551C47.6699 70.8557 47.5803 71.1031 46.9828 71.3188C46.1563 71.6156 45.5807 72.409 45.0967 73.1412C44.8956 73.4459 44.8498 73.8654 44.4056 73.802C43.7643 73.711 42.9975 74.1938 42.4996 73.4577C42.3662 73.2599 42.2825 72.9631 42.0256 73.1016C41.0537 73.6259 40.0041 73.3252 38.9983 73.4538C38.6796 73.4953 38.3431 73.5705 38.0921 73.8159C38.0304 73.9346 37.9427 74.0336 37.8372 74.1147C37.3114 74.5065 37.415 75.0605 37.5225 75.5651C37.644 76.1389 38.1837 76.0182 38.592 76.04C39.2532 76.0756 39.9184 76.036 40.5817 76.0598C40.974 76.0756 41.3903 76.04 41.6771 76.4001C41.6611 76.7701 41.7408 77.0827 41.9718 77.4092C42.3184 77.896 42.7884 78.4322 42.0595 79.0239C41.8025 79.2316 42.0575 79.5185 42.0754 79.7679C42.1471 80.8126 41.7249 81.2954 40.7071 81.0837C39.8448 80.9036 38.9903 81.0125 38.1379 80.9412C37.2676 80.868 36.9509 81.3231 36.8971 82.1047C36.7995 83.5314 36.3873 83.9073 34.9553 83.9073C32.0136 83.9073 29.072 83.9133 26.1323 83.9133C24.0789 83.9133 23.9694 83.9014 24.2084 81.8514C24.3139 80.9472 24.2482 80.0548 24.3558 79.1644C24.6744 78.5272 25.2898 78.6103 25.8356 78.6064C28.821 78.5806 31.8085 78.5965 34.794 78.5945C35.1266 78.5945 35.4572 78.5806 35.7898 78.5866C36.3952 78.5984 36.7039 78.365 36.7119 77.7159C36.7199 77.0254 36.4032 76.784 35.748 76.78C34.0551 76.7681 32.3642 76.784 30.6713 76.7701C30.1753 76.7662 29.6715 76.8057 29.2114 76.5584C28.5362 75.7827 28.7294 74.8923 28.9704 74.0514C29.1317 73.4835 29.7432 73.531 30.2331 73.4855C31.3484 73.3826 31.46 73.3014 31.5336 72.1934C31.5854 71.4078 31.8682 70.7528 32.7107 70.7825C33.8579 70.8241 34.1945 70.2483 34.2283 69.2787C34.7561 68.7959 35.4153 68.9681 36.0268 68.9463C37.2676 68.9028 37.2775 68.9067 37.3134 67.6641C37.3771 67.3732 37.4249 67.0804 37.407 66.7836C37.3672 66.0712 37.6779 65.63 38.4088 65.5924C39.1437 65.5548 39.313 65.1491 39.3588 64.4981C39.4405 63.2793 39.8487 62.8677 41.1174 62.8697C41.934 62.8697 42.1172 62.5432 42.1411 61.8269C42.1889 60.4378 42.3124 60.3112 43.6946 60.236C44.3937 60.1984 44.6745 59.9431 44.7303 59.2407C44.8378 57.9169 45.0091 57.7725 46.3734 57.6577C46.9649 57.6083 47.3552 57.5074 47.3652 56.7594C47.3851 55.2516 47.7516 54.9311 49.2612 54.8856C49.6556 54.8737 50.0579 54.8143 50.4264 55.0221V55.0162Z" fill="#FAC813"/>
<path d="M53.0329 62.9446C53.0329 58.7893 53.0329 54.634 53.0329 50.4806C54.3394 50.4193 55.6479 50.3817 56.9524 50.2867C57.7232 50.2294 58.0239 50.4985 58.018 51.284C57.9921 54.8358 57.9821 58.3856 58.0219 61.9374C58.0319 62.9248 57.5081 63.0178 56.7592 62.9287C55.4029 62.7665 54.9648 63.0791 55.0464 64.4128C55.0982 65.2676 54.5664 66.1936 55.3551 67.0069C55.5882 67.2463 55.1819 67.4956 54.917 67.644C53.6144 68.3781 52.0769 68.1743 50.9855 67.1276C50.7803 66.9317 50.6887 66.7437 50.7485 66.435C50.8281 66.0215 50.8301 65.5881 50.8341 65.1627C50.85 63.8073 50.854 63.8251 52.1844 63.8647C52.7461 63.8825 53.1862 63.645 53.0329 62.9426V62.9446Z" fill="#FAC813"/>
<path d="M34.3037 69.2785C34.3674 69.5654 34.457 69.8503 34.4909 70.1412C34.5586 70.7348 34.3395 71.0989 33.6703 71.0652C33.4074 71.0514 33.1406 71.0751 32.8777 71.0652C32.1368 71.0336 31.8042 71.2908 31.8739 72.1139C32.0013 73.5841 31.7464 73.8513 30.2407 73.7959C29.3664 73.7642 29.0278 74.0313 29.1294 74.9059C29.1852 75.3907 29.1234 75.8893 29.1135 76.382C28.9681 76.5819 28.7589 76.6887 28.5239 76.7085C27.2035 76.8272 25.883 76.8233 24.5626 76.7125C24.3236 76.6927 24.1304 76.5581 23.9511 76.4058C23.9491 76.1426 23.9451 75.8814 23.9451 75.6182C23.9332 73.968 23.9332 73.9522 25.6161 73.8176C26.353 73.7583 26.5562 73.3506 26.5422 72.6996C26.5104 71.1602 26.4008 71.1919 28.0579 71.2492C28.8784 71.2789 29.227 70.9841 29.1433 70.1689C29.1135 69.878 29.1493 69.5792 29.1573 69.2844C29.3266 69.0509 29.5775 68.9559 29.8444 68.9381C31.1011 68.8491 32.3578 68.851 33.6126 68.9381C33.8795 68.9559 34.1304 69.0509 34.3037 69.2804V69.2785Z" fill="#FBD766"/>
<path d="M23.9512 76.4056C25.672 76.3977 27.3928 76.3878 29.1135 76.3799C31.3999 76.3838 33.6864 76.3858 35.9728 76.3957C37.0861 76.4016 37.0502 76.4452 37.1199 77.9193C37.1638 78.8592 36.7634 78.9918 35.9528 78.9819C32.5073 78.9443 29.0598 78.9661 25.6122 78.9661C25.182 78.9661 24.7479 78.9304 24.3535 79.162C23.8815 79.0729 23.9612 78.7009 23.9572 78.3823C23.9472 77.7234 23.9512 77.0645 23.9492 76.4056H23.9512Z" fill="#E3B40F"/>
<path d="M34.3042 69.2783C32.5874 69.2803 30.8726 69.2823 29.1578 69.2842C27.5486 69.2803 25.9393 69.2308 24.3321 69.2882C23.5215 69.3179 23.2626 69.0072 23.3502 68.2731C23.3363 67.9783 23.412 67.7448 23.7545 67.6934C24.0373 67.3451 24.4436 67.3174 24.838 67.3154C28.7077 67.2917 32.5755 67.2897 36.4453 67.3154C36.7101 67.3154 36.973 67.357 37.218 67.4698C37.3395 67.5351 37.4311 67.6261 37.4988 67.7448C37.927 68.9894 37.7398 69.2645 36.4572 69.2704C35.7382 69.2744 35.0212 69.2763 34.3022 69.2783H34.3042Z" fill="#E0B412"/>
<path d="M23.7675 76.3486C22.9111 76.3703 22.0567 76.3921 21.2003 76.4139C21.0031 76.4079 20.804 76.3961 20.6068 76.3941C18.7625 76.3782 18.7466 76.3802 18.5913 74.5816C18.5454 74.0473 18.3164 73.8119 17.7866 73.8198C17.1911 73.8277 16.5956 73.8158 16.0021 73.8138C16.0001 73.519 15.9941 73.2242 15.9941 72.9294C15.9922 71.198 16.3307 70.9427 18.0754 71.2475C18.6052 71.3405 18.5654 71.6709 18.5833 72.035C18.639 73.2275 19.2624 73.8237 20.4534 73.8237C21.278 73.8237 22.1045 73.8554 22.9271 73.8138C23.5903 73.7802 23.8074 74.0552 23.7675 74.6805C23.7317 75.2346 23.7655 75.7945 23.7675 76.3525V76.3486Z" fill="#E2B40F"/>
<path d="M43.6621 78.691C43.8474 77.9034 44.1581 77.3059 45.0204 76.9537C45.6558 76.6944 46.2035 76.1147 46.6675 75.5725C47.3487 74.7771 48.3146 74.3022 48.934 73.4474C49.2865 72.9606 49.5972 72.4778 49.657 71.8585C49.6789 71.6408 49.7606 71.2847 49.892 71.2451C50.6229 71.0195 51.314 70.7207 51.9753 70.3428C52.029 70.3111 52.2023 70.3705 52.2342 70.4318C52.6146 71.1758 52.4433 71.9752 52.3816 72.741C52.3357 73.3128 51.6944 73.4316 51.2961 73.3583C50.2744 73.1704 50.0772 73.7165 50.0414 74.506C49.9757 75.9762 49.9776 75.9821 48.4341 75.994C47.9641 75.9979 47.5737 75.9683 47.3427 76.5619C46.6616 78.3209 45.5781 78.9146 43.6602 78.689L43.6621 78.691Z" fill="#FAC813"/>
<path d="M49.2472 68.4851C49.048 68.4851 48.8449 68.4574 48.6497 68.4851C47.857 68.594 47.5882 68.2635 47.64 67.4819C47.6997 66.5618 47.6539 65.6358 47.6539 64.7137C47.6539 63.2613 48.2833 62.7963 49.7192 63.2059C49.9702 63.2772 50.2012 63.4236 50.4422 63.5344C50.4422 64.7731 50.3944 66.0117 50.4541 67.2465C50.498 68.1586 50.2251 68.6256 49.2452 68.4851H49.2472Z" fill="#E3B40D"/>
<path d="M41.679 76.4C40.6931 76.4 39.7073 76.396 38.7214 76.396C37.0763 76.396 37.1221 76.396 37.0803 74.7972C37.0584 74.0038 37.3392 73.7169 38.096 73.8178C39.2173 73.8178 40.3406 73.8277 41.4619 73.8198C41.9957 73.8158 42.5593 73.8593 42.4517 74.5598C42.3502 75.2128 43.0453 76.2556 41.681 76.402L41.679 76.4Z" fill="#E4B50D"/>
<path d="M37.3014 67.6894C32.7864 67.6894 28.2693 67.6933 23.7543 67.6933C23.5232 67.4519 23.342 67.2105 23.352 66.8366C23.3778 65.8155 23.3739 64.7945 23.3579 63.7735C23.35 63.1898 23.6069 62.9326 24.1944 62.9405C25.1882 62.9543 26.1841 62.9246 27.1779 62.9504C27.8391 62.9682 28.1458 62.7367 28.1438 62.0382C28.1339 58.6467 28.1438 55.2532 28.1697 51.8617C28.1737 51.27 27.9726 51.0346 27.3631 51.0484C26.1701 51.0741 24.9771 51.0464 23.7821 51.0405C23.4336 50.6111 23.5969 50.1006 23.5551 49.6218C23.5053 49.0539 23.7921 48.9094 24.3199 48.8896C25.8415 48.8323 25.8515 48.8145 25.9431 47.3462C25.971 46.909 26.0646 46.6161 26.5764 46.5211C27.164 46.4143 27.9945 46.9188 28.2833 46.0245C28.4745 45.4368 28.3211 44.7957 28.1817 44.1882C29.3747 44.1764 30.5697 44.1803 31.7607 44.1447C32.4219 44.1249 32.6908 44.3604 32.7326 45.0529C32.9716 49.0301 32.9955 53.0133 32.872 56.9885C32.8202 58.6605 32.7425 60.3325 32.7266 62.0065C32.7246 62.3192 32.6051 62.6773 32.9417 62.9167C34.2841 62.2657 35.6842 62.6041 37.0704 62.6694C37.9248 63.1225 38.363 64.1455 37.9646 65.2496C37.7157 65.9362 37.5743 66.5971 37.5743 67.3095C37.5743 67.4895 37.4368 67.5944 37.2994 67.6874L37.3014 67.6894Z" fill="#FAE5A0"/>
<path d="M37.0985 62.9405C35.7123 62.9326 34.3281 62.9266 32.942 62.9187C32.94 61.6029 32.942 60.287 32.93 58.9712C32.924 58.4251 32.9937 58.0155 33.6988 57.968C34.4656 57.9165 34.4715 57.2774 34.4974 56.7135C34.5652 55.2492 34.5632 55.1879 35.9732 55.2591C36.9193 55.3066 37.1642 54.9781 37.1184 54.0857C37.0487 52.7165 37.1423 52.6156 38.5723 52.6848C39.5363 52.7323 39.7514 52.3583 39.7175 51.4897C39.6657 50.0986 39.7116 50.065 41.1376 50.0887C42.0298 50.1046 42.4998 49.8454 42.4799 48.8619C42.452 47.4749 42.7468 47.1899 44.1669 47.4155C44.9775 47.5441 45.083 47.2572 45.0651 46.6102C45.0472 45.9869 45.083 45.3616 45.0969 44.7363C47.6542 44.7541 47.6323 44.7541 47.6642 47.2928C47.6761 48.2248 47.457 49.1805 47.8554 50.0887C48.2198 50.8209 48.0286 51.5728 47.8793 52.299C47.7558 52.8985 47.2021 52.9955 46.6982 52.9796C45.796 52.9519 45.3997 53.2784 45.3877 54.2322C45.3738 55.4253 45.0551 55.7083 43.8004 55.7419C43.0655 55.7617 42.8384 56.0348 42.8086 56.7372C42.7548 58.0234 42.5038 58.2826 41.1874 58.3241C40.3369 58.3518 39.9983 58.6724 40.0203 59.5035C40.0402 60.3009 39.6538 60.8806 38.7994 60.8668C37.8056 60.851 37.3196 61.2071 37.4092 62.2321C37.4331 62.4992 37.2817 62.7367 37.0945 62.9345L37.0985 62.9405Z" fill="#FAC814"/>
<path d="M37.0977 62.9409C37.0977 62.8083 37.0977 62.6777 37.1016 62.5452C37.1235 60.7267 37.1216 60.7129 38.91 60.5764C39.4378 60.5348 39.7147 60.3409 39.7047 59.7987C39.6987 59.4703 39.7187 59.1398 39.7047 58.8094C39.6808 58.2177 39.9656 57.9645 40.5472 57.9882C40.8778 58.0021 41.2124 57.9704 41.541 57.9941C42.2301 58.0436 42.5269 57.731 42.4691 57.0582C42.4572 56.9276 42.4691 56.795 42.4691 56.6625C42.4744 55.8156 42.894 55.3974 43.7278 55.408C45.0423 55.4258 45.0582 55.4099 45.0702 54.1C45.0821 52.6773 45.0841 52.6259 46.5739 52.6813C47.4681 52.7149 47.7868 52.4023 47.6773 51.5495C47.6135 51.0528 47.7111 50.5661 47.8605 50.0912C50.9874 50.0654 50.356 49.7409 50.4257 52.5685C50.4456 53.3837 50.4297 54.2009 50.4297 55.0162C49.9896 55.3427 49.4757 55.2279 48.9878 55.2378C47.8346 55.2615 47.5677 55.5445 47.6812 56.6526C47.8067 57.8833 47.7211 57.9763 46.4504 57.9882C45.0742 58.0001 45.0144 58.004 45.0841 59.3476C45.1339 60.3211 44.7575 60.61 43.8294 60.5862C42.4751 60.5526 42.4751 60.6001 42.4691 61.8922C42.4651 62.7655 42.0349 63.1863 41.1785 63.1546C40.0513 63.1131 39.6709 63.4336 39.7206 64.5635C39.7605 65.4776 39.5772 66.0574 38.4898 65.9011C37.8784 65.814 37.6613 66.1227 37.6991 66.7084C37.721 67.0606 37.7748 67.4385 37.5039 67.7452C37.4382 67.7274 37.3725 67.7076 37.3068 67.6898C37.5597 66.4234 37.7868 65.1511 37.6673 63.8551C37.6334 63.5029 37.6195 63.0438 37.1056 62.9389L37.0977 62.9409Z" fill="#FBD767"/>
</g>
<defs>
<clipPath id="clip0_2082_4648">
<rect width="61" height="87" fill="white"/>
</clipPath>
</defs>
</svg>
