<svg width="61" height="87" viewBox="0 0 61 87" fill="none" xmlns="http://www.w3.org/2000/svg">
<g clip-path="url(#clip0_2082_4881)">
<path d="M5.39829 73.7623C4.96404 72.6291 5.26284 71.4523 5.21901 70.2972C5.15527 68.6398 5.20109 68.6457 3.54576 68.6141C3.239 68.6082 2.87646 68.7565 2.64738 68.4005C2.98403 68.0564 3.43023 68.0662 3.85252 68.0821C4.56167 68.1078 4.88237 67.8329 4.85448 67.103C4.82261 66.2862 4.82062 65.4634 4.85448 64.6466C4.88835 63.8713 4.54573 63.5825 3.79675 63.628C3.40832 63.6518 3.00196 63.7012 2.63543 63.4896C2.55775 63.4144 2.48205 63.3412 2.40437 63.2661C2.1733 62.8725 2.22907 62.4394 2.22907 62.0161C2.23306 58.7033 2.23306 55.3904 2.22907 52.0756C2.22708 50.7564 2.21911 50.7505 0.922342 50.5883C0.585699 50.5468 0.27296 50.4736 0.0219727 50.2303C0.480125 49.8447 1.02592 50.1018 1.52591 50.0306C1.9004 49.9772 2.3207 50.1591 2.64141 49.8229C3.06769 49.5836 3.53779 49.6726 3.98997 49.6686C4.55967 49.6647 4.82261 49.4254 4.83058 48.8498C4.84253 47.94 4.83058 47.0302 4.84253 46.1204C4.84851 45.6616 4.86444 45.2067 5.1971 44.8368C5.19909 43.3871 5.19312 41.9374 5.20905 40.4876C5.21304 40.1771 5.07161 39.8171 5.41821 39.5778C5.76083 39.9121 5.75087 40.3512 5.75884 40.7764C5.77876 41.698 5.77079 42.6197 5.76681 43.5394C5.76282 44.1624 5.93811 44.5184 6.66518 44.5283C7.43209 44.5382 7.63726 44.1743 7.6273 43.4998C7.61336 42.6118 7.6034 41.7238 7.63527 40.8357C7.6771 39.6569 7.99382 39.2614 9.1651 39.2179C10.0077 39.1862 10.2667 38.8223 10.2268 38.0628C10.2049 37.6653 10.2786 37.2737 10.5754 36.9632L10.5635 36.975C10.8742 36.6685 11.2726 36.6408 11.673 36.6447C12.3204 36.6507 12.8303 36.5953 12.8383 35.7191C12.8463 34.8687 12.4001 34.7342 11.7188 34.746C11.3244 34.752 10.916 34.746 10.6093 34.4296C11.1929 33.9984 11.8602 34.2635 12.4857 34.2279C12.9817 34.2002 13.155 34.0419 13.1869 33.5416C13.2247 32.9225 12.9419 32.256 13.394 31.6824C13.7685 32.0443 13.7367 32.525 13.7367 32.9759C13.7367 33.6088 14.0335 33.8501 14.647 33.8461C15.5394 33.8402 16.4318 33.8461 17.3242 33.8442C17.8999 33.8442 18.123 33.587 18.1827 33.0174C18.3521 31.3897 18.4815 31.2967 20.1408 31.2829C20.8679 31.277 21.595 31.2888 22.322 31.2789C23.4654 31.2611 23.4774 31.2473 23.565 30.1456C23.5989 29.7224 23.583 29.2833 23.9335 28.955C24.3837 28.688 24.8857 28.692 25.3837 28.69C28.7023 28.686 32.0209 28.686 35.3395 28.69C35.6383 28.69 35.9332 28.7216 36.2319 28.7473C36.9869 28.8106 37.3953 29.1567 37.3594 29.9419C37.3415 30.3454 37.3992 30.7311 37.6721 31.0535C38.1084 31.3917 38.6223 31.2592 39.1044 31.275C39.8294 31.2987 40.5545 31.2631 41.2796 31.2908C42.4668 31.3363 42.7517 31.5558 42.7895 32.7425C42.8174 33.5969 43.152 33.9074 43.9867 33.86C44.8074 33.8125 45.634 33.856 46.4567 33.8402C46.9866 33.8303 47.2296 33.6029 47.2515 33.0708C47.2694 32.5902 47.2057 32.074 47.6041 31.6824C48.0483 32.258 47.7694 32.9225 47.8073 33.5416C47.8371 34.034 47.9945 34.2061 48.5005 34.2338C49.1259 34.2674 49.7952 33.9925 50.3749 34.4375C50.1299 34.6986 49.8032 34.748 49.4725 34.748C48.0861 34.748 48.1678 34.9814 48.1598 36.1048C48.1579 36.4292 48.118 36.7595 47.8531 37.0027C47.12 36.8247 47.3093 36.2037 47.2854 35.7349C47.2535 35.1179 47.0961 34.7579 46.377 34.7698C45.7296 34.7816 45.4448 34.9992 45.387 35.6717C45.2615 37.0858 44.9747 37.3034 43.5245 37.3409C43.1301 37.3508 42.7377 37.3093 42.3413 37.3034C40.9031 37.4319 39.4649 37.3568 38.0287 37.3449C37.7 37.3429 37.3753 37.2796 37.1243 37.0344C36.6443 36.6052 36.6981 36.0197 36.6981 35.4699C36.6981 34.837 36.4132 34.5957 35.7917 34.5937C32.2799 34.5878 28.768 34.5839 25.2542 34.5957C24.575 34.5977 24.304 34.8924 24.306 35.551C24.306 36.0356 24.3479 36.5498 23.9634 36.9513C23.5869 37.3587 23.083 37.337 22.5929 37.3469C21.7085 37.3627 20.8221 37.3666 19.9377 37.3508C19.2504 37.339 18.8919 37.5763 18.9158 38.3081C18.9297 38.7234 18.9317 39.1625 18.605 39.5027C18.2126 39.9576 17.6628 39.9042 17.1489 39.9121C16.5732 39.92 16.3222 40.1692 16.3222 40.7388C16.3222 41.2214 16.3541 41.7218 16.0175 42.1371C15.7047 42.4338 15.3083 42.4516 14.9079 42.4753C14.0448 42.5307 13.5846 42.9711 13.5275 43.7965C13.5016 44.194 13.4837 44.5876 13.1769 44.8922C12.7805 45.2838 12.2626 45.2502 11.7726 45.2522C11.177 45.2561 10.9479 45.537 10.9499 46.1046C10.9539 47.0263 10.9519 47.9479 10.9499 48.8696C10.9499 49.4708 11.2447 49.6765 11.8124 49.6686C12.3662 49.6607 12.7965 49.5836 12.8044 48.8834C12.8124 47.9954 12.7984 47.1054 12.8184 46.2173C12.8283 45.7605 12.7845 45.2838 13.149 44.914C13.5594 44.4769 14.1092 44.5283 14.6231 44.5421C15.3422 44.5639 15.637 44.2593 15.6071 43.5552C15.5832 42.9955 15.635 42.4417 16.125 42.0461C16.4218 41.7969 16.7903 41.7594 17.1449 41.7831C17.9676 41.8365 18.2465 41.439 18.2046 40.6775C18.1827 40.2562 18.2285 39.829 18.5851 39.5145C18.9317 39.1882 19.3699 39.1981 19.7982 39.1902C20.6906 39.1724 21.585 39.1625 22.4774 39.1902C23.2144 39.2119 23.6009 38.9687 23.563 38.1795C23.5411 37.7207 23.5909 37.2519 23.9913 36.9177C24.4056 36.5577 24.9136 36.5992 25.4036 36.5992C28.8019 36.5894 32.2022 36.5913 35.6005 36.5992C36.0586 36.5992 36.5307 36.5676 36.9291 36.8682C37.463 37.248 37.4231 37.8294 37.4291 38.3753C37.4351 38.9489 37.6901 39.1961 38.2657 39.1961C38.7518 39.1961 39.2557 39.1664 39.696 39.4572C40.0744 39.833 40.1601 40.3175 40.184 40.8159C40.2338 41.8998 39.8912 42.3665 38.8076 42.4457C38.0128 42.505 37.6064 42.7918 37.5068 43.5987C37.4331 44.1881 37.4829 44.9001 36.6941 45.1454C35.8834 45.3966 35.3933 44.8902 34.8874 44.4096C34.5129 44.2296 34.1105 44.2672 33.7181 44.2672C31.5707 44.2633 29.4234 44.285 27.2781 44.2554C26.4693 44.2435 26.0291 44.467 26.059 45.3511C26.0869 46.1976 25.6008 46.6386 24.7662 46.6129C23.8638 46.5852 23.6347 47.0401 23.6865 47.8352C23.7543 48.8815 23.6328 49.9297 23.6567 50.9779C23.6945 51.1698 23.7144 51.3656 23.6965 51.5594C23.6308 52.2635 24.0152 52.4435 24.6427 52.4633C25.312 52.4831 26.0291 52.2971 26.6247 52.7936C26.9155 53.2386 26.8817 53.7409 26.8577 54.2314C26.808 55.248 26.4972 55.6456 25.4933 55.6851C24.6228 55.7207 24.2622 56.0055 24.2483 56.9054C24.2323 57.8884 23.9037 58.2187 22.9077 58.2583C22.0412 58.2919 21.6946 58.642 21.5671 59.4687C21.338 60.9362 21.2982 60.958 19.8201 61.0588C19.2086 61.1004 18.9556 61.312 18.8998 61.937C18.7724 63.3709 18.6469 63.5054 17.2445 63.628C16.5533 63.6874 16.372 64.0097 16.3103 64.6268C16.1689 66.0232 14.9677 66.6481 13.649 66.0746C13.2128 65.8847 13.1052 65.5386 13.0853 65.1193C13.0634 64.6664 13.159 64.1838 12.7785 63.8179C12.4578 63.5825 12.0853 63.6439 11.7268 63.6379C11.1909 63.628 10.9579 63.8891 10.9419 64.4172C10.9121 65.4338 10.9718 66.4504 10.914 67.467C10.8463 67.8783 10.9599 68.2897 10.9001 68.7011C10.926 68.8633 10.9519 69.0235 10.9579 69.1857C11.0375 71.383 10.2089 72.0021 8.06354 71.3474C7.55559 70.9341 7.64125 70.3407 7.64125 69.8008C7.64125 68.9978 7.11537 68.9246 6.51778 68.9048C5.8664 68.8831 5.77876 69.3241 5.76481 69.8206C5.73892 70.7046 5.76481 71.5887 5.74888 72.4728C5.74091 72.9297 5.76282 73.3984 5.39829 73.7623Z" fill="#B1B1B1"/>
<path d="M40.421 0.0415533L55.4065 0.0375977C55.7173 0.176045 56.0181 0.363937 56.0459 0.717965C56.1595 2.19539 56.3945 3.68073 55.8946 5.14035C55.53 5.59129 55.0281 5.73963 54.4803 5.70205C53.5918 5.64074 53.3249 6.06992 53.3628 6.88676C53.4006 7.7392 53.3966 8.59559 53.3568 9.44803C53.309 10.4607 53.046 10.7297 52.066 10.8384C51.2241 10.9334 50.7965 11.4107 50.7832 12.2704C50.7732 13.0595 50.7891 13.8467 50.7732 14.6358C50.7652 15.067 50.7374 15.4942 50.4047 15.8265L50.4127 15.8186C50.076 16.1746 49.6358 16.133 49.2055 16.1172C48.4366 16.0895 48.0522 16.3822 48.1 17.2169C48.1538 18.1346 48.1239 19.0562 48.108 19.9779C48.088 21.0973 47.7733 21.4177 46.6319 21.5226C45.8258 21.5964 45.4175 22.0513 45.4069 22.8873C45.3969 23.6764 45.4327 24.4656 45.3889 25.2527C45.3312 26.2614 45.1101 26.4849 44.0902 26.6411C43.219 26.7743 42.7695 27.2806 42.7416 28.1601C42.7117 29.0837 42.4886 29.3686 41.5564 29.3428C40.1441 29.3033 38.7218 29.5881 37.3195 29.2202C37.176 29.1035 37.0545 28.9631 36.9251 28.8306C36.698 28.4686 36.7976 28.0632 36.7677 27.6755C36.702 26.8251 36.4251 26.5363 35.5765 26.6194C33.722 26.7994 31.8734 26.5225 30.0189 26.5897C29.3078 26.6154 28.8616 26.2179 28.8417 25.5276C28.8058 24.3508 28.746 23.176 28.9472 21.9913C29.0966 21.1151 29.5548 20.8521 30.3436 20.7928C31.485 20.7077 31.487 20.684 31.5049 19.5724C31.5209 18.6528 31.491 17.7311 31.5228 16.8094C31.5348 16.4396 31.6145 16.0915 31.8794 15.8106L31.8714 15.8166C32.1603 15.5436 32.5268 15.5575 32.8893 15.5278C33.973 15.4408 34.1403 15.3063 34.1562 14.2185C34.1682 13.4373 34.1841 12.6521 34.1363 11.8689C34.0726 10.8266 34.4152 10.4528 35.459 10.3202C36.6123 10.1719 36.6641 10.1225 36.688 8.99115C36.7059 8.17234 36.682 7.35353 36.7 6.53471C36.7079 6.10553 36.7338 5.67832 37.0764 5.35198L37.0685 5.35989C37.4888 4.93466 38.0406 4.97619 38.5605 4.98806C39.2497 5.00388 39.4927 4.68941 39.4887 4.03476C39.4827 3.04981 39.4668 2.06683 39.5066 1.08188C39.5306 0.486561 39.7477 0.0712205 40.421 0.0435311V0.0415533Z" fill="#0060A9"/>
<path d="M5.4362 0.0454595C10.6552 0.0454595 15.8721 0.0434817 21.0911 0.0415039C21.5074 0.369821 21.4815 0.842518 21.4934 1.29741C21.5193 2.24281 21.4994 3.1882 21.5094 4.13557C21.5154 4.70321 21.7484 4.96428 22.3341 4.97417C22.8818 4.98406 23.4675 4.9089 23.9157 5.35589H23.9077C24.2404 5.65453 24.2264 6.04614 24.2204 6.44764C24.2045 7.46621 24.2324 8.48478 24.2085 9.50336C24.1926 10.1283 24.4455 10.3716 25.081 10.4013C26.7781 10.4824 26.8658 10.5991 26.8777 12.3356C26.8837 13.0911 26.8817 13.8466 26.8857 14.6022C26.8857 15.1658 27.1068 15.4526 27.7044 15.4546C28.1964 15.4546 28.7084 15.4388 29.1067 15.8225L29.1008 15.8185C29.3717 16.0974 29.4514 16.4455 29.4613 16.8134C29.4872 17.9288 29.5111 19.0463 29.4533 20.1618C29.4016 21.1724 29.1287 21.4078 28.1088 21.4533C27.2443 21.4915 26.8107 21.9438 26.808 22.8101C26.806 23.7298 26.816 24.6494 26.802 25.5691C26.7921 26.1941 26.4873 26.5066 25.8439 26.5936C24.3459 26.7954 24.3459 26.8151 24.2025 28.2649C24.1786 28.4963 24.1507 28.7218 23.9834 28.9037C23.8838 28.9907 23.8041 29.145 23.6966 29.1687C21.9297 29.5564 20.1608 29.7957 18.4258 29.0244C18.131 28.5477 18.1708 28.0097 18.1748 27.4876C18.1808 26.8784 17.9617 26.6114 17.3063 26.5877C15.7207 26.5303 15.665 26.4413 15.661 24.8452C15.659 24.1214 15.653 23.3975 15.663 22.6716C15.6689 22.2939 15.5972 21.9537 15.3263 21.6728C15.0156 21.4118 14.6391 21.4751 14.2805 21.4573C13.2228 21.4019 12.8702 21.0736 12.8144 20.0135C12.7646 19.0938 12.7786 18.1721 12.8025 17.2524C12.8204 16.5167 12.5694 16.1369 11.7746 16.1864C11.3444 16.2121 10.9101 16.1587 10.5715 15.8284L10.5775 15.8324C10.2189 15.4665 10.2249 14.9997 10.2169 14.5389C10.201 13.6192 10.2249 12.6995 10.201 11.7778C10.187 11.2379 9.99781 10.9511 9.38627 10.9056C7.83453 10.787 7.64928 10.5615 7.62737 9.04253C7.61542 8.22174 7.62338 7.39896 7.6194 6.57817C7.6194 6.01845 7.39431 5.77123 6.80468 5.70991C5.03383 5.52202 4.84061 5.26491 4.98602 3.44136C5.04379 2.71155 4.80475 2.00547 4.85256 1.28159C4.88443 0.799006 4.82268 0.263019 5.4382 0.0494152L5.4362 0.0454595Z" fill="#024787"/>
<path d="M23.9516 86.9542C23.5731 86.6398 23.7623 86.2145 23.7563 85.8447C23.7344 84.4365 23.7484 84.4365 22.3799 84.4345C21.4178 84.4345 20.4557 84.4404 19.4935 84.4226C19.1808 84.4167 18.8202 84.5551 18.5732 84.2229C19.0354 83.7858 19.619 83.8946 20.1688 83.8807C20.9596 83.8609 21.7524 83.857 22.5432 83.8768C23.2424 83.8946 23.599 83.6394 23.5532 82.9076C23.5273 82.4844 23.5591 82.0572 23.605 81.6319C23.5452 81.2443 23.5571 80.8527 23.5452 80.4631C23.5213 79.6027 23.8619 79.0232 24.7463 78.8294C26.1248 78.6079 27.5132 78.7344 28.8976 78.7206C31.043 78.6988 33.1903 78.7206 35.3356 78.7107C35.7619 78.7107 36.1962 78.7681 36.6005 78.5762C36.973 78.2637 36.9591 77.8385 36.981 77.4093C37.0288 76.4461 37.2081 76.2721 38.1642 76.2444C39.0188 76.2206 39.8753 76.2384 40.7299 76.2365C41.0904 76.2365 41.457 76.2622 41.7797 76.0565C42.1701 75.7796 42.0765 75.3603 42.1004 74.9786C42.1263 74.5573 42.0924 74.1202 42.4211 73.782C42.8055 73.3647 43.3254 73.4181 43.8095 73.426C44.5246 73.4359 44.6999 73.0621 44.6939 72.4351C44.6899 71.8358 44.4927 71.5273 43.8374 71.5253C43.176 71.5233 42.7517 71.6737 42.7776 72.445C42.7916 72.894 42.8334 73.3746 42.4629 73.7425C42.3354 73.869 42.186 73.8868 42.0227 73.8334C41.2637 72.9731 41.1203 71.7983 41.6303 70.8272C41.8753 70.3604 42.2398 70.1606 42.7577 70.1962C43.3234 70.2358 43.8294 70.2358 44.2796 69.7255C44.7437 69.1994 45.0007 69.7077 45.2218 70.0835C45.4688 70.9992 46.1919 70.9023 46.8811 70.8291C47.6082 70.752 47.4528 70.1606 47.4966 69.7018C47.5325 69.3161 47.4966 68.9166 47.7436 68.5764C47.8233 68.4953 47.9149 68.434 48.0185 68.3885C48.144 68.3391 48.2715 68.2956 48.4049 68.2916C49.9447 68.26 50.0403 68.43 50.0364 66.4918C50.0364 65.7679 50.0105 65.0421 50.0523 64.3182C50.114 63.2482 50.3511 63.0207 51.4367 62.9179C52.5821 62.8091 52.612 62.7992 52.616 61.7015C52.6319 58.3076 52.612 54.9137 52.6299 51.5217C52.6339 50.7425 52.3869 50.4062 51.5542 50.3805C50.2913 50.341 50.0822 50.072 50.0423 48.8161C50.0164 48.025 50.0025 47.2338 50.0423 46.4447C50.0822 45.6298 49.8252 45.1888 48.9268 45.2501C48.5344 45.2758 48.1281 45.2323 47.7874 44.9772C47.3313 44.2157 47.5006 43.389 47.6082 42.5998C47.6918 41.9847 48.2615 41.7869 48.8073 41.7968C49.7196 41.8127 50.1399 41.4566 50.0563 40.5251C50.0244 40.1711 50.0941 39.8072 50.3332 39.5065C50.9706 39.1011 51.6897 39.2118 52.357 39.2969C53.0382 39.3839 53.3052 39.9496 53.343 40.6003C53.4008 41.5872 53.3689 42.5741 53.3709 43.563C53.3709 44.2157 53.6159 44.5104 54.3111 44.5203C55.0402 44.5302 55.2214 44.1761 55.2155 43.5472C55.2075 42.6592 55.2035 41.7691 55.2214 40.8811C55.2314 40.4242 55.1975 39.9496 55.568 39.5837C55.9744 39.9555 55.7613 40.4381 55.7712 40.8673C55.8031 42.1944 55.7872 43.5235 55.7892 44.8526C56.1358 45.2244 56.1378 45.6911 56.1437 46.154C56.1557 47.0103 56.1577 47.8667 56.1477 48.7231C56.1397 49.3817 56.3967 49.6982 57.0859 49.6745C57.5102 49.6586 57.9524 49.5973 58.3528 49.8287C58.811 50.2124 59.3568 49.9553 59.8568 50.0324C60.2273 50.0898 60.6476 49.8841 60.9623 50.2362C60.6276 50.5684 60.1894 50.6199 59.7611 50.5981C58.9544 50.5546 58.7452 50.964 58.7472 51.6859C58.7552 54.8108 58.7532 57.9378 58.7492 61.0627C58.7492 61.4246 58.7592 61.7866 58.7293 62.1485C58.6476 63.1295 58.305 63.4954 57.3409 63.6358C56.1816 63.8039 56.1776 63.8039 56.1637 64.9728C56.1557 65.6967 56.1696 66.4206 56.1656 67.1445C56.1617 67.7536 56.3967 68.0582 57.0401 68.0562C57.4963 68.0562 57.9803 68.0384 58.3448 68.4083C57.8309 68.8612 57.2134 68.61 56.6557 68.6021C55.9485 68.5922 55.7453 68.8474 55.7712 69.5159C55.8151 70.6234 55.7912 71.735 55.7772 72.8445C55.7732 73.155 55.8987 73.5071 55.58 73.7563C55.2155 73.3904 55.2354 72.9177 55.2254 72.4589C55.2055 71.5688 55.2215 70.6808 55.2115 69.7908C55.2035 69.1836 54.8908 69.0016 54.331 68.9977C53.7454 68.9937 53.3749 69.1421 53.3729 69.8165C53.3689 70.7065 53.3769 71.5945 53.361 72.4846C53.353 72.9474 53.355 73.4141 53.0044 73.784L53.0144 73.7741C52.5821 74.1875 52.0243 74.1064 51.5044 74.1202C50.857 74.136 50.7555 74.5257 50.7594 75.0419C50.7634 75.5403 50.8152 75.9635 51.4785 75.9873C51.9965 76.007 52.5562 75.9161 52.9885 76.3334C52.1638 76.7843 51.2734 76.4184 50.4228 76.5391C50.0244 76.9228 49.5105 76.8931 49.0205 76.8951C48.4408 76.8951 48.1798 77.1443 48.1798 77.7238C48.1798 78.2103 48.2117 78.7206 47.8213 79.1162C47.7038 79.9646 48.0603 80.8487 47.6141 81.6715C47.2237 81.2779 47.2635 80.7657 47.2596 80.2831C47.2536 79.6957 46.9707 79.4702 46.403 79.4722C45.4787 79.4722 44.5565 79.4742 43.6322 79.4722C43.0446 79.4722 42.8055 79.7392 42.8035 80.3088C42.8015 80.7953 42.8274 81.3016 42.447 81.6992L42.4589 81.6873C42.1183 82.0077 41.688 82.0334 41.2518 82.0414C40.3913 82.0552 39.5307 82.0493 38.6682 82.0473C38.0029 82.0473 37.4153 82.0414 37.4272 82.9966C37.4392 83.9025 38.0009 83.8867 38.6224 83.8886C39.4829 83.8906 40.3434 83.8787 41.206 83.8965C41.6342 83.9044 42.0765 83.8946 42.4131 84.2347C42.0406 84.6441 41.5546 84.4246 41.1243 84.4365C39.7877 84.4701 38.4511 84.4523 37.1145 84.4563C36.6483 84.8657 36.0727 84.8222 35.5129 84.8241C32.2401 84.8281 28.9693 84.834 25.6965 84.8241C24.5153 84.8202 24.2444 84.7628 24.2743 86.0702C24.2822 86.3985 24.2185 86.7268 23.9496 86.9701L23.9516 86.9542Z" fill="#B2B2B2"/>
<path d="M58.3446 68.4022C56.6315 68.4642 55.7743 67.6447 55.7729 65.9438C55.7729 65.7144 55.7729 65.483 55.7729 65.2535C55.7729 63.4122 55.771 63.3806 57.5657 63.2916C58.3466 63.254 58.3765 62.8129 58.3765 62.2394C58.3705 58.6912 58.3725 55.1449 58.3745 51.5967C58.3745 50.6817 58.8399 50.2235 59.7708 50.2222C60.1672 50.2222 60.5656 50.2261 60.962 50.2301C60.97 54.3064 60.966 58.3846 60.9999 62.4609C61.0058 63.1254 60.7648 63.2876 60.1354 63.2916C58.3645 63.2995 58.3665 63.3232 58.3645 65.0498C58.3645 66.1673 58.3525 67.2848 58.3466 68.4022H58.3446Z" fill="#8B8B8D"/>
<path d="M5.43602 0.045465C5.09738 0.595297 5.23284 1.20842 5.2667 1.78198C5.31849 2.63838 5.33044 3.48488 5.2667 4.3393C5.21889 4.96824 5.41411 5.35589 6.22085 5.34205C7.96582 5.31238 7.96582 5.35985 7.96781 7.1379C7.96781 7.96067 8.02358 8.78739 7.95187 9.60423C7.88414 10.3677 8.22875 10.6109 8.91001 10.5912C9.14108 10.5852 9.37214 10.5536 9.60321 10.5378C10.2884 10.4863 10.6351 10.7118 10.6052 11.4832C10.5514 12.9289 10.5833 14.3787 10.5793 15.8264C8.83564 15.8502 7.96382 15.0135 7.96382 13.3166C7.96382 13.1841 7.96582 13.0535 7.96382 12.921C7.9459 12.2308 8.15904 11.404 7.84829 10.8878C7.47778 10.2747 6.56745 10.6841 5.89815 10.6386C5.35036 10.601 5.2428 10.3301 5.24877 9.87123C5.26072 8.6529 5.22089 7.43259 5.2667 6.21624C5.2926 5.53389 5.07746 5.30447 4.3743 5.3104C2.62734 5.32227 2.62734 5.28864 2.62934 3.53235C2.62934 2.61069 2.65324 1.68705 2.62137 0.765389C2.60344 0.22149 2.77475 -0.0198028 3.35242 0.01382C4.04562 0.055354 4.74481 0.0355759 5.44 0.0434872L5.43602 0.045465Z" fill="#898B8D"/>
<path d="M47.5981 31.6785C47.6632 33.3688 46.8684 34.2153 45.2137 34.218C44.5842 34.218 43.9528 34.1784 43.3273 34.2279C42.6142 34.2832 42.4269 33.9806 42.4269 33.3121C42.4269 31.6448 42.3971 31.6488 40.7378 31.6448C39.5784 31.6429 38.4211 31.633 37.2618 31.627C37.0526 31.0436 37.214 30.4423 37.1662 29.851C37.2478 29.4633 37.5187 29.5958 37.7558 29.6413C38.0725 29.7244 38.2617 30.116 38.6581 30.0072C39.0526 29.3565 39.5984 29.0598 40.3852 29.1627C40.9031 29.2319 41.4349 29.1627 41.9608 29.1923C42.674 29.2319 43.0086 28.781 42.7596 28.1223C42.672 27.8929 42.6421 27.6853 42.7696 27.4677C42.9927 27.086 44.4986 26.5737 45.0245 26.7003C45.0344 28.0828 45.0743 29.4653 45.0444 30.8458C45.0305 31.5024 45.2615 31.7239 45.9089 31.6705C46.4686 31.6251 47.0344 31.6705 47.5981 31.6785Z" fill="#8B8B8D"/>
<path d="M23.9513 86.9543C23.9553 86.1394 23.6187 85.1367 24.0868 84.5631C24.5429 84.0054 25.5588 84.4504 26.3218 84.4425C29.9193 84.4088 33.5167 84.4365 37.1142 84.4425C37.1063 85.0675 37.0744 85.6944 37.1003 86.3194C37.1222 86.8415 36.8991 87.0037 36.3951 86.9998C32.2479 86.9741 28.0986 86.9661 23.9513 86.9543Z" fill="#8B8B8C"/>
<path d="M0.0219116 50.2302C1.74961 50.2144 2.61346 51.0629 2.61346 52.7756C2.61346 55.859 2.61346 58.9444 2.61147 62.0278C2.61147 62.4491 2.68119 62.8862 2.4063 63.266C0.802099 63.291 0 62.5223 0 60.9598C0.0059759 57.3839 0.0139438 53.8081 0.0219116 50.2302Z" fill="#8B8B8C"/>
<path d="M18.5331 28.8757C20.3219 29.1466 22.1106 29.1822 23.8954 28.8519C23.9273 28.8717 23.9572 28.8915 23.9891 28.9093C24.0189 28.9864 23.999 29.0438 23.9253 29.0833C23.8895 30.7895 23.0223 31.6426 21.3238 31.6426C20.6625 31.6426 19.9992 31.6703 19.3398 31.6347C18.7382 31.6031 18.543 31.8345 18.5291 32.4298C18.4833 34.2059 18.4594 34.2039 16.6586 34.2118C15.832 34.2158 15.0033 34.196 14.1786 34.2296C13.599 34.2534 13.3101 34.0734 13.354 33.4523C13.3958 32.8629 13.3779 32.2716 13.3858 31.6802C14.2324 31.5101 15.1328 31.8978 15.9535 31.4429C16.4913 31.0493 16.3419 30.454 16.3937 29.9239C16.5232 28.5553 17.2602 28.1874 18.5331 28.8717V28.8757Z" fill="#8B8B8D"/>
<path d="M13.3661 81.6694C12.9817 81.2145 13.2366 80.6766 13.1669 80.1801C13.1151 79.8083 13.2904 79.393 12.9558 79.0745C12.7167 78.6414 12.8263 78.1687 12.8223 77.7158C12.8183 77.1422 12.5793 76.8752 11.9897 76.8713C11.5016 76.8673 10.9797 76.9286 10.5813 76.5311C9.7208 76.4203 8.82442 76.7704 7.98779 76.3333C8.77263 75.732 9.70686 76.0801 10.5634 75.9278C11.8502 75.9476 13.1311 76.0445 14.4119 76.1751C15.2346 76.2581 15.6628 75.9476 15.6091 75.0754C15.5573 74.2507 15.8939 73.6791 16.7664 73.511C17.3002 73.4061 17.8321 73.3686 18.344 73.6059C19.1627 74.2052 18.7205 75.1624 19.0093 75.912C19.5671 76.537 20.3161 76.1098 20.9595 76.2621C21.1208 76.2937 21.2643 76.361 21.3878 76.4698C21.7324 77.0908 21.6248 77.7553 21.5232 78.3962C21.4316 78.9717 21.0292 79.3514 20.4216 79.3514C19.7504 79.3514 19.1169 79.5611 18.4556 79.6026C17.1249 79.3396 15.7824 79.4859 14.4438 79.4741C13.9497 79.4701 13.7525 79.7272 13.7306 80.1999C13.7047 80.7102 13.7824 81.2541 13.3681 81.6734L13.3661 81.6694Z" fill="#B2B2B2"/>
<path d="M23.8955 28.8522C23.8915 28.7217 23.8835 28.5891 23.8835 28.4586C23.8716 26.4927 23.8696 26.4689 25.8157 26.3522C26.4133 26.3166 26.5189 26.0536 26.5109 25.5492C26.491 24.3665 26.5309 23.1818 26.497 22.001C26.4791 21.38 26.6663 21.1367 27.3336 21.1288C29.1264 21.1091 29.1284 21.0794 29.1244 19.2697C29.1204 18.1206 29.1085 16.9695 29.0985 15.8204C30.0248 15.8184 30.953 15.8164 31.8793 15.8145C31.8793 17.2919 31.8594 18.7713 31.8952 20.2487C31.9112 20.9053 31.7199 21.1803 31.0048 21.1921C29.1742 21.2198 29.1762 21.2515 29.1344 23.079C29.0852 25.2506 30.139 26.3358 32.2956 26.3344C33.5525 26.3344 34.8135 26.3859 36.0664 26.3186C36.9249 26.2731 37.1839 26.5995 37.1002 27.3945C37.0484 27.8831 37.0883 28.3795 37.0883 28.872C36.5166 29.141 36.2616 28.8641 36.2576 28.334C36.2517 27.531 35.8353 27.3332 35.1103 27.3906C34.0226 27.4756 32.941 27.4796 31.8733 27.1256C31.3096 26.9377 30.6921 27.0108 30.1164 27.2146C29.469 27.444 28.965 27.2245 28.5109 26.7616C28.0647 26.3048 28.1742 25.8716 28.3814 25.3277C28.74 24.3883 28.5647 23.3855 28.5109 22.4065C28.489 22.0268 28.2081 21.9417 27.8734 21.9536C27.4651 21.9694 27.3934 22.2404 27.4073 22.5647C27.4432 23.3519 27.4571 24.1391 27.4352 24.9282C27.3914 26.4017 27.1703 26.6924 25.7779 27.2047C25.1445 27.4381 24.5648 27.7288 24.3895 28.4764C24.3397 28.6861 24.2421 28.9293 23.9294 28.8898L23.8955 28.8581V28.8522Z" fill="#878B8F"/>
<path d="M50.4046 15.8282C50.4007 14.3785 50.4285 12.9288 50.3827 11.479C50.3588 10.7354 50.6437 10.498 51.3707 10.5139C53.2233 10.5574 52.9942 10.6602 53.0121 8.87227C53.0201 7.98226 53.0559 7.09027 53.0022 6.20421C52.9583 5.49021 53.2512 5.30034 53.9244 5.31023C54.536 5.31815 55.1913 5.50208 55.763 5.10059C55.8188 5.14608 55.8407 5.1975 55.8308 5.2509C55.8188 5.30628 55.8049 5.33397 55.7889 5.33397C55.773 6.77975 55.7312 8.22553 55.7511 9.67131C55.759 10.3042 55.6694 10.5752 54.8985 10.5811C53.0261 10.5969 53.0261 10.6582 53.0261 12.5451C53.0261 13.4331 53.0121 14.3211 53.034 15.2092C53.044 15.67 52.8667 15.8638 52.3966 15.848C51.7353 15.8243 51.072 15.8362 50.4106 15.8322L50.4046 15.8282Z" fill="#8A8A8D"/>
<path d="M37.8613 29.8626C37.6621 29.7973 37.4629 29.7301 37.2657 29.6648C37.1303 29.4572 37.1203 29.2495 37.2717 29.0458C38.6959 29.0458 40.1222 29.0161 41.5445 29.0636C42.2536 29.0873 42.5165 28.8262 42.4309 28.1518C42.4149 28.0213 42.4289 27.8887 42.4289 27.7582C42.4289 26.3579 42.4329 26.2887 43.8233 26.3599C44.8631 26.4133 45.1439 26.0336 45.0663 25.0605C44.9846 24.0478 45.0722 23.0214 45.0404 22.0028C45.0204 21.3897 45.2037 21.1345 45.877 21.1246C47.7893 21.0989 47.7893 21.0693 47.7873 19.1488C47.7873 18.2944 47.8052 17.438 47.7813 16.5836C47.7654 16.0456 47.9546 15.7964 48.5243 15.8221C49.1518 15.8498 49.7832 15.8221 50.4127 15.8221C50.3968 16.0258 50.3788 16.2295 50.3629 16.4352C50.2912 16.9238 50.0223 16.9534 49.582 16.8605C48.6697 16.6686 48.3809 16.9178 48.3271 17.8415C48.2773 18.6979 48.3889 19.5463 48.4546 20.3988C48.4805 20.7409 48.5542 21.0791 48.0442 21.095C47.6837 21.3105 47.7853 21.6705 47.7813 21.985C47.7713 23.1044 47.7315 24.2258 47.7933 25.3413C47.8371 26.1325 47.6538 26.4548 46.7714 26.3856C46.2037 26.3421 45.5005 26.0434 45.0284 26.7021C44.2476 26.6645 43.8651 27.5367 43.0205 27.5327C42.7217 27.5327 42.903 28.134 43.3372 28.2665C43.5225 28.3239 43.7794 28.3061 43.7794 28.5652C43.7794 28.8796 43.4348 28.6937 43.3611 28.7689C42.3871 29.7776 41.172 29.2238 40.0764 29.2435C39.1541 29.2594 39.2497 30.2028 38.6601 30.4599C38.447 30.1929 38.2557 29.8982 37.8633 29.8666L37.8613 29.8626Z" fill="#8A8B8E"/>
<path d="M10.5731 36.9651C10.5731 37.1965 10.5771 37.4259 10.5771 37.6573C10.5791 39.4196 10.5811 39.4393 8.79032 39.5422C8.18875 39.5778 7.97162 39.829 7.97959 40.3986C7.99553 41.6169 7.9537 42.8372 7.99354 44.0555C8.01545 44.7161 7.75848 44.9653 7.12305 44.8843C7.09117 44.8803 7.05731 44.8843 7.02345 44.8843C5.14701 44.8645 5.41394 45.0484 5.39999 43.3356C5.39003 42.0837 5.40995 40.8317 5.41593 39.5798C6.00954 39.5718 6.60314 39.5382 7.19476 39.562C7.71466 39.5837 7.9537 39.4571 7.97362 38.8658C8.04333 36.9414 8.06923 36.9414 9.97753 36.9552C10.1747 36.9552 10.3739 36.9631 10.5711 36.9671L10.5731 36.9651Z" fill="#8B8B8C"/>
<path d="M37.0783 5.34998C37.0843 6.6949 37.0245 8.04574 37.1161 9.3867C37.1839 10.3736 36.7536 10.6426 35.8731 10.6565C34.4887 10.6762 34.4867 10.7 34.4828 12.037C34.4788 13.0555 34.4628 14.0721 34.4907 15.0907C34.5047 15.6267 34.3334 15.8838 33.7597 15.8502C33.1342 15.8146 32.5047 15.8265 31.8753 15.8185C31.8633 15.7533 31.8673 15.69 31.8892 15.6267C32.4788 15.1718 32.8493 14.5112 33.4091 14.0286C33.3533 13.9119 33.2497 13.9456 33.1601 13.9574C32.7737 14.0088 32.3135 14.173 32.1601 13.6469C32.0127 13.1406 32.2717 12.6877 32.7537 12.5532C33.3414 12.387 33.5007 12.1912 33.2179 11.6117C32.9489 11.0619 33.1621 10.7296 33.8294 10.7811C33.9848 10.7929 34.1621 10.8246 34.2696 10.6505C34.7098 9.60821 34.4389 8.51844 34.4628 7.4524C34.5126 5.30054 34.4768 5.29856 36.6819 5.33218C36.8134 5.33416 36.9468 5.34405 37.0783 5.34801V5.34998Z" fill="#8A8B8D"/>
<path d="M10.5713 15.8242C10.7028 15.8262 10.8363 15.8302 10.9677 15.8322C12.4617 15.8493 13.2074 16.616 13.2047 18.1324C13.2047 18.8543 13.2286 19.5762 13.1967 20.2961C13.1689 20.9369 13.4358 21.1802 14.0752 21.1485C14.6329 21.1228 15.1947 21.1802 15.7544 21.2019C15.9098 22.9167 15.9317 24.6295 15.7385 26.3422C15.6767 26.3462 15.617 26.3363 15.5592 26.3106C14.88 26.1207 14.6588 25.6203 14.625 24.9776C14.5812 24.1587 14.6469 23.336 14.5712 22.5191C14.5453 22.2244 14.5154 21.8645 14.127 21.8625C13.6987 21.8605 13.7525 22.2581 13.7366 22.533C13.6888 23.3518 13.7306 24.1726 13.7127 24.9934C13.7027 25.4503 13.7366 25.923 13.3641 26.2849C13.0055 24.9716 13.2127 23.6307 13.2346 22.3075C13.2505 21.3503 12.9677 21.0793 12.0175 21.1188C10.4518 21.1861 10.5952 21.3799 10.5853 19.7462C10.5773 18.4389 10.5753 17.1296 10.5693 15.8223L10.5713 15.8242Z" fill="#8A8B8E"/>
<path d="M29.1065 15.8221C27.3708 15.888 26.5016 15.0831 26.499 13.4072C26.499 12.7506 26.4691 12.09 26.5049 11.4353C26.5388 10.8439 26.3237 10.6402 25.7161 10.6244C23.8875 10.575 23.8855 10.5493 23.8895 8.70395C23.8895 7.58649 23.9014 6.46903 23.9074 5.35156C24.1763 5.35552 24.4472 5.3575 24.7162 5.36145C24.9891 5.64428 24.9711 5.97655 24.7978 6.2752C24.3755 7.00501 24.4333 7.79812 24.4492 8.58529C24.4731 9.75813 24.7201 9.96975 25.8934 9.87086C26.0906 9.85504 26.2858 9.79768 26.4771 9.89855C26.4293 10.6303 26.9153 10.6303 27.4491 10.6343C29.1264 10.6462 29.1304 10.6561 29.1264 12.2877C29.1244 13.4665 29.1124 14.6433 29.1045 15.8221H29.1065Z" fill="#8A8A8E"/>
<path d="M55.5681 39.5819C55.5741 41.0613 55.5582 42.5426 55.598 44.022C55.6159 44.651 55.4267 44.9002 54.7594 44.8844C52.6678 44.8349 53.0304 45.0663 53.0045 43.1656C52.9925 42.3112 52.9626 41.4529 53.0144 40.6004C53.0662 39.7599 52.7037 39.475 51.9029 39.5443C51.4089 39.5858 50.9089 39.5482 50.4129 39.5443C50.2316 39.3682 50.2297 39.1705 50.3392 38.9588C50.9009 38.6463 51.5463 38.7314 52.1479 38.5929C52.7037 38.4644 52.8411 38.947 52.9845 39.3504C53.8112 39.8093 54.7156 39.4118 55.5681 39.5819Z" fill="#8B8B8C"/>
<path d="M40.4208 0.0413544C39.9248 0.179801 39.8093 0.512074 39.8232 1.00059C39.8571 2.17937 39.8113 3.35815 39.8372 4.53692C39.8491 5.11444 39.6679 5.38145 39.0464 5.34782C38.389 5.31222 37.7277 5.3498 37.0684 5.35574C37.0763 3.91391 37.1381 2.47011 37.0743 1.03224C37.0365 0.181779 37.3472 -0.0555584 38.148 0.00970944C38.901 0.0729994 39.6619 0.035421 40.4188 0.0413544H40.4208Z" fill="#898B8E"/>
<path d="M23.9154 5.3537C23.2242 5.34579 22.531 5.31217 21.8418 5.33393C21.3279 5.34975 21.1725 5.14603 21.1506 4.64565C21.0888 3.11087 21.292 1.57411 21.0908 0.0413012C22.958 -0.0404484 23.8929 0.847589 23.8955 2.70541C23.8955 3.58752 23.9075 4.4716 23.9134 5.3537H23.9154Z" fill="#919194"/>
<path d="M55.7872 5.33196C55.7793 5.25483 55.7713 5.17769 55.7613 5.10056C55.7594 3.80312 55.7494 2.50765 55.7574 1.2102C55.7594 0.777063 55.7374 0.365678 55.4048 0.0393386C56.1657 0.0334052 56.9266 0.0472499 57.6876 0.0156049C58.2135 -0.00615106 58.3808 0.217342 58.3728 0.717728C58.3509 2.03297 58.3469 3.34822 58.3728 4.66149C58.3828 5.18363 58.1836 5.35965 57.6756 5.33592C57.0482 5.30625 56.4187 5.32999 55.7892 5.32999L55.7872 5.33196Z" fill="#8B8C8E"/>
<path d="M42.4132 84.2231C40.9232 84.229 39.4332 84.2033 37.9452 84.2547C37.2241 84.2785 37.0409 84.0016 37.0588 83.335C37.1126 81.4304 36.8915 81.6935 38.6842 81.6776C39.9412 81.6658 41.2001 81.6776 42.457 81.6776C42.4411 82.5261 42.4271 83.3766 42.4112 84.2251L42.4132 84.2231Z" fill="#8B8B8C"/>
<path d="M23.9177 81.6913C23.9177 83.3988 23.0592 84.2493 21.3421 84.2427C20.4199 84.2387 19.4956 84.2308 18.5733 84.2249C18.5653 83.3724 18.5554 82.52 18.5454 81.6676C18.5892 81.6221 18.635 81.5746 18.6789 81.5291C20.4358 81.2364 22.1927 80.9714 23.9177 81.6913Z" fill="#919192"/>
<path d="M5.39808 73.7623C5.39808 72.3145 5.42995 70.8667 5.38015 69.421C5.35226 68.6239 5.79647 68.4499 6.42195 68.4815C7.97767 68.5626 7.97568 68.5764 7.97967 70.1073C7.97967 70.4692 7.98963 70.8311 7.9956 71.1931C8.51949 71.9822 8.42188 72.803 8.12508 73.6337C8.07926 73.6752 8.03544 73.7168 7.98963 73.7583C7.12511 73.7583 6.2606 73.7603 5.39609 73.7623H5.39808Z" fill="#919192"/>
<path d="M53.0024 73.7762C53.0024 72.3699 53.0363 70.9617 52.9885 69.5555C52.9646 68.8336 53.1917 68.5745 53.9387 68.5943C55.8729 68.6477 55.5661 68.4657 55.584 70.2161C55.596 71.3929 55.58 72.5717 55.5781 73.7505C54.7195 73.7584 53.861 73.7683 53.0024 73.7762Z" fill="#8A8A8C"/>
<path d="M13.3663 81.6698C13.3544 79.9557 14.2016 79.0986 15.9081 79.0986C16.5336 79.0986 17.157 79.0947 17.7825 79.0986C18.1052 79.1006 18.4678 79.0373 18.5594 79.4942C19.0833 80.226 19.0414 80.9519 18.5375 81.6718L18.5454 81.6659C16.8184 81.6659 15.0934 81.6659 13.3663 81.6659V81.6698Z" fill="#8A8A8C"/>
<path d="M42.4469 81.6876C42.4336 79.9616 43.3081 79.0993 45.0703 79.1006C46.7914 79.1006 47.6393 79.9543 47.6141 81.6619C45.891 81.6698 44.17 81.6797 42.4469 81.6876Z" fill="#8A8A8C"/>
<path d="M2.63529 63.4873C3.31256 63.0997 4.04959 63.3271 4.75873 63.2975C5.09338 63.2836 5.20294 63.5229 5.20294 63.8176C5.20692 65.1546 5.20095 66.4936 5.21091 67.8306C5.21489 68.3211 4.94 68.4358 4.5177 68.4259C3.89422 68.4081 3.26874 68.4081 2.64525 68.3983C2.64127 66.7606 2.63728 65.123 2.6333 63.4873H2.63529Z" fill="#8A8A8C"/>
<path d="M5.19489 44.8389C5.19887 46.2866 5.18293 47.7324 5.21879 49.1782C5.23473 49.7992 5.05146 50.1236 4.38017 50.0425C3.80051 49.9733 3.18101 50.2007 2.64118 49.823C2.6372 48.4543 2.66509 47.0857 2.61131 45.719C2.58342 45.0129 2.85632 44.8033 3.52163 44.8507C4.0754 44.8903 4.63714 44.8448 5.19489 44.8389Z" fill="#8A8A8C"/>
<path d="M58.3525 49.8268C57.6732 50.2263 56.9302 50.0245 56.2171 50.0146C55.6713 50.0067 55.7868 49.5281 55.7848 49.1879C55.7788 47.7421 55.7848 46.2964 55.7888 44.8506C56.5995 44.9218 57.6294 44.5163 58.1692 45.0286C58.719 45.5487 58.3086 46.5772 58.3505 47.3802C58.3943 48.1931 58.3544 49.0099 58.3505 49.8268H58.3525Z" fill="#8D8D8E"/>
<path d="M26.4793 9.89882C25.9494 10.3517 25.3558 10.415 24.7263 10.154C24.0112 9.85927 24.1965 9.21648 24.1029 8.64687C23.9057 7.46216 24.4216 6.43765 24.7184 5.36172C25.9136 5.29843 26.5118 5.86277 26.5131 7.05473C26.5131 8.0021 26.4912 8.95145 26.4793 9.89882Z" fill="#8A8A8D"/>
<path d="M48.0423 21.0933C48.4407 20.6126 48.0722 20.0826 48.0722 19.5961C48.0722 18.9513 48.0264 18.2907 48.0264 17.638C48.0264 16.572 48.7853 16.1131 49.7215 16.6372C50.092 16.8449 50.1817 16.5937 50.3629 16.4355C50.3749 17.7468 50.3669 19.0581 50.4108 20.3674C50.4307 20.9607 50.2394 21.2119 49.6219 21.1526C49.098 21.1012 48.5682 21.1111 48.0423 21.0952V21.0933Z" fill="#8A8B8D"/>
<path d="M15.7384 26.3425C15.7443 24.6297 15.7503 22.9149 15.7543 21.2021C16.1527 22.5471 15.8878 23.9216 15.9057 25.2804C15.9156 26.0656 16.087 26.3741 16.9455 26.3603C18.6725 26.3326 18.557 26.0003 18.557 27.988C18.557 28.2827 18.5411 28.5774 18.5311 28.8741C18.4335 28.8741 18.3359 28.8741 18.2383 28.8741C16.5909 28.88 16.7503 28.7534 16.7503 30.3199C16.7503 30.8855 16.81 31.4808 15.9535 31.4452C15.9575 29.863 15.9595 28.2807 15.9635 26.7005C16.561 26.4869 17.1845 26.6767 17.7204 26.5917C17.1686 26.568 16.5431 26.6866 15.9256 26.5185C15.8619 26.4612 15.7981 26.4018 15.7344 26.3445L15.7384 26.3425Z" fill="#898A8C"/>
<path d="M13.3663 26.2849C13.3663 24.9717 13.3663 23.6604 13.3663 22.3471C13.3663 21.8566 13.2667 21.3384 14.0655 21.3503C14.8045 21.3602 14.9499 21.7914 14.9559 22.3728C14.9638 23.1936 14.9857 24.0144 14.9499 24.8332C14.924 25.4365 15.0893 25.927 15.5594 26.3107C14.8284 26.3561 14.0953 26.4095 13.3663 26.2849Z" fill="#898A8C"/>
<path d="M34.2677 10.6503C33.4271 10.8758 33.1084 11.2358 33.7398 12.0664C34.0207 12.4363 34.0048 12.9644 33.2438 12.7409C32.708 12.5846 32.5228 12.9209 32.3813 13.3026C32.2379 13.6902 32.3833 13.8801 32.8096 13.7654C32.967 13.7238 33.1104 13.6348 33.2598 13.5676C33.5705 13.4272 33.8653 13.4371 34.0008 13.7832C34.1382 14.1333 33.9311 14.3567 33.5904 14.4141C33.1383 14.4932 32.8375 14.6198 33.0227 15.1795C33.1203 15.4762 32.9431 15.6186 32.6383 15.5019C32.3554 15.3951 32.1264 15.5138 31.8873 15.6265C31.8754 14.1787 31.8754 12.733 31.8415 11.2852C31.8295 10.7453 31.971 10.4961 32.5805 10.5851C33.1343 10.6642 33.704 10.6325 34.2657 10.6503H34.2677Z" fill="#898A8C"/>
<path d="M47.8191 79.1063C47.7886 77.3566 48.6558 76.4982 50.4206 76.5312C50.3011 77.3381 50.7653 78.3686 50.2155 78.9085C49.6677 79.4465 48.6339 79.0094 47.8191 79.1083V79.1063Z" fill="#8B8B8B"/>
<path d="M52.9884 76.3234C52.7234 76.3274 52.4565 76.3313 52.1916 76.3333C50.2594 76.3373 50.2773 76.3373 50.3968 74.4465C50.4287 73.9283 50.6259 73.7483 51.1219 73.7641C51.7514 73.7839 52.3828 73.7681 53.0143 73.7661C53.0063 74.6186 52.9983 75.471 52.9884 76.3254V76.3234Z" fill="#8A8A8A"/>
<path d="M10.6053 34.4298C10.8703 34.4238 11.1352 34.412 11.4001 34.41C13.3403 34.4001 13.3204 34.3981 13.1849 36.3028C13.1471 36.8249 12.9359 36.991 12.4499 36.9772C11.8204 36.9594 11.191 36.9772 10.5615 36.9772C10.5755 36.1287 10.5914 35.2783 10.6053 34.4298Z" fill="#8B8B8D"/>
<path d="M47.8431 36.9733C47.8351 33.8641 47.3272 34.4496 50.3709 34.4357C50.3828 35.2862 50.3928 36.1386 50.4048 36.9891C50.3629 37.0326 50.3191 37.0761 50.2773 37.1216C49.4466 37.3985 48.6219 37.5409 47.8431 36.9752V36.9733Z" fill="#8A8A8A"/>
<path d="M10.5993 76.1315C9.75674 76.5627 8.85637 76.2324 7.98986 76.3293C7.98986 75.4729 7.98986 74.6146 7.98986 73.7582L7.98389 73.7661C8.63924 73.2222 9.40017 73.3112 10.1332 73.4833C10.9659 73.6791 10.9459 74.397 10.9499 75.0536C10.9499 75.4433 10.922 75.8388 10.5993 76.1296V76.1315Z" fill="#8A8A8A"/>
<path d="M10.5835 76.5294C10.8444 76.5294 11.1074 76.5234 11.3683 76.5234C13.3065 76.5215 13.6969 77.1464 12.9579 79.0728C11.3869 79.1137 10.5954 78.2652 10.5835 76.5274V76.5294Z" fill="#8B8B8B"/>
<path d="M52.9845 39.3504C52.6678 38.8678 52.2913 38.6008 51.7216 38.9944C51.2834 39.297 50.8571 39.0439 50.4268 38.9588C49.8731 38.3022 49.9388 37.6416 50.4129 36.977L50.4029 36.9869C50.5005 36.977 50.6001 36.9573 50.6977 36.9592C53.4188 37.0384 53.0264 36.3699 52.9845 39.3484V39.3504Z" fill="#8A8A8A"/>
<path d="M15.9297 26.5186H17.8958C17.8958 26.5799 17.8958 26.6392 17.8958 26.7005H15.9636C15.9417 26.6412 15.9297 26.5818 15.9277 26.5186H15.9297Z" fill="#8B8B8D"/>
<path d="M23.529 51.0551C23.3656 50.9957 23.264 50.9206 23.268 50.707C23.2899 49.4946 23.3178 48.2802 23.2939 47.0678C23.282 46.4745 23.4911 46.2114 24.0967 46.2707C24.3576 46.2965 24.6265 46.2549 24.8895 46.2806C25.4672 46.334 25.7719 46.1382 25.7042 45.5132C25.6763 45.2541 25.7221 44.9871 25.6942 44.7261C25.6245 44.0793 25.8994 43.8756 26.5448 43.8835C29.4531 43.9132 32.3594 43.9033 35.2676 43.9073C35.4051 44.0773 35.3533 44.283 35.3732 44.4769C35.4828 45.4875 35.7477 45.8 36.7457 45.9088C37.5843 45.9998 37.9986 46.4131 38.0245 47.2438C38.1082 49.9435 37.9887 52.6413 37.9269 55.339C37.9229 55.4715 37.8731 55.5961 37.8114 55.7128C37.4787 56.1479 36.9907 56.0471 36.5425 56.0589C35.9051 56.0748 35.6003 56.3536 35.5565 57.0083C35.4728 58.3037 35.4509 58.3077 34.1442 58.4323C33.8733 58.458 33.6282 58.5134 33.4271 58.6993C33.1223 59.087 33.2597 59.5636 33.1601 59.9928C33.1024 60.5426 32.7597 60.7681 32.2378 60.7958C31.8514 60.8176 31.451 60.7562 31.1064 60.9936C30.6742 61.3278 30.8514 61.8124 30.7977 62.2376C30.8036 62.4591 30.9251 62.5897 31.1323 62.653C32.2119 62.9556 33.3115 62.7321 34.3991 62.7934C34.7955 62.8151 35.1939 62.7973 35.5923 62.7973C38.0026 62.7973 38.15 62.92 38.0205 65.2914C37.9767 66.1062 38.0624 66.9369 37.8333 67.7419C37.7695 67.8586 37.6779 67.9476 37.5644 68.0148C37.0704 68.2581 36.5345 68.2185 36.0086 68.2205C32.3454 68.2264 28.6822 68.2264 25.019 68.2205C24.4612 68.2205 23.8915 68.2699 23.3796 67.9634C23.0668 67.7142 22.9951 67.3562 22.9792 66.9923C22.9334 65.9737 22.9334 64.9532 22.9792 63.9326C23.013 63.185 23.4075 62.7518 24.1624 62.7578C24.9791 62.7657 25.3875 62.467 25.3695 61.6067C25.3536 60.8156 25.8078 60.3765 26.6046 60.3765C27.3715 60.3765 27.7699 60.0976 27.7499 59.2788C27.728 58.4125 28.224 57.9181 29.0706 57.8469C29.7857 57.7856 30.1503 57.5126 30.1503 56.7531C30.1503 55.9324 30.6244 55.4419 31.451 55.4438C32.3653 55.4438 32.5307 54.9652 32.5207 54.1899C32.5068 52.9735 32.443 51.7552 32.5625 50.5408C32.5725 50.2481 32.5107 49.9574 32.5088 49.6627C32.5068 49.2098 32.2578 49.0239 31.8255 49.014C30.9391 48.9902 30.0507 48.9863 29.1642 49.0159C28.1981 49.0496 28.5726 49.8526 28.3953 50.3391C28.3714 50.8118 28.1902 51.1718 27.6962 51.3063C26.5787 51.4941 25.4552 51.3992 24.3337 51.3755C24.0349 51.3695 23.7421 51.3003 23.527 51.059L23.529 51.0551Z" fill="#ECEDEF"/>
<path d="M27.6905 51.0512C28.1845 50.9523 28.0729 50.5449 28.1187 50.2185C29.7043 50.0346 31.2939 49.7834 32.8497 50.3985C32.8616 51.9096 32.8516 53.4226 32.8955 54.9336C32.9134 55.5705 32.7003 55.8217 32.0429 55.7881C30.2203 55.6911 30.4573 56.0096 30.5051 57.2595C30.531 57.9399 30.3099 58.1753 29.6067 58.1753C28.1148 58.1753 28.0709 58.2168 28.1187 59.6507C28.1466 60.4557 27.9175 60.7524 27.069 60.7168C25.7204 60.6594 25.6766 60.7128 25.7224 62.0122C25.7503 62.7954 25.5591 63.1317 24.6906 63.0961C23.3161 63.0387 23.3121 63.0921 23.3141 64.4746C23.3141 65.5921 23.3201 66.7095 23.3241 67.827C23.334 67.8804 23.344 67.9338 23.3559 67.9872C23.4316 68.6438 23.0073 68.8634 22.4715 68.9306C21.9695 68.9939 21.7444 69.2194 21.6727 69.7376C21.4596 71.2901 21.2425 71.4622 19.6589 71.5334C19.2963 71.5492 18.9338 71.5908 18.5712 71.5888C17.7286 71.4642 16.8562 71.6639 16.0335 71.3534C15.9319 71.2941 15.8522 71.213 15.7905 71.1141C15.7546 70.9875 15.7526 71.1557 15.7526 71.0271C15.7526 69.694 15.4239 68.7032 13.7467 68.8456C13.3144 68.8831 13.1252 68.4223 13.0455 68.0129C12.9639 67.5956 12.8822 67.1803 12.8682 66.753C12.8443 65.5881 12.4997 64.3955 13.1611 63.2899C13.5714 63.8219 13.3503 64.4351 13.3503 65.0047C13.3503 65.6435 13.5634 65.9263 14.2168 65.8551C14.4459 65.8294 14.6829 65.8314 14.912 65.8551C15.6769 65.9303 15.9996 65.6198 15.9657 64.8365C15.908 63.4758 15.7526 63.193 17.5494 63.2859C18.2705 63.3235 18.5533 63.0486 18.5593 62.3148C18.5712 60.7464 18.6031 60.7148 20.2226 60.7227C20.9038 60.7266 21.2086 60.5308 21.1528 59.8287C21.1329 59.5775 21.3162 59.3125 21.2962 59.0613C21.2126 58.0091 21.8241 57.9023 22.6687 57.928C23.9157 57.9676 23.9615 57.928 23.9057 56.5416C23.8719 55.6793 24.0651 55.2956 25.0431 55.347C26.5092 55.4241 26.5112 55.3608 26.5132 53.8894C26.5132 53.5274 26.5132 53.1655 26.5132 52.8035C26.5491 52.7462 26.5909 52.671 26.6467 52.6671C27.7203 52.588 27.8737 51.9274 27.6905 51.0512Z" fill="#C0C0C0"/>
<path d="M37.654 55.7644C37.662 52.8986 37.6659 50.0327 37.6779 47.1669C37.6799 46.6744 37.6859 46.2887 36.9787 46.2591C35.2816 46.1859 35.2836 46.1503 35.2736 44.4968C35.2736 44.299 35.2676 44.1013 35.2656 43.9035C35.6381 44.1151 35.2836 44.7045 35.8035 44.8706C36.4867 45.0902 36.9787 44.7915 37.0703 44.0597C37.1142 43.7017 37.2476 43.3497 37.2476 42.9957C37.2476 42.3291 37.642 42.1689 38.2018 42.1234C40.0085 41.9771 40.126 41.8011 39.6938 39.9518C39.6639 39.8252 39.6639 39.6907 39.648 39.5602C40.4228 38.9767 41.2734 39.1409 42.0961 39.3763C42.604 39.5206 42.7873 40.0131 42.7594 40.4819C42.6996 41.4668 43.1658 41.8485 44.1 41.805C44.9884 41.8426 45.3569 42.3568 45.3888 43.1836C45.4087 43.7314 45.4386 44.2773 45.349 44.8212C45.3629 45.1475 45.4047 45.4739 45.3988 45.8042C45.3808 47.0779 45.4685 47.8492 43.6199 47.8453C43.0921 47.8453 42.8809 48.1083 42.8152 48.6285C42.616 50.2147 42.6 50.2424 41.0762 50.3966C40.4288 50.4619 40.2057 50.7645 40.2256 51.348C40.2595 52.3646 39.9308 53.0904 38.7755 53.1854C38.4169 53.215 38.2735 53.4484 38.2476 53.7886C38.2177 54.1822 38.2596 54.5817 38.1878 54.9693C38.1261 55.2977 38.1839 55.7348 37.654 55.7644Z" fill="#C0C0C0"/>
<path d="M50.4128 36.9768C50.4168 37.6374 50.4228 38.2979 50.4268 38.9585C50.4228 39.1543 50.4168 39.3501 50.4108 39.5459C50.4108 39.7081 50.4069 39.8723 50.4069 40.0345C50.4029 41.9253 50.4049 41.9391 48.5583 42.1191C48.0105 42.1725 47.8113 42.4256 47.8193 42.9339C47.8293 43.5866 47.8193 44.2373 47.8193 44.89C47.9528 45.0383 48.1002 45.1985 48.1101 45.3963C48.1759 46.9252 48.4547 48.4659 47.9209 49.971C47.8193 50.0758 47.7038 50.0956 47.5743 50.0284C47.3034 49.7475 47.2576 49.3895 47.2576 49.0296C47.2536 47.6965 47.1739 46.3615 47.2994 45.0304C47.3273 44.7713 47.2695 44.5142 47.2655 44.2551C47.2337 42.7184 47.2317 42.7144 45.7735 42.4237C45.3293 42.3347 44.9688 42.1586 44.7955 41.7136C44.7676 41.6207 44.7357 41.5257 44.7218 41.4288C44.5983 40.5335 44.099 40.018 43.2238 39.8822C42.3533 39.7477 42.1023 39.4174 42.0864 38.3612C42.0784 37.8727 42.0605 37.3743 42.443 36.9807C42.5744 36.9807 42.7079 36.9807 42.8394 36.9807C44.8214 36.9807 44.8373 36.9807 45.0246 35.0405C45.0704 34.5797 45.2477 34.3918 45.6978 34.4115C45.9628 34.4234 46.2317 34.4452 46.4906 34.4056C47.4388 34.2593 47.7038 34.6884 47.638 35.5686C47.6042 36.0274 47.4249 36.5575 47.8412 36.9708C48.6977 36.9708 49.5543 36.9748 50.4128 36.9768Z" fill="#C0C0C0"/>
<path d="M10.5993 76.1319C10.5489 74.5668 9.74346 73.7803 8.18308 73.7724C8.11735 73.7724 8.04962 73.7684 7.98389 73.7684C7.98787 72.91 7.99185 72.0537 7.99584 71.1953C9.69831 71.1821 10.5615 70.3204 10.5854 68.6103C11.2965 68.0842 12.0953 68.2068 12.8523 68.3967C13.4678 68.5509 13.7407 69.0909 13.6729 69.6921C13.5654 70.6316 14.0056 70.9085 14.8602 70.8492C15.2566 70.8215 15.649 70.8927 15.9557 71.1933L15.9518 71.1893C16.2605 71.484 16.3003 71.8697 16.2844 72.2554C16.2625 72.823 16.4179 73.3214 16.7565 73.7704C15.9398 73.9207 15.9278 74.5002 15.9418 75.1608C15.9717 76.5275 15.9418 76.6046 14.5873 76.5077C13.2566 76.4127 11.9081 76.4602 10.5973 76.1339L10.5993 76.1319Z" fill="#C0C0C0"/>
<path d="M37.2719 29.0457C37.2699 29.2514 37.2679 29.4591 37.2659 29.6648C37.2659 30.3175 37.2659 30.9701 37.2659 31.6248C36.8835 31.1224 37.0747 30.541 37.0926 30.0089C37.1185 29.2752 36.8715 29.0477 36.1285 29.0536C32.0629 29.0893 27.9953 29.0794 23.9277 29.0833C23.9277 29.0161 23.9277 28.9488 23.9297 28.8816C24.1488 27.4536 25.0054 26.8326 26.4376 26.7258C26.9894 26.6842 27.0631 25.9702 27.077 25.5074C27.1109 24.4592 27.2344 23.3991 27.0013 22.3607C26.8858 21.8425 27.0611 21.5439 27.5631 21.5815C28.0411 21.6171 28.82 21.1899 28.8818 22.1175C28.9475 23.1341 28.8997 24.1586 28.8917 25.1791C28.8917 25.3037 28.8718 25.4718 28.7921 25.547C28.5451 25.7823 28.0392 25.9979 28.5352 26.352C28.9475 26.6467 29.2164 27.418 30.0172 26.9038C30.6626 26.4904 31.4952 26.5379 32.1307 26.8009C33.2123 27.2499 34.276 27.0996 35.3457 27.0145C36.2461 26.9433 36.7421 27.3211 36.5688 28.217C36.4652 28.7451 36.6166 28.8855 37.0926 28.8618C37.1524 28.9211 37.2142 28.9805 37.2739 29.0418L37.2719 29.0457Z" fill="#8B8B8E"/>
<path d="M23.9254 36.9867C23.8949 35.1447 24.8059 34.2237 26.6584 34.2237C29.7978 34.2237 32.9391 34.2474 36.0784 34.2059C36.8673 34.196 37.1601 34.4373 37.0864 35.2145C37.0306 35.8 37.0684 36.3953 37.0625 36.9847L37.0704 36.9768C32.6861 36.9768 28.3018 36.9768 23.9175 36.9768L23.9254 36.9847V36.9867Z" fill="#D5D5D5"/>
<path d="M10.5772 56.7118C10.5772 58.5532 10.5235 60.3985 10.5952 62.2378C10.645 63.5076 9.80636 63.2327 9.07531 63.292C8.30242 63.3553 7.95582 63.1654 7.96578 62.2853C8.0116 58.5354 8.02156 54.7854 7.9618 51.0375C7.94586 50.0288 8.44385 50.013 9.1769 50.0328C9.92189 50.0545 10.643 49.9141 10.5952 51.0889C10.5195 52.9599 10.5753 54.8369 10.5753 56.7118H10.5772Z" fill="#D5D5D5"/>
<path d="M42.4409 36.983C42.4409 37.1471 42.4409 37.3113 42.4409 37.4754C42.4409 39.4078 42.4409 39.4256 44.3333 39.5422C44.8392 39.5739 45.0563 39.744 45.0344 40.2483C45.0125 40.7408 45.0304 41.2353 45.0285 41.7277C44.7974 42.1094 44.3333 41.9176 44.0325 42.1253C43.7377 42.1253 43.4409 42.1134 43.146 42.1292C42.656 42.1549 42.4628 41.9591 42.4289 41.4508C42.2995 39.5502 42.2815 39.5502 40.3354 39.5541C40.1063 39.5541 39.8752 39.5581 39.6462 39.562C37.9344 39.5422 37.0745 38.6812 37.0666 36.979L37.0586 36.9869C38.8514 36.9869 40.6461 36.9849 42.4389 36.983H42.4409Z" fill="#D5D5D5"/>
<path d="M18.5471 39.5561C18.5364 37.8367 19.4103 36.9771 21.1685 36.9771C22.0868 36.9771 23.0051 36.983 23.9234 36.9869L23.9154 36.979C23.9021 38.6958 23.0383 39.5541 21.3239 39.5541C20.3956 39.5541 19.4674 39.5522 18.5371 39.5502L18.5451 39.5581L18.5471 39.5561Z" fill="#D5D5D5"/>
<path d="M13.163 44.8885C13.167 46.2967 13.1371 47.7068 13.1909 49.115C13.2207 49.8666 12.9379 50.0743 12.2168 50.0545C10.3244 50.0011 10.5993 50.2048 10.5794 48.4169C10.5694 47.5328 10.6172 46.6448 10.5655 45.7626C10.5236 45.0546 10.8145 44.8291 11.4857 44.8805C12.0435 44.9221 12.6072 44.8944 13.169 44.8964L13.163 44.8904V44.8885Z" fill="#D5D5D5"/>
<path d="M13.1572 63.2877C13.1572 64.4724 13.1611 65.6551 13.1631 66.8398C12.8584 67.1405 12.5157 67.3956 12.1871 67.6685C11.4959 68.2382 11.1572 68.1768 10.5875 67.4371C10.5855 66.286 10.5955 65.133 10.5756 63.9819C10.5656 63.4795 10.7529 63.258 11.2708 63.2798C11.9002 63.3055 12.5297 63.2897 13.1592 63.2916L13.1572 63.2877Z" fill="#D6D6D6"/>
<path d="M10.5855 67.4352C11.1632 67.9198 11.717 68.0206 12.1413 67.2711C12.3843 66.8419 12.7548 66.828 13.1611 66.8399C13.4221 67.368 13.1233 68.1215 13.5675 68.4815C14.0117 68.8434 14.7049 68.6001 15.2886 68.6081C15.8184 68.616 15.9658 68.8652 15.9539 69.3379C15.9379 69.9549 15.9539 70.574 15.9539 71.1911C15.2607 71.1891 14.5675 71.195 13.8743 71.1812C13.3962 71.1733 13.1691 70.9854 13.2368 70.4415C13.4659 68.6199 13.45 68.6179 11.6711 68.616C11.3086 68.616 10.9461 68.61 10.5815 68.6081C10.5815 68.2164 10.5815 67.8248 10.5815 67.4332L10.5855 67.4352Z" fill="#D5D5D5"/>
<path d="M27.6902 51.0513C28.3177 51.4172 28.1982 52.0204 28.0428 52.5208C27.8934 52.9994 27.3636 52.7304 27.003 52.7898C26.8437 52.8155 26.6763 52.8016 26.513 52.8036C25.8935 52.7997 25.274 52.7937 24.6545 52.7917C23.1625 52.7838 22.9792 52.501 23.533 51.0552C24.9194 51.0552 26.3058 51.0532 27.6922 51.0513H27.6902Z" fill="#919191"/>
<path d="M13.1691 44.8944C13.173 44.212 13.179 43.5297 13.177 42.8473C13.177 42.3628 13.4101 42.1313 13.8981 42.1333C14.5853 42.1333 15.2726 42.1294 15.9598 42.1254C16.0236 42.0562 16.0873 42.0542 16.153 42.1254C15.7985 42.7326 15.9558 43.4011 15.9638 44.0399C15.9718 44.657 15.7925 44.9418 15.1292 44.8983C14.4758 44.8548 13.8184 44.8904 13.1631 44.8904L13.1691 44.8963V44.8944Z" fill="#D4D4D4"/>
<path d="M16.1527 42.1234C16.0889 42.1234 16.0252 42.1234 15.9595 42.1234C15.9356 40.4014 16.7981 39.5457 18.547 39.5562L18.5391 39.5483C18.5391 39.6136 18.5391 39.6769 18.5391 39.7422C18.5497 41.3481 17.7536 42.1419 16.1507 42.1234H16.1527Z" fill="#D5D5D5"/>
<path d="M45.0265 70.202C44.8173 70.2119 44.7536 69.0312 44.3811 70.1526C44.1241 70.9279 43.3453 70.6431 42.8333 70.5244C42.2078 70.378 42.0286 70.5996 41.8294 71.1019C41.4589 72.0374 41.6999 72.8938 42.0445 73.7581C41.664 74.1873 41.1401 74.0904 40.6541 74.124C40.4888 74.1359 40.3234 74.124 40.1581 74.128C39.3972 74.1478 38.5805 73.946 37.8893 74.2229C37.0088 74.575 37.6841 75.6291 37.22 76.2343C36.9869 76.5844 36.6224 76.618 36.2539 76.618C33.9731 76.6082 31.6942 76.6853 29.4154 76.5805C29.3019 76.5528 29.1983 76.5033 29.1067 76.4321C28.7621 75.823 28.8497 75.1564 28.9314 74.5176C29.033 73.7205 29.6385 73.4338 30.3636 73.4615C31.262 73.4931 31.6086 73.1015 31.5767 72.2332C31.5528 71.5924 31.7899 70.9358 32.5129 70.9595C33.6284 70.9971 34.1981 70.5086 34.4611 69.5137C34.9651 69.2052 35.5268 69.3614 36.0646 69.3278C36.4451 69.3041 36.8475 69.3812 37.1463 69.0549C37.4231 68.7009 37.2837 68.1688 37.6642 67.8623L37.6442 67.8267C37.8434 67.6388 37.7797 67.3876 37.7538 67.176C37.6343 66.2424 37.8813 65.6788 38.9669 65.6214C39.6541 65.5858 39.6382 64.8738 39.7418 64.3971C40.0187 63.1116 39.9868 63.0859 41.2278 62.9395C41.7178 62.8821 42.0385 62.7358 42.0823 62.1939C42.172 61.0823 42.7736 60.4474 43.911 60.3762C44.4448 60.3426 44.6679 60.0598 44.7117 59.5673C44.7297 59.3715 44.7715 59.1777 44.8094 58.9839C45.0325 57.8348 45.1659 57.6844 46.3591 57.6172C47.0583 57.5776 47.4925 57.4016 47.4806 56.6026C47.4706 55.9598 47.5822 55.2854 48.363 55.143C49.1638 54.9966 50.0223 54.8226 50.6139 55.6671C50.9327 56.6659 50.7633 57.6924 50.7833 58.705C50.8072 59.8541 50.8331 61.0072 50.7653 62.1563C50.7076 63.1294 50.3331 63.4992 49.3729 63.6416C48.604 63.755 48.2143 64.1994 48.2037 64.9747C48.1957 65.7638 48.2096 66.553 48.1957 67.3421C48.1877 67.8049 48.1758 68.2697 47.8152 68.6316L47.8232 68.6237C47.6061 68.8413 47.3272 68.9837 47.0344 68.9402C45.9846 68.7899 45.3293 69.2151 45.0245 70.208L45.0265 70.202Z" fill="#B1B1B1"/>
<path d="M47.8172 68.6239C47.8172 67.1465 47.8371 65.671 47.8013 64.1936C47.7853 63.537 47.9626 63.181 48.6857 63.2779C48.847 63.2997 49.0183 63.2621 49.1797 63.2838C50.1299 63.4124 50.4546 63.0228 50.4267 62.0694C50.3649 59.9057 50.4028 57.738 50.4008 55.5723C50.0482 55.0898 50.0402 54.532 50.0442 53.9703C50.0482 53.4778 50.0582 52.9854 50.0422 52.4949C50.0223 51.9094 50.1896 51.2746 49.8729 50.7544C49.5283 50.1868 48.8371 50.4913 48.3192 50.3252C48.1279 50.2639 47.9427 50.2026 47.8192 50.0325V44.8902C49.5296 44.8836 50.3941 45.74 50.4127 47.4594C50.4127 47.6235 50.4167 47.7877 50.4167 47.9538C50.4247 49.8743 50.4227 49.8921 52.3131 50.0167C52.829 50.0503 53.0063 50.2421 53.0063 50.7366C52.9963 54.6883 52.9923 58.6379 53.0083 62.5896C53.0102 63.1928 52.7075 63.2739 52.2015 63.2917C50.4067 63.3491 50.4067 63.3629 50.4067 65.1588C50.4067 66.0805 50.3908 67.0021 50.4107 67.9238C50.4227 68.4321 50.2155 68.6358 49.7036 68.618C49.0741 68.5962 48.4447 68.62 47.8132 68.6239H47.8172Z" fill="#D5D5D5"/>
<path d="M37.0548 79.0944C32.9433 79.1003 28.8319 79.1063 24.7205 79.1102C23.9237 79.4049 23.6329 78.9916 23.5831 78.2855C23.5432 77.7357 23.5054 77.1819 23.7285 76.6538C23.7883 76.5391 23.8719 76.4481 23.9795 76.3749C25.6826 76.0743 27.3877 75.9972 29.0969 76.3334H29.0988C31.1107 76.5549 33.1286 76.3947 35.1445 76.4244C37.2161 76.454 37.2161 76.4303 37.1663 78.5268C37.1623 78.7206 37.2002 78.9243 37.0587 79.0944H37.0548Z" fill="#D5D5D5"/>
<path d="M23.9214 76.5293C23.9214 77.1049 23.9493 77.6824 23.9095 78.256C23.8677 78.8631 24.0768 79.1737 24.7182 79.1104C24.041 79.2963 23.8298 79.7433 23.9115 80.4137C23.9633 80.833 23.9174 81.2642 23.9155 81.6914C22.1227 81.6855 20.3279 81.6796 18.5352 81.6736C18.5431 80.9478 18.5491 80.2219 18.5571 79.496C18.9913 78.9561 19.5889 79.0055 20.1765 79.0827C20.9673 79.1855 21.3458 78.7385 21.2801 78.078C21.2283 77.5459 21.3717 77.0495 21.3259 76.5353C22.1884 75.9755 23.0529 75.9795 23.9194 76.5293H23.9214Z" fill="#C0C0C0"/>
<path d="M37.0767 76.1278C37.0608 74.5534 37.8556 73.7656 39.4611 73.7643C40.3216 73.7643 41.1821 73.7584 42.0427 73.7544C42.1761 73.7564 42.3116 73.7603 42.4451 73.7623L42.4371 73.7544C42.3474 74.6741 42.6522 75.6214 42.2459 76.5214C40.8435 76.3058 39.4312 76.4937 38.0269 76.4225C37.6922 76.4047 37.2799 76.5767 37.0747 76.1258L37.0767 76.1278Z" fill="#D5D5D5"/>
<path d="M45.0265 70.2021C45.0883 68.513 44.7158 68.6139 46.6559 68.6119C47.0444 68.6119 47.4348 68.6159 47.8232 68.6159C47.8192 68.877 47.8113 69.14 47.8113 69.4011C47.8053 71.2503 47.8073 71.2187 45.9846 71.2048C45.2277 71.1989 44.9747 70.8864 45.0265 70.2021Z" fill="#D5D5D5"/>
<path d="M42.4467 73.7641C42.4467 73.2736 42.4865 72.7792 42.4327 72.2946C42.3391 71.4639 42.5941 71.1237 43.5064 71.1673C44.9446 71.2345 45.4924 71.9821 45.0223 73.3982C44.9127 73.7246 44.6836 73.7602 44.4127 73.7602C43.7554 73.7621 43.096 73.7582 42.4387 73.7562L42.4467 73.7641Z" fill="#D5D5D5"/>
<path d="M37.0765 76.1279C37.8952 76.5314 38.7717 76.2446 39.6163 76.3356C40.4907 76.4305 41.3951 76.1161 42.2457 76.5235C40.8931 76.5255 39.5406 76.567 38.19 76.5156C37.4291 76.4879 37.2219 76.7727 37.2418 77.4867C37.2578 78.0167 37.459 78.6002 37.0526 79.0927C37.0792 77.3838 36.2239 76.5294 34.4869 76.5294C33.0009 76.5294 31.5149 76.5334 30.0309 76.5255C29.7102 76.5255 29.3616 76.6145 29.0967 76.3336C31.4113 76.3336 33.728 76.3356 36.0427 76.3277C36.3952 76.3277 36.7797 76.4325 37.0765 76.1279Z" fill="#C0C0C0"/>
<path d="M37.8613 29.8628C38.7318 29.2596 38.6442 29.9241 38.6581 30.4562C38.2597 30.4324 38.0366 30.1793 37.8613 29.8628Z" fill="#8B8B8E"/>
<path d="M23.9217 76.5295C23.0572 76.5295 22.1926 76.5334 21.3281 76.5354C21.1987 76.5315 21.0672 76.5275 20.9377 76.5235C20.1569 76.2605 19.3242 76.6066 18.5454 76.3277C18.4637 75.4714 18.7286 74.5892 18.3481 73.7546C18.3322 73.5034 18.5135 73.4698 18.6987 73.4382C20.3979 73.4579 22.111 73.1593 23.7942 73.6478C24.5113 74.5794 24.4814 75.5426 23.9197 76.5295H23.9217Z" fill="#D5D5D5"/>
<path d="M18.5196 73.5644C18.4618 73.6277 18.406 73.691 18.3482 73.7543C17.8184 73.7602 17.2885 73.7642 16.7567 73.7701C16.1153 73.8334 15.9001 73.5328 15.9439 72.9196C15.9858 72.3461 15.9519 71.7666 15.9519 71.189C16.8144 71.2978 17.7108 70.9596 18.5474 71.3908C19.0614 72.1226 19.0793 72.8465 18.5196 73.5644Z" fill="#D5D5D5"/>
<path d="M18.5454 76.3275C19.3402 76.4343 20.1669 76.1317 20.9378 76.5233C20.143 76.4363 19.3143 76.7487 18.5454 76.3275Z" fill="#C0C0C0"/>
<path d="M47.6198 44.8863C47.6198 46.6011 47.6218 48.3178 47.6238 50.0326C48.4484 50.6556 48.2154 51.51 48.052 52.2932C47.8927 53.0547 47.1975 53.1634 46.5521 53.1476C45.7015 53.1278 45.4047 53.4977 45.3609 54.3224C45.3091 55.3489 44.9924 55.6594 43.9287 55.699C43.0661 55.7306 42.7992 56.0728 42.7673 56.8916C42.7275 57.928 42.4247 58.2266 41.3511 58.2741C40.4945 58.3117 40.2216 58.6578 40.1897 59.4766C40.1399 60.7404 39.8611 61.0015 38.5404 61.0569C37.7376 61.0905 37.3811 61.3635 37.4647 62.1842C37.5006 62.5383 37.4608 62.9793 36.9428 62.9714C34.7975 62.9378 32.6502 63.1118 30.5088 62.8785C30.5108 62.6787 30.5128 62.477 30.5148 62.2772C30.9092 61.8856 31.4331 62.0102 31.9071 61.939C32.1701 61.8994 32.449 61.8658 32.4549 61.5118C32.4609 61.1578 32.19 61.1162 31.9251 61.0668C31.4908 60.9857 30.9889 61.1241 30.6622 60.689C31.1462 60.4042 31.6761 60.5506 32.182 60.5526C32.6701 60.5526 32.9111 60.3825 32.9211 59.8999C33.3175 59.5063 33.8413 59.6467 34.3134 59.5735C34.5784 59.532 34.8493 59.4944 34.8553 59.1384C34.8612 58.7824 34.5943 58.7369 34.3274 58.6934C33.8553 58.6163 33.3314 58.7646 32.935 58.369C33.4191 57.9379 34.0027 58.2009 34.5346 58.1752C35.0684 58.1495 35.3493 58.0111 35.2736 57.4316C35.2437 57.2061 35.2915 56.9707 35.2576 56.7453C35.1361 55.9403 35.5086 55.6911 36.2676 55.7662C36.7237 55.8117 37.1898 55.7702 37.652 55.7662C38.0882 55.1017 37.8193 54.364 37.8412 53.6658C37.8591 53.0566 38.0085 52.7125 38.6818 52.8035C39.6041 52.9281 39.8949 52.5187 39.867 51.6227C39.8192 50.0524 39.867 50.0069 41.3969 50.0523C42.2255 50.0781 42.4825 49.8071 42.4566 48.9922C42.4108 47.4772 42.4566 47.4219 43.9466 47.4832C44.843 47.5207 45.1378 47.2122 45.0382 46.3618C44.9824 45.8772 45.0282 45.3808 45.0282 44.8883C45.8908 44.3562 46.7533 44.3562 47.6158 44.8883L47.6198 44.8863Z" fill="#B1B1B2"/>
<path d="M30.5151 62.8782C32.4712 62.8802 34.4274 62.8782 36.3835 62.8901C36.9591 62.894 37.3157 62.8802 37.1285 62.0792C36.8596 60.9281 37.1125 60.7165 38.3416 60.7105C39.8435 60.7026 39.8913 60.7006 39.8355 59.1738C39.7997 58.2284 40.1104 57.8823 41.0805 57.9238C42.4351 57.9831 42.4988 57.9258 42.4231 56.5551C42.3693 55.586 42.696 55.2992 43.6522 55.3507C45.0186 55.4238 45.0246 55.3645 45.0326 54.0018C45.0366 53.3946 44.9589 52.7914 45.8911 52.7854C46.4947 52.7815 47.3492 53.1137 47.654 52.5204C48.0325 51.7807 47.9448 50.861 47.6281 50.0323H47.8233C50.622 50.0383 50.4209 49.795 50.4109 52.6351C50.4069 53.6141 50.4069 54.5932 50.4029 55.5722C49.7814 55.23 49.1082 55.4001 48.4548 55.3863C48.0624 55.3783 47.8452 55.6098 47.8313 55.9994C47.8174 56.3593 47.8054 56.7233 47.8233 57.0832C47.8532 57.724 47.5425 57.9871 46.921 57.9416C46.8871 57.9396 46.8552 57.9416 46.8214 57.9416C45.1661 57.991 45.1043 57.9891 45.0625 59.6959C45.0426 60.5424 44.7557 60.756 43.9629 60.7283C42.8653 60.6907 42.4251 61.112 42.463 62.1761C42.4928 63.0582 42.1422 63.3509 41.2957 63.2935C40.6244 63.2481 39.7997 63.0661 40.1802 64.3082C40.3057 64.7215 39.8973 65.2081 39.7678 65.6748C39.6045 66.2622 39.0109 65.9715 38.5667 65.9715C38.1145 65.9715 37.8436 66.1812 37.8575 66.7053C37.8675 67.0771 38.0149 67.5023 37.6504 67.8168C37.6603 66.5708 37.6344 65.3208 37.6922 64.0768C37.728 63.3193 37.5109 63.0325 36.6982 63.0602C34.9811 63.1195 33.2601 63.0859 31.543 63.0701C31.1984 63.0661 30.808 63.2085 30.5191 62.8743L30.5151 62.8782Z" fill="#C0C0C0"/>
<path d="M37.6641 67.8544C37.6641 68.3765 37.6622 68.9007 37.6602 69.4228C36.3255 69.6423 34.965 69.5949 33.6284 69.6443C30.6903 69.7511 27.7461 69.852 24.802 69.7966C23.1288 69.765 22.9535 69.5316 23.3399 67.8465L23.318 67.8228C28.0987 67.8326 32.8794 67.8425 37.6622 67.8524L37.6641 67.8544Z" fill="#8B8B8C"/>
<path d="M32.8494 50.4003C31.5904 50.4063 30.3315 50.4083 29.0726 50.4221C28.7359 50.4261 28.4093 50.4162 28.1184 50.2204C28.1125 50.0246 28.1284 49.8268 28.0985 49.6349C27.983 48.8735 28.2658 48.5887 29.0646 48.652C29.9451 48.7232 30.8414 48.7291 31.7179 48.644C32.6721 48.5511 33.0525 48.8794 32.8992 49.8189C32.8673 50.0107 32.8633 50.2065 32.8474 50.4003H32.8494Z" fill="#8C8C8E"/>
<path d="M32.9373 58.3649C33.4273 58.3589 33.9193 58.3747 34.4074 58.3391C35.0049 58.2956 35.2998 58.4558 35.2978 59.1362C35.2978 59.8245 34.981 59.9649 34.3934 59.9253C33.9054 59.8917 33.4134 59.9056 32.9233 59.8977C32.9273 59.3874 32.9313 58.8771 32.9353 58.3668L32.9373 58.3649Z" fill="#8A8A8B"/>
<path d="M30.6664 60.687C31.1305 60.6989 31.5947 60.7424 32.0568 60.7167C32.6225 60.687 32.8974 60.8373 32.9014 61.4781C32.9074 62.1526 32.6345 62.3484 32.011 62.3009C31.517 62.2633 31.017 62.2831 30.519 62.2772C30.5509 61.7451 30.3298 61.1914 30.6644 60.687H30.6664Z" fill="#8A8A8C"/>
<path d="M23.3416 67.8486C23.3337 68.1117 23.3416 68.3767 23.3137 68.6378C23.25 69.247 23.5289 69.4388 24.1225 69.4329C26.2121 69.4072 28.3036 69.419 30.3932 69.419C32.8154 69.419 35.2377 69.421 37.6599 69.423C36.6141 69.8126 35.5265 69.506 34.4628 69.6148C34.0026 70.048 33.421 69.959 32.8672 69.9708C32.174 69.9866 31.4808 69.9926 30.7896 69.9708C30.0825 69.9491 29.5267 70.044 29.2717 70.8608C29.0765 71.4839 28.4311 71.5254 27.8614 71.557C27.3674 71.5847 26.9909 71.6638 26.8913 72.2849C26.5826 74.1994 25.5706 74.6543 23.7121 73.7682C22.3257 73.7682 20.9373 73.7722 19.5509 73.7603C19.1983 73.7564 18.8159 73.8632 18.5171 73.5625C18.527 72.8387 18.535 72.1128 18.545 71.3889C18.9952 71.11 19.4971 71.1971 19.9852 71.1911C21.1345 71.1733 21.3656 71.0052 21.3118 69.9016C21.268 69.0017 21.4134 68.4064 22.507 68.618C23.1504 68.7426 23.0289 68.0682 23.3416 67.8486Z" fill="#B1B1B1"/>
<path d="M47.6197 44.8861C46.7572 44.8861 45.8947 44.8861 45.0322 44.8861C45.0322 44.3047 45.0003 43.7232 45.0401 43.1437C45.0919 42.4 44.8071 42.0381 44.0342 42.1231C44.3131 41.8601 44.6776 41.8106 45.0302 41.7256C45.3349 42.2972 45.8847 42.135 46.3449 42.1113C47.313 42.0598 47.7532 42.4257 47.6337 43.4225C47.5759 43.9032 47.6217 44.3956 47.6217 44.8842L47.6197 44.8861Z" fill="#D4D4D4"/>
<path d="M23.7144 73.7683C24.3737 73.7663 25.035 73.7367 25.6944 73.7683C26.278 73.794 26.5748 73.5982 26.5111 72.9851C26.4912 72.7913 26.531 72.5895 26.5051 72.3957C26.3756 71.4305 26.8139 71.0785 27.7521 71.1853C28.5568 71.2763 29.2201 71.1892 29.1225 70.0916C29.0747 69.5536 29.5548 69.6149 29.9094 69.6149C31.4272 69.6109 32.9471 69.6149 34.465 69.6149C34.4889 71.1457 34.4889 71.1833 32.9013 71.1754C32.1045 71.1714 31.8675 71.4839 31.8734 72.2355C31.8854 73.7327 31.8535 73.7604 30.3596 73.7505C29.4632 73.7446 29.1066 74.0551 29.2082 74.9926C29.252 75.4099 29.3875 75.9103 29.0967 76.3316C27.3836 76.6895 25.6466 76.4542 23.9215 76.5274C23.8319 75.6097 24.1227 74.6623 23.7163 73.7663L23.7144 73.7683Z" fill="#C0C0C0"/>
<path d="M36.5787 57.5422C36.0488 57.5284 35.4552 57.7182 35.4393 56.7926C35.4253 55.9303 35.9034 55.9323 36.503 55.9659C37.0607 55.9956 37.7041 55.774 37.6942 56.7669C37.6842 57.6688 37.1404 57.558 36.5787 57.5422Z" fill="#8A8A8C"/>
</g>
<defs>
<clipPath id="clip0_2082_4881">
<rect width="61" height="87" fill="white"/>
</clipPath>
</defs>
</svg>
