<svg width="61" height="87" viewBox="0 0 61 87" fill="none" xmlns="http://www.w3.org/2000/svg">
<g clip-path="url(#clip0_2082_4881)">
<path d="M5.3978 73.7623C4.96355 72.6291 5.26235 71.4523 5.21853 70.2972C5.15478 68.6398 5.2006 68.6457 3.54527 68.6141C3.23851 68.6082 2.87597 68.7565 2.6469 68.4005C2.98354 68.0564 3.42974 68.0662 3.85204 68.0821C4.56118 68.1078 4.88188 67.8329 4.854 67.103C4.82212 66.2862 4.82013 65.4634 4.854 64.6466C4.88786 63.8713 4.54524 63.5825 3.79626 63.628C3.40783 63.6518 3.00147 63.7012 2.63494 63.4896C2.55726 63.4144 2.48156 63.3412 2.40388 63.2661C2.17281 62.8725 2.22858 62.4394 2.22858 62.0161C2.23257 58.7033 2.23257 55.3904 2.22858 52.0756C2.22659 50.7564 2.21862 50.7505 0.921853 50.5883C0.585211 50.5468 0.272472 50.4736 0.0214844 50.2303C0.479637 49.8447 1.02544 50.1018 1.52542 50.0306C1.89991 49.9772 2.32021 50.1591 2.64092 49.8229C3.0672 49.5836 3.53731 49.6726 3.98948 49.6686C4.55918 49.6647 4.82212 49.4254 4.83009 48.8498C4.84204 47.94 4.83009 47.0302 4.84204 46.1204C4.84802 45.6616 4.86396 45.2067 5.19661 44.8368C5.19861 43.3871 5.19263 41.9374 5.20857 40.4876C5.21255 40.1771 5.07112 39.8171 5.41772 39.5778C5.76034 39.9121 5.75038 40.3512 5.75835 40.7764C5.77827 41.698 5.7703 42.6197 5.76632 43.5394C5.76233 44.1624 5.93763 44.5184 6.66469 44.5283C7.4316 44.5382 7.63677 44.1743 7.62681 43.4998C7.61287 42.6118 7.60291 41.7238 7.63478 40.8357C7.67661 39.6569 7.99334 39.2614 9.16461 39.2179C10.0072 39.1862 10.2662 38.8223 10.2263 38.0628C10.2044 37.6653 10.2781 37.2737 10.5749 36.9632L10.563 36.975C10.8737 36.6685 11.2721 36.6408 11.6725 36.6447C12.3199 36.6507 12.8298 36.5953 12.8378 35.7191C12.8458 34.8687 12.3996 34.7342 11.7183 34.746C11.3239 34.752 10.9156 34.746 10.6088 34.4296C11.1924 33.9984 11.8597 34.2635 12.4852 34.2279C12.9812 34.2002 13.1545 34.0419 13.1864 33.5416C13.2242 32.9225 12.9414 32.256 13.3936 31.6824C13.768 32.0443 13.7362 32.525 13.7362 32.9759C13.7362 33.6088 14.033 33.8501 14.6465 33.8461C15.5389 33.8402 16.4313 33.8461 17.3237 33.8442C17.8994 33.8442 18.1225 33.587 18.1822 33.0174C18.3516 31.3897 18.481 31.2967 20.1403 31.2829C20.8674 31.277 21.5945 31.2888 22.3216 31.2789C23.4649 31.2611 23.4769 31.2473 23.5645 30.1456C23.5984 29.7224 23.5825 29.2833 23.9331 28.955C24.3832 28.688 24.8852 28.692 25.3832 28.69C28.7018 28.686 32.0204 28.686 35.3391 28.69C35.6379 28.69 35.9327 28.7216 36.2315 28.7473C36.9864 28.8106 37.3948 29.1567 37.3589 29.9419C37.341 30.3454 37.3988 30.7311 37.6716 31.0535C38.1079 31.3917 38.6218 31.2592 39.1039 31.275C39.8289 31.2987 40.554 31.2631 41.2791 31.2908C42.4663 31.3363 42.7512 31.5558 42.789 32.7425C42.8169 33.5969 43.1516 33.9074 43.9862 33.86C44.8069 33.8125 45.6335 33.856 46.4562 33.8402C46.9861 33.8303 47.2291 33.6029 47.251 33.0708C47.2689 32.5902 47.2052 32.074 47.6036 31.6824C48.0478 32.258 47.7689 32.9225 47.8068 33.5416C47.8367 34.034 47.994 34.2061 48.5 34.2338C49.1255 34.2674 49.7948 33.9925 50.3744 34.4375C50.1294 34.6986 49.8027 34.748 49.4721 34.748C48.0857 34.748 48.1673 34.9814 48.1594 36.1048C48.1574 36.4292 48.1175 36.7595 47.8526 37.0027C47.1195 36.8247 47.3088 36.2037 47.2849 35.7349C47.253 35.1179 47.0956 34.7579 46.3765 34.7698C45.7292 34.7816 45.4443 34.9992 45.3865 35.6717C45.261 37.0858 44.9742 37.3034 43.524 37.3409C43.1296 37.3508 42.7372 37.3093 42.3408 37.3034C40.9026 37.4319 39.4644 37.3568 38.0282 37.3449C37.6995 37.3429 37.3748 37.2796 37.1239 37.0344C36.6438 36.6052 36.6976 36.0197 36.6976 35.4699C36.6976 34.837 36.4127 34.5957 35.7912 34.5937C32.2794 34.5878 28.7676 34.5839 25.2537 34.5957C24.5745 34.5977 24.3036 34.8924 24.3056 35.551C24.3056 36.0356 24.3474 36.5498 23.9629 36.9513C23.5865 37.3587 23.0825 37.337 22.5925 37.3469C21.708 37.3627 20.8216 37.3666 19.9372 37.3508C19.2499 37.339 18.8914 37.5763 18.9153 38.3081C18.9292 38.7234 18.9312 39.1625 18.6045 39.5027C18.2121 39.9576 17.6623 39.9042 17.1484 39.9121C16.5727 39.92 16.3217 40.1692 16.3217 40.7388C16.3217 41.2214 16.3536 41.7218 16.017 42.1371C15.7042 42.4338 15.3078 42.4516 14.9075 42.4753C14.0443 42.5307 13.5841 42.9711 13.527 43.7965C13.5011 44.194 13.4832 44.5876 13.1764 44.8922C12.78 45.2838 12.2621 45.2502 11.7721 45.2522C11.1765 45.2561 10.9474 45.537 10.9494 46.1046C10.9534 47.0263 10.9514 47.9479 10.9494 48.8696C10.9494 49.4708 11.2442 49.6765 11.8119 49.6686C12.3657 49.6607 12.796 49.5836 12.8039 48.8834C12.8119 47.9954 12.798 47.1054 12.8179 46.2173C12.8278 45.7605 12.784 45.2838 13.1485 44.914C13.5589 44.4769 14.1087 44.5283 14.6226 44.5421C15.3417 44.5639 15.6365 44.2593 15.6066 43.5552C15.5827 42.9955 15.6345 42.4417 16.1245 42.0461C16.4213 41.7969 16.7899 41.7594 17.1444 41.7831C17.9671 41.8365 18.246 41.439 18.2042 40.6775C18.1822 40.2562 18.2281 39.829 18.5846 39.5145C18.9312 39.1882 19.3695 39.1981 19.7977 39.1902C20.6901 39.1724 21.5845 39.1625 22.4769 39.1902C23.214 39.2119 23.6004 38.9687 23.5625 38.1795C23.5406 37.7207 23.5904 37.2519 23.9908 36.9177C24.4052 36.5577 24.9131 36.5992 25.4031 36.5992C28.8014 36.5894 32.2017 36.5913 35.6 36.5992C36.0582 36.5992 36.5303 36.5676 36.9286 36.8682C37.4625 37.248 37.4227 37.8294 37.4286 38.3753C37.4346 38.9489 37.6896 39.1961 38.2653 39.1961C38.7513 39.1961 39.2553 39.1664 39.6955 39.4572C40.074 39.833 40.1596 40.3175 40.1835 40.8159C40.2333 41.8998 39.8907 42.3665 38.8071 42.4457C38.0123 42.505 37.6059 42.7918 37.5063 43.5987C37.4326 44.1881 37.4824 44.9001 36.6936 45.1454C35.8829 45.3966 35.3928 44.8902 34.8869 44.4096C34.5124 44.2296 34.11 44.2672 33.7176 44.2672C31.5703 44.2633 29.4229 44.285 27.2776 44.2554C26.4688 44.2435 26.0286 44.467 26.0585 45.3511C26.0864 46.1976 25.6003 46.6386 24.7657 46.6129C23.8633 46.5852 23.6343 47.0401 23.6861 47.8352C23.7538 48.8815 23.6323 49.9297 23.6562 50.9779C23.694 51.1698 23.7139 51.3656 23.696 51.5594C23.6303 52.2635 24.0147 52.4435 24.6422 52.4633C25.3115 52.4831 26.0286 52.2971 26.6242 52.7936C26.915 53.2386 26.8812 53.7409 26.8573 54.2314C26.8075 55.248 26.4967 55.6456 25.4928 55.6851C24.6223 55.7207 24.2617 56.0055 24.2478 56.9054C24.2318 57.8884 23.9032 58.2187 22.9072 58.2583C22.0407 58.2919 21.6941 58.642 21.5666 59.4687C21.3375 60.9362 21.2977 60.958 19.8196 61.0588C19.2081 61.1004 18.9551 61.312 18.8994 61.937C18.7719 63.3709 18.6464 63.5054 17.244 63.628C16.5528 63.6874 16.3715 64.0097 16.3098 64.6268C16.1684 66.0232 14.9672 66.6481 13.6485 66.0746C13.2123 65.8847 13.1047 65.5386 13.0848 65.1193C13.0629 64.6664 13.1585 64.1838 12.778 63.8179C12.4573 63.5825 12.0848 63.6439 11.7263 63.6379C11.1904 63.628 10.9574 63.8891 10.9414 64.4172C10.9116 65.4338 10.9713 66.4504 10.9136 67.467C10.8458 67.8783 10.9594 68.2897 10.8996 68.7011C10.9255 68.8633 10.9514 69.0235 10.9574 69.1857C11.0371 71.383 10.2084 72.0021 8.06305 71.3474C7.5551 70.9341 7.64076 70.3407 7.64076 69.8008C7.64076 68.9978 7.11488 68.9246 6.51729 68.9048C5.86592 68.8831 5.77827 69.3241 5.76432 69.8206C5.73843 70.7046 5.76432 71.5887 5.74839 72.4728C5.74042 72.9297 5.76233 73.3984 5.3978 73.7623Z" fill="#B1B1B1"/>
<path d="M40.421 0.0415533L55.4065 0.0375977C55.7173 0.176045 56.0181 0.363937 56.0459 0.717965C56.1595 2.19539 56.3945 3.68073 55.8946 5.14035C55.53 5.59129 55.0281 5.73963 54.4803 5.70205C53.5918 5.64074 53.3249 6.06992 53.3628 6.88676C53.4006 7.7392 53.3966 8.59559 53.3568 9.44803C53.309 10.4607 53.046 10.7297 52.066 10.8384C51.2241 10.9334 50.7965 11.4107 50.7832 12.2704C50.7732 13.0595 50.7891 13.8467 50.7732 14.6358C50.7652 15.067 50.7374 15.4942 50.4047 15.8265L50.4127 15.8186C50.076 16.1746 49.6358 16.133 49.2055 16.1172C48.4366 16.0895 48.0522 16.3822 48.1 17.2169C48.1538 18.1346 48.1239 19.0562 48.108 19.9779C48.088 21.0973 47.7733 21.4177 46.6319 21.5226C45.8258 21.5964 45.4175 22.0513 45.4069 22.8873C45.3969 23.6764 45.4327 24.4656 45.3889 25.2527C45.3312 26.2614 45.1101 26.4849 44.0902 26.6411C43.219 26.7743 42.7695 27.2806 42.7416 28.1601C42.7117 29.0837 42.4886 29.3686 41.5564 29.3428C40.1441 29.3033 38.7218 29.5881 37.3195 29.2202C37.176 29.1035 37.0545 28.9631 36.9251 28.8306C36.698 28.4686 36.7976 28.0632 36.7677 27.6755C36.702 26.8251 36.4251 26.5363 35.5765 26.6194C33.722 26.7994 31.8734 26.5225 30.0189 26.5897C29.3078 26.6154 28.8616 26.2179 28.8417 25.5276C28.8058 24.3508 28.746 23.176 28.9472 21.9913C29.0966 21.1151 29.5548 20.8521 30.3436 20.7928C31.485 20.7077 31.487 20.684 31.5049 19.5724C31.5209 18.6528 31.491 17.7311 31.5228 16.8094C31.5348 16.4396 31.6145 16.0915 31.8794 15.8106L31.8714 15.8166C32.1603 15.5436 32.5268 15.5575 32.8893 15.5278C33.973 15.4408 34.1403 15.3063 34.1562 14.2185C34.1682 13.4373 34.1841 12.6521 34.1363 11.8689C34.0726 10.8266 34.4152 10.4528 35.459 10.3202C36.6123 10.1719 36.6641 10.1225 36.688 8.99115C36.7059 8.17234 36.682 7.35353 36.7 6.53471C36.7079 6.10553 36.7338 5.67832 37.0764 5.35198L37.0685 5.35989C37.4888 4.93466 38.0406 4.97619 38.5605 4.98806C39.2497 5.00388 39.4927 4.68941 39.4887 4.03476C39.4827 3.04981 39.4668 2.06683 39.5066 1.08188C39.5306 0.486561 39.7477 0.0712205 40.421 0.0435311V0.0415533Z" fill="#0060A9"/>
<path d="M5.43572 0.0454595C10.6547 0.0454595 15.8716 0.0434817 21.0906 0.0415039C21.5069 0.369821 21.481 0.842518 21.493 1.29741C21.5189 2.24281 21.4989 3.1882 21.5089 4.13557C21.5149 4.70321 21.7479 4.96428 22.3336 4.97417C22.8814 4.98406 23.467 4.9089 23.9152 5.35589H23.9072C24.2399 5.65453 24.2259 6.04614 24.22 6.44764C24.204 7.46621 24.2319 8.48478 24.208 9.50336C24.1921 10.1283 24.4451 10.3716 25.0805 10.4013C26.7776 10.4824 26.8653 10.5991 26.8772 12.3356C26.8832 13.0911 26.8812 13.8466 26.8852 14.6022C26.8852 15.1658 27.1063 15.4526 27.7039 15.4546C28.1959 15.4546 28.7079 15.4388 29.1063 15.8225L29.1003 15.8185C29.3712 16.0974 29.4509 16.4455 29.4608 16.8134C29.4867 17.9288 29.5106 19.0463 29.4529 20.1618C29.4011 21.1724 29.1282 21.4078 28.1083 21.4533C27.2438 21.4915 26.8102 21.9438 26.8075 22.8101C26.8055 23.7298 26.8155 24.6494 26.8016 25.5691C26.7916 26.1941 26.4868 26.5066 25.8434 26.5936C24.3455 26.7954 24.3455 26.8151 24.202 28.2649C24.1781 28.4963 24.1502 28.7218 23.9829 28.9037C23.8833 28.9907 23.8036 29.145 23.6961 29.1687C21.9292 29.5564 20.1603 29.7957 18.4253 29.0244C18.1305 28.5477 18.1704 28.0097 18.1743 27.4876C18.1803 26.8784 17.9612 26.6114 17.3058 26.5877C15.7202 26.5303 15.6645 26.4413 15.6605 24.8452C15.6585 24.1214 15.6525 23.3975 15.6625 22.6716C15.6684 22.2939 15.5967 21.9537 15.3258 21.6728C15.0151 21.4118 14.6386 21.4751 14.28 21.4573C13.2223 21.4019 12.8697 21.0736 12.814 20.0135C12.7642 19.0938 12.7781 18.1721 12.802 17.2524C12.8199 16.5167 12.5689 16.1369 11.7742 16.1864C11.3439 16.2121 10.9096 16.1587 10.571 15.8284L10.577 15.8324C10.2184 15.4665 10.2244 14.9997 10.2164 14.5389C10.2005 13.6192 10.2244 12.6995 10.2005 11.7778C10.1866 11.2379 9.99732 10.9511 9.38579 10.9056C7.83404 10.787 7.64879 10.5615 7.62688 9.04253C7.61493 8.22174 7.62289 7.39896 7.61891 6.57817C7.61891 6.01845 7.39382 5.77123 6.8042 5.70991C5.03334 5.52202 4.84012 5.26491 4.98553 3.44136C5.0433 2.71155 4.80426 2.00547 4.85207 1.28159C4.88394 0.799006 4.82219 0.263019 5.43771 0.0494152L5.43572 0.0454595Z" fill="#024787"/>
<path d="M23.9516 86.9542C23.5731 86.6398 23.7623 86.2145 23.7563 85.8447C23.7344 84.4365 23.7484 84.4365 22.3799 84.4345C21.4178 84.4345 20.4557 84.4404 19.4935 84.4226C19.1808 84.4167 18.8202 84.5551 18.5732 84.2229C19.0354 83.7858 19.619 83.8946 20.1688 83.8807C20.9596 83.8609 21.7524 83.857 22.5432 83.8768C23.2424 83.8946 23.599 83.6394 23.5532 82.9076C23.5273 82.4844 23.5591 82.0572 23.605 81.6319C23.5452 81.2443 23.5571 80.8527 23.5452 80.4631C23.5213 79.6027 23.8619 79.0232 24.7463 78.8294C26.1248 78.6079 27.5132 78.7344 28.8976 78.7206C31.043 78.6988 33.1903 78.7206 35.3356 78.7107C35.7619 78.7107 36.1962 78.7681 36.6005 78.5762C36.973 78.2637 36.9591 77.8385 36.981 77.4093C37.0288 76.4461 37.2081 76.2721 38.1642 76.2444C39.0188 76.2206 39.8753 76.2384 40.7299 76.2365C41.0904 76.2365 41.457 76.2622 41.7797 76.0565C42.1701 75.7796 42.0765 75.3603 42.1004 74.9786C42.1263 74.5573 42.0924 74.1202 42.4211 73.782C42.8055 73.3647 43.3254 73.4181 43.8095 73.426C44.5246 73.4359 44.6999 73.0621 44.6939 72.4351C44.6899 71.8358 44.4927 71.5273 43.8374 71.5253C43.176 71.5233 42.7517 71.6737 42.7776 72.445C42.7916 72.894 42.8334 73.3746 42.4629 73.7425C42.3354 73.869 42.186 73.8868 42.0227 73.8334C41.2637 72.9731 41.1203 71.7983 41.6303 70.8272C41.8753 70.3604 42.2398 70.1606 42.7577 70.1962C43.3234 70.2358 43.8294 70.2358 44.2796 69.7255C44.7437 69.1994 45.0007 69.7077 45.2218 70.0835C45.4688 70.9992 46.1919 70.9023 46.8811 70.8291C47.6082 70.752 47.4528 70.1606 47.4966 69.7018C47.5325 69.3161 47.4966 68.9166 47.7436 68.5764C47.8233 68.4953 47.9149 68.434 48.0185 68.3885C48.144 68.3391 48.2715 68.2956 48.4049 68.2916C49.9447 68.26 50.0403 68.43 50.0364 66.4918C50.0364 65.7679 50.0105 65.0421 50.0523 64.3182C50.114 63.2482 50.3511 63.0207 51.4367 62.9179C52.5821 62.8091 52.612 62.7992 52.616 61.7015C52.6319 58.3076 52.612 54.9137 52.6299 51.5217C52.6339 50.7425 52.3869 50.4062 51.5542 50.3805C50.2913 50.341 50.0822 50.072 50.0423 48.8161C50.0164 48.025 50.0025 47.2338 50.0423 46.4447C50.0822 45.6298 49.8252 45.1888 48.9268 45.2501C48.5344 45.2758 48.1281 45.2323 47.7874 44.9772C47.3313 44.2157 47.5006 43.389 47.6082 42.5998C47.6918 41.9847 48.2615 41.7869 48.8073 41.7968C49.7196 41.8127 50.1399 41.4566 50.0563 40.5251C50.0244 40.1711 50.0941 39.8072 50.3332 39.5065C50.9706 39.1011 51.6897 39.2118 52.357 39.2969C53.0382 39.3839 53.3052 39.9496 53.343 40.6003C53.4008 41.5872 53.3689 42.5741 53.3709 43.563C53.3709 44.2157 53.6159 44.5104 54.3111 44.5203C55.0402 44.5302 55.2214 44.1761 55.2155 43.5472C55.2075 42.6592 55.2035 41.7691 55.2214 40.8811C55.2314 40.4242 55.1975 39.9496 55.568 39.5837C55.9744 39.9555 55.7613 40.4381 55.7712 40.8673C55.8031 42.1944 55.7872 43.5235 55.7892 44.8526C56.1358 45.2244 56.1378 45.6911 56.1437 46.154C56.1557 47.0103 56.1577 47.8667 56.1477 48.7231C56.1397 49.3817 56.3967 49.6982 57.0859 49.6745C57.5102 49.6586 57.9524 49.5973 58.3528 49.8287C58.811 50.2124 59.3568 49.9553 59.8568 50.0324C60.2273 50.0898 60.6476 49.8841 60.9623 50.2362C60.6276 50.5684 60.1894 50.6199 59.7611 50.5981C58.9544 50.5546 58.7452 50.964 58.7472 51.6859C58.7552 54.8108 58.7532 57.9378 58.7492 61.0627C58.7492 61.4246 58.7592 61.7866 58.7293 62.1485C58.6476 63.1295 58.305 63.4954 57.3409 63.6358C56.1816 63.8039 56.1776 63.8039 56.1637 64.9728C56.1557 65.6967 56.1696 66.4206 56.1656 67.1445C56.1617 67.7536 56.3967 68.0582 57.0401 68.0562C57.4963 68.0562 57.9803 68.0384 58.3448 68.4083C57.8309 68.8612 57.2134 68.61 56.6557 68.6021C55.9485 68.5922 55.7453 68.8474 55.7712 69.5159C55.8151 70.6234 55.7912 71.735 55.7772 72.8445C55.7732 73.155 55.8987 73.5071 55.58 73.7563C55.2155 73.3904 55.2354 72.9177 55.2254 72.4589C55.2055 71.5688 55.2215 70.6808 55.2115 69.7908C55.2035 69.1836 54.8908 69.0016 54.331 68.9977C53.7454 68.9937 53.3749 69.1421 53.3729 69.8165C53.3689 70.7065 53.3769 71.5945 53.361 72.4846C53.353 72.9474 53.355 73.4141 53.0044 73.784L53.0144 73.7741C52.5821 74.1875 52.0243 74.1064 51.5044 74.1202C50.857 74.136 50.7555 74.5257 50.7594 75.0419C50.7634 75.5403 50.8152 75.9635 51.4785 75.9873C51.9965 76.007 52.5562 75.9161 52.9885 76.3334C52.1638 76.7843 51.2734 76.4184 50.4228 76.5391C50.0244 76.9228 49.5105 76.8931 49.0205 76.8951C48.4408 76.8951 48.1798 77.1443 48.1798 77.7238C48.1798 78.2103 48.2117 78.7206 47.8213 79.1162C47.7038 79.9646 48.0603 80.8487 47.6141 81.6715C47.2237 81.2779 47.2635 80.7657 47.2596 80.2831C47.2536 79.6957 46.9707 79.4702 46.403 79.4722C45.4787 79.4722 44.5565 79.4742 43.6322 79.4722C43.0446 79.4722 42.8055 79.7392 42.8035 80.3088C42.8015 80.7953 42.8274 81.3016 42.447 81.6992L42.4589 81.6873C42.1183 82.0077 41.688 82.0334 41.2518 82.0414C40.3913 82.0552 39.5307 82.0493 38.6682 82.0473C38.0029 82.0473 37.4153 82.0414 37.4272 82.9966C37.4392 83.9025 38.0009 83.8867 38.6224 83.8886C39.4829 83.8906 40.3434 83.8787 41.206 83.8965C41.6342 83.9044 42.0765 83.8946 42.4131 84.2347C42.0406 84.6441 41.5546 84.4246 41.1243 84.4365C39.7877 84.4701 38.4511 84.4523 37.1145 84.4563C36.6483 84.8657 36.0727 84.8222 35.5129 84.8241C32.2401 84.8281 28.9693 84.834 25.6965 84.8241C24.5153 84.8202 24.2444 84.7628 24.2743 86.0702C24.2822 86.3985 24.2185 86.7268 23.9496 86.9701L23.9516 86.9542Z" fill="#B2B2B2"/>
<path d="M58.3451 68.4022C56.632 68.4642 55.7748 67.6447 55.7734 65.9438C55.7734 65.7144 55.7734 65.483 55.7734 65.2535C55.7734 63.4122 55.7714 63.3806 57.5662 63.2916C58.3471 63.254 58.3769 62.8129 58.3769 62.2394C58.371 58.6912 58.373 55.1449 58.3749 51.5967C58.3749 50.6817 58.8404 50.2235 59.7713 50.2222C60.1677 50.2222 60.5661 50.2261 60.9625 50.2301C60.9705 54.3064 60.9665 58.3846 61.0004 62.4609C61.0063 63.1254 60.7653 63.2876 60.1358 63.2916C58.365 63.2995 58.367 63.3232 58.365 65.0498C58.365 66.1673 58.353 67.2848 58.3471 68.4022H58.3451Z" fill="#8B8B8D"/>
<path d="M5.43602 0.045465C5.09738 0.595297 5.23284 1.20842 5.2667 1.78198C5.31849 2.63838 5.33044 3.48488 5.2667 4.3393C5.21889 4.96824 5.41411 5.35589 6.22085 5.34205C7.96582 5.31238 7.96582 5.35985 7.96781 7.1379C7.96781 7.96067 8.02358 8.78739 7.95187 9.60423C7.88414 10.3677 8.22875 10.6109 8.91001 10.5912C9.14108 10.5852 9.37214 10.5536 9.60321 10.5378C10.2884 10.4863 10.6351 10.7118 10.6052 11.4832C10.5514 12.9289 10.5833 14.3787 10.5793 15.8264C8.83564 15.8502 7.96382 15.0135 7.96382 13.3166C7.96382 13.1841 7.96582 13.0535 7.96382 12.921C7.9459 12.2308 8.15904 11.404 7.84829 10.8878C7.47778 10.2747 6.56745 10.6841 5.89815 10.6386C5.35036 10.601 5.2428 10.3301 5.24877 9.87123C5.26072 8.6529 5.22089 7.43259 5.2667 6.21624C5.2926 5.53389 5.07746 5.30447 4.3743 5.3104C2.62734 5.32227 2.62734 5.28864 2.62934 3.53235C2.62934 2.61069 2.65324 1.68705 2.62137 0.765389C2.60344 0.22149 2.77475 -0.0198028 3.35242 0.01382C4.04562 0.055354 4.74481 0.0355759 5.44 0.0434872L5.43602 0.045465Z" fill="#898B8D"/>
<path d="M47.5981 31.6785C47.6632 33.3688 46.8684 34.2153 45.2137 34.218C44.5842 34.218 43.9528 34.1784 43.3273 34.2279C42.6142 34.2832 42.4269 33.9806 42.4269 33.3121C42.4269 31.6448 42.3971 31.6488 40.7378 31.6448C39.5784 31.6429 38.4211 31.633 37.2618 31.627C37.0526 31.0436 37.214 30.4423 37.1662 29.851C37.2478 29.4633 37.5187 29.5958 37.7558 29.6413C38.0725 29.7244 38.2617 30.116 38.6581 30.0072C39.0526 29.3565 39.5984 29.0598 40.3852 29.1627C40.9031 29.2319 41.4349 29.1627 41.9608 29.1923C42.674 29.2319 43.0086 28.781 42.7596 28.1223C42.672 27.8929 42.6421 27.6853 42.7696 27.4677C42.9927 27.086 44.4986 26.5737 45.0245 26.7003C45.0344 28.0828 45.0743 29.4653 45.0444 30.8458C45.0305 31.5024 45.2615 31.7239 45.9089 31.6705C46.4686 31.6251 47.0344 31.6705 47.5981 31.6785Z" fill="#8B8B8D"/>
<path d="M23.9513 86.9543C23.9553 86.1394 23.6187 85.1367 24.0868 84.5631C24.5429 84.0054 25.5588 84.4504 26.3218 84.4425C29.9193 84.4088 33.5167 84.4365 37.1142 84.4425C37.1063 85.0675 37.0744 85.6944 37.1003 86.3194C37.1222 86.8415 36.8991 87.0037 36.3951 86.9998C32.2479 86.9741 28.0986 86.9661 23.9513 86.9543Z" fill="#8B8B8C"/>
<path d="M0.0219116 50.2302C1.74961 50.2144 2.61346 51.0629 2.61346 52.7756C2.61346 55.859 2.61346 58.9444 2.61147 62.0278C2.61147 62.4491 2.68119 62.8862 2.4063 63.266C0.802099 63.291 0 62.5223 0 60.9598C0.0059759 57.3839 0.0139438 53.8081 0.0219116 50.2302Z" fill="#8B8B8C"/>
<path d="M18.5331 28.8757C20.3219 29.1466 22.1106 29.1822 23.8954 28.8519C23.9273 28.8717 23.9572 28.8915 23.9891 28.9093C24.0189 28.9864 23.999 29.0438 23.9253 29.0833C23.8895 30.7895 23.0223 31.6426 21.3238 31.6426C20.6625 31.6426 19.9992 31.6703 19.3398 31.6347C18.7382 31.6031 18.543 31.8345 18.5291 32.4298C18.4833 34.2059 18.4594 34.2039 16.6586 34.2118C15.832 34.2158 15.0033 34.196 14.1786 34.2296C13.599 34.2534 13.3101 34.0734 13.354 33.4523C13.3958 32.8629 13.3779 32.2716 13.3858 31.6802C14.2324 31.5101 15.1328 31.8978 15.9535 31.4429C16.4913 31.0493 16.3419 30.454 16.3937 29.9239C16.5232 28.5553 17.2602 28.1874 18.5331 28.8717V28.8757Z" fill="#8B8B8D"/>
<path d="M13.3656 81.6694C12.9812 81.2145 13.2361 80.6766 13.1664 80.1801C13.1146 79.8083 13.2899 79.393 12.9553 79.0745C12.7162 78.6414 12.8258 78.1687 12.8218 77.7158C12.8178 77.1422 12.5788 76.8752 11.9892 76.8713C11.5011 76.8673 10.9792 76.9286 10.5808 76.5311C9.72032 76.4203 8.82393 76.7704 7.9873 76.3333C8.77214 75.732 9.70637 76.0801 10.5629 75.9278C11.8497 75.9476 13.1306 76.0445 14.4114 76.1751C15.2341 76.2581 15.6624 75.9476 15.6086 75.0754C15.5568 74.2507 15.8934 73.6791 16.7659 73.511C17.2997 73.4061 17.8316 73.3686 18.3435 73.6059C19.1622 74.2052 18.72 75.1624 19.0089 75.912C19.5666 76.537 20.3156 76.1098 20.959 76.2621C21.1203 76.2937 21.2638 76.361 21.3873 76.4698C21.7319 77.0908 21.6243 77.7553 21.5227 78.3962C21.4311 78.9717 21.0287 79.3514 20.4212 79.3514C19.7499 79.3514 19.1164 79.5611 18.4551 79.6026C17.1245 79.3396 15.7819 79.4859 14.4433 79.4741C13.9493 79.4701 13.7521 79.7272 13.7301 80.1999C13.7042 80.7102 13.7819 81.2541 13.3676 81.6734L13.3656 81.6694Z" fill="#B2B2B2"/>
<path d="M23.8955 28.8522C23.8915 28.7217 23.8835 28.5891 23.8835 28.4586C23.8716 26.4927 23.8696 26.4689 25.8157 26.3522C26.4133 26.3166 26.5189 26.0536 26.5109 25.5492C26.491 24.3665 26.5309 23.1818 26.497 22.001C26.4791 21.38 26.6663 21.1367 27.3336 21.1288C29.1264 21.1091 29.1284 21.0794 29.1244 19.2697C29.1204 18.1206 29.1085 16.9695 29.0985 15.8204C30.0248 15.8184 30.953 15.8164 31.8793 15.8145C31.8793 17.2919 31.8594 18.7713 31.8952 20.2487C31.9112 20.9053 31.7199 21.1803 31.0048 21.1921C29.1742 21.2198 29.1762 21.2515 29.1344 23.079C29.0852 25.2506 30.139 26.3358 32.2956 26.3344C33.5525 26.3344 34.8135 26.3859 36.0664 26.3186C36.9249 26.2731 37.1839 26.5995 37.1002 27.3945C37.0484 27.8831 37.0883 28.3795 37.0883 28.872C36.5166 29.141 36.2616 28.8641 36.2576 28.334C36.2517 27.531 35.8353 27.3332 35.1103 27.3906C34.0226 27.4756 32.941 27.4796 31.8733 27.1256C31.3096 26.9377 30.6921 27.0108 30.1164 27.2146C29.469 27.444 28.965 27.2245 28.5109 26.7616C28.0647 26.3048 28.1742 25.8716 28.3814 25.3277C28.74 24.3883 28.5647 23.3855 28.5109 22.4065C28.489 22.0268 28.2081 21.9417 27.8734 21.9536C27.4651 21.9694 27.3934 22.2404 27.4073 22.5647C27.4432 23.3519 27.4571 24.1391 27.4352 24.9282C27.3914 26.4017 27.1703 26.6924 25.7779 27.2047C25.1445 27.4381 24.5648 27.7288 24.3895 28.4764C24.3397 28.6861 24.2421 28.9293 23.9294 28.8898L23.8955 28.8581V28.8522Z" fill="#878B8F"/>
<path d="M50.4051 15.8282C50.4011 14.3785 50.429 12.9288 50.3832 11.479C50.3593 10.7354 50.6442 10.498 51.3712 10.5139C53.2238 10.5574 52.9947 10.6602 53.0126 8.87227C53.0206 7.98226 53.0564 7.09027 53.0027 6.20421C52.9588 5.49021 53.2516 5.30034 53.9249 5.31023C54.5365 5.31815 55.1918 5.50208 55.7635 5.10059C55.8193 5.14608 55.8412 5.1975 55.8312 5.2509C55.8193 5.30628 55.8054 5.33397 55.7894 5.33397C55.7735 6.77975 55.7316 8.22553 55.7516 9.67131C55.7595 10.3042 55.6699 10.5752 54.899 10.5811C53.0266 10.5969 53.0266 10.6582 53.0266 12.5451C53.0266 13.4331 53.0126 14.3211 53.0345 15.2092C53.0445 15.67 52.8672 15.8638 52.3971 15.848C51.7358 15.8243 51.0724 15.8362 50.4111 15.8322L50.4051 15.8282Z" fill="#8A8A8D"/>
<path d="M37.8613 29.8626C37.6621 29.7973 37.4629 29.7301 37.2657 29.6648C37.1303 29.4572 37.1203 29.2495 37.2717 29.0458C38.6959 29.0458 40.1222 29.0161 41.5445 29.0636C42.2536 29.0873 42.5165 28.8262 42.4309 28.1518C42.4149 28.0213 42.4289 27.8887 42.4289 27.7582C42.4289 26.3579 42.4329 26.2887 43.8233 26.3599C44.8631 26.4133 45.1439 26.0336 45.0663 25.0605C44.9846 24.0478 45.0722 23.0214 45.0404 22.0028C45.0204 21.3897 45.2037 21.1345 45.877 21.1246C47.7893 21.0989 47.7893 21.0693 47.7873 19.1488C47.7873 18.2944 47.8052 17.438 47.7813 16.5836C47.7654 16.0456 47.9546 15.7964 48.5243 15.8221C49.1518 15.8498 49.7832 15.8221 50.4127 15.8221C50.3968 16.0258 50.3788 16.2295 50.3629 16.4352C50.2912 16.9238 50.0223 16.9534 49.582 16.8605C48.6697 16.6686 48.3809 16.9178 48.3271 17.8415C48.2773 18.6979 48.3889 19.5463 48.4546 20.3988C48.4805 20.7409 48.5542 21.0791 48.0442 21.095C47.6837 21.3105 47.7853 21.6705 47.7813 21.985C47.7713 23.1044 47.7315 24.2258 47.7933 25.3413C47.8371 26.1325 47.6538 26.4548 46.7714 26.3856C46.2037 26.3421 45.5005 26.0434 45.0284 26.7021C44.2476 26.6645 43.8651 27.5367 43.0205 27.5327C42.7217 27.5327 42.903 28.134 43.3372 28.2665C43.5225 28.3239 43.7794 28.3061 43.7794 28.5652C43.7794 28.8796 43.4348 28.6937 43.3611 28.7689C42.3871 29.7776 41.172 29.2238 40.0764 29.2435C39.1541 29.2594 39.2497 30.2028 38.6601 30.4599C38.447 30.1929 38.2557 29.8982 37.8633 29.8666L37.8613 29.8626Z" fill="#8A8B8E"/>
<path d="M10.5736 36.9651C10.5736 37.1965 10.5776 37.4259 10.5776 37.6573C10.5796 39.4196 10.5816 39.4393 8.79081 39.5422C8.18924 39.5778 7.97211 39.829 7.98008 40.3986C7.99602 41.6169 7.95418 42.8372 7.99402 44.0555C8.01594 44.7161 7.75897 44.9653 7.12353 44.8843C7.09166 44.8803 7.0578 44.8843 7.02394 44.8843C5.1475 44.8645 5.41443 45.0484 5.40048 43.3356C5.39052 42.0837 5.41044 40.8317 5.41642 39.5798C6.01002 39.5718 6.60363 39.5382 7.19524 39.562C7.71515 39.5837 7.95418 39.4571 7.9741 38.8658C8.04382 36.9414 8.06972 36.9414 9.97802 36.9552C10.1752 36.9552 10.3744 36.9631 10.5716 36.9671L10.5736 36.9651Z" fill="#8B8B8C"/>
<path d="M37.0788 5.34998C37.0848 6.6949 37.025 8.04574 37.1166 9.3867C37.1844 10.3736 36.7541 10.6426 35.8736 10.6565C34.4892 10.6762 34.4872 10.7 34.4832 12.037C34.4793 13.0555 34.4633 14.0721 34.4912 15.0907C34.5052 15.6267 34.3338 15.8838 33.7602 15.8502C33.1347 15.8146 32.5052 15.8265 31.8758 15.8185C31.8638 15.7533 31.8678 15.69 31.8897 15.6267C32.4793 15.1718 32.8498 14.5112 33.4096 14.0286C33.3538 13.9119 33.2502 13.9456 33.1606 13.9574C32.7741 14.0088 32.314 14.173 32.1606 13.6469C32.0132 13.1406 32.2722 12.6877 32.7542 12.5532C33.3418 12.387 33.5012 12.1912 33.2183 11.6117C32.9494 11.0619 33.1626 10.7296 33.8299 10.7811C33.9853 10.7929 34.1625 10.8246 34.2701 10.6505C34.7103 9.60821 34.4394 8.51844 34.4633 7.4524C34.5131 5.30054 34.4773 5.29856 36.6824 5.33218C36.8138 5.33416 36.9473 5.34405 37.0788 5.34801V5.34998Z" fill="#8A8B8D"/>
<path d="M10.5713 15.8242C10.7028 15.8262 10.8363 15.8302 10.9677 15.8322C12.4617 15.8493 13.2074 16.616 13.2047 18.1324C13.2047 18.8543 13.2286 19.5762 13.1967 20.2961C13.1689 20.9369 13.4358 21.1802 14.0752 21.1485C14.6329 21.1228 15.1947 21.1802 15.7544 21.2019C15.9098 22.9167 15.9317 24.6295 15.7385 26.3422C15.6767 26.3462 15.617 26.3363 15.5592 26.3106C14.88 26.1207 14.6588 25.6203 14.625 24.9776C14.5812 24.1587 14.6469 23.336 14.5712 22.5191C14.5453 22.2244 14.5154 21.8645 14.127 21.8625C13.6987 21.8605 13.7525 22.2581 13.7366 22.533C13.6888 23.3518 13.7306 24.1726 13.7127 24.9934C13.7027 25.4503 13.7366 25.923 13.3641 26.2849C13.0055 24.9716 13.2127 23.6307 13.2346 22.3075C13.2505 21.3503 12.9677 21.0793 12.0175 21.1188C10.4518 21.1861 10.5952 21.3799 10.5853 19.7462C10.5773 18.4389 10.5753 17.1296 10.5693 15.8223L10.5713 15.8242Z" fill="#8A8B8E"/>
<path d="M29.1069 15.8221C27.3713 15.888 26.5021 15.0831 26.4995 13.4072C26.4995 12.7506 26.4696 12.09 26.5054 11.4353C26.5393 10.8439 26.3242 10.6402 25.7166 10.6244C23.888 10.575 23.886 10.5493 23.89 8.70395C23.89 7.58649 23.9019 6.46903 23.9079 5.35156C24.1768 5.35552 24.4477 5.3575 24.7167 5.36145C24.9896 5.64428 24.9716 5.97655 24.7983 6.2752C24.376 7.00501 24.4338 7.79812 24.4497 8.58529C24.4736 9.75813 24.7206 9.96975 25.8939 9.87086C26.0911 9.85504 26.2863 9.79768 26.4775 9.89855C26.4297 10.6303 26.9158 10.6303 27.4496 10.6343C29.1269 10.6462 29.1308 10.6561 29.1269 12.2877C29.1249 13.4665 29.1129 14.6433 29.105 15.8221H29.1069Z" fill="#8A8A8E"/>
<path d="M55.5676 39.5819C55.5736 41.0613 55.5577 42.5426 55.5975 44.022C55.6154 44.651 55.4262 44.9002 54.7589 44.8844C52.6673 44.8349 53.0299 45.0663 53.004 43.1656C52.992 42.3112 52.9621 41.4529 53.0139 40.6004C53.0657 39.7599 52.7032 39.475 51.9024 39.5443C51.4084 39.5858 50.9084 39.5482 50.4124 39.5443C50.2312 39.3682 50.2292 39.1705 50.3387 38.9588C50.9005 38.6463 51.5459 38.7314 52.1474 38.5929C52.7032 38.4644 52.8406 38.947 52.9841 39.3504C53.8107 39.8093 54.7151 39.4118 55.5676 39.5819Z" fill="#8B8B8C"/>
<path d="M40.4208 0.0413544C39.9248 0.179801 39.8093 0.512074 39.8232 1.00059C39.8571 2.17937 39.8113 3.35815 39.8372 4.53692C39.8491 5.11444 39.6679 5.38145 39.0464 5.34782C38.389 5.31222 37.7277 5.3498 37.0684 5.35574C37.0763 3.91391 37.1381 2.47011 37.0743 1.03224C37.0365 0.181779 37.3472 -0.0555584 38.148 0.00970944C38.901 0.0729994 39.6619 0.035421 40.4188 0.0413544H40.4208Z" fill="#898B8E"/>
<path d="M23.9154 5.3537C23.2242 5.34579 22.531 5.31217 21.8418 5.33393C21.3279 5.34975 21.1725 5.14603 21.1506 4.64565C21.0888 3.11087 21.292 1.57411 21.0908 0.0413012C22.958 -0.0404484 23.8929 0.847589 23.8955 2.70541C23.8955 3.58752 23.9075 4.4716 23.9134 5.3537H23.9154Z" fill="#919194"/>
<path d="M55.7868 5.33196C55.7788 5.25483 55.7708 5.17769 55.7609 5.10056C55.7589 3.80312 55.7489 2.50765 55.7569 1.2102C55.7589 0.777063 55.737 0.365678 55.4043 0.0393386C56.1652 0.0334052 56.9262 0.0472499 57.6871 0.0156049C58.213 -0.00615106 58.3803 0.217342 58.3723 0.717728C58.3504 2.03297 58.3464 3.34822 58.3723 4.66149C58.3823 5.18363 58.1831 5.35965 57.6751 5.33592C57.0477 5.30625 56.4182 5.32999 55.7887 5.32999L55.7868 5.33196Z" fill="#8B8C8E"/>
<path d="M42.4132 84.2231C40.9232 84.229 39.4332 84.2033 37.9452 84.2547C37.2241 84.2785 37.0409 84.0016 37.0588 83.335C37.1126 81.4304 36.8915 81.6935 38.6842 81.6776C39.9412 81.6658 41.2001 81.6776 42.457 81.6776C42.4411 82.5261 42.4271 83.3766 42.4112 84.2251L42.4132 84.2231Z" fill="#8B8B8C"/>
<path d="M23.9173 81.6913C23.9173 83.3988 23.0587 84.2493 21.3416 84.2427C20.4194 84.2387 19.4951 84.2308 18.5728 84.2249C18.5648 83.3724 18.5549 82.52 18.5449 81.6676C18.5887 81.6221 18.6346 81.5746 18.6784 81.5291C20.4353 81.2364 22.1922 80.9714 23.9173 81.6913Z" fill="#919192"/>
<path d="M5.39808 73.7623C5.39808 72.3145 5.42995 70.8667 5.38015 69.421C5.35226 68.6239 5.79647 68.4499 6.42195 68.4815C7.97767 68.5626 7.97568 68.5764 7.97967 70.1073C7.97967 70.4692 7.98963 70.8311 7.9956 71.1931C8.51949 71.9822 8.42188 72.803 8.12508 73.6337C8.07926 73.6752 8.03544 73.7168 7.98963 73.7583C7.12511 73.7583 6.2606 73.7603 5.39609 73.7623H5.39808Z" fill="#919192"/>
<path d="M53.0019 73.7762C53.0019 72.3699 53.0358 70.9617 52.988 69.5555C52.9641 68.8336 53.1912 68.5745 53.9382 68.5943C55.8724 68.6477 55.5656 68.4657 55.5835 70.2161C55.5955 71.3929 55.5796 72.5717 55.5776 73.7505C54.719 73.7584 53.8605 73.7683 53.0019 73.7762Z" fill="#8A8A8C"/>
<path d="M13.3663 81.6698C13.3544 79.9557 14.2016 79.0986 15.9081 79.0986C16.5336 79.0986 17.157 79.0947 17.7825 79.0986C18.1052 79.1006 18.4678 79.0373 18.5594 79.4942C19.0833 80.226 19.0414 80.9519 18.5375 81.6718L18.5454 81.6659C16.8184 81.6659 15.0934 81.6659 13.3663 81.6659V81.6698Z" fill="#8A8A8C"/>
<path d="M42.4464 81.6876C42.4332 79.9616 43.3076 79.0993 45.0699 79.1006C46.7909 79.1006 47.6388 79.9543 47.6136 81.6619C45.8905 81.6698 44.1695 81.6797 42.4464 81.6876Z" fill="#8A8A8C"/>
<path d="M2.63578 63.4873C3.31305 63.0997 4.05008 63.3271 4.75922 63.2975C5.09387 63.2836 5.20343 63.5229 5.20343 63.8176C5.20741 65.1546 5.20143 66.4936 5.21139 67.8306C5.21538 68.3211 4.94049 68.4358 4.51819 68.4259C3.8947 68.4081 3.26923 68.4081 2.64574 68.3983C2.64176 66.7606 2.63777 65.123 2.63379 63.4873H2.63578Z" fill="#8A8A8C"/>
<path d="M5.19489 44.8389C5.19887 46.2866 5.18293 47.7324 5.21879 49.1782C5.23473 49.7992 5.05146 50.1236 4.38017 50.0425C3.80051 49.9733 3.18101 50.2007 2.64118 49.823C2.6372 48.4543 2.66509 47.0857 2.61131 45.719C2.58342 45.0129 2.85632 44.8033 3.52163 44.8507C4.0754 44.8903 4.63714 44.8448 5.19489 44.8389Z" fill="#8A8A8C"/>
<path d="M58.3529 49.8268C57.6737 50.2263 56.9307 50.0245 56.2176 50.0146C55.6718 50.0067 55.7873 49.5281 55.7853 49.1879C55.7793 47.7421 55.7853 46.2964 55.7893 44.8506C56.6 44.9218 57.6299 44.5163 58.1697 45.0286C58.7195 45.5487 58.3091 46.5772 58.3509 47.3802C58.3948 48.1931 58.3549 49.0099 58.3509 49.8268H58.3529Z" fill="#8D8D8E"/>
<path d="M26.4788 9.89882C25.9489 10.3517 25.3553 10.415 24.7259 10.154C24.0107 9.85927 24.196 9.21648 24.1024 8.64687C23.9052 7.46216 24.4211 6.43765 24.7179 5.36172C25.9131 5.29843 26.5113 5.86277 26.5127 7.05473C26.5127 8.0021 26.4907 8.95145 26.4788 9.89882Z" fill="#8A8A8D"/>
<path d="M48.0423 21.0933C48.4407 20.6126 48.0722 20.0826 48.0722 19.5961C48.0722 18.9513 48.0264 18.2907 48.0264 17.638C48.0264 16.572 48.7853 16.1131 49.7215 16.6372C50.092 16.8449 50.1817 16.5937 50.3629 16.4355C50.3749 17.7468 50.3669 19.0581 50.4108 20.3674C50.4307 20.9607 50.2394 21.2119 49.6219 21.1526C49.098 21.1012 48.5682 21.1111 48.0423 21.0952V21.0933Z" fill="#8A8B8D"/>
<path d="M15.7384 26.3425C15.7443 24.6297 15.7503 22.9149 15.7543 21.2021C16.1527 22.5471 15.8878 23.9216 15.9057 25.2804C15.9156 26.0656 16.087 26.3741 16.9455 26.3603C18.6725 26.3326 18.557 26.0003 18.557 27.988C18.557 28.2827 18.5411 28.5774 18.5311 28.8741C18.4335 28.8741 18.3359 28.8741 18.2383 28.8741C16.5909 28.88 16.7503 28.7534 16.7503 30.3199C16.7503 30.8855 16.81 31.4808 15.9535 31.4452C15.9575 29.863 15.9595 28.2807 15.9635 26.7005C16.561 26.4869 17.1845 26.6767 17.7204 26.5917C17.1686 26.568 16.5431 26.6866 15.9256 26.5185C15.8619 26.4612 15.7981 26.4018 15.7344 26.3445L15.7384 26.3425Z" fill="#898A8C"/>
<path d="M13.3663 26.2849C13.3663 24.9717 13.3663 23.6604 13.3663 22.3471C13.3663 21.8566 13.2667 21.3384 14.0655 21.3503C14.8045 21.3602 14.9499 21.7914 14.9559 22.3728C14.9638 23.1936 14.9857 24.0144 14.9499 24.8332C14.924 25.4365 15.0893 25.927 15.5594 26.3107C14.8284 26.3561 14.0953 26.4095 13.3663 26.2849Z" fill="#898A8C"/>
<path d="M34.2677 10.6503C33.4271 10.8758 33.1084 11.2358 33.7398 12.0664C34.0207 12.4363 34.0048 12.9644 33.2438 12.7409C32.708 12.5846 32.5228 12.9209 32.3813 13.3026C32.2379 13.6902 32.3833 13.8801 32.8096 13.7654C32.967 13.7238 33.1104 13.6348 33.2598 13.5676C33.5705 13.4272 33.8653 13.4371 34.0008 13.7832C34.1382 14.1333 33.9311 14.3567 33.5904 14.4141C33.1383 14.4932 32.8375 14.6198 33.0227 15.1795C33.1203 15.4762 32.9431 15.6186 32.6383 15.5019C32.3554 15.3951 32.1264 15.5138 31.8873 15.6265C31.8754 14.1787 31.8754 12.733 31.8415 11.2852C31.8295 10.7453 31.971 10.4961 32.5805 10.5851C33.1343 10.6642 33.704 10.6325 34.2657 10.6503H34.2677Z" fill="#898A8C"/>
<path d="M47.8191 79.1063C47.7886 77.3566 48.6558 76.4982 50.4206 76.5312C50.3011 77.3381 50.7653 78.3686 50.2155 78.9085C49.6677 79.4465 48.6339 79.0094 47.8191 79.1083V79.1063Z" fill="#8B8B8B"/>
<path d="M52.9879 76.3234C52.723 76.3274 52.456 76.3313 52.1911 76.3333C50.2589 76.3373 50.2768 76.3373 50.3963 74.4465C50.4282 73.9283 50.6254 73.7483 51.1214 73.7641C51.7509 73.7839 52.3823 73.7681 53.0138 73.7661C53.0058 74.6186 52.9978 75.471 52.9879 76.3254V76.3234Z" fill="#8A8A8A"/>
<path d="M10.6053 34.4298C10.8703 34.4238 11.1352 34.412 11.4001 34.41C13.3403 34.4001 13.3204 34.3981 13.1849 36.3028C13.1471 36.8249 12.9359 36.991 12.4499 36.9772C11.8204 36.9594 11.191 36.9772 10.5615 36.9772C10.5755 36.1287 10.5914 35.2783 10.6053 34.4298Z" fill="#8B8B8D"/>
<path d="M47.8431 36.9733C47.8351 33.8641 47.3272 34.4496 50.3709 34.4357C50.3828 35.2862 50.3928 36.1386 50.4048 36.9891C50.3629 37.0326 50.3191 37.0761 50.2773 37.1216C49.4466 37.3985 48.6219 37.5409 47.8431 36.9752V36.9733Z" fill="#8A8A8A"/>
<path d="M10.5989 76.1315C9.75625 76.5627 8.85588 76.2324 7.98937 76.3293C7.98937 75.4729 7.98937 74.6146 7.98937 73.7582L7.9834 73.7661C8.63876 73.2222 9.39969 73.3112 10.1327 73.4833C10.9654 73.6791 10.9455 74.397 10.9494 75.0536C10.9494 75.4433 10.9215 75.8388 10.5989 76.1296V76.1315Z" fill="#8A8A8A"/>
<path d="M10.583 76.5294C10.844 76.5294 11.1069 76.5234 11.3678 76.5234C13.306 76.5215 13.6965 77.1464 12.9574 79.0728C11.3864 79.1137 10.595 78.2652 10.583 76.5274V76.5294Z" fill="#8B8B8B"/>
<path d="M52.9845 39.3504C52.6678 38.8678 52.2913 38.6008 51.7216 38.9944C51.2834 39.297 50.8571 39.0439 50.4268 38.9588C49.8731 38.3022 49.9388 37.6416 50.4129 36.977L50.4029 36.9869C50.5005 36.977 50.6001 36.9573 50.6977 36.9592C53.4188 37.0384 53.0264 36.3699 52.9845 39.3484V39.3504Z" fill="#8A8A8A"/>
<path d="M15.9297 26.5186H17.8958C17.8958 26.5799 17.8958 26.6392 17.8958 26.7005H15.9636C15.9417 26.6412 15.9297 26.5818 15.9277 26.5186H15.9297Z" fill="#8B8B8D"/>
<path d="M23.5295 51.0551C23.3661 50.9957 23.2645 50.9206 23.2685 50.707C23.2904 49.4946 23.3183 48.2802 23.2944 47.0678C23.2825 46.4745 23.4916 46.2114 24.0972 46.2707C24.3581 46.2965 24.627 46.2549 24.89 46.2806C25.4676 46.334 25.7724 46.1382 25.7047 45.5132C25.6768 45.2541 25.7226 44.9871 25.6947 44.7261C25.625 44.0793 25.8999 43.8756 26.5453 43.8835C29.4536 43.9132 32.3598 43.9033 35.2681 43.9073C35.4056 44.0773 35.3538 44.283 35.3737 44.4769C35.4832 45.4875 35.7482 45.8 36.7462 45.9088C37.5848 45.9998 37.9991 46.4131 38.025 47.2438C38.1087 49.9435 37.9891 52.6413 37.9274 55.339C37.9234 55.4715 37.8736 55.5961 37.8119 55.7128C37.4792 56.1479 36.9912 56.0471 36.543 56.0589C35.9055 56.0748 35.6008 56.3536 35.557 57.0083C35.4733 58.3037 35.4514 58.3077 34.1446 58.4323C33.8737 58.458 33.6287 58.5134 33.4275 58.6993C33.1228 59.087 33.2602 59.5636 33.1606 59.9928C33.1028 60.5426 32.7602 60.7681 32.2383 60.7958C31.8519 60.8176 31.4515 60.7562 31.1069 60.9936C30.6746 61.3278 30.8519 61.8124 30.7981 62.2376C30.8041 62.4591 30.9256 62.5897 31.1328 62.653C32.2124 62.9556 33.312 62.7321 34.3996 62.7934C34.796 62.8151 35.1944 62.7973 35.5928 62.7973C38.0031 62.7973 38.1505 62.92 38.021 65.2914C37.9772 66.1062 38.0628 66.9369 37.8338 67.7419C37.77 67.8586 37.6784 67.9476 37.5649 68.0148C37.0708 68.2581 36.535 68.2185 36.0091 68.2205C32.3459 68.2264 28.6827 68.2264 25.0194 68.2205C24.4617 68.2205 23.892 68.2699 23.3801 67.9634C23.0673 67.7142 22.9956 67.3562 22.9797 66.9923C22.9339 65.9737 22.9339 64.9532 22.9797 63.9326C23.0135 63.185 23.4079 62.7518 24.1629 62.7578C24.9796 62.7657 25.388 62.467 25.37 61.6067C25.3541 60.8156 25.8083 60.3765 26.6051 60.3765C27.372 60.3765 27.7704 60.0976 27.7504 59.2788C27.7285 58.4125 28.2245 57.9181 29.0711 57.8469C29.7862 57.7856 30.1508 57.5126 30.1508 56.7531C30.1508 55.9324 30.6248 55.4419 31.4515 55.4438C32.3658 55.4438 32.5312 54.9652 32.5212 54.1899C32.5072 52.9735 32.4435 51.7552 32.563 50.5408C32.573 50.2481 32.5112 49.9574 32.5092 49.6627C32.5072 49.2098 32.2583 49.0239 31.826 49.014C30.9396 48.9902 30.0512 48.9863 29.1647 49.0159C28.1986 49.0496 28.5731 49.8526 28.3958 50.3391C28.3719 50.8118 28.1907 51.1718 27.6966 51.3063C26.5792 51.4941 25.4557 51.3992 24.3342 51.3755C24.0354 51.3695 23.7426 51.3003 23.5275 51.059L23.5295 51.0551Z" fill="#ECEDEF"/>
<path d="M27.69 51.0512C28.184 50.9523 28.0724 50.5449 28.1182 50.2185C29.7039 50.0346 31.2934 49.7834 32.8492 50.3985C32.8611 51.9096 32.8512 53.4226 32.895 54.9336C32.9129 55.5705 32.6998 55.8217 32.0424 55.7881C30.2198 55.6911 30.4568 56.0096 30.5046 57.2595C30.5305 57.9399 30.3094 58.1753 29.6062 58.1753C28.1143 58.1753 28.0704 58.2168 28.1182 59.6507C28.1461 60.4557 27.9171 60.7524 27.0685 60.7168C25.7199 60.6594 25.6761 60.7128 25.7219 62.0122C25.7498 62.7954 25.5586 63.1317 24.6901 63.0961C23.3156 63.0387 23.3116 63.0921 23.3136 64.4746C23.3136 65.5921 23.3196 66.7095 23.3236 67.827C23.3335 67.8804 23.3435 67.9338 23.3555 67.9872C23.4311 68.6438 23.0069 68.8634 22.471 68.9306C21.969 68.9939 21.744 69.2194 21.6722 69.7376C21.4591 71.2901 21.242 71.4622 19.6584 71.5334C19.2958 71.5492 18.9333 71.5908 18.5708 71.5888C17.7281 71.4642 16.8557 71.6639 16.033 71.3534C15.9314 71.2941 15.8517 71.213 15.79 71.1141C15.7541 70.9875 15.7521 71.1557 15.7521 71.0271C15.7521 69.694 15.4234 68.7032 13.7462 68.8456C13.3139 68.8831 13.1247 68.4223 13.045 68.0129C12.9634 67.5956 12.8817 67.1803 12.8677 66.753C12.8438 65.5881 12.4992 64.3955 13.1606 63.2899C13.5709 63.8219 13.3498 64.4351 13.3498 65.0047C13.3498 65.6435 13.5629 65.9263 14.2163 65.8551C14.4454 65.8294 14.6824 65.8314 14.9115 65.8551C15.6764 65.9303 15.9991 65.6198 15.9653 64.8365C15.9075 63.4758 15.7521 63.193 17.5489 63.2859C18.27 63.3235 18.5528 63.0486 18.5588 62.3148C18.5707 60.7464 18.6026 60.7148 20.2221 60.7227C20.9033 60.7266 21.2081 60.5308 21.1523 59.8287C21.1324 59.5775 21.3157 59.3125 21.2958 59.0613C21.2121 58.0091 21.8236 57.9023 22.6682 57.928C23.9152 57.9676 23.961 57.928 23.9052 56.5416C23.8714 55.6793 24.0646 55.2956 25.0427 55.347C26.5087 55.4241 26.5107 55.3608 26.5127 53.8894C26.5127 53.5274 26.5127 53.1655 26.5127 52.8035C26.5486 52.7462 26.5904 52.671 26.6462 52.6671C27.7199 52.588 27.8732 51.9274 27.69 51.0512Z" fill="#C0C0C0"/>
<path d="M37.654 55.7644C37.662 52.8986 37.6659 50.0327 37.6779 47.1669C37.6799 46.6744 37.6859 46.2887 36.9787 46.2591C35.2816 46.1859 35.2836 46.1503 35.2736 44.4968C35.2736 44.299 35.2676 44.1013 35.2656 43.9035C35.6381 44.1151 35.2836 44.7045 35.8035 44.8706C36.4867 45.0902 36.9787 44.7915 37.0703 44.0597C37.1142 43.7017 37.2476 43.3497 37.2476 42.9957C37.2476 42.3291 37.642 42.1689 38.2018 42.1234C40.0085 41.9771 40.126 41.8011 39.6938 39.9518C39.6639 39.8252 39.6639 39.6907 39.648 39.5602C40.4228 38.9767 41.2734 39.1409 42.0961 39.3763C42.604 39.5206 42.7873 40.0131 42.7594 40.4819C42.6996 41.4668 43.1658 41.8485 44.1 41.805C44.9884 41.8426 45.3569 42.3568 45.3888 43.1836C45.4087 43.7314 45.4386 44.2773 45.349 44.8212C45.3629 45.1475 45.4047 45.4739 45.3988 45.8042C45.3808 47.0779 45.4685 47.8492 43.6199 47.8453C43.0921 47.8453 42.8809 48.1083 42.8152 48.6285C42.616 50.2147 42.6 50.2424 41.0762 50.3966C40.4288 50.4619 40.2057 50.7645 40.2256 51.348C40.2595 52.3646 39.9308 53.0904 38.7755 53.1854C38.4169 53.215 38.2735 53.4484 38.2476 53.7886C38.2177 54.1822 38.2596 54.5817 38.1878 54.9693C38.1261 55.2977 38.1839 55.7348 37.654 55.7644Z" fill="#C0C0C0"/>
<path d="M50.4123 36.9768C50.4163 37.6374 50.4223 38.2979 50.4263 38.9585C50.4223 39.1543 50.4163 39.3501 50.4104 39.5459C50.4104 39.7081 50.4064 39.8723 50.4064 40.0345C50.4024 41.9253 50.4044 41.9391 48.5578 42.1191C48.01 42.1725 47.8108 42.4256 47.8188 42.9339C47.8288 43.5866 47.8188 44.2373 47.8188 44.89C47.9523 45.0383 48.0997 45.1985 48.1096 45.3963C48.1754 46.9252 48.4542 48.4659 47.9204 49.971C47.8188 50.0758 47.7033 50.0956 47.5738 50.0284C47.3029 49.7475 47.2571 49.3895 47.2571 49.0296C47.2531 47.6965 47.1734 46.3615 47.2989 45.0304C47.3268 44.7713 47.269 44.5142 47.265 44.2551C47.2332 42.7184 47.2312 42.7144 45.7731 42.4237C45.3288 42.3347 44.9683 42.1586 44.795 41.7136C44.7671 41.6207 44.7352 41.5257 44.7213 41.4288C44.5978 40.5335 44.0985 40.018 43.2233 39.8822C42.3528 39.7477 42.1019 39.4174 42.0859 38.3612C42.078 37.8727 42.06 37.3743 42.4425 36.9807C42.574 36.9807 42.7074 36.9807 42.8389 36.9807C44.8209 36.9807 44.8368 36.9807 45.0241 35.0405C45.0699 34.5797 45.2472 34.3918 45.6974 34.4115C45.9623 34.4234 46.2312 34.4452 46.4902 34.4056C47.4383 34.2593 47.7033 34.6884 47.6375 35.5686C47.6037 36.0274 47.4244 36.5575 47.8407 36.9708C48.6973 36.9708 49.5538 36.9748 50.4123 36.9768Z" fill="#C0C0C0"/>
<path d="M10.5989 76.1319C10.5484 74.5668 9.74297 73.7803 8.1826 73.7724C8.11686 73.7724 8.04913 73.7684 7.9834 73.7684C7.98738 72.91 7.99137 72.0537 7.99535 71.1953C9.69782 71.1821 10.561 70.3204 10.5849 68.6103C11.296 68.0842 12.0948 68.2068 12.8518 68.3967C13.4673 68.5509 13.7402 69.0909 13.6725 69.6921C13.5649 70.6316 14.0051 70.9085 14.8597 70.8492C15.2561 70.8215 15.6485 70.8927 15.9552 71.1933L15.9513 71.1893C16.26 71.484 16.2999 71.8697 16.2839 72.2554C16.262 72.823 16.4174 73.3214 16.756 73.7704C15.9393 73.9207 15.9274 74.5002 15.9413 75.1608C15.9712 76.5275 15.9413 76.6046 14.5868 76.5077C13.2561 76.4127 11.9076 76.4602 10.5969 76.1339L10.5989 76.1319Z" fill="#C0C0C0"/>
<path d="M37.2719 29.0457C37.2699 29.2514 37.2679 29.4591 37.2659 29.6648C37.2659 30.3175 37.2659 30.9701 37.2659 31.6248C36.8835 31.1224 37.0747 30.541 37.0926 30.0089C37.1185 29.2752 36.8715 29.0477 36.1285 29.0536C32.0629 29.0893 27.9953 29.0794 23.9277 29.0833C23.9277 29.0161 23.9277 28.9488 23.9297 28.8816C24.1488 27.4536 25.0054 26.8326 26.4376 26.7258C26.9894 26.6842 27.0631 25.9702 27.077 25.5074C27.1109 24.4592 27.2344 23.3991 27.0013 22.3607C26.8858 21.8425 27.0611 21.5439 27.5631 21.5815C28.0411 21.6171 28.82 21.1899 28.8818 22.1175C28.9475 23.1341 28.8997 24.1586 28.8917 25.1791C28.8917 25.3037 28.8718 25.4718 28.7921 25.547C28.5451 25.7823 28.0392 25.9979 28.5352 26.352C28.9475 26.6467 29.2164 27.418 30.0172 26.9038C30.6626 26.4904 31.4952 26.5379 32.1307 26.8009C33.2123 27.2499 34.276 27.0996 35.3457 27.0145C36.2461 26.9433 36.7421 27.3211 36.5688 28.217C36.4652 28.7451 36.6166 28.8855 37.0926 28.8618C37.1524 28.9211 37.2142 28.9805 37.2739 29.0418L37.2719 29.0457Z" fill="#8B8B8E"/>
<path d="M23.9259 36.9867C23.8954 35.1447 24.8064 34.2237 26.6589 34.2237C29.7983 34.2237 32.9396 34.2474 36.0789 34.2059C36.8677 34.196 37.1606 34.4373 37.0869 35.2145C37.0311 35.8 37.0689 36.3953 37.063 36.9847L37.0709 36.9768C32.6866 36.9768 28.3023 36.9768 23.918 36.9768L23.9259 36.9847V36.9867Z" fill="#D5D5D5"/>
<path d="M10.5777 56.7118C10.5777 58.5532 10.524 60.3985 10.5957 62.2378C10.6455 63.5076 9.80685 63.2327 9.0758 63.292C8.30291 63.3553 7.95631 63.1654 7.96627 62.2853C8.01208 58.5354 8.02204 54.7854 7.96229 51.0375C7.94635 50.0288 8.44434 50.013 9.17739 50.0328C9.92238 50.0545 10.6435 49.9141 10.5957 51.0889C10.52 52.9599 10.5757 54.8369 10.5757 56.7118H10.5777Z" fill="#D5D5D5"/>
<path d="M42.4409 36.983C42.4409 37.1471 42.4409 37.3113 42.4409 37.4754C42.4409 39.4078 42.4409 39.4256 44.3333 39.5422C44.8392 39.5739 45.0563 39.744 45.0344 40.2483C45.0125 40.7408 45.0304 41.2353 45.0285 41.7277C44.7974 42.1094 44.3333 41.9176 44.0325 42.1253C43.7377 42.1253 43.4409 42.1134 43.146 42.1292C42.656 42.1549 42.4628 41.9591 42.4289 41.4508C42.2995 39.5502 42.2815 39.5502 40.3354 39.5541C40.1063 39.5541 39.8752 39.5581 39.6462 39.562C37.9344 39.5422 37.0745 38.6812 37.0666 36.979L37.0586 36.9869C38.8514 36.9869 40.6461 36.9849 42.4389 36.983H42.4409Z" fill="#D5D5D5"/>
<path d="M18.5471 39.5561C18.5364 37.8367 19.4103 36.9771 21.1685 36.9771C22.0868 36.9771 23.0051 36.983 23.9234 36.9869L23.9154 36.979C23.9021 38.6958 23.0383 39.5541 21.3239 39.5541C20.3956 39.5541 19.4674 39.5522 18.5371 39.5502L18.5451 39.5581L18.5471 39.5561Z" fill="#D5D5D5"/>
<path d="M13.163 44.8885C13.167 46.2967 13.1371 47.7068 13.1909 49.115C13.2207 49.8666 12.9379 50.0743 12.2168 50.0545C10.3244 50.0011 10.5993 50.2048 10.5794 48.4169C10.5694 47.5328 10.6172 46.6448 10.5655 45.7626C10.5236 45.0546 10.8145 44.8291 11.4857 44.8805C12.0435 44.9221 12.6072 44.8944 13.169 44.8964L13.163 44.8904V44.8885Z" fill="#D5D5D5"/>
<path d="M13.1572 63.2877C13.1572 64.4724 13.1611 65.6551 13.1631 66.8398C12.8584 67.1405 12.5157 67.3956 12.1871 67.6685C11.4959 68.2382 11.1572 68.1768 10.5875 67.4371C10.5855 66.286 10.5955 65.133 10.5756 63.9819C10.5656 63.4795 10.7529 63.258 11.2708 63.2798C11.9002 63.3055 12.5297 63.2897 13.1592 63.2916L13.1572 63.2877Z" fill="#D6D6D6"/>
<path d="M10.585 67.4352C11.1627 67.9198 11.7165 68.0206 12.1408 67.2711C12.3838 66.8419 12.7543 66.828 13.1607 66.8399C13.4216 67.368 13.1228 68.1215 13.567 68.4815C14.0112 68.8434 14.7044 68.6001 15.2881 68.6081C15.8179 68.616 15.9653 68.8652 15.9534 69.3379C15.9375 69.9549 15.9534 70.574 15.9534 71.1911C15.2602 71.1891 14.567 71.195 13.8738 71.1812C13.3957 71.1733 13.1686 70.9854 13.2363 70.4415C13.4654 68.6199 13.4495 68.6179 11.6707 68.616C11.3081 68.616 10.9456 68.61 10.5811 68.6081C10.5811 68.2164 10.5811 67.8248 10.5811 67.4332L10.585 67.4352Z" fill="#D5D5D5"/>
<path d="M27.6902 51.0513C28.3177 51.4172 28.1982 52.0204 28.0428 52.5208C27.8934 52.9994 27.3636 52.7304 27.003 52.7898C26.8437 52.8155 26.6763 52.8016 26.513 52.8036C25.8935 52.7997 25.274 52.7937 24.6545 52.7917C23.1625 52.7838 22.9792 52.501 23.533 51.0552C24.9194 51.0552 26.3058 51.0532 27.6922 51.0513H27.6902Z" fill="#919191"/>
<path d="M13.1691 44.8944C13.173 44.212 13.179 43.5297 13.177 42.8473C13.177 42.3628 13.4101 42.1313 13.8981 42.1333C14.5853 42.1333 15.2726 42.1294 15.9598 42.1254C16.0236 42.0562 16.0873 42.0542 16.153 42.1254C15.7985 42.7326 15.9558 43.4011 15.9638 44.0399C15.9718 44.657 15.7925 44.9418 15.1292 44.8983C14.4758 44.8548 13.8184 44.8904 13.1631 44.8904L13.1691 44.8963V44.8944Z" fill="#D4D4D4"/>
<path d="M16.1527 42.1234C16.0889 42.1234 16.0252 42.1234 15.9595 42.1234C15.9356 40.4014 16.7981 39.5457 18.547 39.5562L18.5391 39.5483C18.5391 39.6136 18.5391 39.6769 18.5391 39.7422C18.5497 41.3481 17.7536 42.1419 16.1507 42.1234H16.1527Z" fill="#D5D5D5"/>
<path d="M45.0265 70.202C44.8173 70.2119 44.7536 69.0312 44.3811 70.1526C44.1241 70.9279 43.3453 70.6431 42.8333 70.5244C42.2078 70.378 42.0286 70.5996 41.8294 71.1019C41.4589 72.0374 41.6999 72.8938 42.0445 73.7581C41.664 74.1873 41.1401 74.0904 40.6541 74.124C40.4888 74.1359 40.3234 74.124 40.1581 74.128C39.3972 74.1478 38.5805 73.946 37.8893 74.2229C37.0088 74.575 37.6841 75.6291 37.22 76.2343C36.9869 76.5844 36.6224 76.618 36.2539 76.618C33.9731 76.6082 31.6942 76.6853 29.4154 76.5805C29.3019 76.5528 29.1983 76.5033 29.1067 76.4321C28.7621 75.823 28.8497 75.1564 28.9314 74.5176C29.033 73.7205 29.6385 73.4338 30.3636 73.4615C31.262 73.4931 31.6086 73.1015 31.5767 72.2332C31.5528 71.5924 31.7899 70.9358 32.5129 70.9595C33.6284 70.9971 34.1981 70.5086 34.4611 69.5137C34.9651 69.2052 35.5268 69.3614 36.0646 69.3278C36.4451 69.3041 36.8475 69.3812 37.1463 69.0549C37.4231 68.7009 37.2837 68.1688 37.6642 67.8623L37.6442 67.8267C37.8434 67.6388 37.7797 67.3876 37.7538 67.176C37.6343 66.2424 37.8813 65.6788 38.9669 65.6214C39.6541 65.5858 39.6382 64.8738 39.7418 64.3971C40.0187 63.1116 39.9868 63.0859 41.2278 62.9395C41.7178 62.8821 42.0385 62.7358 42.0823 62.1939C42.172 61.0823 42.7736 60.4474 43.911 60.3762C44.4448 60.3426 44.6679 60.0598 44.7117 59.5673C44.7297 59.3715 44.7715 59.1777 44.8094 58.9839C45.0325 57.8348 45.1659 57.6844 46.3591 57.6172C47.0583 57.5776 47.4925 57.4016 47.4806 56.6026C47.4706 55.9598 47.5822 55.2854 48.363 55.143C49.1638 54.9966 50.0223 54.8226 50.6139 55.6671C50.9327 56.6659 50.7633 57.6924 50.7833 58.705C50.8072 59.8541 50.8331 61.0072 50.7653 62.1563C50.7076 63.1294 50.3331 63.4992 49.3729 63.6416C48.604 63.755 48.2143 64.1994 48.2037 64.9747C48.1957 65.7638 48.2096 66.553 48.1957 67.3421C48.1877 67.8049 48.1758 68.2697 47.8152 68.6316L47.8232 68.6237C47.6061 68.8413 47.3272 68.9837 47.0344 68.9402C45.9846 68.7899 45.3293 69.2151 45.0245 70.208L45.0265 70.202Z" fill="#B1B1B1"/>
<path d="M47.8167 68.6239C47.8167 67.1465 47.8366 65.671 47.8008 64.1936C47.7848 63.537 47.9621 63.181 48.6852 63.2779C48.8465 63.2997 49.0179 63.2621 49.1792 63.2838C50.1294 63.4124 50.4541 63.0228 50.4262 62.0694C50.3644 59.9057 50.4023 57.738 50.4003 55.5723C50.0477 55.0898 50.0397 54.532 50.0437 53.9703C50.0477 53.4778 50.0577 52.9854 50.0417 52.4949C50.0218 51.9094 50.1891 51.2746 49.8724 50.7544C49.5278 50.1868 48.8366 50.4913 48.3187 50.3252C48.1275 50.2639 47.9422 50.2026 47.8187 50.0325V44.8902C49.5291 44.8836 50.3936 45.74 50.4122 47.4594C50.4122 47.6235 50.4162 47.7877 50.4162 47.9538C50.4242 49.8743 50.4222 49.8921 52.3126 50.0167C52.8285 50.0503 53.0058 50.2421 53.0058 50.7366C52.9958 54.6883 52.9918 58.6379 53.0078 62.5896C53.0098 63.1928 52.707 63.2739 52.201 63.2917C50.4063 63.3491 50.4063 63.3629 50.4063 65.1588C50.4063 66.0805 50.3903 67.0021 50.4102 67.9238C50.4222 68.4321 50.215 68.6358 49.7031 68.618C49.0736 68.5962 48.4442 68.62 47.8127 68.6239H47.8167Z" fill="#D5D5D5"/>
<path d="M37.0548 79.0944C32.9433 79.1003 28.8319 79.1063 24.7205 79.1102C23.9237 79.4049 23.6329 78.9916 23.5831 78.2855C23.5432 77.7357 23.5054 77.1819 23.7285 76.6538C23.7883 76.5391 23.8719 76.4481 23.9795 76.3749C25.6826 76.0743 27.3877 75.9972 29.0969 76.3334H29.0988C31.1107 76.5549 33.1286 76.3947 35.1445 76.4244C37.2161 76.454 37.2161 76.4303 37.1663 78.5268C37.1623 78.7206 37.2002 78.9243 37.0587 79.0944H37.0548Z" fill="#D5D5D5"/>
<path d="M23.9214 76.5293C23.9214 77.1049 23.9493 77.6824 23.9095 78.256C23.8677 78.8631 24.0768 79.1737 24.7182 79.1104C24.041 79.2963 23.8298 79.7433 23.9115 80.4137C23.9633 80.833 23.9174 81.2642 23.9155 81.6914C22.1227 81.6855 20.3279 81.6796 18.5352 81.6736C18.5431 80.9478 18.5491 80.2219 18.5571 79.496C18.9913 78.9561 19.5889 79.0055 20.1765 79.0827C20.9673 79.1855 21.3458 78.7385 21.2801 78.078C21.2283 77.5459 21.3717 77.0495 21.3259 76.5353C22.1884 75.9755 23.0529 75.9795 23.9194 76.5293H23.9214Z" fill="#C0C0C0"/>
<path d="M37.0762 76.1278C37.0603 74.5534 37.8551 73.7656 39.4606 73.7643C40.3211 73.7643 41.1817 73.7584 42.0422 73.7544C42.1756 73.7564 42.3111 73.7603 42.4446 73.7623L42.4366 73.7544C42.347 74.6741 42.6517 75.6214 42.2454 76.5214C40.843 76.3058 39.4307 76.4937 38.0264 76.4225C37.6917 76.4047 37.2794 76.5767 37.0742 76.1258L37.0762 76.1278Z" fill="#D5D5D5"/>
<path d="M45.026 70.2021C45.0878 68.513 44.7153 68.6139 46.6554 68.6119C47.0439 68.6119 47.4343 68.6159 47.8227 68.6159C47.8188 68.877 47.8108 69.14 47.8108 69.4011C47.8048 71.2503 47.8068 71.2187 45.9842 71.2048C45.2272 71.1989 44.9742 70.8864 45.026 70.2021Z" fill="#D5D5D5"/>
<path d="M42.4472 73.7641C42.4472 73.2736 42.487 72.7792 42.4332 72.2946C42.3396 71.4639 42.5946 71.1237 43.5069 71.1673C44.9451 71.2345 45.4929 71.9821 45.0228 73.3982C44.9132 73.7246 44.6841 73.7602 44.4132 73.7602C43.7559 73.7621 43.0965 73.7582 42.4392 73.7562L42.4472 73.7641Z" fill="#D5D5D5"/>
<path d="M37.0765 76.1279C37.8952 76.5314 38.7717 76.2446 39.6163 76.3356C40.4907 76.4305 41.3951 76.1161 42.2457 76.5235C40.8931 76.5255 39.5406 76.567 38.19 76.5156C37.4291 76.4879 37.2219 76.7727 37.2418 77.4867C37.2578 78.0167 37.459 78.6002 37.0526 79.0927C37.0792 77.3838 36.2239 76.5294 34.4869 76.5294C33.0009 76.5294 31.5149 76.5334 30.0309 76.5255C29.7102 76.5255 29.3616 76.6145 29.0967 76.3336C31.4113 76.3336 33.728 76.3356 36.0427 76.3277C36.3952 76.3277 36.7797 76.4325 37.0765 76.1279Z" fill="#C0C0C0"/>
<path d="M37.8613 29.8628C38.7318 29.2596 38.6442 29.9241 38.6581 30.4562C38.2597 30.4324 38.0366 30.1793 37.8613 29.8628Z" fill="#8B8B8E"/>
<path d="M23.9212 76.5295C23.0567 76.5295 22.1922 76.5334 21.3276 76.5354C21.1982 76.5315 21.0667 76.5275 20.9372 76.5235C20.1564 76.2605 19.3237 76.6066 18.5449 76.3277C18.4632 75.4714 18.7281 74.5892 18.3477 73.7546C18.3317 73.5034 18.513 73.4698 18.6982 73.4382C20.3974 73.4579 22.1105 73.1593 23.7937 73.6478C24.5108 74.5794 24.4809 75.5426 23.9192 76.5295H23.9212Z" fill="#D5D5D5"/>
<path d="M18.5196 73.5644C18.4618 73.6277 18.406 73.691 18.3482 73.7543C17.8184 73.7602 17.2885 73.7642 16.7567 73.7701C16.1153 73.8334 15.9001 73.5328 15.9439 72.9196C15.9858 72.3461 15.9519 71.7666 15.9519 71.189C16.8144 71.2978 17.7108 70.9596 18.5474 71.3908C19.0614 72.1226 19.0793 72.8465 18.5196 73.5644Z" fill="#D5D5D5"/>
<path d="M18.5449 76.3275C19.3397 76.4343 20.1664 76.1317 20.9373 76.5233C20.1425 76.4363 19.3138 76.7487 18.5449 76.3275Z" fill="#C0C0C0"/>
<path d="M47.6198 44.8863C47.6198 46.6011 47.6218 48.3178 47.6238 50.0326C48.4484 50.6556 48.2154 51.51 48.052 52.2932C47.8927 53.0547 47.1975 53.1634 46.5521 53.1476C45.7015 53.1278 45.4047 53.4977 45.3609 54.3224C45.3091 55.3489 44.9924 55.6594 43.9287 55.699C43.0661 55.7306 42.7992 56.0728 42.7673 56.8916C42.7275 57.928 42.4247 58.2266 41.3511 58.2741C40.4945 58.3117 40.2216 58.6578 40.1897 59.4766C40.1399 60.7404 39.8611 61.0015 38.5404 61.0569C37.7376 61.0905 37.3811 61.3635 37.4647 62.1842C37.5006 62.5383 37.4608 62.9793 36.9428 62.9714C34.7975 62.9378 32.6502 63.1118 30.5088 62.8785C30.5108 62.6787 30.5128 62.477 30.5148 62.2772C30.9092 61.8856 31.4331 62.0102 31.9071 61.939C32.1701 61.8994 32.449 61.8658 32.4549 61.5118C32.4609 61.1578 32.19 61.1162 31.9251 61.0668C31.4908 60.9857 30.9889 61.1241 30.6622 60.689C31.1462 60.4042 31.6761 60.5506 32.182 60.5526C32.6701 60.5526 32.9111 60.3825 32.9211 59.8999C33.3175 59.5063 33.8413 59.6467 34.3134 59.5735C34.5784 59.532 34.8493 59.4944 34.8553 59.1384C34.8612 58.7824 34.5943 58.7369 34.3274 58.6934C33.8553 58.6163 33.3314 58.7646 32.935 58.369C33.4191 57.9379 34.0027 58.2009 34.5346 58.1752C35.0684 58.1495 35.3493 58.0111 35.2736 57.4316C35.2437 57.2061 35.2915 56.9707 35.2576 56.7453C35.1361 55.9403 35.5086 55.6911 36.2676 55.7662C36.7237 55.8117 37.1898 55.7702 37.652 55.7662C38.0882 55.1017 37.8193 54.364 37.8412 53.6658C37.8591 53.0566 38.0085 52.7125 38.6818 52.8035C39.6041 52.9281 39.8949 52.5187 39.867 51.6227C39.8192 50.0524 39.867 50.0069 41.3969 50.0523C42.2255 50.0781 42.4825 49.8071 42.4566 48.9922C42.4108 47.4772 42.4566 47.4219 43.9466 47.4832C44.843 47.5207 45.1378 47.2122 45.0382 46.3618C44.9824 45.8772 45.0282 45.3808 45.0282 44.8883C45.8908 44.3562 46.7533 44.3562 47.6158 44.8883L47.6198 44.8863Z" fill="#B1B1B2"/>
<path d="M30.5146 62.8782C32.4708 62.8802 34.4269 62.8782 36.383 62.8901C36.9587 62.894 37.3152 62.8802 37.128 62.0792C36.8591 60.9281 37.112 60.7165 38.3411 60.7105C39.843 60.7026 39.8908 60.7006 39.8351 59.1738C39.7992 58.2284 40.11 57.8823 41.08 57.9238C42.4346 57.9831 42.4983 57.9258 42.4226 56.5551C42.3688 55.586 42.6955 55.2992 43.6517 55.3507C45.0182 55.4238 45.0241 55.3645 45.0321 54.0018C45.0361 53.3946 44.9584 52.7914 45.8906 52.7854C46.4942 52.7815 47.3488 53.1137 47.6535 52.5204C48.032 51.7807 47.9444 50.861 47.6276 50.0323H47.8228C50.6216 50.0383 50.4204 49.795 50.4104 52.6351C50.4064 53.6141 50.4064 54.5932 50.4024 55.5722C49.781 55.23 49.1077 55.4001 48.4543 55.3863C48.0619 55.3783 47.8448 55.6098 47.8308 55.9994C47.8169 56.3593 47.8049 56.7233 47.8228 57.0832C47.8527 57.724 47.542 57.9871 46.9205 57.9416C46.8866 57.9396 46.8548 57.9416 46.8209 57.9416C45.1656 57.991 45.1038 57.9891 45.062 59.6959C45.0421 60.5424 44.7552 60.756 43.9624 60.7283C42.8648 60.6907 42.4246 61.112 42.4625 62.1761C42.4923 63.0582 42.1418 63.3509 41.2952 63.2935C40.6239 63.2481 39.7992 63.0661 40.1797 64.3082C40.3052 64.7215 39.8968 65.2081 39.7673 65.6748C39.604 66.2622 39.0104 65.9715 38.5662 65.9715C38.114 65.9715 37.8431 66.1812 37.857 66.7053C37.867 67.0771 38.0144 67.5023 37.6499 67.8168C37.6598 66.5708 37.6339 65.3208 37.6917 64.0768C37.7276 63.3193 37.5104 63.0325 36.6977 63.0602C34.9806 63.1195 33.2596 63.0859 31.5425 63.0701C31.1979 63.0661 30.8075 63.2085 30.5186 62.8743L30.5146 62.8782Z" fill="#C0C0C0"/>
<path d="M37.6641 67.8544C37.6641 68.3765 37.6622 68.9007 37.6602 69.4228C36.3255 69.6423 34.965 69.5949 33.6284 69.6443C30.6903 69.7511 27.7461 69.852 24.802 69.7966C23.1288 69.765 22.9535 69.5316 23.3399 67.8465L23.318 67.8228C28.0987 67.8326 32.8794 67.8425 37.6622 67.8524L37.6641 67.8544Z" fill="#8B8B8C"/>
<path d="M32.8498 50.4003C31.5909 50.4063 30.332 50.4083 29.0731 50.4221C28.7364 50.4261 28.4097 50.4162 28.1189 50.2204C28.1129 50.0246 28.1289 49.8268 28.099 49.6349C27.9835 48.8735 28.2663 48.5887 29.0651 48.652C29.9456 48.7232 30.8419 48.7291 31.7184 48.644C32.6726 48.5511 33.053 48.8794 32.8996 49.8189C32.8678 50.0107 32.8638 50.2065 32.8478 50.4003H32.8498Z" fill="#8C8C8E"/>
<path d="M32.9368 58.3649C33.4268 58.3589 33.9188 58.3747 34.4069 58.3391C35.0045 58.2956 35.2993 58.4558 35.2973 59.1362C35.2973 59.8245 34.9806 59.9649 34.3929 59.9253C33.9049 59.8917 33.4129 59.9056 32.9229 59.8977C32.9268 59.3874 32.9308 58.8771 32.9348 58.3668L32.9368 58.3649Z" fill="#8A8A8B"/>
<path d="M30.6664 60.687C31.1305 60.6989 31.5947 60.7424 32.0568 60.7167C32.6225 60.687 32.8974 60.8373 32.9014 61.4781C32.9074 62.1526 32.6345 62.3484 32.011 62.3009C31.517 62.2633 31.017 62.2831 30.519 62.2772C30.5509 61.7451 30.3298 61.1914 30.6644 60.687H30.6664Z" fill="#8A8A8C"/>
<path d="M23.3421 67.8486C23.3342 68.1117 23.3421 68.3767 23.3142 68.6378C23.2505 69.247 23.5294 69.4388 24.123 69.4329C26.2125 69.4072 28.3041 69.419 30.3937 69.419C32.8159 69.419 35.2381 69.421 37.6604 69.423C36.6146 69.8126 35.527 69.506 34.4633 69.6148C34.0031 70.048 33.4215 69.959 32.8677 69.9708C32.1745 69.9866 31.4813 69.9926 30.7901 69.9708C30.0829 69.9491 29.5272 70.044 29.2722 70.8608C29.077 71.4839 28.4316 71.5254 27.8619 71.557C27.3679 71.5847 26.9914 71.6638 26.8918 72.2849C26.5831 74.1994 25.5711 74.6543 23.7126 73.7682C22.3262 73.7682 20.9378 73.7722 19.5514 73.7603C19.1988 73.7564 18.8164 73.8632 18.5176 73.5625C18.5275 72.8387 18.5355 72.1128 18.5455 71.3889C18.9957 71.11 19.4976 71.1971 19.9857 71.1911C21.135 71.1733 21.3661 71.0052 21.3123 69.9016C21.2685 69.0017 21.4139 68.4064 22.5075 68.618C23.1509 68.7426 23.0294 68.0682 23.3421 67.8486Z" fill="#B1B1B1"/>
<path d="M47.6197 44.8861C46.7572 44.8861 45.8947 44.8861 45.0322 44.8861C45.0322 44.3047 45.0003 43.7232 45.0401 43.1437C45.0919 42.4 44.8071 42.0381 44.0342 42.1231C44.3131 41.8601 44.6776 41.8106 45.0302 41.7256C45.3349 42.2972 45.8847 42.135 46.3449 42.1113C47.313 42.0598 47.7532 42.4257 47.6337 43.4225C47.5759 43.9032 47.6217 44.3956 47.6217 44.8842L47.6197 44.8861Z" fill="#D4D4D4"/>
<path d="M23.7148 73.7683C24.3742 73.7663 25.0355 73.7367 25.6949 73.7683C26.2785 73.794 26.5753 73.5982 26.5116 72.9851C26.4916 72.7913 26.5315 72.5895 26.5056 72.3957C26.3761 71.4305 26.8143 71.0785 27.7526 71.1853C28.5573 71.2763 29.2206 71.1892 29.123 70.0916C29.0752 69.5536 29.5553 69.6149 29.9099 69.6149C31.4277 69.6109 32.9476 69.6149 34.4655 69.6149C34.4894 71.1457 34.4894 71.1833 32.9018 71.1754C32.105 71.1714 31.868 71.4839 31.8739 72.2355C31.8859 73.7327 31.854 73.7604 30.36 73.7505C29.4637 73.7446 29.1071 74.0551 29.2087 74.9926C29.2525 75.4099 29.388 75.9103 29.0971 76.3316C27.384 76.6895 25.6471 76.4542 23.922 76.5274C23.8324 75.6097 24.1232 74.6623 23.7168 73.7663L23.7148 73.7683Z" fill="#C0C0C0"/>
<path d="M36.5782 57.5422C36.0483 57.5284 35.4547 57.7182 35.4388 56.7926C35.4248 55.9303 35.9029 55.9323 36.5025 55.9659C37.0602 55.9956 37.7036 55.774 37.6937 56.7669C37.6837 57.6688 37.1399 57.558 36.5782 57.5422Z" fill="#8A8A8C"/>
</g>
<defs>
<clipPath id="clip0_2082_4881">
<rect width="61" height="87" fill="white"/>
</clipPath>
</defs>
</svg>
