<svg width="61" height="87" viewBox="0 0 61 87" fill="none" xmlns="http://www.w3.org/2000/svg">
<g clip-path="url(#clip0_2082_4648)">
<path d="M39.8906 0.049342C45.1287 0.049342 50.3647 0.049342 55.6027 0.049342C55.8935 0.316468 55.9692 0.668679 55.9791 1.03672C56.007 2.12303 56.0369 3.21132 55.9672 4.29566C55.9034 5.27512 55.521 5.60359 54.5113 5.66097C53.3322 5.72825 53.3243 5.72825 53.3282 6.91745C53.3282 7.77225 53.2924 8.62904 53.3601 9.48582C53.4119 9.88354 53.3103 10.2377 53.0514 10.5444L53.0614 10.5345C52.6531 10.8947 52.1432 10.8848 51.6513 10.8848C51.0637 10.8848 50.8228 11.1499 50.8188 11.7257C50.8128 12.6458 50.8188 13.5659 50.8068 14.486C50.7989 15.0242 50.7471 15.5407 50.293 15.9166C49.9683 16.2016 49.562 16.2214 49.1697 16.2055C48.4228 16.1758 48.1838 16.5419 48.2137 17.2285C48.2535 18.1803 48.1858 19.1281 48.0345 20.0719C47.9827 20.3984 47.9468 20.7229 47.7258 20.992C47.3454 21.362 46.8833 21.5006 46.3675 21.4254C45.6465 21.3205 45.4354 21.6885 45.4294 22.3257C45.4214 23.2418 45.4314 24.156 45.4194 25.0721C45.4135 25.5312 45.4194 25.9942 45.0868 26.3702L45.0968 26.3603C44.6905 26.7145 44.1866 26.7145 43.6967 26.7145C43.1171 26.7145 42.912 26.9855 42.8462 27.5435C42.675 29.0355 42.4121 29.2927 40.9243 29.263C39.6576 29.2373 38.3611 29.5302 37.1242 29.0137C37.0267 28.9346 36.953 28.8356 36.8992 28.7229C36.8195 28.4716 36.7677 28.2163 36.7379 27.9531C36.6004 26.7441 36.5287 26.6274 35.286 26.6492C33.6668 26.6769 32.0495 26.7422 30.4303 26.7046C29.082 26.6729 28.7992 26.3939 28.7673 25.0721C28.7454 24.152 28.7255 23.2319 28.7813 22.3138C28.843 21.3007 29.1517 20.9881 30.1535 20.8417C31.5138 20.6418 31.4879 20.626 31.5576 19.2369C31.6134 18.1051 31.2748 16.9337 31.8583 15.8494C32.181 15.4971 32.6271 15.4734 33.0434 15.5011C33.9277 15.5565 34.1866 15.135 34.1487 14.3238C34.1089 13.4472 34.1328 12.5647 34.1487 11.6861C34.1567 11.2587 34.1906 10.8373 34.5052 10.4989L34.4973 10.5088C34.8976 10.1348 35.4075 10.1467 35.8994 10.1447C36.4909 10.1428 36.7199 9.86573 36.7239 9.29784C36.7319 8.41138 36.7219 7.52492 36.7359 6.64043C36.7438 6.17741 36.7518 5.71637 37.0764 5.33646L37.0665 5.34635C37.4469 5.02382 37.9149 4.99217 38.373 5.01591C39.1995 5.05746 39.4704 4.60632 39.5023 3.87815C39.5381 3.02928 39.5102 2.17844 39.5301 1.32957C39.5401 0.872486 39.5242 0.40551 39.8926 0.0473633L39.8906 0.049342Z" fill="#C1272F"/>
<path d="M5.44301 0.043457C10.685 0.0474145 15.927 0.0533506 21.167 0.057308C21.5434 0.415455 21.5235 0.886388 21.5315 1.34545C21.5514 2.23191 21.5414 3.12035 21.5434 4.00682C21.5434 4.63011 21.7446 4.9566 22.4457 5.012C23.9593 5.13073 24.1007 5.32266 24.1246 6.8245C24.1366 7.61203 24.1147 8.40154 24.1505 9.18906C24.1804 9.82423 24.4731 10.1468 25.1384 10.1487C25.6283 10.1487 26.1441 10.127 26.5305 10.5306H26.5345C26.9328 10.9145 26.9029 11.4171 26.9109 11.9078C26.9268 12.7923 26.9288 13.6768 26.9169 14.5593C26.9069 15.2301 27.1897 15.515 27.8589 15.4932C28.319 15.4794 28.787 15.5071 29.1694 15.8257H29.1615C29.5817 16.3342 29.4921 16.9456 29.4961 17.5313C29.504 18.3881 29.5379 19.2469 29.4742 20.1017C29.4025 21.0752 29.0878 21.3542 28.0959 21.4056C27.0025 21.463 26.9428 21.5224 26.9149 22.6305C26.891 23.5862 26.9348 24.5419 26.887 25.4976C26.8512 26.1882 26.5225 26.574 25.8036 26.6769C24.3058 26.8926 24.3078 26.9104 24.043 28.436C24.025 28.533 23.9991 28.6279 23.9732 28.7249C23.9274 28.8397 23.8577 28.9366 23.7661 29.0197C22.2445 29.5124 20.689 29.2868 19.1455 29.1998C18.3847 29.1562 18.2094 28.5132 18.2313 27.8918C18.2652 26.9896 17.8689 26.6967 16.9905 26.6829C15.9589 26.667 15.7358 26.3643 15.7 25.3472C15.6561 24.1323 15.7776 22.9134 15.6283 21.7044C15.5805 21.6094 15.5187 21.5224 15.443 21.4492C14.7559 21.0574 13.9254 21.5323 13.2463 21.091C12.826 20.7606 12.8599 20.2817 12.8439 19.8286C12.8141 18.9105 12.836 17.9924 12.828 17.0742C12.824 16.5083 12.597 16.2293 12.0055 16.2273C11.5155 16.2254 11.0037 16.2432 10.6093 15.8593L10.6133 15.8652C10.1592 15.3785 10.2608 14.769 10.2488 14.1893C10.2309 13.4057 10.2309 12.6221 10.2429 11.8386C10.2528 11.1895 10.0059 10.867 9.32074 10.8848C8.86465 10.8967 8.39263 10.8927 8.00824 10.5722C7.35698 9.40474 7.77921 8.13639 7.65772 6.91948C7.61987 6.54748 7.81705 6.12206 7.40876 5.83515C4.85747 5.65508 4.84552 5.37015 4.86145 2.90467C4.86543 2.31106 4.84552 1.71943 4.88137 1.12581C4.90925 0.686538 4.98493 0.267051 5.44102 0.0454357L5.44301 0.043457Z" fill="#9D252E"/>
<path d="M23.8259 28.7129C23.81 28.517 23.7841 28.3211 23.7801 28.1232C23.7482 26.4175 23.812 26.3147 25.483 26.3562C26.2896 26.376 26.6142 26.1583 26.5584 25.3154C26.4907 24.3003 26.5405 23.2773 26.5425 22.2583C26.5465 21.1502 26.7556 20.9563 27.8809 21.0256C28.7187 21.077 29.1389 20.6918 29.1416 19.87C29.1456 18.5225 29.1535 17.173 29.1595 15.8255C30.008 15.8334 30.8564 15.8413 31.7068 15.8473C31.7885 15.782 31.8662 15.7919 31.9379 15.8651C31.9279 17.1829 31.914 18.5007 31.908 19.8205C31.902 20.9622 31.7287 21.1443 30.6035 21.1819C29.6289 21.2149 29.1416 21.7102 29.1416 22.6679C29.1416 23.59 29.1755 24.516 29.1296 25.4361C29.0958 26.1168 29.3208 26.3681 30.0299 26.3522C31.9538 26.3127 33.8777 26.3364 35.8036 26.3404C37.1042 26.3443 37.1042 26.3483 37.1022 27.6226C37.1022 27.9847 37.0922 28.3468 37.0883 28.7109C36.3434 28.9543 35.9172 28.5526 35.7459 27.9293C35.5567 27.2407 35.1763 27.1279 34.5648 27.2902C33.7861 27.4959 32.9835 27.4267 32.1908 27.4386C31.7009 27.4465 31.3244 27.492 31.1731 28.1113C31.0098 28.7782 30.474 29.0176 29.7749 28.8593C29.2252 28.7346 28.6616 28.6436 28.2075 28.2815C27.8231 27.9748 27.5881 27.5335 28.1478 27.2625C28.7194 26.9854 28.6118 26.7757 28.2932 26.4136C28.0422 26.1287 28.0601 25.7567 28.0681 25.4757C27.8112 26.1306 27.863 26.8944 27.8012 27.6443C27.7355 28.4437 27.3571 28.6673 26.6441 28.2795C26.4688 28.1845 26.3254 28.044 26.1561 27.9412C25.5845 27.5949 25.0488 27.2644 24.746 28.2637C24.6385 28.6179 24.3298 28.9602 23.8279 28.7129H23.8259Z" fill="#A3764A"/>
<path d="M37.1342 28.885C38.5821 28.8969 40.03 28.885 41.478 28.9286C42.191 28.9484 42.5315 28.6971 42.4678 27.9649C42.4419 27.6721 42.4857 27.3753 42.4638 27.0824C42.422 26.5284 42.6729 26.3167 43.2187 26.3424C43.842 26.3721 44.4694 26.3582 45.0948 26.3642C45.0888 27.87 45.1008 29.3777 45.0689 30.8835C45.0569 31.4376 45.2601 31.6117 45.8118 31.6315C47.7397 31.7027 47.7417 31.7205 47.7178 33.6518C47.7158 33.8477 47.6859 34.0416 47.668 34.2355C47.6282 34.283 47.5903 34.3285 47.5505 34.376C46.6821 34.8113 45.76 34.5402 44.8618 34.5837C44.6327 34.6312 44.4017 34.6233 44.1707 34.6213C42.8283 34.6055 42.0755 34.7282 42.0934 32.8009C42.0994 32.1855 41.7687 31.9125 41.1812 31.8788C40.4881 31.8393 39.797 31.8412 39.1039 31.9164C37.1202 32.1341 36.5606 31.582 36.7637 29.6192C36.7817 29.4549 36.8175 29.2966 36.8832 29.1443C36.939 29.0335 37.0227 28.9464 37.1302 28.885H37.1342Z" fill="#A2774B"/>
<path d="M23.826 28.7131C24.2801 28.5489 24.6824 28.349 24.5928 27.7515C24.5012 27.142 24.8318 27.0708 25.3098 27.2232C25.7499 27.3636 26.1961 27.4863 26.5466 27.8227C26.7697 28.0364 26.9469 28.3807 27.3731 28.1987C27.8471 27.9949 27.5723 27.6506 27.5504 27.3538C27.4807 26.4218 27.5305 25.5234 28.2933 24.6924C28.3391 25.5314 28.3032 26.2694 29.0561 26.8235C29.5659 27.1994 29.0979 27.4131 28.6737 27.3854C28.3869 27.3656 28.1021 27.3399 28.0443 27.6743C27.9985 27.9474 28.3092 28.0305 28.4884 28.1492C28.9983 28.4816 29.6058 28.5924 30.1833 28.6557C30.6036 28.7032 31.1114 28.3827 30.9182 27.8741C30.6534 27.1776 31.1672 27.1776 31.4938 27.1638C32.7466 27.1084 34.0053 27.1678 35.2461 26.8868C35.6763 26.7898 36.0567 27.2073 36.0009 27.4863C35.8137 28.446 36.5685 28.448 37.0864 28.7111C37.1023 28.7685 37.1182 28.8259 37.1322 28.8833C37.1083 28.9051 37.0844 28.9288 37.0585 28.9506C36.6203 29.3542 36.0686 29.2751 35.5468 29.2771C32.2985 29.2889 29.0521 29.2771 25.8037 29.285C24.4534 29.2889 24.4534 29.2968 24.31 30.5988C24.1984 31.61 23.9814 31.7762 22.9417 31.9048C22.1092 32.0077 21.2887 31.883 20.4641 31.8909C19.2313 31.9008 19.056 32.0848 18.9385 33.276C18.8369 34.3247 18.592 34.5622 17.4946 34.6117C16.4689 34.6572 15.4412 34.6077 14.4135 34.6413C13.8977 34.6572 13.6587 34.8709 13.587 35.4031C13.344 37.1998 12.9994 37.4135 11.0895 37.0653C10.5139 36.7704 10.7788 36.3292 11.0835 36.159C11.918 35.7 12.5653 35.0984 13.0034 34.2674C13.4834 33.6619 13.1887 32.9614 13.2245 32.3084C13.2524 31.8177 13.3998 31.6278 13.9076 31.6119C14.5828 31.5902 15.2799 31.7683 15.9371 31.4714C16.3115 30.9491 16.7796 31.0124 17.389 31.0183C18.7553 31.0282 20.2152 31.3943 21.4779 30.5177C21.926 30.2071 22.2008 30.6345 22.5454 30.7393C22.9915 30.1358 22.882 29.1999 23.7583 28.9209L23.828 28.7111L23.826 28.7131Z" fill="#A27747"/>
<path d="M2.66874 63.3247C2.02544 63.0912 1.35824 63.2158 0.702987 63.2099C0.201094 63.2059 0.00192939 63.0377 0.00392103 62.5213C0.0178625 58.5797 0.0178625 54.6401 0.00392103 50.6985C0.00192939 50.1544 0.248893 50.0317 0.728879 50.0495C1.35625 50.0712 1.9856 50.0495 2.61297 50.0495C2.66475 50.0891 2.71455 50.1266 2.76633 50.1642C2.95553 50.4116 3.01528 50.7044 3.01528 51.0012C3.01727 54.9468 3.12482 58.8923 2.9635 62.8379C2.92765 62.9626 2.87587 63.0793 2.81014 63.1921C2.76434 63.2376 2.71853 63.2831 2.67073 63.3266L2.66874 63.3247Z" fill="#A1774A"/>
<path d="M37.1304 84.3402C37.0109 85.1732 37.5128 86.2952 36.8814 86.776C36.3496 87.1797 35.2881 86.9125 34.4616 86.9145C31.3108 86.9204 28.158 86.8789 25.0092 86.9402C24.0592 86.958 23.7684 86.6395 23.88 85.7649C23.9298 85.3751 23.9158 84.9774 23.9318 84.5816C23.8501 84.457 23.8581 84.3402 23.9596 84.2314C24.1727 84.0454 24.4376 84.0236 24.7025 84.0236C28.5882 84.0058 32.4739 84.0216 36.3576 84.0098C36.5229 84.0098 36.6862 84.0197 36.8436 84.083C36.9651 84.1404 37.0607 84.2254 37.1324 84.3382L37.1304 84.3402Z" fill="#A27749"/>
<path d="M26.5305 10.5304C26.0346 10.5304 25.5287 10.4711 25.0427 10.5423C24.0091 10.6947 23.778 10.1248 23.78 9.28583C23.78 8.26679 23.7521 7.24578 23.786 6.22674C23.8059 5.61334 23.6346 5.31851 22.9555 5.3482C20.9638 5.43526 21.1849 5.40953 21.175 3.51195C21.169 2.36034 21.171 1.20873 21.167 0.0571198C22.9847 -0.0286244 23.8949 0.828158 23.8975 2.62747C23.8975 2.76004 23.8975 2.89063 23.8975 3.02321C23.9035 3.71378 23.6705 4.54484 23.9792 5.05535C24.3417 5.65687 25.2558 5.26113 25.925 5.29477C26.5145 5.32643 26.5325 5.64896 26.5305 6.07834C26.5245 7.56237 26.5305 9.04641 26.5305 10.5285V10.5304Z" fill="#A1764B"/>
<path d="M47.6698 34.2358C48.2951 34.2358 48.9245 34.2754 49.5439 34.222C50.2629 34.1586 50.4222 34.4673 50.4182 35.1262C50.4083 36.8101 50.4381 36.8339 52.1988 36.8358C52.8201 36.8358 53.0671 36.9882 53.0611 37.655C53.0552 38.2862 52.8361 38.959 53.2384 39.5605C53.4973 39.9088 53.8438 39.6931 54.1526 39.6971C55.1723 39.7129 55.7439 40.5558 55.1603 41.3433C54.4413 42.3129 54.5429 43.1242 55.238 44.0087C55.4392 44.2639 55.6821 44.632 55.228 44.9367C54.4752 45.1524 53.7283 45.2177 53.0034 44.8338C52.5234 44.2342 52.7166 43.5219 52.6728 42.8511C52.6548 42.5899 52.6787 42.3287 52.6688 42.0676C52.6449 41.4502 52.848 40.7656 52.5274 40.2333C52.145 39.5981 51.3742 39.984 50.7887 39.8435C50.6254 39.8039 50.478 39.7426 50.3525 39.6278C50.0179 39.1707 50.0717 38.6325 50.0637 38.12C50.0557 37.5225 49.8227 37.196 49.1914 37.2118C49.0599 37.2158 49.2252 37.2197 49.0938 37.2078C47.2794 37.0416 46.7257 35.9019 47.6558 34.2516L47.6678 34.2358H47.6698Z" fill="#A27949"/>
<path d="M18.5918 81.7249C17.106 81.715 15.6203 81.6754 14.1365 81.7111C13.4394 81.7289 13.1526 81.4934 13.2422 80.8088C13.2542 80.7118 13.2442 80.6129 13.2422 80.5139C13.2203 78.8241 13.4753 78.9844 11.7007 79.0358C10.8543 79.0596 10.4679 78.8657 10.5914 77.9614C10.6631 77.4469 10.6113 76.9147 10.6153 76.3903C10.6591 76.3448 10.7009 76.3013 10.7447 76.2557C11.5932 75.9391 12.4336 75.8996 13.2602 76.3309C13.539 76.6554 13.533 77.0551 13.5649 77.4469C13.6545 78.5352 13.6884 78.5708 14.8136 78.5966C15.7059 78.6163 16.5982 78.5886 17.4904 78.6104C17.8867 78.6203 18.2871 78.6342 18.6237 78.8934C19.1076 79.7759 19.0339 80.6801 18.7272 81.5943C18.6814 81.6378 18.6376 81.6814 18.5918 81.7249Z" fill="#A27949"/>
<path d="M23.7562 28.9229C23.4654 29.4908 23.0731 30.0152 22.9974 30.6701C22.9735 30.87 23.2344 31.1391 22.8799 31.2459C22.5792 31.337 22.3063 31.3073 22.1509 30.9452C21.9777 30.5475 21.7427 30.3615 21.5535 30.9452C21.4081 31.3904 21.0376 31.2776 20.7269 31.2855C19.7729 31.3093 18.813 31.2103 17.8769 31.4933C17.7275 31.5388 17.4606 31.5803 17.4108 31.5111C16.9229 30.8086 16.429 31.329 15.937 31.4735C15.8315 29.7698 16.1083 28.0543 15.7877 26.3565C15.6104 26.1527 15.473 25.9272 15.4829 25.6501C15.5267 24.4055 15.475 23.1609 15.5128 21.9163C15.5208 21.6512 15.5586 21.392 15.7956 21.2139C16.1939 22.4961 15.9709 23.8139 15.945 25.106C15.9251 26.1033 16.1999 26.4337 17.2177 26.3704C18.572 26.2873 18.6377 26.3585 18.56 27.7515C18.5043 28.729 18.8568 28.9922 19.7928 28.9407C21.1113 28.8675 22.4377 28.9229 23.7602 28.9229H23.7562Z" fill="#A2754A"/>
<path d="M2.60889 50.0473C2.61884 48.5692 2.65469 47.0911 2.62482 45.6149C2.61287 44.9976 2.76623 44.7502 3.44538 44.7463C5.2737 44.7384 5.2737 44.7067 5.2737 42.8546C5.2737 41.9998 5.30756 41.145 5.26375 40.2942C5.22989 39.6293 5.51469 39.475 6.13409 39.4433C6.7515 39.4117 7.46451 39.7876 7.98433 39.1426C8.28307 39.1485 8.5878 39.1446 8.6814 39.5225C8.23328 40.6227 8.41253 41.7782 8.3966 42.912C8.36871 44.96 8.33685 45.0095 6.22969 45.1183C5.99866 45.1302 5.76962 45.146 5.54457 45.1836C5.34939 45.2073 5.14823 45.241 4.95504 45.2192C4.25597 45.146 3.90744 45.3795 3.98511 46.1393C4.01698 46.4599 3.84968 46.7804 3.69035 47.0673C3.41749 47.562 3.36571 48.0052 3.67442 48.5395C4.14046 49.3488 3.39957 49.6931 2.92954 50.1205C2.83593 50.1581 2.74631 50.1482 2.66266 50.0947L2.60889 50.0492V50.0473Z" fill="#A2794B"/>
<path d="M59.0023 50.091C60.3327 50.0144 60.9979 50.6153 60.9979 51.8936C60.9979 55.2455 60.9999 58.5974 60.9999 61.9474C60.9999 62.7798 60.5651 63.1966 59.6954 63.1979C59.3329 63.1979 58.9685 63.1762 58.606 63.1643C58.4128 62.3154 58.6518 61.9514 59.4843 62.0503C60.3307 62.1512 60.5598 61.8089 60.4941 61.057C60.3746 59.6541 60.5259 58.2432 60.3507 56.8384C59.8727 58.1107 59.6954 59.3869 60.2869 60.683C60.4383 61.0154 60.6454 61.3617 60.3029 61.6743C59.9583 61.989 59.5301 62.0444 59.0999 61.8524C58.6836 61.6684 58.5323 61.3221 58.5841 60.8848C58.7633 59.3494 58.6378 57.8218 58.5801 56.2823C58.5084 54.3986 58.3311 52.4852 58.7235 50.6015C58.7653 50.3996 58.8709 50.2394 59.0043 50.091H59.0023Z" fill="#A27947"/>
<path d="M5.44298 0.043698C5.04067 1.65635 5.30556 3.29076 5.28963 4.91529C5.28564 5.27937 5.64015 5.34269 5.95284 5.3506C6.57822 5.36445 7.20359 5.3783 7.82897 5.39216C7.9405 6.29049 7.62383 6.78913 6.76942 6.68228C5.79351 6.5596 5.71584 7.01866 5.76563 7.73495C5.78355 7.99812 5.78355 8.26327 5.76762 8.52446C5.72779 9.21107 6.02454 9.55339 6.73157 9.61473C7.24143 9.66024 7.83694 9.68002 7.90863 10.4102C7.87876 10.4497 7.84689 10.4893 7.81702 10.5289C6.12014 10.5711 5.2717 9.74862 5.2717 8.06144C5.2717 7.40253 5.23983 6.74362 5.28166 6.08866C5.32149 5.47724 5.0805 5.30905 4.48301 5.30114C2.63477 5.27739 2.63477 5.25365 2.63477 3.41542C2.63477 2.49334 2.65269 1.57324 2.63278 0.653141C2.62282 0.196059 2.77617 -0.00576975 3.25815 0.0140174C3.9851 0.0456768 4.71404 0.0357832 5.44099 0.043698H5.44298Z" fill="#A2774D"/>
<path d="M15.7937 21.2135C15.7918 22.927 15.7898 24.6426 15.7858 26.3561C14.0876 26.3839 13.2385 25.5627 13.2385 23.8927C13.2385 23.7284 13.2425 23.5642 13.2385 23.4C13.2225 22.7133 13.4356 21.8843 13.1249 21.3757C12.7684 20.794 11.8503 21.1403 11.1831 21.0868C10.5816 21.0394 10.5995 20.701 10.6015 20.2914C10.6075 18.8133 10.6095 17.3352 10.6115 15.8591C13.2205 15.8235 13.1927 15.8235 13.2345 18.4571C13.2484 19.3159 12.9815 20.2083 13.4257 21.0394C13.6567 21.1798 13.9594 20.9998 14.2363 21.2511C13.4157 22.189 13.7702 23.3248 13.7503 24.4051C13.7404 24.9117 14.071 25.1986 14.5709 25.2085C15.1026 25.2204 15.2182 24.8187 15.2301 24.3992C15.246 23.8412 15.2301 23.2773 15.2799 22.7232C15.3456 22.003 14.6764 21.7695 14.312 21.2135C14.8557 21.0572 15.3138 21.0275 15.7818 21.1957L15.7957 21.2095L15.7937 21.2135Z" fill="#A2764C"/>
<path d="M58.4249 63.1824C58.405 64.6921 58.3612 66.2019 58.3791 67.7116C58.3851 68.3072 58.1978 68.5091 57.5884 68.5071C56.9471 68.5071 56.2679 68.3152 55.6585 68.6951C55.3697 69.1047 55.069 69.5004 54.4795 69.4351C53.8123 69.3599 53.5932 69.7458 53.5693 70.3156C53.5354 71.1051 53.5374 71.8927 53.6111 72.6802C53.6509 73.1135 53.6748 73.5607 53.0953 73.6973C52.9837 73.6517 52.9001 73.5785 52.8423 73.4737C52.6372 72.0767 52.7168 70.6698 52.6969 69.2669C52.687 68.5012 53.161 68.2083 53.9218 68.1826C55.312 68.1351 55.3598 68.054 55.3159 66.6887C55.2881 65.8042 55.3299 64.9217 55.3259 64.0372C55.3239 63.2853 55.7103 62.8737 56.4771 62.8638C57.1024 62.8559 57.7278 62.8044 58.3532 62.8777C58.4807 62.9568 58.5046 63.0577 58.4249 63.1844V63.1824Z" fill="#A27947"/>
<path d="M47.8692 78.9998C47.5923 79.5281 47.6959 80.102 47.7337 80.6461C47.7875 81.4396 47.5545 81.768 46.6961 81.7126C45.6107 81.6414 44.5153 81.6869 43.4258 81.7027C43.0793 81.7087 42.6869 81.5781 42.4161 81.9323C42.1213 82.2746 41.711 82.2528 41.3167 82.2627C40.6555 82.2825 39.9942 82.2627 39.333 82.2726C38.0404 82.2904 38.0364 82.2924 37.7795 83.5885C37.7178 83.8971 37.6122 84.1524 37.3055 84.285C37.2537 84.3265 37.196 84.3443 37.1302 84.3404L37.0844 84.2949C36.5845 83.5667 36.7837 82.7673 36.9092 82.0055C36.9908 81.5088 37.5027 81.4237 37.9408 81.398C38.8012 81.3486 39.6616 81.3387 40.524 81.4158C41.9799 81.5445 42.1392 81.3921 42.185 79.9813C42.2209 78.8732 42.428 78.6793 43.5533 78.6733C44.348 78.6694 45.1466 78.7189 45.9393 78.6377C47.204 78.5091 47.198 78.5051 47.3633 77.2546C47.4111 76.9024 47.2816 76.4097 47.903 76.4077C48.381 77.2803 48.389 78.147 47.8672 79.0038L47.8692 78.9998Z" fill="#A27A4B"/>
<path d="M53.0513 9.51533C53.0434 8.42902 53.0633 7.34073 53.0155 6.25441C52.9856 5.56384 53.2425 5.27495 53.9336 5.35608C54.1288 5.37982 54.332 5.34025 54.5291 5.36004C55.3258 5.43918 55.6823 5.1404 55.6465 4.29747C55.5887 2.88269 55.6106 1.46593 55.6007 0.0491729C57.4436 -0.0326138 58.3644 0.845275 58.3631 2.68284C58.3631 3.47234 58.6001 4.41223 58.2515 5.0098C57.8373 5.72016 56.7917 5.17602 56.0408 5.33431C55.8914 5.36597 55.764 5.48865 55.6265 5.56978C55.4274 5.7538 55.1904 5.83691 54.9255 5.89231C53.7763 6.13965 53.6229 6.33158 53.5771 7.52673C53.5632 7.91653 53.605 8.3103 53.5433 8.69614C53.4915 9.02263 53.5652 9.45201 53.0513 9.51335V9.51533Z" fill="#A3794D"/>
<path d="M55.6325 44.7285C56.1264 44.7384 56.6184 44.7562 57.1123 44.7562C58.365 44.7562 58.361 44.7542 58.369 46.0444C58.379 47.3839 58.3989 48.7255 58.4148 50.0651C58.4766 50.1917 58.4447 50.2867 58.3172 50.352C57.6918 50.4094 57.0645 50.3659 56.4371 50.358C56.0189 50.352 55.6564 50.2293 55.4353 49.8395C55.1724 48.1794 55.035 46.5212 55.509 44.871C55.5488 44.8235 55.5907 44.776 55.6325 44.7285Z" fill="#A37A4D"/>
<path d="M31.9381 15.8672C31.8604 15.8613 31.7847 15.8554 31.707 15.8494C31.8843 14.6365 31.7628 13.4156 31.7867 12.1987C31.8245 10.2774 31.6035 10.5742 33.4079 10.5406C33.7724 10.5346 34.1368 10.5148 34.5013 10.501C34.5013 11.9138 34.4376 13.3325 34.5192 14.7414C34.575 15.6991 34.2026 15.9602 33.3262 15.8653C32.8682 15.8158 32.4001 15.8653 31.9381 15.8692V15.8672Z" fill="#A3774B"/>
<path d="M39.8906 0.049301C39.8846 1.32557 39.8906 2.59986 39.8667 3.87613C39.8388 5.28299 39.7491 5.35818 38.349 5.35818C37.9208 5.35818 37.4926 5.35225 37.0664 5.34829C37.0843 3.84843 37.1281 2.35054 37.1082 0.850679C37.1003 0.233321 37.2576 -0.0496346 37.9268 0.00774808C38.5781 0.063152 39.2373 0.0394075 39.8925 0.049301H39.8906Z" fill="#A2764C"/>
<path d="M47.6622 21.0275C47.6841 19.5613 47.9391 18.105 47.8315 16.6348C47.7877 16.0293 48.0605 15.8156 48.6441 15.8473C49.1679 15.875 49.6957 15.8492 50.2215 15.8473C50.2992 15.7701 50.3728 15.7701 50.4406 15.8611C50.4306 17.3273 50.3868 18.7936 50.4226 20.2578C50.4406 20.9563 50.1836 21.1581 49.5125 21.1443C48.909 21.1324 48.2717 20.8653 47.6921 21.263C47.6323 21.2175 47.6084 21.166 47.6184 21.1126C47.6304 21.0552 47.6443 21.0275 47.6622 21.0275Z" fill="#A2784C"/>
<path d="M50.4403 15.8615C50.3666 15.8575 50.2949 15.8516 50.2212 15.8476C50.6633 14.601 50.3666 13.3149 50.4164 12.0485C50.4841 10.3706 50.2351 10.5328 51.9699 10.5229C52.3323 10.5209 52.6968 10.5308 53.0593 10.5348C53.0533 11.9515 52.9856 13.3723 53.0613 14.7831C53.1111 15.6972 52.7785 15.9485 51.93 15.8496C51.4401 15.7922 50.9382 15.8516 50.4403 15.8595V15.8615Z" fill="#A3764B"/>
<path d="M23.9694 84.3169C23.9554 84.406 23.9435 84.493 23.9296 84.5821C23.6746 84.22 23.2882 84.3169 22.9377 84.313C21.7228 84.3031 20.5059 84.2853 19.291 84.3149C18.7334 84.3288 18.5163 84.1349 18.5521 83.5828C18.59 82.9655 18.58 82.3441 18.59 81.7228L18.58 81.7327C18.7772 81.5447 19.0122 81.4122 19.2831 81.3983C20.6732 81.3231 22.0614 81.2954 23.4496 81.4181C23.6487 81.4359 23.832 81.525 23.9893 81.6516C24.3717 82.542 24.4075 83.4305 23.9654 84.3149L23.9694 84.3169Z" fill="#A2764A"/>
<path d="M8.04638 10.5066C9.7592 10.537 10.6163 11.4017 10.6176 13.1007C10.6176 14.0208 10.6176 14.9429 10.6176 15.863C10.1535 15.8551 9.69148 15.8412 9.22743 15.8393C7.9707 15.8353 8.00058 15.8353 7.95676 14.5432C7.91095 13.2036 8.15194 11.8561 7.81934 10.5264L7.84523 10.4967C7.91493 10.4077 7.98265 10.4097 8.04638 10.5047V10.5066Z" fill="#A1764B"/>
<path d="M29.1698 15.8254C28.7097 15.8333 28.2497 15.8451 27.7896 15.8451C26.9465 15.8465 26.5249 15.4125 26.5249 14.5432C26.5269 13.2036 26.5309 11.866 26.5349 10.5264C26.6006 10.5264 26.6663 10.5303 26.732 10.5303C28.34 10.5396 29.1499 11.3271 29.1618 12.8929C29.1678 13.8704 29.1678 14.8479 29.1698 15.8254Z" fill="#A77D56"/>
<path d="M47.662 21.0276C47.6719 21.1067 47.6819 21.1859 47.6919 21.265C47.6998 22.6679 47.67 24.0728 47.7337 25.4718C47.7675 26.2375 47.4648 26.4394 46.7598 26.376C46.2061 26.3266 45.6445 26.3721 45.0868 26.376C45.0828 24.896 45.1027 23.4139 45.0629 21.9338C45.041 21.1562 45.4294 20.8811 46.0966 21.0513C46.6423 21.1898 47.1422 21.0375 47.664 21.0296L47.662 21.0276Z" fill="#A2764C"/>
<path d="M58.3988 50.2969C58.4047 50.2198 58.4087 50.1426 58.4147 50.0654C58.6099 50.0753 58.807 50.0832 59.0022 50.0931C58.7573 51.8423 58.8389 53.6053 58.825 55.3605C58.813 56.7 59.0899 58.0357 59.0042 59.3852C58.9724 59.8739 59.062 60.3706 58.8768 60.8494C58.7612 61.1521 58.807 61.4173 59.1277 61.6092C59.5081 61.8388 59.8527 61.6726 60.1594 61.5083C60.49 61.3322 60.2191 61.1343 60.0897 60.9582C59.3826 59.9887 59.4205 57.0958 60.1614 56.1895C60.259 56.0708 60.4203 55.9402 60.5577 55.9343C60.7529 55.9283 60.7887 56.1341 60.7867 56.3023C60.7768 58.1683 60.8027 60.0362 60.729 61.9001C60.7091 62.4264 60.1972 62.7173 59.6933 62.4482C58.7911 61.9614 58.6656 62.4779 58.6019 63.1665L58.5123 63.1942L58.4207 63.1823C58.4107 63.0933 58.3988 63.0042 58.3888 62.9132C58.0462 62.6085 58.114 62.193 58.112 61.8091C58.102 58.3384 58.102 54.8678 58.112 51.3971C58.112 51.0132 58.0502 50.5997 58.3948 50.2969H58.3988Z" fill="#A27746"/>
<path d="M37.0722 5.33623C37.0822 6.77871 37.0722 8.22317 37.1121 9.66565C37.13 10.287 36.9428 10.5838 36.2756 10.5343C35.6841 10.4908 35.0886 10.5145 34.4931 10.5086C34.4891 9.06215 34.5229 7.61373 34.4692 6.16927C34.4413 5.44902 34.7221 5.24719 35.3873 5.30259C35.947 5.35008 36.5106 5.32832 37.0742 5.33623H37.0722Z" fill="#A2764A"/>
<path d="M37.3057 84.2852C37.5028 83.9587 37.5208 83.6045 37.4849 83.2384C37.3893 82.2867 37.6761 81.9503 38.652 81.9365C39.9068 81.9206 41.1615 81.9325 42.4162 81.9325C42.4932 83.5155 41.751 84.3083 40.1896 84.3109C39.2296 84.3109 38.2676 84.2951 37.3077 84.2852H37.3057Z" fill="#A1774C"/>
<path d="M53.0513 9.51525C53.3899 9.03442 53.2286 8.4883 53.2167 7.97977C53.1669 5.96742 53.4716 5.38963 55.6265 5.57167C55.6265 7.02207 55.6285 8.47444 55.6305 9.92484C55.3736 10.2513 54.9434 10.285 54.6247 10.5066C54.0989 10.5204 53.5732 10.5323 53.0474 10.5462C53.0474 10.2019 53.0494 9.85954 53.0513 9.51525Z" fill="#A2764A"/>
<path d="M8.63375 39.4119C8.3828 39.402 8.13584 39.3901 7.98448 39.1428C7.97651 38.9785 7.96058 38.8143 7.96058 38.6501C7.95859 36.891 7.95859 36.8732 9.7172 36.8633C10.3008 36.8613 10.6174 36.7841 10.6254 36.0738C10.6453 34.2079 10.6812 34.2079 12.6071 34.2435C12.7385 34.2455 12.872 34.2613 13.0034 34.2692C13.1209 35.403 12.4497 35.872 11.4718 36.149C11.1811 36.2321 10.958 36.5328 10.8265 36.8415C11.0655 37.263 11.0078 37.724 10.9899 38.1732C10.9281 39.7166 10.0299 40.1855 8.63773 39.4099L8.63375 39.4119Z" fill="#A17748"/>
<path d="M53.2288 73.6179C53.4638 72.583 53.1491 71.5501 53.2108 70.5093C53.2865 69.2192 53.3204 69.142 54.599 69.1994C55.0292 69.2192 55.2802 68.8175 55.6546 68.6929C55.6506 70.3372 55.7621 71.9815 55.5889 73.6238C54.8022 73.7782 54.0135 73.792 53.2268 73.6159L53.2288 73.6179Z" fill="#A17749"/>
<path d="M5.03268 68.4514C3.42742 68.5583 2.63076 67.8321 2.64271 66.2729C2.65068 65.2895 2.66064 64.308 2.6686 63.3246C3.65845 63.0377 4.49693 63.5007 5.05857 64.1458C5.59432 64.7572 5.40711 65.6001 5.01077 66.358C4.66024 67.0268 4.97691 67.751 5.03268 68.4495V68.4514Z" fill="#A1774A"/>
<path d="M8.00459 73.8394C7.80741 73.8216 7.60825 73.7939 7.41108 73.7899C5.27006 73.7444 5.27604 73.7444 5.27006 71.6588C5.26608 70.6042 5.24019 69.5495 5.22425 68.4969C5.15455 68.4118 5.16052 68.3287 5.23421 68.2495C5.38956 68.2119 5.51703 68.2693 5.63852 68.3564C5.78391 68.4988 5.95917 68.58 6.16431 68.5899C7.01474 68.6294 7.32344 69.225 7.32145 69.9116C7.31747 70.6814 7.02271 71.4313 6.93109 72.205C6.90321 72.4404 6.63434 72.5354 6.42322 72.668C6.65425 72.9173 6.93109 73.1726 7.25573 73.0617C7.6441 72.9292 7.43896 72.4879 7.54053 72.201C7.65804 71.8686 7.29357 71.0989 8.20176 71.3996C8.44076 72.1852 8.49652 72.9628 8.14201 73.7305C8.0962 73.7662 8.05039 73.8018 8.00259 73.8374L8.00459 73.8394Z" fill="#A2794B"/>
<path d="M10.6174 76.3903C10.5517 76.3942 10.4859 76.4021 10.4202 76.4021C8.70077 76.4021 7.89548 75.5473 8.00435 73.8377L8.02626 73.8239C8.6835 73.2817 9.44033 73.3965 10.1812 73.5409C10.7588 73.6537 10.94 74.1187 10.9759 74.6371C11.0177 75.2525 11.0894 75.8817 10.6134 76.3962L10.6194 76.3903H10.6174Z" fill="#A07848"/>
<path d="M47.869 78.9997C47.863 78.1567 47.857 77.3158 47.8511 76.4729C48.6059 75.8436 49.4165 76.0395 50.2331 76.3165C50.4083 77.1911 50.3964 78.0657 50.241 78.9403C49.4524 79.0848 48.6597 78.9997 47.867 78.9997H47.869Z" fill="#A1784A"/>
<path d="M53.0376 73.8276L53.0077 74.6191C52.7568 76.5048 53.173 76.2713 51.0061 76.2891C50.783 76.2891 50.5421 76.3445 50.3489 76.1664C49.9983 75.5234 50.1557 74.8407 50.2134 74.1719C50.2413 73.8533 50.4723 73.604 50.781 73.5862C51.4841 73.5466 52.2031 73.3428 52.8862 73.701C52.936 73.7425 52.9858 73.7841 53.0356 73.8276H53.0376Z" fill="#A1784A"/>
<path d="M55.4196 44.7308C55.1707 44.1332 54.5254 43.8206 54.3581 43.1241C54.1948 42.4494 54.2724 41.8993 54.7464 41.4303C55.0512 41.1276 55.2822 40.8624 55.0352 40.4232C54.7903 39.9878 54.4776 39.6732 53.9319 39.8632C53.5813 39.9839 53.3623 39.9067 53.2388 39.5604C54.8666 39.5222 55.6779 40.2926 55.6726 41.8716C55.6686 42.8253 55.6467 43.7771 55.6327 44.7288L55.6188 44.7387C55.5491 44.81 55.4834 44.804 55.4196 44.7308Z" fill="#9F774A"/>
<path d="M5.24818 68.2633C5.24021 68.3405 5.23225 68.4196 5.22428 68.4968C5.16055 68.481 5.09681 68.4671 5.03308 68.4513C4.23842 67.8794 4.35792 66.9494 4.6228 66.3459C5.38959 64.5968 5.12271 63.9042 3.22467 63.5263C3.03347 63.4887 2.85423 63.3957 2.669 63.3264C2.66502 63.273 2.66502 63.2196 2.669 63.1662C3.36209 62.5824 4.15278 62.6616 4.89765 62.9564C5.64252 63.2512 5.60667 63.9873 5.62062 64.6403C5.64053 65.4892 5.64452 66.338 5.61464 67.1869C5.6007 67.5767 5.58277 67.9784 5.24619 68.2633H5.24818Z" fill="#A27747"/>
<path d="M50.4165 76.1863C50.5141 76.1883 50.6117 76.1922 50.7093 76.1922C51.9016 76.2015 52.667 75.6771 53.0056 74.6191C53.0156 74.6844 53.0315 74.7478 53.0335 74.8131C53.0833 76.3921 53.0793 76.4514 51.5219 76.3802C50.5858 76.3367 50.3249 76.6671 50.3886 77.5358C50.4205 77.9948 50.5898 78.5053 50.2432 78.9407C50.2432 78.0977 50.2412 77.2548 50.2392 76.4119C50.1556 76.2239 50.2552 76.1823 50.4185 76.1863H50.4165Z" fill="#A27A4B"/>
<path d="M53.2288 73.6177C54.0155 73.6197 54.8042 73.6216 55.5909 73.6256C54.7624 73.9857 53.8801 73.6632 53.0356 73.8294L53.0017 73.7938C52.9659 73.7206 52.9798 73.6632 53.0555 73.6256C53.1133 73.6256 53.171 73.6236 53.2288 73.6197V73.6177Z" fill="#A1784A"/>
<path d="M54.6245 10.507C54.8396 10.1092 55.1563 9.88169 55.6303 9.92522C55.7418 10.8809 55.0408 10.4516 54.6245 10.507Z" fill="#A3794D"/>
<path d="M8.04625 10.5066C7.97853 10.5046 7.91081 10.5026 7.8431 10.5006C7.65987 9.93077 7.1759 9.89713 6.70985 9.93275C5.70009 10.0079 5.32168 9.56668 5.42724 8.58722C5.483 8.06682 5.45512 7.53257 5.43321 7.00821C5.40334 6.30577 5.59653 6.0149 6.36331 6.31764C7.14602 6.6283 7.6997 6.24245 7.82717 5.3916C8.21155 6.26223 7.94467 7.17838 8.00243 8.07078C8.05421 8.88007 8.0343 9.6953 8.04625 10.5086V10.5066Z" fill="#A2764B"/>
<path d="M15.7799 21.1999H14.6327C15.4871 21.4156 15.6385 21.9914 15.6007 22.7275C15.5688 23.3429 15.6007 23.9622 15.5907 24.5796C15.5827 25.1732 15.284 25.6857 14.6945 25.6362C14.1268 25.5887 13.3939 25.4641 13.4039 24.5776C13.4138 23.7267 13.4616 22.87 13.384 22.0251C13.3342 21.4769 13.8161 21.5541 14.0332 21.3127C13.8141 21.2158 13.619 21.1267 13.4238 21.0397C14.2105 21.0832 15.0171 20.8319 15.7799 21.1979V21.1999Z" fill="#A2754A"/>
<path d="M5.24775 68.2635C5.25173 66.8962 5.21987 65.527 5.27364 64.1617C5.30551 63.3761 4.99282 63.1031 4.24197 63.1545C3.72016 63.1901 3.19437 63.1624 2.67056 63.1644C2.66857 58.8073 2.66459 54.4501 2.6626 50.093C2.73031 50.093 2.79405 50.0752 2.8538 50.0475C3.20432 49.7547 3.63452 49.7171 4.05874 49.7131C4.65225 49.7072 4.85739 49.4064 4.86336 48.8563C4.87332 47.9778 4.85938 47.0992 4.87531 46.2207C4.88527 45.7636 4.87929 45.3006 5.24377 44.9464C5.76358 44.6377 6.34116 44.7367 6.88488 44.7742C7.72137 44.8316 8.07986 44.5882 8.01613 43.686C7.93846 42.6135 8.03007 41.5292 7.98426 40.4527C7.96236 39.9185 8.13563 39.588 8.63155 39.4119C8.66341 39.4159 8.69727 39.4199 8.72914 39.4218C9.93342 39.4535 10.5595 38.8724 10.6073 37.6786C10.6192 37.3798 10.6491 37.0968 10.8224 36.8436C10.9219 36.8436 11.0215 36.8475 11.1211 36.8475C13.043 36.8515 13.0629 36.8535 13.2143 34.9796C13.2601 34.4157 13.5151 34.2455 14.0329 34.2515C15.2597 34.2653 16.4866 34.2277 17.7114 34.2633C18.3547 34.2831 18.5698 34.0615 18.5818 33.4164C18.6196 31.5288 18.6475 31.4832 20.5675 31.5485C21.4577 31.5802 22.348 31.5189 23.2303 31.5802C23.8118 31.6217 23.8975 31.3784 23.9313 30.9134C24.0767 28.9366 24.0847 28.9347 26.1221 28.9366C29.7668 28.9406 33.4135 28.9485 37.0583 28.9544C37.0742 29.4155 37.1021 29.8745 37.1041 30.3356C37.112 31.5307 37.345 31.7781 38.5699 31.6257C39.5637 31.501 40.5536 31.5268 41.5454 31.5466C42.0792 31.5564 42.4576 31.7147 42.4735 32.4113C42.5114 34.2198 42.5472 34.2178 44.3855 34.2574C44.5508 34.2614 44.7161 34.2752 44.8814 34.2851C45.69 34.9025 45.4849 35.7394 45.2877 36.5072C45.1025 37.2235 44.4054 37.1602 43.8258 37.1978C43.3698 37.2274 42.9137 37.2136 42.4576 37.2492C41.1431 37.1839 39.8286 37.2077 38.5121 37.1978C37.9386 37.1938 37.3909 37.1344 37.0005 36.6437C36.7794 36.3707 36.7197 36.0382 36.7376 35.7137C36.7774 34.9064 36.413 34.6235 35.6123 34.6274C32.2046 34.6452 28.7949 34.6235 25.3852 34.6432C24.4671 34.6492 24.3117 34.847 24.3476 35.6623C24.3715 36.1965 24.6165 36.4379 25.1462 36.4399C25.4769 36.4399 25.8075 36.4538 26.1381 36.4538C29.2152 36.4538 32.2942 36.4498 35.3713 36.4577C35.8653 36.4577 36.3671 36.4063 36.8372 36.62C37.4845 36.9564 37.4227 37.5737 37.4566 38.1574C37.5143 39.1745 37.594 39.2873 38.6297 39.222C39.9063 39.1428 41.179 39.0103 42.4596 38.9905C42.9734 39.0261 43.4912 39.0103 44.0011 39.0716C44.3656 39.1151 44.8057 39.0835 44.8934 39.6059C44.1664 40.1896 43.2881 39.8651 42.4875 40.0075C42.2226 40.0234 41.9577 39.9858 41.6928 39.9739C40.3026 39.9106 40.2887 39.9086 40.1154 41.2601C40.0119 42.0792 39.5876 42.4671 38.7472 42.5205C37.5661 42.5957 37.5342 42.6254 37.4426 43.8344C37.3769 44.6931 36.9627 45.1245 36.1202 45.075C35.1761 45.0196 34.8017 45.4351 34.8276 46.3473C34.8415 46.8222 34.6643 47.2516 34.2162 47.5207C33.4414 47.9817 32.7364 47.6513 32.6428 46.7569C32.591 46.2662 32.6149 45.7676 32.6249 45.2749C32.6388 44.5863 32.348 44.1925 31.6211 44.2499C30.5735 44.333 29.5 44.0164 28.4822 44.4695C28.1237 44.7347 28.2253 45.1265 28.2333 45.4708C28.2492 46.2484 27.9106 46.6679 27.114 46.6065C26.2197 46.5393 25.7517 46.8064 25.8134 47.8076C25.8692 48.702 25.2279 48.9572 24.4472 48.9929C23.9871 49.0146 23.5788 49.1789 23.4952 49.6834C23.4215 50.1247 23.3179 50.6273 23.9473 50.8133C24.9212 51.1477 25.925 50.9201 26.9128 50.9815C27.4466 51.0151 28.0262 50.9577 28.1735 51.6582C28.305 52.2854 28.1138 52.7781 27.4565 52.9839C26.9706 53.1383 26.9467 53.5182 26.9029 53.9238C26.7575 55.2852 26.622 55.4672 25.3016 55.5741C24.5806 55.6314 24.3615 55.9461 24.2799 56.6129C24.1126 57.9722 23.8477 58.2275 22.4615 58.3522C21.7863 58.4135 21.5653 58.6965 21.5195 59.3376C21.4179 60.7484 21.3362 60.8295 19.9341 60.9245C19.2988 60.968 18.9901 61.1639 18.9343 61.8486C18.8148 63.3207 18.781 63.3286 17.2016 63.5146C16.7654 63.5661 16.4786 63.6729 16.3711 64.1735C15.917 66.2551 15.3852 66.5757 13.1924 66.178C12.7343 65.6873 12.8598 65.0659 12.8538 64.4901C12.8459 63.7184 12.348 63.7046 11.7863 63.6729C11.1689 63.6393 10.9817 63.94 10.9697 64.498C10.9419 65.8416 11.0195 67.1871 10.9239 68.5307C10.9638 68.8235 10.9916 69.1144 10.9777 69.4092C10.9419 70.082 11.0833 70.8695 10.3225 71.2237C9.50787 71.6036 8.66541 71.5759 7.93447 70.9427C7.71539 70.638 7.70942 70.2798 7.67954 69.9276C7.59589 68.8868 7.44851 68.7463 6.379 68.685C6.05835 68.6672 5.72574 68.7305 5.43496 68.5307C5.37322 68.4436 5.30949 68.3565 5.24775 68.2675V68.2635Z" fill="#FAC813"/>
<path d="M44.8618 39.5841C44.099 39.1231 43.1769 39.7206 42.4201 39.22C41.9799 38.48 41.9501 37.7478 42.4579 37.0256C42.9658 36.6655 43.5513 36.8159 44.0871 36.8515C44.9037 36.9069 45.1526 36.5666 45.0769 35.8226C45.0252 35.3061 45.1526 34.7699 44.8838 34.2811C45.8079 34.2713 46.732 34.2614 47.6561 34.2515C47.6641 34.3821 47.6701 34.5146 47.682 34.6452C47.7437 35.3259 47.4032 36.153 47.8334 36.6556C48.2536 37.1483 49.0821 36.806 49.7294 36.8376C50.2512 36.8634 50.4185 37.0969 50.4165 37.5777C50.4125 38.2346 50.4444 38.8915 50.4603 39.5485C50.9164 40.1362 50.8149 40.7871 50.6754 41.4401C50.534 42.101 50.1297 42.471 49.4406 42.5165C48.9447 42.5502 48.4468 42.568 47.9509 42.5284C47.0467 42.4255 46.1206 42.6828 45.2263 42.378C45.1148 42.3286 45.0212 42.2534 44.9435 42.1584C44.597 41.3115 44.6527 40.4508 44.8579 39.5841H44.8618Z" fill="#FBD768"/>
<path d="M31.7266 27.9454C32.9376 28.0404 34.1624 27.4329 35.3614 28.1967H31.7227C31.7227 28.1136 31.7266 28.0285 31.7286 27.9454H31.7266Z" fill="#A3764A"/>
<path d="M53.0553 73.6238C53.0234 73.6753 53.0055 73.7326 53.0015 73.792C52.9358 73.792 52.872 73.792 52.8063 73.792C51.213 73.8078 50.4163 74.6066 50.4163 76.1882C50.3566 76.2634 50.2968 76.3386 50.2371 76.4138C49.4404 76.4237 48.6418 76.3208 47.8511 76.4732C47.5145 77.0193 47.7077 77.6208 47.7037 78.1927C47.6997 78.7863 47.4886 79.0099 46.8891 78.996C45.7021 78.9663 44.5111 79.0099 43.3241 78.9802C42.7067 78.9644 42.4537 79.1444 42.4418 79.8112C42.4099 81.7187 42.3801 81.7187 40.4581 81.7167C39.6336 81.7167 38.8051 81.7563 37.9825 81.7049C37.2635 81.6594 37.0504 81.9601 37.0942 82.623C37.1321 83.177 37.0903 83.737 37.0823 84.295C32.7106 84.3029 28.339 84.3108 23.9693 84.3188C23.9514 83.462 23.9315 82.6032 23.9136 81.7464C23.3917 80.953 23.5471 80.0249 23.4316 79.1583C23.3141 78.2817 23.33 77.3834 23.4395 76.4989C23.3519 74.9515 22.53 74.1779 20.9739 74.1779C20.709 74.1779 20.4441 74.1779 20.1772 74.1779C18.4963 74.164 18.3887 74.0967 18.2274 72.4405C18.1637 71.7836 17.843 71.6194 17.2575 71.6134C16.6321 71.6055 16.3373 71.8489 16.3473 72.4841C16.3533 72.8759 16.3593 73.2775 16.18 73.6495C16.1242 73.7505 16.0406 73.8237 15.935 73.8712C15.4989 73.7227 15.4849 73.3349 15.477 72.9867C15.463 72.3337 15.3575 71.6906 15.2798 71.0456C15.4112 70.5113 15.4371 69.9652 15.457 69.4171C15.471 69.0649 15.4789 68.7008 15.7996 68.4515C16.4788 68.6909 16.3314 69.2964 16.3373 69.7792C16.3473 70.4559 16.6321 70.7191 17.2993 70.7013C18.1916 70.6795 19.0838 70.7013 19.9761 70.6914C20.4899 70.6854 20.7289 70.4777 20.8046 69.9414C21.0476 68.1923 21.6092 67.848 23.4256 68.2536C23.7721 68.7562 24.2501 68.9362 24.8616 68.9224C25.8813 68.8987 26.903 68.9066 27.9247 68.9224C28.3509 68.9283 28.7871 68.9224 29.1595 69.1875C29.8566 70.6261 29.4284 71.4591 27.853 71.5996C27.2037 71.657 26.9448 71.8944 26.8831 72.5454C26.7676 73.7445 26.4748 74.0591 25.3057 74.1521C24.523 74.2135 24.2641 74.5499 24.3159 75.2681C24.3418 75.6263 24.3258 75.9884 24.2681 76.3445C24.3995 77.2666 24.1605 78.2184 24.5011 79.1227C24.8914 80.0883 24.6246 81.0519 24.529 82.0274C24.3896 83.4402 24.5389 83.5767 25.943 83.5708C28.8528 83.5589 31.7626 83.6321 34.6724 83.5095C35.0428 83.4936 35.3874 83.3927 35.7459 83.3452C36.2936 83.274 36.5107 82.999 36.5744 82.4449C36.7497 80.8857 37.0723 80.6324 38.6676 80.6087C39.3289 80.5988 39.9881 80.6383 40.6493 80.6957C41.3125 80.7531 41.6949 80.5315 41.7129 79.7657C41.7368 78.8417 42.1132 77.9117 41.4978 77.0292C41.3723 76.8491 41.4579 76.58 41.5695 76.3663C41.6551 76.2258 41.7846 76.1209 41.8802 75.9884C42.2207 75.5194 42.2128 74.9852 41.9977 74.5004C41.8045 74.067 41.3165 74.2095 40.9381 74.168C40.004 74.0651 39.0321 74.3836 38.1319 73.9087C38.0024 73.2419 38.5681 73.2518 38.9305 73.1905C39.9383 73.0223 40.9759 73.139 41.9797 72.8739C42.2904 72.7908 42.5254 73.0282 42.7764 73.1944C43.581 73.7287 44.31 73.5803 44.8596 72.8007C45.2241 72.2842 45.7419 71.9162 46.1901 71.4829C46.6959 70.9921 47.4249 70.7112 47.4866 69.8623C47.4986 69.704 47.6778 69.5457 47.8372 69.5516C48.6856 69.5892 48.8887 68.8987 49.2373 68.3664C49.9224 68.1072 50.1036 67.5947 50.1036 66.9002C50.1036 65.7941 49.9762 64.68 50.2211 63.5799C50.3008 63.3543 50.4303 63.1643 50.6274 63.0219C51.4042 62.6815 52.2148 62.7864 53.0234 62.8299C53.4277 63.4315 53.2066 63.9044 52.4438 64.1181C52.0555 64.2269 51.4938 63.9598 51.3006 64.4921C51.0736 65.1173 51.1194 65.8 51.1891 66.447C51.2727 67.2207 52.2925 67.7985 53.2544 67.6976C53.5512 67.6659 53.8479 67.6501 54.1367 67.565C54.6346 67.4166 54.9234 67.2207 54.7481 66.5796C54.5032 65.6832 54.6426 64.7434 54.772 63.8371C54.8995 62.9368 55.487 62.5371 56.4669 62.5331C57.6042 62.5292 57.6639 62.4936 57.6679 61.4033C57.6818 58.2116 57.6818 55.02 57.6679 51.8283C57.6639 50.7301 57.6181 50.7202 56.4669 50.6807C55.7041 50.6549 54.9473 50.6549 54.1885 50.7657C53.7663 50.8271 53.3221 50.8409 52.9736 50.4966C52.8959 50.3245 52.9099 50.1642 53.0254 50.0118C53.8818 49.5765 54.7621 49.6715 55.6484 49.8931C56.1961 50.2117 56.7975 50.0415 57.3751 50.0673C57.7356 50.0831 58.0941 50.0673 58.4028 50.2988C58.4008 54.5055 58.3988 58.7103 58.3968 62.917C57.8392 63.3622 57.1839 63.1525 56.5745 63.1525C55.8953 63.1525 55.6205 63.386 55.6404 64.0765C55.6763 65.2598 55.6265 66.4431 55.6583 67.6263C55.6743 68.2477 55.4771 68.493 54.8139 68.5029C53.0373 68.5306 53.0353 68.5603 53.0393 70.3748C53.0393 71.4591 53.0533 72.5434 53.0592 73.6278L53.0553 73.6238Z" fill="#F9C917"/>
<path d="M47.8392 42.1899C48.1379 42.182 48.4347 42.1662 48.7334 42.1642C49.8474 42.1576 50.413 41.5818 50.4303 40.4368C50.4343 40.14 50.4522 39.8451 50.4642 39.5483C52.1809 39.5576 53.038 40.4111 53.0354 42.1088C53.0354 42.9913 53.0513 43.8738 53.0593 44.7563C53.5572 45.4311 53.4078 46.179 53.2883 46.9131C53.2086 47.3999 52.8143 47.5938 52.3721 47.667C51.7229 47.7758 51.0736 47.7818 50.4363 47.578C50.0638 47.2178 50.1196 46.7429 50.0937 46.2918C50.028 45.16 50.022 45.1323 48.9047 45.1046C48.2753 45.0887 47.6619 45.0313 47.4807 44.3309C47.2875 43.5889 47.0326 42.7855 47.8412 42.1899H47.8392Z" fill="#FAC814"/>
<path d="M50.4362 47.4947C51.0197 47.1089 51.6551 47.4848 52.2705 47.378C52.8381 47.281 53.0831 47.1128 53.0432 46.5212C53.0034 45.9355 53.0492 45.3458 53.0592 44.7562C53.8459 44.7483 54.6326 44.7384 55.4193 44.7305C55.485 44.7324 55.5527 44.7364 55.6184 44.7384C55.6284 46.4559 55.6363 48.1715 55.6463 49.889C54.7999 50.2946 53.8937 49.9444 53.0273 50.0967C52.3601 50.6211 51.6053 50.5024 50.8604 50.3619C50.3784 50.2709 50.1474 49.9008 50.1075 49.4457C50.0478 48.773 49.9004 48.0725 50.4362 47.4947Z" fill="#FBD766"/>
<path d="M15.3874 71.0714C15.8315 71.3346 15.7977 71.762 15.8176 72.1973C15.8435 72.7454 15.6603 73.3173 15.973 73.8396C16.4888 74.6707 16.4649 75.856 15.9212 76.3843C15.4053 76.8869 14.1287 76.9007 13.2245 76.4159C12.3522 76.41 11.4818 76.4041 10.6095 76.3981C10.6095 76.3328 10.6095 76.2675 10.6095 76.2022C10.6095 74.5335 9.74708 73.7414 8.02232 73.8258C7.99444 72.9829 7.96855 72.1399 7.94067 71.295C7.87096 71.1347 7.90083 70.9943 8.02431 70.8716C10.1275 71.5364 10.5796 71.2238 10.6075 69.0848C10.6095 68.8889 10.6134 68.691 10.6174 68.4951C11.2806 67.9411 12.0434 68.0856 12.7843 68.2241C13.3818 68.3349 13.5531 68.8414 13.5332 69.348C13.4973 70.2602 13.7981 70.7845 14.7999 70.7509C15.0249 70.743 15.246 70.8617 15.3834 71.0714H15.3874Z" fill="#FBD768"/>
<path d="M13.2267 76.4139C13.7824 76.4079 14.342 76.3644 14.8937 76.4059C15.7282 76.4673 16.011 76.0636 15.9791 75.2998C15.9592 74.8131 15.9752 74.3243 15.9752 73.8376L16.0011 73.8138C17.6143 72.9551 18.7177 73.4557 18.9507 75.2029C19.0264 75.7747 19.2673 76.0023 19.829 76.026C20.3448 76.0458 20.9025 75.9845 21.3108 76.4336C21.3825 76.5444 21.4522 76.6612 21.4681 76.7898C21.5617 77.5912 21.8366 78.5311 21.0738 79.0594C20.3269 79.5778 19.3928 79.4987 18.5583 79.0277C17.1164 79.0139 15.6744 78.9664 14.2325 79C13.4557 79.0198 13.153 78.7408 13.2167 77.979C13.2586 77.4606 13.2267 76.9382 13.2287 76.4158L13.2267 76.4139Z" fill="#F9C917"/>
<path d="M18.5562 79.0256C18.8808 79.0097 19.2074 78.986 19.5321 78.9801C21.2588 78.9444 21.1871 79.3046 21.1791 77.2902C21.1791 76.9994 21.1931 76.7065 21.2011 76.4156C22.0415 75.828 22.8999 75.8933 23.7683 76.3503C23.8181 78.149 23.8659 79.9476 23.9157 81.7463C22.1371 81.7423 20.3606 81.7384 18.582 81.7364C18.5741 80.8341 18.5641 79.9298 18.5562 79.0275V79.0256Z" fill="#FBD766"/>
<path d="M20.7209 30.2941C20.5118 30.7373 20.2588 30.9688 19.7689 30.7907C19.1515 30.5652 18.5241 30.3673 17.9007 30.1575C17.7195 30.0962 17.5601 29.9676 17.3411 30.0764C17.1539 30.1694 16.9885 30.5988 16.7276 30.1595C16.5683 29.8904 16.5484 29.5936 16.634 29.3027C16.6998 29.0791 16.881 28.9466 17.0742 29.1346C17.7613 29.8093 18.6456 29.6055 19.4642 29.7202C19.9302 29.7855 20.456 29.7875 20.7209 30.2961V30.2941Z" fill="#A27747"/>
<path d="M5.246 44.9463C5.24999 46.3136 5.20816 47.6809 5.27389 49.0462C5.31372 49.8634 5.04684 50.178 4.22628 50.081C3.77418 50.0276 3.31013 50.0573 2.85205 50.0494C2.86798 49.7466 3.07113 49.5963 3.30814 49.4498C3.71842 49.1946 3.73634 48.8345 3.38183 48.5614C2.84807 48.1498 3.01138 47.7561 3.25436 47.2772C3.56108 46.6777 3.99525 46.092 3.58099 45.342C3.4117 45.0353 3.6985 44.9542 3.95144 44.9502C4.38362 44.9423 4.81382 44.9502 5.246 44.9502V44.9463Z" fill="#A17748"/>
<path d="M60.803 53.8881C60.7133 54.2146 61.0001 54.7488 60.3648 54.7943C59.9486 54.824 59.7693 54.5054 59.8171 54.1433C59.8828 53.6427 59.8788 52.8987 60.4026 52.8314C60.8488 52.7741 60.7592 53.4745 60.803 53.8901V53.8881Z" fill="#A27746"/>
<path d="M8.02818 70.8712C8.00029 71.0117 7.97241 71.1521 7.94652 71.2946C7.71151 71.7972 7.86486 72.3295 7.833 72.8459C7.79117 73.5266 7.33907 73.772 6.75751 73.394C6.57029 73.2713 6.43287 73.0715 6.24167 72.9528C6.05247 72.834 5.82741 72.7747 5.61431 72.6856C5.69596 72.2998 5.98276 72.4739 6.16997 72.4403C6.36914 72.4047 6.70772 72.3453 6.67585 72.2226C6.43885 71.3025 7.21758 70.5209 7.00248 69.6266C6.88896 69.1536 6.66589 68.7737 6.05247 68.8707C5.7836 68.9122 5.51472 68.8647 5.43506 68.5284C7.0921 68.4149 7.95648 69.1965 8.02818 70.8731V70.8712Z" fill="#A27747"/>
<path d="M23.3498 68.2735C22.9634 68.5267 22.5233 68.4951 22.097 68.4713C21.4059 68.4337 21.1251 68.7483 21.1709 69.4132C21.1909 69.708 21.157 70.0068 21.1789 70.2997C21.2187 70.8458 20.9897 71.0733 20.432 71.0654C19.1753 71.0456 17.9166 71.0436 16.6599 71.0615C16.1301 71.0694 16.0006 70.8181 15.9688 70.3412C15.9289 69.7357 16.1839 69.0966 15.7935 68.5247C15.4967 68.7721 15.1442 68.8354 14.7718 68.8493C14.0827 68.875 13.3816 68.8295 13.045 68.1409C12.7164 67.4701 12.6666 66.7459 13.2123 66.1087C13.6644 65.8139 14.1783 65.8753 14.6662 65.9148C15.6342 65.994 15.9688 65.525 15.9867 64.6346C16.0166 63.1644 16.0365 63.1169 17.5461 63.1704C18.4065 63.202 18.6216 62.8775 18.6037 62.086C18.5679 60.596 18.6057 60.5565 20.1094 60.5881C20.91 60.604 21.2267 60.3863 21.1948 59.5355C21.1391 58.0119 21.1909 57.9505 22.6826 58.0099C23.7461 58.0534 23.8816 57.4262 23.9373 56.6525C24.0369 55.2595 24.0349 55.206 25.3793 55.2614C26.3293 55.299 26.6161 54.9231 26.5484 54.0386C26.4966 53.3461 26.3114 52.5091 27.5442 52.6218C28.0162 52.6654 27.9326 52.1885 27.9505 51.8739C27.9744 51.4762 27.8091 51.2506 27.3789 51.2526C26.5165 51.2565 25.6541 51.2585 24.7897 51.2466C24.4293 51.2427 24.0548 51.3218 23.7222 51.1061C23.7601 51.0567 23.7999 51.0072 23.8377 50.9577C25.0905 50.4829 26.3751 50.6867 27.6517 50.7935C28.0919 50.8291 28.3349 51.1596 28.4305 51.583C28.4962 51.8739 28.5101 52.1687 28.5101 52.4655C28.5181 55.4237 28.5281 58.3819 28.5081 61.34C28.4962 62.9586 28.1437 63.2851 26.5046 63.3148C25.8752 63.3267 25.2478 63.3207 24.6185 63.3306C24.0528 63.3405 23.7561 63.5918 23.7541 64.1656C23.7501 65.248 23.6645 66.3343 23.8616 67.4107C23.8676 67.8025 23.6943 68.0894 23.3438 68.2735H23.3498Z" fill="#FBD768"/>
<path d="M28.1162 44.1293C29.5761 43.7197 31.0618 43.9987 32.5357 43.9769C32.93 43.971 32.928 44.3569 32.932 44.6556C32.938 45.3462 32.932 46.0368 32.938 46.7274C32.94 47.0677 32.9718 47.4793 33.408 47.4496C33.8362 47.4199 34.5293 47.3843 34.4536 46.7907C34.2306 45.0712 34.9436 44.4716 36.5966 44.7289C36.975 44.7882 37.1025 44.4993 37.0985 44.155C37.0965 43.7929 37.1184 43.4308 37.0985 43.0687C37.0627 42.3821 37.3973 42.1605 38.0605 42.1466C39.7474 42.113 39.7434 42.0912 39.7215 40.4628C39.7135 39.9384 39.9008 39.5486 40.5241 39.5862C41.1754 39.6258 41.8526 39.4318 42.472 39.788C42.8265 40.0611 42.8324 40.4687 42.8225 40.8466C42.8046 41.5412 43.0914 41.8518 43.8024 41.8221C44.2525 41.8023 44.7185 41.8142 45.073 42.1743L45.0611 42.1625C45.6506 42.9322 45.4176 43.8068 45.3837 44.6556C45.4375 45.3442 45.4435 46.0348 45.3957 46.7274C45.3499 47.3863 45.0272 47.7227 44.3322 47.7781C43.0117 47.8809 42.9978 47.9027 42.8006 49.1176C42.6612 49.9823 42.1334 50.4097 41.3069 50.4038C40.3887 50.3979 40.0222 50.754 40.0163 51.688C40.0083 52.7209 39.7633 52.9484 38.6839 52.984C37.8075 53.0117 37.455 53.3244 37.4311 54.2168C37.4032 55.3189 37.1762 55.5346 36.037 55.5583C35.1885 55.5762 34.844 55.8967 34.838 56.7258C34.834 57.4282 34.5273 58.0139 33.8402 58.3068C33.3941 58.4967 33.3064 58.847 33.2925 59.2625C33.2606 60.1193 33.3024 60.9761 33.2666 61.8309C33.2487 62.2484 33.3005 62.7055 32.8623 62.9845C32.229 62.6501 32.3604 62.0367 32.3524 61.5064C32.3026 58.3226 32.6133 55.1488 32.5635 51.9611C32.5297 49.7944 32.4201 47.6336 32.3385 45.4689C32.3126 44.8001 32.0278 44.5626 31.3706 44.5251C30.3269 44.4657 29.2514 44.7467 28.2417 44.2757C28.2019 44.2282 28.162 44.1788 28.1222 44.1313L28.1162 44.1293Z" fill="#FBD768"/>
<path d="M10.6153 56.6087C10.6153 58.4865 10.5914 60.3643 10.6272 62.2421C10.6412 62.9287 10.4161 63.2275 9.71705 63.1444C9.48801 63.1167 9.24702 63.1088 9.02197 63.1444C8.02416 63.3106 7.94847 62.6675 7.95644 61.9611C7.97237 60.5463 8.04806 59.1296 8.0142 57.7168C7.95644 55.4175 8.22531 53.1123 7.86283 50.819C7.79313 50.3817 8.00026 50.1146 8.45435 50.0928C8.85069 50.073 9.25101 50.1066 9.64734 50.077C10.3922 50.0196 10.6352 50.3639 10.6252 51.0742C10.5954 52.9184 10.6153 54.7645 10.6153 56.6087Z" fill="#E3B30D"/>
<path d="M36.9009 36.8236C32.9216 36.8236 28.9423 36.786 24.965 36.8533C23.8338 36.8731 23.9433 36.2597 23.9493 35.5454C23.9533 34.841 23.8159 34.2078 24.9571 34.2295C28.6038 34.2988 32.2525 34.2869 35.8992 34.2335C36.8571 34.2197 37.2435 34.4868 37.1101 35.4465C37.0563 35.8343 37.0981 36.236 37.0981 36.6317C37.0623 36.7247 36.9965 36.788 36.9029 36.8236H36.9009Z" fill="#E2B40C"/>
<path d="M13.2124 66.1084C13.219 67.6425 13.9818 68.4367 15.5008 68.4907C15.5984 68.4947 15.696 68.5145 15.7935 68.5264C15.7935 69.116 15.7955 69.7057 15.7935 70.2953C15.7935 70.6218 15.8394 70.976 15.3873 71.069C15.2538 71.069 15.1224 71.069 14.9889 71.069C13.2681 71.069 13.2363 71.069 13.2343 69.3653C13.2343 68.6728 13.0092 68.4116 12.3122 68.4749C11.7525 68.5264 11.1849 68.4907 10.6213 68.4927C10.6193 67.0522 10.6252 65.6097 10.6113 64.1692C10.6053 63.5281 10.6452 63.1403 11.5414 63.2867C13.1925 63.5578 13.2044 63.4846 13.2044 65.1249C13.2044 65.4534 13.2084 65.7799 13.2124 66.1084Z" fill="#E2B30F"/>
<path d="M36.9014 36.8238C36.9671 36.7605 37.0308 36.6952 37.0965 36.6318C38.3513 37.0474 39.6439 36.7308 40.9145 36.8277C41.4324 36.8673 41.9741 36.7268 42.458 37.0256C42.4461 37.7577 42.4322 38.4879 42.4202 39.22C40.8329 39.4634 39.2376 39.6098 37.6303 39.59C37.0985 39.5821 37.1304 39.2061 37.0946 38.8341C37.0308 38.1653 37.3037 37.4609 36.9034 36.8238H36.9014Z" fill="#E4B40E"/>
<path d="M21.1772 36.8296C21.4082 36.8296 21.6413 36.8296 21.8723 36.8296C23.2014 36.8296 23.8792 37.4845 23.9057 38.7944C23.9177 39.3366 23.5751 39.576 23.0951 39.584C21.9041 39.6037 20.7112 39.6117 19.5221 39.5721C18.8808 39.5503 18.5403 39.2416 18.5642 38.5036C18.6259 36.5743 18.4248 36.8573 20.1854 36.8316C20.516 36.8276 20.8466 36.8316 21.1792 36.8316L21.1772 36.8296Z" fill="#E3B30D"/>
<path d="M10.6152 47.3601C10.6152 46.998 10.6152 46.6359 10.6152 46.2757C10.6152 44.7482 11.1112 44.388 12.6587 44.7541C13.059 44.8491 13.2004 45.0885 13.2004 45.4585C13.2024 46.7407 13.1984 48.0229 13.2044 49.3051C13.2084 49.8394 12.9534 50.0491 12.4217 50.0887C10.7268 50.2173 10.6152 50.1303 10.6152 48.4444C10.6152 48.0823 10.6152 47.7202 10.6152 47.3601Z" fill="#E2B30E"/>
<path d="M45.0709 42.1761C44.9733 42.1741 44.8757 42.1701 44.7781 42.1701C43.23 42.1543 42.4605 41.3608 42.4698 39.7897C43.2386 39.3861 44.0691 39.7027 44.8638 39.584C45.3159 40.417 44.9594 41.3153 45.0729 42.1741L45.0709 42.1761Z" fill="#E0B311"/>
<path d="M23.7262 51.1079C22.6607 50.7873 23.2861 49.974 23.2542 49.3804C23.2283 48.8818 23.5749 48.6859 24.1086 48.6721C25.4968 48.6345 25.5108 48.6068 25.5466 47.2355C25.5605 46.7112 25.6561 46.3669 26.2915 46.3075C27.825 46.163 27.8191 46.1393 27.9545 44.5821C27.9684 44.4277 28.0601 44.2793 28.1138 44.127L28.1796 44.1863C29.1654 45.4646 28.7452 46.6221 27.1738 46.8576C26.6321 46.9387 26.3751 47.1366 26.2835 47.6966C26.0724 48.9807 25.9808 49.0797 24.7539 49.2221C24.1186 49.2973 23.8816 49.5724 23.9155 50.1719C23.9314 50.4667 23.9354 50.7655 23.78 51.0366L23.7262 51.1059V51.1079Z" fill="#FBD768"/>
<path d="M45.0989 44.7384C45.085 43.8796 45.071 43.0228 45.0591 42.1641C45.9872 42.172 46.9133 42.1799 47.8414 42.1898C47.6303 42.5499 47.6542 42.9457 47.6562 43.3414C47.6582 44.7008 47.7219 44.7641 49.0683 44.7463C50.4146 44.7265 50.4405 44.7522 50.4425 46.1175C50.4425 46.5766 50.4425 47.0376 50.4385 47.4967C50.4093 49.1707 51.273 50.0387 53.0296 50.1007C53.0316 50.2273 53.0336 50.3559 53.0356 50.4826C53.422 50.8763 53.418 51.3789 53.42 51.8736C53.428 55.1048 53.4299 58.3361 53.418 61.5673C53.418 62.0541 53.4618 62.5705 53.0356 62.9485C52.2668 63.3561 51.4363 63.0395 50.6417 63.1542C50.0561 63.0375 50.09 62.5389 50.084 62.1451C50.0561 59.8142 49.9864 57.4832 50.1198 55.1543C50.0183 53.9809 50.076 52.8016 50.088 51.6263C50.0959 50.817 49.839 50.3876 48.9607 50.441C48.5703 50.4648 48.168 50.4272 47.8115 50.2194C47.3355 49.8593 47.3156 49.329 47.2997 48.8066C47.2738 47.9281 47.2718 47.0495 47.2937 46.171C47.3116 45.4527 47.0766 45.0609 46.2859 45.1005C45.8657 45.1222 45.4255 45.0926 45.1029 44.7423L45.0989 44.7384Z" fill="#E2B40E"/>
<path d="M50.4264 55.0162C50.4303 57.3827 50.4323 59.7512 50.4443 62.1177C50.4443 62.468 50.3367 62.8499 50.6395 63.1487C50.5737 63.2773 50.508 63.4059 50.4423 63.5345C49.9862 63.7541 49.5421 63.4831 49.088 63.4989C48.3849 63.5226 47.9766 63.7759 47.9846 64.5437C47.9946 65.3252 48.0125 66.1088 47.9746 66.8904C47.9388 67.6166 48.0503 68.1904 48.9386 68.2617C49.07 68.2715 49.1696 68.3764 49.2473 68.4872C49.2573 69.2728 49.2194 70.0148 48.0802 69.7892C47.5624 69.6863 47.658 70.09 47.662 70.3551C47.6699 70.8557 47.5803 71.1031 46.9828 71.3188C46.1563 71.6156 45.5807 72.409 45.0967 73.1412C44.8956 73.4459 44.8498 73.8654 44.4056 73.802C43.7643 73.711 42.9975 74.1938 42.4996 73.4577C42.3662 73.2599 42.2825 72.9631 42.0256 73.1016C41.0537 73.6259 40.0041 73.3252 38.9983 73.4538C38.6796 73.4953 38.3431 73.5705 38.0921 73.8159C38.0304 73.9346 37.9427 74.0336 37.8372 74.1147C37.3114 74.5065 37.415 75.0605 37.5225 75.5651C37.644 76.1389 38.1837 76.0182 38.592 76.04C39.2532 76.0756 39.9184 76.036 40.5817 76.0598C40.974 76.0756 41.3903 76.04 41.6771 76.4001C41.6611 76.7701 41.7408 77.0827 41.9718 77.4092C42.3184 77.896 42.7884 78.4322 42.0595 79.0239C41.8025 79.2316 42.0575 79.5185 42.0754 79.7679C42.1471 80.8126 41.7249 81.2954 40.7071 81.0837C39.8448 80.9036 38.9903 81.0125 38.1379 80.9412C37.2676 80.868 36.9509 81.3231 36.8971 82.1047C36.7995 83.5314 36.3873 83.9073 34.9553 83.9073C32.0136 83.9073 29.072 83.9133 26.1323 83.9133C24.0789 83.9133 23.9694 83.9014 24.2084 81.8514C24.3139 80.9472 24.2482 80.0548 24.3558 79.1644C24.6744 78.5272 25.2898 78.6103 25.8356 78.6064C28.821 78.5806 31.8085 78.5965 34.794 78.5945C35.1266 78.5945 35.4572 78.5806 35.7898 78.5866C36.3952 78.5984 36.7039 78.365 36.7119 77.7159C36.7199 77.0254 36.4032 76.784 35.748 76.78C34.0551 76.7681 32.3642 76.784 30.6713 76.7701C30.1753 76.7662 29.6715 76.8057 29.2114 76.5584C28.5362 75.7827 28.7294 74.8923 28.9704 74.0514C29.1317 73.4835 29.7432 73.531 30.2331 73.4855C31.3484 73.3826 31.46 73.3014 31.5336 72.1934C31.5854 71.4078 31.8682 70.7528 32.7107 70.7825C33.8579 70.8241 34.1945 70.2483 34.2283 69.2787C34.7561 68.7959 35.4153 68.9681 36.0268 68.9463C37.2676 68.9028 37.2775 68.9067 37.3134 67.6641C37.3771 67.3732 37.4249 67.0804 37.407 66.7836C37.3672 66.0712 37.6779 65.63 38.4088 65.5924C39.1437 65.5548 39.313 65.1491 39.3588 64.4981C39.4405 63.2793 39.8487 62.8677 41.1174 62.8697C41.934 62.8697 42.1172 62.5432 42.1411 61.8269C42.1889 60.4378 42.3124 60.3112 43.6946 60.236C44.3937 60.1984 44.6745 59.9431 44.7303 59.2407C44.8378 57.9169 45.0091 57.7725 46.3734 57.6577C46.9649 57.6083 47.3552 57.5074 47.3652 56.7594C47.3851 55.2516 47.7516 54.9311 49.2612 54.8856C49.6556 54.8737 50.0579 54.8143 50.4264 55.0221V55.0162Z" fill="#FAC813"/>
<path d="M53.0334 62.9446C53.0334 58.7893 53.0334 54.634 53.0334 50.4806C54.3399 50.4193 55.6484 50.3817 56.9529 50.2867C57.7237 50.2294 58.0244 50.4985 58.0184 51.284C57.9925 54.8358 57.9826 58.3856 58.0224 61.9374C58.0324 62.9248 57.5086 63.0178 56.7597 62.9287C55.4034 62.7665 54.9653 63.0791 55.0469 64.4128C55.0987 65.2676 54.5669 66.1936 55.3556 67.0069C55.5886 67.2463 55.1823 67.4956 54.9175 67.644C53.6149 68.3781 52.0774 68.1743 50.986 67.1276C50.7808 66.9317 50.6892 66.7437 50.7489 66.435C50.8286 66.0215 50.8306 65.5881 50.8346 65.1627C50.8505 63.8073 50.8545 63.8251 52.1849 63.8647C52.7466 63.8825 53.1867 63.645 53.0334 62.9426V62.9446Z" fill="#FAC813"/>
<path d="M34.3042 69.2785C34.3679 69.5654 34.4575 69.8503 34.4914 70.1412C34.5591 70.7348 34.34 71.0989 33.6708 71.0652C33.4079 71.0514 33.141 71.0751 32.8781 71.0652C32.1373 71.0336 31.8046 71.2908 31.8744 72.1139C32.0018 73.5841 31.7469 73.8513 30.2412 73.7959C29.3669 73.7642 29.0283 74.0313 29.1299 74.9059C29.1856 75.3907 29.1239 75.8893 29.1139 76.382C28.9686 76.5819 28.7594 76.6887 28.5244 76.7085C27.204 76.8272 25.8835 76.8233 24.563 76.7125C24.324 76.6927 24.1309 76.5581 23.9516 76.4058C23.9496 76.1426 23.9456 75.8814 23.9456 75.6182C23.9337 73.968 23.9337 73.9522 25.6166 73.8176C26.3535 73.7583 26.5567 73.3506 26.5427 72.6996C26.5109 71.1602 26.4013 71.1919 28.0584 71.2492C28.8789 71.2789 29.2275 70.9841 29.1438 70.1689C29.1139 69.878 29.1498 69.5792 29.1578 69.2844C29.327 69.0509 29.578 68.9559 29.8449 68.9381C31.1016 68.8491 32.3583 68.851 33.6131 68.9381C33.8799 68.9559 34.1309 69.0509 34.3042 69.2804V69.2785Z" fill="#FBD766"/>
<path d="M23.9517 76.4056C25.6725 76.3977 27.3933 76.3878 29.114 76.3799C31.4004 76.3838 33.6868 76.3858 35.9732 76.3957C37.0866 76.4016 37.0507 76.4452 37.1204 77.9193C37.1643 78.8592 36.7639 78.9918 35.9533 78.9819C32.5078 78.9443 29.0603 78.9661 25.6127 78.9661C25.1825 78.9661 24.7484 78.9304 24.354 79.162C23.882 79.0729 23.9617 78.7009 23.9577 78.3823C23.9477 77.7234 23.9517 77.0645 23.9497 76.4056H23.9517Z" fill="#E3B40F"/>
<path d="M34.3042 69.2783C32.5874 69.2803 30.8726 69.2823 29.1578 69.2842C27.5486 69.2803 25.9393 69.2308 24.3321 69.2882C23.5215 69.3179 23.2626 69.0072 23.3502 68.2731C23.3363 67.9783 23.412 67.7448 23.7545 67.6934C24.0373 67.3451 24.4436 67.3174 24.838 67.3154C28.7077 67.2917 32.5755 67.2897 36.4453 67.3154C36.7101 67.3154 36.973 67.357 37.218 67.4698C37.3395 67.5351 37.4311 67.6261 37.4988 67.7448C37.927 68.9894 37.7398 69.2645 36.4572 69.2704C35.7382 69.2744 35.0212 69.2763 34.3022 69.2783H34.3042Z" fill="#E0B412"/>
<path d="M23.768 76.3486C22.9116 76.3703 22.0572 76.3921 21.2008 76.4139C21.0036 76.4079 20.8045 76.3961 20.6073 76.3941C18.763 76.3782 18.7471 76.3802 18.5917 74.5816C18.5459 74.0473 18.3169 73.8119 17.7871 73.8198C17.1916 73.8277 16.5961 73.8158 16.0026 73.8138C16.0006 73.519 15.9946 73.2242 15.9946 72.9294C15.9926 71.198 16.3312 70.9427 18.0759 71.2475C18.6057 71.3405 18.5658 71.6709 18.5838 72.035C18.6395 73.2275 19.2629 73.8237 20.4539 73.8237C21.2785 73.8237 22.105 73.8554 22.9275 73.8138C23.5908 73.7802 23.8078 74.0552 23.768 74.6805C23.7322 75.2346 23.766 75.7945 23.768 76.3525V76.3486Z" fill="#E2B40F"/>
<path d="M43.6626 78.691C43.8479 77.9034 44.1586 77.3059 45.0209 76.9537C45.6563 76.6944 46.204 76.1147 46.668 75.5725C47.3492 74.7771 48.3151 74.3022 48.9345 73.4474C49.287 72.9606 49.5977 72.4778 49.6575 71.8585C49.6794 71.6408 49.761 71.2847 49.8925 71.2451C50.6234 71.0195 51.3145 70.7207 51.9757 70.3428C52.0295 70.3111 52.2028 70.3705 52.2347 70.4318C52.6151 71.1758 52.4438 71.9752 52.382 72.741C52.3362 73.3128 51.6949 73.4316 51.2966 73.3583C50.2749 73.1704 50.0777 73.7165 50.0419 74.506C49.9761 75.9762 49.9781 75.9821 48.4346 75.994C47.9646 75.9979 47.5742 75.9683 47.3432 76.5619C46.662 78.3209 45.5786 78.9146 43.6606 78.689L43.6626 78.691Z" fill="#FAC813"/>
<path d="M49.2472 68.4851C49.048 68.4851 48.8449 68.4574 48.6497 68.4851C47.857 68.594 47.5882 68.2635 47.64 67.4819C47.6997 66.5618 47.6539 65.6358 47.6539 64.7137C47.6539 63.2613 48.2833 62.7963 49.7192 63.2059C49.9702 63.2772 50.2012 63.4236 50.4422 63.5344C50.4422 64.7731 50.3944 66.0117 50.4541 67.2465C50.498 68.1586 50.2251 68.6256 49.2452 68.4851H49.2472Z" fill="#E3B40D"/>
<path d="M41.679 76.4C40.6931 76.4 39.7073 76.396 38.7214 76.396C37.0763 76.396 37.1221 76.396 37.0803 74.7972C37.0584 74.0038 37.3392 73.7169 38.096 73.8178C39.2173 73.8178 40.3406 73.8277 41.4619 73.8198C41.9957 73.8158 42.5593 73.8593 42.4517 74.5598C42.3502 75.2128 43.0453 76.2556 41.681 76.402L41.679 76.4Z" fill="#E4B50D"/>
<path d="M37.3014 67.6894C32.7864 67.6894 28.2693 67.6933 23.7543 67.6933C23.5232 67.4519 23.342 67.2105 23.352 66.8366C23.3778 65.8155 23.3739 64.7945 23.3579 63.7735C23.35 63.1898 23.6069 62.9326 24.1944 62.9405C25.1882 62.9543 26.1841 62.9246 27.1779 62.9504C27.8391 62.9682 28.1458 62.7367 28.1438 62.0382C28.1339 58.6467 28.1438 55.2532 28.1697 51.8617C28.1737 51.27 27.9726 51.0346 27.3631 51.0484C26.1701 51.0741 24.9771 51.0464 23.7821 51.0405C23.4336 50.6111 23.5969 50.1006 23.5551 49.6218C23.5053 49.0539 23.7921 48.9094 24.3199 48.8896C25.8415 48.8323 25.8515 48.8145 25.9431 47.3462C25.971 46.909 26.0646 46.6161 26.5764 46.5211C27.164 46.4143 27.9945 46.9188 28.2833 46.0245C28.4745 45.4368 28.3211 44.7957 28.1817 44.1882C29.3747 44.1764 30.5697 44.1803 31.7607 44.1447C32.4219 44.1249 32.6908 44.3604 32.7326 45.0529C32.9716 49.0301 32.9955 53.0133 32.872 56.9885C32.8202 58.6605 32.7425 60.3325 32.7266 62.0065C32.7246 62.3192 32.6051 62.6773 32.9417 62.9167C34.2841 62.2657 35.6842 62.6041 37.0704 62.6694C37.9248 63.1225 38.363 64.1455 37.9646 65.2496C37.7157 65.9362 37.5743 66.5971 37.5743 67.3095C37.5743 67.4895 37.4368 67.5944 37.2994 67.6874L37.3014 67.6894Z" fill="#FAE5A0"/>
<path d="M37.0985 62.9405C35.7123 62.9326 34.3281 62.9266 32.942 62.9187C32.94 61.6029 32.942 60.287 32.93 58.9712C32.924 58.4251 32.9937 58.0155 33.6988 57.968C34.4656 57.9165 34.4715 57.2774 34.4974 56.7135C34.5652 55.2492 34.5632 55.1879 35.9732 55.2591C36.9193 55.3066 37.1642 54.9781 37.1184 54.0857C37.0487 52.7165 37.1423 52.6156 38.5723 52.6848C39.5363 52.7323 39.7514 52.3583 39.7175 51.4897C39.6657 50.0986 39.7116 50.065 41.1376 50.0887C42.0298 50.1046 42.4998 49.8454 42.4799 48.8619C42.452 47.4749 42.7468 47.1899 44.1669 47.4155C44.9775 47.5441 45.083 47.2572 45.0651 46.6102C45.0472 45.9869 45.083 45.3616 45.0969 44.7363C47.6542 44.7541 47.6323 44.7541 47.6642 47.2928C47.6761 48.2248 47.457 49.1805 47.8554 50.0887C48.2198 50.8209 48.0286 51.5728 47.8793 52.299C47.7558 52.8985 47.2021 52.9955 46.6982 52.9796C45.796 52.9519 45.3997 53.2784 45.3877 54.2322C45.3738 55.4253 45.0551 55.7083 43.8004 55.7419C43.0655 55.7617 42.8384 56.0348 42.8086 56.7372C42.7548 58.0234 42.5038 58.2826 41.1874 58.3241C40.3369 58.3518 39.9983 58.6724 40.0203 59.5035C40.0402 60.3009 39.6538 60.8806 38.7994 60.8668C37.8056 60.851 37.3196 61.2071 37.4092 62.2321C37.4331 62.4992 37.2817 62.7367 37.0945 62.9345L37.0985 62.9405Z" fill="#FAC814"/>
<path d="M37.0981 62.9409C37.0981 62.8083 37.0981 62.6777 37.1021 62.5452C37.124 60.7267 37.122 60.7129 38.9105 60.5764C39.4383 60.5348 39.7152 60.3409 39.7052 59.7987C39.6992 59.4703 39.7191 59.1398 39.7052 58.8094C39.6813 58.2177 39.9661 57.9645 40.5477 57.9882C40.8783 58.0021 41.2129 57.9704 41.5415 57.9941C42.2306 58.0436 42.5274 57.731 42.4696 57.0582C42.4577 56.9276 42.4696 56.795 42.4696 56.6625C42.4749 55.8156 42.8945 55.3974 43.7283 55.408C45.0428 55.4258 45.0587 55.4099 45.0707 54.1C45.0826 52.6773 45.0846 52.6259 46.5744 52.6813C47.4686 52.7149 47.7873 52.4023 47.6777 51.5495C47.614 51.0528 47.7116 50.5661 47.861 50.0912C50.9879 50.0654 50.3565 49.7409 50.4262 52.5685C50.4461 53.3837 50.4302 54.2009 50.4302 55.0162C49.99 55.3427 49.4762 55.2279 48.9882 55.2378C47.8351 55.2615 47.5682 55.5445 47.6817 56.6526C47.8072 57.8833 47.7216 57.9763 46.4509 57.9882C45.0747 58.0001 45.0149 58.004 45.0846 59.3476C45.1344 60.3211 44.758 60.61 43.8299 60.5862C42.4756 60.5526 42.4756 60.6001 42.4696 61.8922C42.4656 62.7655 42.0354 63.1863 41.179 63.1546C40.0517 63.1131 39.6713 63.4336 39.7211 64.5635C39.761 65.4776 39.5777 66.0574 38.4903 65.9011C37.8789 65.814 37.6618 66.1227 37.6996 66.7084C37.7215 67.0606 37.7753 67.4385 37.5044 67.7452C37.4387 67.7274 37.373 67.7076 37.3073 67.6898C37.5602 66.4234 37.7873 65.1511 37.6678 63.8551C37.6339 63.5029 37.62 63.0438 37.1061 62.9389L37.0981 62.9409Z" fill="#FBD767"/>
</g>
<defs>
<clipPath id="clip0_2082_4648">
<rect width="61" height="87" fill="white"/>
</clipPath>
</defs>
</svg>
