<svg width="61" height="87" viewBox="0 0 61 87" fill="none" xmlns="http://www.w3.org/2000/svg">
<g clip-path="url(#clip0_2082_4963)">
<path d="M5.22273 44.8054C5.2526 43.2 5.28445 41.5966 5.31432 39.9912C5.82801 40.2025 5.74837 40.6744 5.77027 41.0772C5.81607 41.9283 5.79018 42.7834 5.79018 43.6364C5.79018 44.2861 6.11671 44.4816 6.722 44.4796C7.33126 44.4796 7.64386 44.2663 7.64784 43.6246C7.65182 42.7063 7.64784 41.7881 7.65779 40.8679C7.66377 40.3308 7.71553 39.8154 8.17348 39.4422C9.34422 38.9466 9.94353 38.3246 10.4712 37.0627C10.495 37.0035 10.5408 36.9541 10.5767 36.9008L10.5568 36.9166C11.0028 36.5493 11.5443 36.6125 12.062 36.5987C12.5876 36.5849 12.8564 36.3558 12.8365 35.8246C12.8186 35.3487 12.9381 34.8077 12.1994 34.7247C11.8529 34.6852 11.4607 34.705 11.2437 34.3357C11.2736 34.3219 11.3014 34.3061 11.3333 34.2982C11.9187 34.1244 12.735 34.549 13.0755 34.0553C13.3741 33.6209 13.2268 32.8843 13.2766 32.2821C13.623 32.3354 13.6887 32.6336 13.6847 32.8725C13.6688 33.8144 14.2203 33.9092 14.9809 33.85C15.7056 33.7927 16.4443 33.7828 17.1671 33.8618C17.9635 33.9487 18.2681 33.6169 18.2144 32.8666C18.2084 32.7678 18.2184 32.6691 18.2283 32.5704C18.3219 31.5712 18.5668 31.3243 19.6002 31.2789C20.6275 31.2335 21.6569 31.2592 22.6843 31.2631C23.3095 31.2651 23.5882 31.0084 23.5902 30.3844C23.5902 29.8986 23.5524 29.3872 23.9048 28.9686C24.0024 28.8896 24.1119 28.8363 24.2313 28.8047C25.3782 28.5677 26.539 28.6724 27.6938 28.6664C30.2404 28.6526 32.7869 28.6605 35.3315 28.6645C35.8253 28.6645 36.325 28.6349 36.8049 28.8086C36.988 28.8738 37.1354 28.9824 37.2369 29.1483C37.3803 29.4129 37.4062 29.7071 37.4321 30.0013C37.5416 31.2434 37.5436 31.2256 38.8557 31.2612C39.9746 31.2908 41.0996 31.1328 42.2106 31.3836C42.3719 31.4468 42.5033 31.5475 42.5969 31.6916C42.7661 31.9859 42.8079 32.3176 42.776 32.6395C42.6964 33.4807 43.0269 33.9428 43.9109 33.9467C44.337 34.1284 44.8806 34.0198 45.2031 34.4582C45.8901 36.6619 45.3186 37.4261 43.0608 37.3273C42.8617 37.3194 42.6685 37.276 42.4714 37.2661C41 37.3886 39.5266 37.3214 38.0533 37.3096C37.7247 37.3076 37.3982 37.2523 37.1433 37.0094C36.6535 36.5908 36.7113 36.0063 36.6993 35.4593C36.6874 34.8491 36.4345 34.5668 35.8034 34.5648C32.3369 34.547 28.8705 34.5431 25.4021 34.5687C24.6793 34.5747 24.2951 34.8689 24.309 35.6291C24.317 36.0813 24.3229 36.5572 23.9626 36.9225C23.6121 37.2918 23.1482 37.2997 22.6863 37.3076C21.7366 37.3254 20.7868 37.3155 19.8351 37.3175C19.2258 37.3175 18.9292 37.5544 18.9312 38.1804C18.9312 38.6287 18.959 39.1006 18.6066 39.4679C18.2363 39.8905 17.7226 39.8687 17.2348 39.8668C16.6215 39.8628 16.3726 40.1097 16.3269 40.7337C16.2134 42.2996 16.1656 42.3568 14.5668 42.4259C13.7863 42.4595 13.5215 42.7873 13.5434 43.51C13.5573 43.9603 13.5792 44.4342 13.2248 44.8054C12.8186 45.2576 12.2591 45.1786 11.7415 45.1964C11.2078 45.2142 10.9629 45.4432 10.961 45.9784C10.959 46.9618 10.9391 47.9451 10.9729 48.9285C10.9908 49.4439 11.2198 49.7362 11.7733 49.6829C12.2751 49.6355 12.7887 49.6098 12.8166 48.9088C12.8525 47.9906 12.8186 47.0723 12.8405 46.1541C12.8505 45.698 12.8106 45.226 13.175 44.8568C13.5951 44.4223 14.1506 44.4875 14.6703 44.4954C15.3373 44.5053 15.5941 44.2367 15.634 43.5653C15.7256 41.9836 15.7733 41.9461 17.3821 41.8928C17.9993 41.873 18.1785 41.5847 18.2064 41.0397C18.2323 40.4947 18.1268 39.9043 18.6086 39.4679C18.9849 39.1184 19.4628 39.1559 19.9207 39.148C20.7789 39.1322 21.639 39.1203 22.4971 39.148C23.2358 39.1717 23.6181 38.9268 23.5803 38.1389C23.5584 37.6808 23.6081 37.2148 24.0064 36.8791C24.3886 36.5395 24.8645 36.5612 25.3264 36.5612C28.771 36.5513 32.2175 36.5533 35.664 36.5612C36.0921 36.5612 36.5301 36.5493 36.9104 36.8021C37.3026 37.0726 37.45 37.4754 37.4121 37.9178C37.3325 38.838 37.7128 39.2684 38.6566 39.1934C38.8517 39.1776 39.0508 39.2349 39.2419 39.3C39.7417 39.4797 39.9468 39.8964 40.11 40.3486C40.2892 41.9185 39.9169 42.4477 38.3917 42.5543C37.5615 42.6116 37.438 43.0598 37.4261 43.7253C37.4121 44.4441 37.3425 45.1648 36.3151 45.0937C35.8512 45.0207 35.6441 44.7185 35.6162 44.2821C35.5963 43.9445 35.5187 43.6404 35.2618 43.4054C35.0567 43.2711 34.8258 43.2494 34.5928 43.2474C31.9407 43.2198 29.2866 43.2395 26.6346 43.2356C25.9397 43.2356 25.7366 43.5495 25.6968 44.1952C25.6111 45.5775 25.5454 45.6427 24.1139 45.8086C23.419 45.8875 23.1283 46.1857 23.1183 46.8788C23.1004 48.1268 23.19 49.3768 23.0666 50.6228C23.1681 51.7938 23.1681 51.7977 24.3409 51.8096C25.0636 51.8155 25.7884 51.78 26.5091 51.8175C27.3374 51.8609 27.658 51.5114 27.5246 50.7136C27.5644 50.2456 27.5704 49.7658 27.9845 49.4301C29.2707 49.0984 30.553 49.0391 31.8312 49.4656C32.1119 49.904 31.7516 50.0422 31.4649 50.1844C31.1941 50.3187 30.8855 50.3365 30.5888 50.3226C29.8063 50.2891 29.4758 50.605 29.4579 51.4186C29.426 52.868 29.3822 52.8917 27.865 53.0516C27.1901 53.1227 26.8994 53.3715 26.8635 54.0844C26.7998 55.3403 26.5609 55.5812 25.3105 55.6365C24.5201 55.672 24.2055 55.9978 24.1119 56.7443C23.9506 58.0397 23.869 58.1285 22.6186 58.2608C21.858 58.3418 21.5275 58.6419 21.4956 59.4318C21.4419 60.7785 21.3065 60.895 19.8889 60.9799C19.2318 61.0194 18.969 61.2564 18.9132 61.9179C18.7978 63.2666 18.6206 63.4424 17.3045 63.5431C16.6574 63.5924 16.3826 63.8136 16.3249 64.481C16.1974 65.9304 15.1422 66.5209 13.7345 66.0232C13.2367 65.8475 13.1352 65.4802 13.1013 65.0241C13.0655 64.5501 13.2566 64.0269 12.8385 63.622C12.4124 63.4147 11.9565 63.5115 11.5145 63.4937C11.1561 63.4799 10.8096 63.4582 10.5588 63.1541C10.1386 62.6821 10.2382 62.1016 10.2362 61.5526C10.2223 58.2312 10.2442 54.9118 10.2183 51.5904C10.2143 51.156 10.3378 50.6346 9.73646 50.4214C8.9699 50.1489 8.42634 50.4865 8.41639 51.3179C8.37656 54.8348 8.39847 58.3536 8.40046 61.8725C8.40046 62.532 8.64934 62.844 9.33426 62.8302C9.79818 62.8203 10.2701 62.8559 10.6284 63.2232C10.8554 63.4483 10.8933 63.7346 10.8953 64.0328C10.9032 65.5217 10.9032 67.0106 10.9311 68.5015C10.9311 68.6969 10.9809 68.8885 10.9888 69.084C11.0844 71.2541 10.3756 71.8189 8.1914 71.3134C7.66576 71.0251 7.66974 70.488 7.65381 70.0141C7.62394 69.1432 7.24365 68.7601 6.35962 68.8549C6.06694 68.8865 5.76231 68.8648 5.48157 68.7345C5.38998 68.6831 5.30237 68.6239 5.21875 68.5587C5.16499 68.5331 5.1172 68.5034 5.06942 68.4679C4.63139 67.4253 4.90416 66.3333 4.86434 65.265C4.81257 63.8274 4.84841 63.8195 3.46264 63.5292C2.75382 63.3811 2.37353 62.9546 2.30384 62.2516C2.23216 61.5328 2.268 60.8121 2.26601 60.0913C2.26402 57.3071 2.25805 54.5228 2.26999 51.7365C2.27199 51.1876 2.19832 50.611 2.6025 50.141C2.8912 49.8448 3.25358 49.75 3.65975 49.7066C4.86832 49.5762 4.86235 49.5644 4.88624 48.3361C4.90615 47.3646 4.82054 46.3891 4.94797 45.4176C4.94797 45.1707 5.08734 44.9871 5.2307 44.8054H5.22273Z" fill="#E98924"/>
<path d="M39.8096 0.0771484C45.0859 0.0771484 50.3642 0.0771484 55.6405 0.0771484C55.957 0.357552 56.0904 0.722865 56.1163 1.12767C56.188 2.21177 56.1741 3.29586 56.1303 4.37995C56.1143 4.79463 55.971 5.15007 55.5887 5.37519L55.6046 5.36531C55.3159 5.64769 54.9496 5.63782 54.5832 5.64967C53.3209 5.69113 53.2392 5.78789 53.3567 7.04971C53.3806 8.13775 53.4344 9.22579 53.1795 10.2961C52.853 10.8312 52.3134 10.9003 51.7818 10.8213C50.9037 10.689 50.6668 11.0879 50.6947 11.8699C50.7265 12.7881 50.7126 13.7083 50.6987 14.6285C50.6807 15.7205 50.398 16.1154 49.3248 16.147C48.3711 16.1747 48.1481 16.6071 48.184 17.4365C48.2198 18.256 48.2357 19.0794 48.1581 19.8989C48.0525 21.0007 47.6284 21.3838 46.5115 21.4411C45.3965 21.4984 45.3606 21.5339 45.3467 22.6535C45.3367 23.5066 45.3049 24.3616 45.3686 25.2127C45.3985 25.6254 45.3208 25.9947 45.05 26.3166L45.066 26.2988C44.6458 26.6661 44.1282 26.5812 43.6424 26.5673C43.0251 26.5496 42.7683 26.7727 42.7265 27.4165C42.6209 29.0949 42.3362 29.3319 40.6856 29.3378C39.8574 29.3398 39.0311 29.3418 38.2028 29.3319C37.7847 29.3279 37.4303 29.1779 37.0997 28.9448C36.6796 28.6092 36.823 28.1313 36.7812 27.6988C36.7453 27.3394 36.9026 26.9011 36.3949 26.7253C35.8275 26.4647 35.2281 26.5871 34.6448 26.5812C33.1694 26.5634 31.692 26.5812 30.2147 26.5713C29.8264 26.5693 29.4202 26.6207 29.0758 26.364C28.9085 26.1902 28.8189 25.9789 28.8249 25.7419C28.8568 24.2708 28.7254 22.7977 28.8926 21.3305C28.9424 21.218 29.018 21.1212 29.1116 21.0402C29.5855 20.744 30.1271 20.7934 30.6467 20.7855C31.2759 20.7756 31.5208 20.4814 31.5288 19.8791C31.5387 18.9649 31.5248 18.0506 31.5407 17.1383C31.5487 16.6841 31.5148 16.2161 31.8294 15.8271C32.361 15.4045 32.9882 15.5151 33.5955 15.521C34.147 15.5072 34.2028 15.136 34.1868 14.7095C34.2744 13.3746 33.9758 12.0239 34.3979 10.7088C34.7821 10.3099 35.262 10.1243 35.8075 10.1341C36.4964 10.148 36.7135 9.79055 36.7075 9.16063C36.6975 8.31547 36.6995 7.47229 36.7135 6.62713C36.7214 6.17098 36.7234 5.71088 37.0778 5.34952L37.0659 5.35939C37.4621 4.97828 37.9718 4.97828 38.4616 5C39.2461 5.03357 39.5109 4.66233 39.497 3.9317C39.481 3.04903 39.483 2.16635 39.5029 1.2817C39.5129 0.859118 39.481 0.422716 39.8076 0.0771484H39.8096Z" fill="#01952E"/>
<path d="M5.26049 0.0771915C10.5607 0.0771915 15.8609 0.0752169 21.1611 0.0732422C21.5732 0.462252 21.4995 0.973692 21.5115 1.45946C21.5314 2.24735 21.5453 3.03525 21.5115 3.82117C21.4776 4.64065 21.7663 5.05731 22.6464 5.00202C23.1063 4.9724 23.5802 5.00202 23.9466 5.36141L23.9326 5.35351C24.2532 5.66353 24.2293 6.06439 24.2313 6.45735C24.2373 7.44074 24.2392 8.4261 24.2313 9.40948C24.2273 9.93474 24.4344 10.1599 24.9839 10.2053C26.6863 10.3474 26.8754 10.5706 26.8953 12.2352C26.9053 13.0231 26.8993 13.809 26.9053 14.5969C26.9093 15.1617 27.1342 15.4441 27.7276 15.448C28.2194 15.45 28.7311 15.4401 29.1313 15.8133L29.1193 15.8035C29.3483 16.0542 29.4638 16.3544 29.4757 16.6881C29.5215 17.8867 29.5235 19.0834 29.4757 20.282C29.4618 20.6157 29.3463 20.9159 29.1074 21.1588L29.1193 21.1469C28.7828 21.5024 28.3408 21.4688 27.9187 21.4392C27.1243 21.3839 26.7719 21.6919 26.8117 22.5154C26.8555 23.4277 26.8256 24.3439 26.8177 25.2582C26.8137 25.6136 26.8635 25.9829 26.6245 26.2969C26.4991 26.4371 26.3358 26.5101 26.1526 26.5437C25.9237 26.5773 25.6907 26.5733 25.4598 26.5773C24.2651 26.599 24.2213 26.601 24.2452 27.7937C24.2611 28.6309 23.9724 29.1957 23.1103 29.1779C21.8978 29.1522 20.6872 29.245 19.4746 29.1937C18.6026 29.1562 18.2601 28.7336 18.2601 27.8766C18.2601 26.751 18.2203 26.751 17.0475 26.6483C15.9365 26.5516 15.6697 26.287 15.62 25.1792C15.5801 24.261 15.606 23.3408 15.602 22.4206C15.5981 21.8065 15.3372 21.5655 14.714 21.5122C13.0216 21.372 12.8902 21.2002 12.8942 19.5198C12.8942 18.7319 12.8902 17.944 12.8942 17.1561C12.9002 16.4215 12.5736 16.0621 11.8051 16.1076C11.381 16.1313 10.933 16.1727 10.5925 15.8193L10.6025 15.8311C10.1844 15.3947 10.3237 14.8457 10.3118 14.3323C10.2919 13.5128 10.2879 12.6934 10.3118 11.8758C10.3337 11.1531 10.0729 10.7977 9.2884 10.772C7.82497 10.7246 7.66569 10.5291 7.63781 9.09353C7.62188 8.24245 7.63781 7.38939 7.62388 6.53831C7.61392 6.01305 7.38097 5.75437 6.84537 5.74449C6.51685 5.73857 6.18235 5.7287 5.86378 5.63589C5.38593 5.49569 5.00165 5.20738 4.97179 4.69792C4.89414 3.32552 4.90409 1.94918 4.9698 0.572834C4.97975 0.369443 5.09922 0.205545 5.2585 0.0771915H5.26049Z" fill="#007429"/>
<path d="M58.3819 63.2411C58.3898 63.2963 58.3679 63.3378 58.3182 63.3615C57.906 63.6439 57.4302 63.5511 56.9802 63.559C56.3968 63.5688 56.1619 63.8354 56.1559 64.3982C56.1439 65.3421 56.1619 66.286 56.1419 67.2279C56.132 67.6801 56.1599 68.1501 55.7756 68.4996C55.6024 70.18 55.8751 71.8723 55.6283 73.5488C55.2758 73.3138 55.2918 72.9545 55.2918 72.5951C55.2918 71.7223 55.2997 70.8514 55.2977 69.9786C55.2977 69.6232 55.3236 69.2618 55.0409 68.9794C53.6014 68.7109 53.3983 68.8748 53.3545 70.2255C53.3186 71.3214 53.5177 72.4331 53.1673 73.5113C52.8846 73.9556 52.4246 73.9793 51.9647 74.0149C51.2134 74.0728 50.8159 74.4881 50.7721 75.2609C50.7482 75.6834 50.7402 76.104 50.4117 76.4318L50.4177 76.4259C50.0573 76.7853 49.5874 76.7853 49.1334 76.7735C48.4883 76.7577 48.1598 77.0065 48.1698 77.6759C48.1777 78.2821 48.0105 78.8291 47.4609 79.1905C46.2404 79.5143 44.994 79.2931 43.7616 79.3504C43.1503 79.38 42.7421 79.5498 42.7521 80.237C42.7202 80.707 42.8337 81.2027 42.4713 81.6055L42.4853 81.5818C42.0751 81.9372 41.5714 81.9155 41.0756 81.9234C40.1179 81.9392 39.1602 81.9175 38.2025 81.9431C37.5654 81.9589 37.4539 82.3341 37.4519 82.8554C37.4499 83.3866 37.5893 83.7401 38.2165 83.7539C39.1742 83.7756 40.1319 83.744 41.0896 83.7756C41.5435 83.7914 42.0313 83.7342 42.3579 84.1686C40.6177 84.4688 38.8596 84.1884 37.1154 84.3305C36.7132 84.686 36.2194 84.7136 35.7177 84.7156C32.2473 84.7215 28.7749 84.7215 25.3045 84.7156C24.8047 84.7156 24.3089 84.6939 23.9008 84.3443L23.9187 84.3601C23.3353 83.4913 23.6579 82.4961 23.5225 81.566C23.5384 81.3705 23.5404 81.173 23.5483 80.9775C23.5961 79.7664 24.2061 79.0127 25.3781 78.7165C28.1596 78.5191 30.9471 78.6731 33.7306 78.6237C33.864 78.6218 33.9954 78.6277 34.1288 78.6237C34.8556 78.5961 35.64 78.8054 36.2951 78.5072C37.0597 78.1617 36.4962 77.2099 36.9044 76.6451C37.1871 76.185 37.647 76.1495 38.1229 76.1455C39.1184 76.1376 40.1119 76.1455 41.1075 76.1396C41.7884 76.1356 42.1229 75.8177 42.1647 75.1187C42.2503 73.7088 42.2703 73.7029 43.6879 73.5784C43.9985 73.5508 44.2733 73.4817 44.4982 73.2645C44.9024 72.5753 44.4425 71.6867 45.0179 71.039C45.442 70.7093 45.9517 70.7408 46.4395 70.7369C47.0707 70.733 47.3873 70.5098 47.455 69.8325C47.6063 68.3219 47.6361 68.2962 49.1732 68.1758C49.8104 68.1264 50.0394 67.8598 50.0413 67.2595C50.0433 66.3433 50.0294 65.427 50.0533 64.5108C50.0652 64.023 50.0334 63.5195 50.4137 63.1226C50.782 62.8441 51.222 62.8125 51.6481 62.8303C52.4884 62.8639 52.6218 62.384 52.6218 61.7008C52.6198 58.6124 52.6098 55.5221 52.6277 52.4337C52.6317 51.6873 52.4963 50.9171 52.8587 50.2023C53.225 49.7501 53.7567 49.6553 54.2803 49.6415C55.013 49.6218 55.232 49.2643 55.23 48.587C55.23 47.3134 55.1723 46.0377 55.2699 44.766C55.1404 43.4193 55.2081 42.0706 55.23 40.7239C55.236 40.3645 55.2798 39.9933 55.6283 39.7603C55.8791 41.4486 55.5964 43.1508 55.7816 44.8411C56.2455 45.3209 56.14 45.9291 56.1559 46.5057C56.1738 47.2206 56.1738 47.9374 56.1599 48.6502C56.1479 49.288 56.3789 49.6336 57.0658 49.6139C57.6472 49.5981 58.1688 49.758 58.5312 50.2556C58.798 50.7058 58.7662 51.2074 58.7681 51.6971C58.7741 55.0165 58.7741 58.336 58.7681 61.6554C58.7681 62.2142 58.796 62.7829 58.3819 63.243V63.2411Z" fill="#E98A24"/>
<path d="M2.83924 50.1368C2.54456 50.4369 2.64013 50.8161 2.64013 51.1675C2.63416 54.7496 2.63615 58.3336 2.64013 61.9157C2.64013 63.1814 2.65805 63.1972 3.90047 63.2032C5.23249 63.2111 5.27032 63.2111 5.22253 64.5519C5.17674 65.8571 5.43757 67.1742 5.06126 68.4657C3.44718 68.5578 2.63947 67.8035 2.63814 66.2027C2.63814 65.9401 2.65009 65.6754 2.63615 65.4148C2.59633 64.7316 2.9149 63.8963 2.50275 63.4046C2.10056 62.9247 1.25237 63.2427 0.603282 63.2328C0.0955629 63.2249 -7.78236e-06 63.0017 0.00198327 62.5693C0.0119386 58.6259 0.0139296 54.6825 0.00198327 50.739C0.00198327 50.2217 0.193125 50.0775 0.706817 50.0696C2.65606 50.04 2.65407 50.0203 2.64412 48.0436C2.64013 47.2222 2.67995 46.3987 2.63018 45.5792C2.59235 44.9513 2.85119 44.7775 3.43456 44.8111C4.0279 44.8466 4.62721 44.8111 5.22253 44.8071C5.22452 45.0165 5.22652 45.2258 5.2305 45.4351C4.92985 45.7767 4.46991 45.8142 4.09958 46.0235C3.45248 46.3888 3.41465 46.843 3.98609 47.3209C4.91193 48.095 4.88804 48.4682 3.85269 48.9895C3.34895 49.2422 3.29917 49.8643 2.83924 50.1387V50.1368Z" fill="#B56722"/>
<path d="M23.9426 29.0592C23.9068 30.764 23.0367 31.6157 21.3323 31.6144C20.6693 31.6144 20.0063 31.6421 19.3453 31.6045C18.726 31.569 18.5429 31.8277 18.5448 32.4122C18.5468 32.9908 18.7957 33.674 18.3955 34.1321C17.9396 34.6534 17.2885 34.0748 16.7051 34.1598C15.7932 34.2921 14.8534 34.0748 13.9375 34.2901C13.4418 34.4066 13.398 34.1005 13.3721 33.7332C13.3382 33.2475 13.4796 32.7498 13.2725 32.2759C13.1272 31.7131 13.4497 31.6638 13.9077 31.6263C14.5946 31.571 15.3253 31.8672 15.9684 31.413C16.3089 31.176 16.2492 30.8621 16.281 30.4888C16.3646 29.4956 15.7414 28.4391 16.5199 27.5051C16.6673 27.3294 16.7728 27.1181 16.9719 26.9897C17.629 26.5652 18.3099 26.9009 18.3597 27.6749C18.3716 27.8704 18.3816 28.0699 18.3597 28.2654C18.284 28.9407 18.5389 29.2152 19.2557 29.152C20.8127 29.0138 22.3796 29.0947 23.9406 29.0592H23.9426Z" fill="#B56822"/>
<path d="M23.9024 84.3419C28.3066 84.338 32.7128 84.334 37.117 84.3281C37.0354 85.1377 37.4635 86.1902 36.9458 86.6997C36.3883 87.2487 35.3131 86.8755 34.4669 86.8814C31.2613 86.9031 28.0538 86.8656 24.8482 86.909C24.0497 86.9209 23.7869 86.6681 23.8646 85.9098C23.9183 85.3905 23.8924 84.8633 23.9024 84.338V84.3419Z" fill="#B66720"/>
<path d="M58.382 63.2409C58.38 58.8848 58.378 54.5306 58.374 50.1745C58.4218 50.1449 58.4676 50.1153 58.5154 50.0857C59.2919 50.0896 60.0704 50.0126 60.8469 50.1271C61.0699 50.4194 60.9803 50.759 60.9803 51.0789C60.9863 54.7834 60.9584 58.4899 61.0002 62.1943C61.0102 63 60.8111 63.3298 59.9669 63.231C59.4472 63.1698 58.9116 63.233 58.382 63.2409Z" fill="#B66620"/>
<path d="M53.0872 6.89346C52.9598 5.85479 53.4038 5.33545 54.4192 5.33545C54.8154 5.33545 55.2116 5.35322 55.6098 5.36112C55.795 6.86384 55.6556 8.37644 55.7194 9.88114C55.7472 10.519 55.3888 10.5367 54.909 10.5506C53.0334 10.5999 53.0334 10.6098 53.0294 12.4996C53.0294 13.319 52.9876 14.1425 53.0434 14.96C53.0912 15.6689 52.8124 15.8407 52.1355 15.8367C50.3973 15.8249 50.3973 15.8565 50.3953 17.6159C50.3953 18.5341 50.3694 19.4543 50.4012 20.3726C50.4192 20.9176 50.24 21.1052 49.6705 21.121C47.7452 21.1743 47.7472 21.196 47.7511 23.1213C47.7511 23.3188 47.7511 23.5143 47.7511 23.7117C47.7525 25.5021 46.8545 26.3696 45.0572 26.3143C45.0533 24.9025 45.0831 23.4906 45.0314 22.0807C45.0035 21.348 45.2544 21.038 45.9891 21.1229C46.1523 21.1407 46.3196 21.1249 46.4848 21.1229C47.6536 21.117 47.7651 21.0124 47.779 19.8137C47.791 18.7968 47.8169 17.7759 47.777 16.7609C47.7492 16.0421 47.9901 15.7044 48.7467 15.815C48.9418 15.8427 49.1449 15.8051 49.342 15.8249C50.0926 15.9078 50.4331 15.6393 50.3953 14.8356C50.3455 13.7219 50.4172 12.6022 50.3833 11.4885C50.3614 10.7638 50.6481 10.5091 51.3749 10.5032C51.9423 10.4972 52.5755 10.7263 53.0852 10.2563C53.0892 9.57704 53.3122 9.22555 54.0429 9.62443C54.6641 9.96408 54.8194 9.55137 54.8532 9.0814C54.909 8.33102 54.9349 7.58065 55.0364 6.83422C55.0922 6.43337 55.0404 6.01474 54.5247 5.91403C54.0708 5.82517 53.6686 5.87651 53.4973 6.41164C53.4316 6.61504 53.3958 6.87767 53.0872 6.89149V6.89346Z" fill="#B56724"/>
<path d="M23.9428 29.0596C22.7103 29.6125 21.4082 29.1366 20.1419 29.2926C19.5525 29.3657 18.8218 29.806 18.3519 29.3834C17.884 28.9608 18.2305 28.1947 18.1648 27.5825C18.1309 27.2686 18.0015 27.1027 17.6789 27.079C17.3186 27.0533 16.8546 27.1422 16.9064 27.4877C16.992 28.0703 15.6839 28.2184 16.5082 28.9292C16.783 29.1662 16.8148 29.4249 16.5938 29.7033C16.3867 29.9679 16.335 30.2246 16.56 30.507C17.2409 31.368 16.7232 31.4667 15.9706 31.4154C15.9527 30.037 15.9009 28.6607 15.9328 27.2843C15.9487 26.5794 15.7795 26.299 15.001 26.3128C13.2309 26.3484 13.2309 26.3069 13.2309 24.5692C13.2309 23.649 13.215 22.7308 13.2349 21.8106C13.2449 21.3347 13.1453 21.1333 12.5779 21.1313C10.5908 21.1254 10.5928 21.0957 10.5948 19.1645C10.5948 18.0488 10.5948 16.9312 10.5928 15.8155C12.3489 15.8089 13.2263 16.6876 13.2249 18.4517C13.2249 19.0441 13.2528 19.6384 13.211 20.2269C13.1612 20.9299 13.4778 21.1273 14.1488 21.1352C15.9427 21.153 15.9427 21.1787 15.9487 22.9993C15.9527 23.8228 15.9806 24.6462 15.9427 25.4657C15.9129 26.1074 16.1518 26.3879 16.8049 26.3049C17.002 26.2812 17.2051 26.3168 17.4002 26.2911C18.3221 26.1726 18.6147 26.5675 18.5769 27.4719C18.5172 28.9174 18.567 28.9411 19.9149 28.9648C20.9721 28.9826 22.0294 28.9292 23.0867 28.9253C23.6541 28.9213 23.8851 28.7101 23.901 28.1019C23.9508 26.2575 23.9786 26.2575 25.8542 26.3029C25.9538 26.3049 26.0513 26.3227 26.1509 26.3345C26.6068 26.5103 27.24 25.8448 27.5685 26.6268C27.3396 27.1106 26.9015 27.0987 26.4655 27.0671C26.0712 27.0395 25.677 26.9862 25.2788 27.0099C24.7054 27.0454 24.4027 27.2922 24.5839 27.8965C24.7333 28.3961 24.6934 28.8068 24.1379 29.024C24.0702 29.0359 24.0045 29.0458 23.9368 29.0576L23.9428 29.0596Z" fill="#B36723"/>
<path d="M13.2723 79.7611C13.2424 79.5162 13.2126 79.2713 13.1847 79.0265C12.6312 78.1774 12.7068 77.3065 13.0831 76.4219C13.4455 76.0684 13.9174 76.0467 14.3713 76.0704C15.2096 76.1158 15.6755 75.865 15.6277 74.931C15.6018 74.4196 15.6516 73.7758 16.2947 73.6672C17.0772 73.5349 17.9194 73.3434 18.6521 73.8904C18.7815 73.9871 18.8134 74.1688 18.8472 74.3287C18.909 74.5183 18.9408 74.7177 18.9169 74.9113C18.8074 75.8236 19.2355 76.1533 20.1175 76.0961C20.5396 76.0684 20.9856 76.104 21.3002 76.4792C22.0807 78.8251 21.3918 79.5853 18.7278 79.3227C17.4495 79.374 16.1713 79.3385 14.891 79.3523C14.4291 79.3582 13.9672 79.3582 13.5948 79.6959C13.4953 79.7571 13.3878 79.7788 13.2743 79.765L13.2723 79.7611Z" fill="#E88A25"/>
<path d="M5.25989 0.0769042C5.26387 1.51841 5.28976 2.9619 5.25989 4.40341C5.24595 5.06295 5.44904 5.33348 6.15985 5.34335C7.98963 5.36704 7.98963 5.39864 7.99162 7.26273C7.99162 8.08222 8.01949 8.9017 7.98365 9.72119C7.95578 10.3136 8.17081 10.5111 8.7741 10.5288C10.5919 10.5861 10.5939 10.6118 10.5999 12.389C10.6039 13.5363 10.6019 14.6816 10.6039 15.8288C9.76366 15.7676 8.69048 16.1803 8.14493 15.6551C7.59341 15.1259 8.00157 14.0556 7.95976 13.2223C7.93388 12.7069 7.98565 12.1876 8.00157 11.6702C8.56903 11.7314 8.48739 12.1974 8.52721 12.5509C8.58894 13.1038 8.54314 13.6607 8.55907 14.2175C8.57301 14.7053 8.64867 15.1792 9.27187 15.193C9.93489 15.2088 9.82937 14.6618 9.85127 14.2649C9.8891 13.6133 9.87516 12.9577 9.85923 12.3041C9.83335 11.2871 9.71388 11.1903 8.67853 11.2871C8.45354 11.3088 8.22856 11.4095 8.00357 11.2832C8.00755 10.7006 7.73477 10.5367 7.14343 10.5387C5.26985 10.5446 5.26985 10.515 5.26985 8.69634C5.26985 7.80971 5.24396 6.92308 5.2798 6.04041C5.3017 5.47763 5.08468 5.32755 4.53315 5.3157C2.6297 5.27424 2.6317 5.25251 2.63369 3.30549C2.63369 2.45243 2.66156 1.59937 2.62572 0.746317C2.60183 0.177612 2.82881 -0.0119559 3.37834 0.0255628C4.00353 0.0690055 4.63271 0.0630815 5.25989 0.0808536V0.0769042Z" fill="#B36C28"/>
<path d="M37.0949 28.8399C38.6081 29.1539 40.1372 28.9347 41.6584 28.9959C42.2756 29.0196 42.2716 28.5457 42.3831 28.131C42.5424 27.5465 42.0785 26.7211 42.7097 26.4032C43.2154 26.1465 43.9421 26.3163 44.5693 26.2985C44.7346 26.2946 44.8998 26.2985 45.0671 26.2985C45.0651 27.8111 45.091 29.3237 45.0452 30.8344C45.0253 31.4939 45.2522 31.6637 45.8953 31.6657C47.6953 31.6677 47.7251 31.6973 47.7371 33.4409C47.7411 34.0886 47.968 34.2881 48.5952 34.3118C50.3931 34.3789 50.3912 34.4006 50.3971 36.1561C50.3971 36.4187 50.4071 36.6814 50.4131 36.944C50.3732 36.9874 50.3354 37.0309 50.2976 37.0743C49.8456 37.3508 49.3399 37.3073 48.8481 37.2876C47.7869 37.2441 47.3687 36.9321 47.319 35.8816C47.2752 34.9752 46.8949 34.6593 46.0387 34.7205C45.6704 34.7462 45.314 34.6494 45.0352 34.3749C44.635 34.3197 44.195 34.5013 43.8346 34.1874C44.193 33.7766 44.6848 33.8872 45.1368 33.8813C45.6345 33.8754 46.1323 33.8931 46.6261 33.826C46.8311 33.7983 47.0103 33.7075 47.0382 33.4666C47.0541 33.3343 47.0721 33.1921 46.9387 33.1112C46.7435 32.9927 46.5325 33.0401 46.3812 33.1684C45.9531 33.5318 45.5808 33.9603 44.9078 33.6838C44.3802 33.4666 44.0397 33.0796 43.7888 32.6096C43.5001 32.0666 42.8152 32.2186 42.4588 31.8178L42.2517 31.6183C42.3075 30.9864 42.8311 30.9568 43.2652 30.9272C44.0457 30.8758 44.3762 30.4789 44.4319 29.7443C44.4837 29.0572 44.5414 28.3739 44.4877 27.6848C44.4538 27.2681 44.2667 26.9956 43.8087 27.0154C43.3348 27.0351 43.2233 27.3609 43.2014 27.7578C43.1795 28.1587 43.3209 28.5319 43.3846 28.9189C43.4981 29.6199 43.1835 30.0247 42.5344 29.8391C41.0989 29.4284 39.6454 29.6476 38.2019 29.5745C37.8057 29.5548 37.4015 29.5745 37.0949 29.2527C37.0212 29.1816 36.9475 29.1105 36.8759 29.0414C36.8301 28.992 36.8141 28.9426 36.8261 28.8933C36.838 28.8419 36.852 28.8162 36.8659 28.8162C36.9495 28.7728 37.0272 28.7827 37.0949 28.8498V28.8399Z" fill="#B56924"/>
<path d="M29.1333 15.8114C27.3772 15.8732 26.5011 15.036 26.5051 13.2996C26.5051 13.0686 26.5051 12.8395 26.5031 12.6085C26.4911 10.7167 26.4931 10.695 24.5578 10.5351C24.0222 10.4896 23.8848 10.2527 23.8908 9.78863C23.9107 8.3096 23.9187 6.83057 23.9306 5.35154C25.6522 5.24886 26.513 6.04794 26.513 7.74879C26.513 7.94626 26.5031 8.14373 26.513 8.33922C26.5529 9.02245 26.2442 9.84787 26.6424 10.3494C27.0407 10.851 27.8849 10.5193 28.528 10.5272C29.1134 10.5351 29.1552 10.8431 29.1512 11.2815C29.1353 12.7901 29.1353 14.3007 29.1293 15.8094L29.1333 15.8114Z" fill="#B46822"/>
<path d="M13.2721 79.7611L13.3697 79.7651C14.1044 79.6525 14.8072 79.5498 14.64 80.6912C14.5823 81.0881 14.9705 81.0328 15.2035 81.0288C16.1114 81.017 17.0352 81.1651 17.9153 80.786C18.1542 80.6833 18.413 80.6161 18.6699 80.7623C19.0124 81.1138 19.4365 81.2382 19.9163 81.2125C20.8959 81.1592 21.8655 81.4376 22.8511 81.2915C23.1717 81.2441 23.5121 81.2717 23.7272 81.5916C24.1353 82.4881 23.8506 83.434 23.9223 84.3542C22.4071 84.3305 20.8899 84.2772 19.3747 84.2969C18.7217 84.3048 18.5385 84.0935 18.5405 83.4537C18.5465 81.6153 18.5186 81.6153 16.6549 81.6153C15.8625 81.6153 15.0661 81.562 14.2816 81.6291C13.4135 81.7042 13.0392 81.4297 13.2204 80.5411C13.2721 80.2883 13.2562 80.0198 13.2721 79.7591V79.7611Z" fill="#B76A26"/>
<path d="M29.1074 21.1567C29.1114 19.3716 29.1154 17.5865 29.1214 15.8014C30.0333 15.7066 30.989 16.0897 31.865 15.5684C31.9228 15.6098 31.9467 15.6552 31.9367 15.7046C31.9248 15.756 31.9108 15.7836 31.8949 15.7836C31.8889 17.2231 31.8451 18.6666 31.8949 20.1042C31.9228 20.9414 31.5943 21.21 30.7938 21.1409C30.2383 21.0935 29.6729 21.1488 29.1114 21.1567H29.1074Z" fill="#B56824"/>
<path d="M39.8091 0.0771039C39.8151 1.51861 39.7972 2.95815 39.841 4.39768C39.8629 5.13621 39.5642 5.39884 38.8474 5.3554C38.2561 5.31985 37.6588 5.3554 37.0654 5.35737C37.0794 3.85267 37.1212 2.34995 37.0913 0.847225C37.0794 0.205457 37.2765 -0.0394016 37.9335 0.0237878C38.5547 0.0830279 39.1839 0.0613065 39.8091 0.0771039Z" fill="#B36822"/>
<path d="M23.9469 5.35945C23.3834 5.35353 22.816 5.29429 22.2605 5.35353C21.3466 5.45029 21.1196 5.03166 21.1455 4.20822C21.1913 2.8299 21.1594 1.4496 21.1594 0.0712846C22.9713 -0.0577272 23.8825 0.760444 23.8931 2.5258C23.8991 3.46969 23.927 4.41358 23.9449 5.35748L23.9469 5.35945Z" fill="#B66F2C"/>
<path d="M55.5918 5.37329C55.8805 3.60991 55.7491 1.84258 55.6416 0.0772248C57.4481 -0.0438883 58.3514 0.767701 58.3514 2.51199C58.3514 3.2288 58.3195 3.94758 58.3514 4.66438C58.3753 5.18767 58.1623 5.34762 57.6605 5.3338C56.9716 5.31405 56.2807 5.35749 55.5918 5.37526V5.37329Z" fill="#B36923"/>
<path d="M8.21682 39.5113C7.77879 40.8245 8.12524 42.1771 7.9998 43.5061C7.95998 43.9365 8.26063 44.5605 7.73698 44.7501C7.09785 44.9811 6.35917 44.914 5.68221 44.7699C5.31586 44.6909 5.43134 44.2861 5.4174 44.0057C5.35767 42.6668 5.52492 41.3241 5.31586 39.9912C5.2382 39.4264 5.66827 39.5488 5.96892 39.535C6.63194 39.5054 7.29497 39.5034 7.95799 39.4896C8.05157 39.4126 8.13917 39.4205 8.21882 39.5113H8.21682Z" fill="#B76923"/>
<path d="M55.6281 39.7563C55.6182 41.4387 55.6082 43.1212 55.5982 44.8016C54.7481 45.4276 53.866 45.3229 52.9681 44.924C52.8048 44.7542 52.6933 44.5449 52.6913 44.3178C52.6674 42.748 52.3847 41.1662 52.8765 39.6142C52.9262 39.5727 52.976 39.5312 53.0278 39.4897C53.8839 39.6951 54.8058 39.2429 55.6301 39.7544L55.6281 39.7563Z" fill="#B76823"/>
<path d="M42.3598 84.1685C40.9402 84.1586 39.5225 84.1172 38.1049 84.1527C37.3722 84.1705 37.0317 84.0125 37.0636 83.1832C37.1352 81.3112 36.9222 81.5856 38.7261 81.5718C39.9805 81.562 41.2348 81.5758 42.4892 81.5797C42.4474 82.4427 42.4036 83.3056 42.3618 84.1685H42.3598Z" fill="#B66621"/>
<path d="M55.7736 68.4994C55.7736 67.0322 55.8055 65.5631 55.7656 64.0959C55.7477 63.4186 55.9687 63.1224 56.6656 63.1974C57.2151 63.2566 57.7866 63.0888 58.3162 63.3633C58.3242 64.8265 58.3082 66.2917 58.354 67.7549C58.3739 68.3849 58.1151 68.5428 57.5437 68.5073C56.9543 68.4717 56.363 68.4994 55.7716 68.4994H55.7736Z" fill="#B56821"/>
<path d="M37.0793 5.34763C37.0852 6.78914 37.0713 8.23262 37.1071 9.67413C37.1231 10.3119 36.8861 10.5726 36.243 10.5292C35.6497 10.4897 35.0544 10.5213 34.473 10.6713C34.4511 10.6417 34.4272 10.6101 34.4053 10.5805C34.4272 10.5489 34.4491 10.5193 34.471 10.4877C34.471 9.00669 34.4889 7.52766 34.457 6.04864C34.4451 5.49375 34.6243 5.27457 35.1917 5.31406C35.8189 5.35553 36.4501 5.33973 37.0793 5.3496V5.34763Z" fill="#B46722"/>
<path d="M58.3734 50.1745C57.8199 49.8625 57.2107 49.977 56.6293 49.9968C55.9862 50.0205 55.7552 49.7894 55.7691 49.1477C55.803 47.7101 55.7791 46.2725 55.7791 44.835C57.4861 44.7718 58.3429 45.5807 58.3496 47.2618C58.3535 48.1761 58.3655 49.0884 58.3734 50.0027C58.4511 50.0343 58.477 50.0679 58.4551 50.1054C58.4312 50.1449 58.4073 50.1626 58.3834 50.1626L58.3734 50.1725V50.1745Z" fill="#B66723"/>
<path d="M5.37186 68.5309C7.1147 68.5203 7.99475 69.376 8.012 71.0979C8.55755 71.87 8.40822 72.6954 8.19916 73.5268C8.13943 73.6354 8.05182 73.7144 7.93634 73.7637C7.11205 73.7262 6.28177 73.8368 5.45947 73.7005C5.39974 73.6117 5.34001 73.5208 5.28027 73.432C5.41168 71.8009 5.23846 70.1639 5.36987 68.5328L5.37186 68.5309Z" fill="#B76A25"/>
<path d="M47.4266 79.0086C48.004 78.4893 47.797 77.7981 47.8029 77.1702C47.8069 76.6351 47.9881 76.3941 48.5476 76.4198C49.1688 76.4475 49.794 76.4277 50.4172 76.4277C50.4092 76.5916 50.3973 76.7555 50.3953 76.9194C50.3714 78.8724 50.3734 78.9 48.4421 78.9869C47.8368 79.0145 47.7571 79.2811 47.7432 79.7827C47.6934 81.6171 47.6795 81.6171 45.8497 81.6152C44.7228 81.6152 43.5978 81.6093 42.4729 81.6053C42.4689 81.1294 42.4649 80.6555 42.4609 80.1796C42.7058 79.7886 42.9945 79.9091 43.124 80.2151C43.341 80.7266 43.6715 80.6239 44.0817 80.5587C44.9259 80.4244 45.776 80.3948 46.6302 80.695C46.2818 79.838 47.1399 79.5615 47.4286 79.0106L47.4266 79.0086Z" fill="#B66822"/>
<path d="M50.4116 76.4319C50.4116 76.3667 50.4096 76.3016 50.4116 76.2364C50.4355 75.4544 50.2005 74.5224 50.5509 73.9319C50.9372 73.2823 51.9546 73.8075 52.6774 73.6496C52.7969 73.6239 52.9024 73.5311 53.0139 73.4679C53.3205 72.9979 53.6132 72.5102 54.2822 72.4983C54.4196 72.4964 54.5769 72.4055 54.5828 72.2811C54.6187 71.4695 55.1483 70.6599 54.8357 69.8839C54.537 69.1394 54.6923 68.7781 55.3892 68.5332C55.8093 69.1611 55.5505 69.8602 55.5843 70.5237C55.6361 71.5308 55.6162 72.5438 55.6261 73.5528C55.0348 73.8648 54.3917 73.7029 53.7745 73.7167C53.2448 73.7286 53.0278 73.8668 53.0099 74.4454C52.9522 76.3509 52.9263 76.3489 51.0049 76.3944C50.8058 76.3983 50.6087 76.42 50.4096 76.4339L50.4116 76.4319Z" fill="#B66822"/>
<path d="M8.00195 11.2814C8.51764 10.6673 9.21451 10.8845 9.84965 10.926C10.2499 10.9517 10.1981 11.3427 10.2001 11.631C10.2061 12.6815 10.1921 13.732 10.2061 14.7806C10.214 15.3493 9.98505 15.6771 9.38773 15.6099C8.85014 15.5487 8.20106 15.5961 8.21101 14.7588C8.21898 14.0361 8.21898 13.3154 8.20902 12.5926C8.20504 12.2747 8.29663 11.9272 8.00195 11.6685C8.00195 11.5382 8.00195 11.4098 8.00195 11.2814Z" fill="#B66721"/>
<path d="M8.24848 76.3761C8.15889 76.3129 8.06929 76.2517 7.97969 76.1885C7.89806 75.3453 7.82041 74.5002 8.01752 73.661L8.00956 73.6689C8.66661 73.1317 9.41923 73.264 10.1599 73.3884C10.5939 73.4615 10.8428 73.7696 10.9026 74.1902C11.0001 74.8951 11.0897 75.608 10.7512 76.2853C10.7035 76.3307 10.6557 76.3781 10.6079 76.4235C10.5382 76.4156 10.4685 76.4077 10.3968 76.3998C9.68205 76.2734 8.96526 76.3149 8.24848 76.3801V76.3761Z" fill="#B46822"/>
<path d="M13.189 76.4335C13.189 77.2964 13.185 78.1613 13.183 79.0242C13.1512 79.0222 13.1173 79.0183 13.0855 79.0183C11.3931 78.9709 10.5674 78.1053 10.6086 76.4216L10.5986 76.4315C11.4628 75.8944 12.3269 75.8766 13.189 76.4354V76.4335Z" fill="#B46723"/>
<path d="M11.2416 34.3337C11.4726 34.3456 11.7095 34.3969 11.9345 34.3633C12.9201 34.2172 13.2964 34.5588 13.2167 35.5955C13.1152 36.9284 13.1849 36.9363 11.8469 36.9383C11.4168 36.9383 10.9848 36.9225 10.5547 36.9146C10.5706 36.2413 10.6025 35.5679 10.5945 34.8945C10.5885 34.4246 10.7896 34.2528 11.2416 34.3337Z" fill="#B56722"/>
<path d="M8.21699 39.5111C8.12939 39.5032 8.04377 39.4953 7.95617 39.4894C8.04178 38.66 7.5699 37.5582 8.18514 37.0744C8.70281 36.6676 9.75807 36.9322 10.5744 36.8986C10.5804 36.9638 10.5883 37.027 10.5903 37.0921C10.6328 38.7048 9.84103 39.5111 8.215 39.5111H8.21699Z" fill="#B7661E"/>
<path d="M50.4156 36.9422C52.1637 36.8896 53.0338 37.7394 53.0258 39.4915L52.996 39.5152C52.1279 40.0681 51.2458 40.0089 50.3558 39.5725C49.9058 38.6859 49.8461 37.8052 50.4195 36.9422H50.4156Z" fill="#B7661F"/>
<path d="M31.8925 15.7838C31.8826 15.7127 31.8726 15.6396 31.8627 15.5685C31.8567 13.9414 31.7173 12.3103 31.9363 10.6872C32.7766 10.5075 33.6188 10.5667 34.461 10.6595L34.4709 10.6694C34.451 12.1188 34.4311 13.5702 34.4112 15.0196C33.573 15.0768 33.3042 14.6246 33.3659 13.8762C34.0468 13.195 33.7601 12.3597 33.7123 11.5718C33.6964 11.3013 33.4475 11.2223 33.1887 11.242C32.9478 11.2598 32.8323 11.4138 32.8124 11.6271C32.7447 12.34 32.7527 13.0548 32.462 13.7439C32.3445 14.0243 32.7646 14.1112 32.9717 14.2554C33.3998 14.676 34.0787 14.9485 33.8776 15.7443C33.2166 15.8825 32.5516 15.8489 31.8865 15.7818L31.8925 15.7838Z" fill="#B46722"/>
<path d="M8.01835 73.6611C8.00641 74.5043 7.99446 75.3475 7.98252 76.1907C7.70775 75.6654 7.86106 75.1026 7.86504 74.5596C7.86703 74.0047 7.65399 73.827 7.10844 73.8231C6.56289 73.8191 5.99345 73.9672 5.46582 73.7006C6.31799 73.6868 7.17016 73.675 8.02234 73.6611H8.01835Z" fill="#F2A363"/>
<path d="M5.37221 68.5312C5.36823 70.1663 5.52752 71.8033 5.28262 73.4324C5.25872 71.8053 5.23483 70.1801 5.21094 68.555C5.2647 68.5431 5.31845 68.5352 5.3742 68.5312H5.37221Z" fill="#F2A363"/>
<path d="M34.4631 10.6596C33.6209 10.6695 32.7807 10.6774 31.9385 10.6872C32.7608 10.3318 33.6368 10.6793 34.4731 10.4878C34.4791 10.5451 34.4771 10.6043 34.4651 10.6616L34.4631 10.6596Z" fill="#B76826"/>
<path d="M58.3837 50.1644C58.3737 50.111 58.3717 50.0577 58.3737 50.0024C59.196 50.1051 60.0323 49.8978 60.8466 50.1268C60.0243 50.1387 59.204 50.1505 58.3837 50.1644Z" fill="#E98A24"/>
<path d="M8.24902 76.3763C8.96779 76.1927 9.68458 76.167 10.3974 76.3961C9.68059 76.4573 8.96381 76.483 8.24902 76.3763Z" fill="#F2A363"/>
<path d="M27.9569 49.5784C27.8653 49.9634 27.9947 50.3939 27.71 50.7375C27.5726 50.9389 27.3675 51.0455 27.1366 51.0712C25.9001 51.2035 24.6637 51.1818 23.4252 51.087C23.1565 51.0673 22.9354 50.9211 22.7543 50.7217C22.7403 49.375 22.7861 48.0223 22.6886 46.6815C22.6189 45.7218 23.0708 45.4908 23.8911 45.4612C25.3028 45.4098 25.3526 45.3921 25.2869 43.9979C25.2471 43.1449 25.484 42.8526 26.384 42.8704C29.1336 42.9237 31.8872 42.8803 34.6389 42.8862C34.9893 42.8862 35.3756 42.7717 35.6802 43.0659C35.8932 43.4549 35.7897 43.8795 35.7678 44.2783C35.73 44.9636 36.0326 45.2124 36.6837 45.1393C36.7992 45.1393 36.9107 45.1393 37.0242 45.1413C37.5777 45.1452 38.1431 45.1156 38.4617 45.706C38.6847 47.264 38.5294 48.83 38.5573 50.3919C38.5712 51.1384 38.627 51.8887 38.5573 52.6351C38.4736 53.1723 38.1232 53.3895 37.6095 53.4072C37.2551 53.4191 36.8967 53.4112 36.5602 53.5435C35.8773 53.7331 36.0147 54.2722 36.0386 54.7619C36.16 55.5458 35.9589 56.3238 36.0227 57.1058C36.0545 57.4889 35.9689 57.9055 36.3791 58.1623C36.5901 58.2669 36.8051 58.338 37.0421 58.3656C38.4478 58.5355 38.5095 58.6401 38.5752 59.9849C38.6548 61.5923 38.6528 63.1996 38.6509 64.807C38.6509 65.2355 38.6051 65.6581 38.4458 66.0609C38.1909 66.4578 37.7788 66.4243 37.3825 66.444C36.9903 66.4618 36.5821 66.3789 36.2337 66.6356C35.8634 66.991 36.0724 67.3879 36.1561 67.7749C36.2337 68.3555 36.0227 68.7682 35.4472 68.9657C32.3352 69.0703 29.2232 68.9933 26.1112 69.0091C25.3506 69.0131 25.0778 68.6181 25.04 67.9033C24.9723 66.6138 24.8847 66.5171 23.5905 66.4539C22.804 66.4164 22.4397 66.0451 22.3959 65.3086C22.3262 64.1613 22.366 63.0101 22.3441 61.8608C22.3302 61.1598 22.7343 60.7471 23.4312 60.6958C24.6876 60.601 25.9459 60.6089 27.2023 60.6918C27.8653 60.7372 28.1938 61.1341 28.2715 61.7779C28.3173 62.1689 28.2774 62.5677 28.4009 62.9469C28.4288 63.0041 28.4507 63.0989 28.4985 63.1088C29.7986 63.4149 31.1067 63.247 32.4069 63.1305C32.7653 63.0989 32.7135 62.6704 32.7295 62.3841C32.7772 61.5982 32.6956 60.8083 32.7892 60.0224C32.6684 59.2338 32.1985 58.8336 31.3795 58.8218C30.5592 58.8119 29.7409 58.8356 28.9206 58.808C28.5283 58.7941 28.1281 58.7764 27.8195 58.4742C27.3078 56.9064 27.5189 55.3128 27.6761 53.7271C27.7239 53.2433 28.152 53.0755 28.6259 53.0301C29.5796 52.9412 30.5353 52.955 31.491 52.9412C32.6379 52.9254 32.6896 52.8563 32.7195 51.6893C32.7354 51.0357 32.6637 50.3801 32.7772 49.7324C32.7069 48.9465 32.2768 48.5482 31.487 48.5377C30.9236 48.5298 30.3561 48.5891 29.8006 48.5239C28.8967 48.4173 28.2675 48.6937 27.9629 49.5744L27.9569 49.5784Z" fill="#FEC298"/>
<path d="M38.2822 52.7376C38.2822 50.37 38.2822 48.0004 38.2822 45.6327C38.9114 45.7512 38.7461 46.2666 38.7541 46.6458C38.7879 48.0576 38.7819 49.4715 38.764 50.8636C39.0249 50.0303 39.5027 49.2642 39.7815 48.4151C39.875 48.1307 40.108 47.8997 40.4485 47.9056C40.8168 47.9115 40.9263 48.1998 41.0159 48.496C41.0517 48.6165 41.0796 48.7547 41.3683 48.7586C41.1015 47.0525 42.3101 46.6517 43.6083 46.3338C42.9293 46.4048 42.1827 46.2133 41.7606 45.8598C41.5814 45.7098 41.3683 45.5439 41.4619 45.2931C41.5555 45.0384 41.8303 45.0561 42.0632 45.0561C42.4793 45.0561 42.9273 45.2082 43.3753 44.6355C41.9975 44.5941 41.0358 43.9563 40.2294 42.8623C40.6754 43.8062 40.337 44.5368 39.9706 45.2971C39.7735 45.7038 40.0323 45.9704 40.4883 46.0356C41.0318 46.1126 41.3166 46.4345 41.2728 46.9854C41.225 47.5659 40.779 47.5738 40.331 47.6291C38.8297 47.8187 38.9094 47.8148 38.768 46.3555C38.6804 45.4412 38.5092 44.519 38.3499 43.5909C38.3499 44.6158 37.7665 45.147 36.8745 45.4392L36.777 45.4432L36.6794 45.4392C36.5221 45.2595 36.1219 45.2398 36.2812 44.8488C36.8725 44.9021 37.1433 44.6553 37.0836 44.051C37.0537 43.7588 37.1055 43.4567 37.0716 43.1644C36.996 42.4792 37.2807 42.2561 37.9736 42.2482C39.7615 42.2284 39.8352 42.1218 39.8571 40.3071C39.6361 39.7166 39.8253 39.4896 40.4425 39.6732C41.5236 39.997 41.7745 40.3031 41.8442 41.4563C41.884 42.1415 42.2464 42.5858 42.8676 42.728C43.7715 42.9334 44.556 43.2118 44.8367 44.211C44.8686 44.3275 45.0657 44.3058 45.1971 44.3156C45.5595 44.2722 45.9239 44.2939 46.2862 44.2939C46.8338 44.2939 47.2519 44.209 47.2678 43.508C47.2838 42.8169 47.017 42.5068 46.3141 42.4279C44.8208 42.258 44.8029 42.2343 44.6934 40.783C44.6496 40.2064 44.4823 39.9082 43.8352 39.845C42.115 39.6771 41.5933 38.5595 42.4375 36.956C42.4694 36.9541 42.5032 36.9501 42.5351 36.9501C44.2155 36.9146 45.0478 36.0543 45.0319 34.3692C45.1971 34.3633 45.3604 34.3475 45.5257 34.3515C46.1489 34.3653 46.8756 34.1935 47.3694 34.4541C47.9826 34.776 47.5725 35.5797 47.6481 36.1682C47.7198 36.723 47.9488 36.9778 48.5381 36.9442C49.1613 36.9067 49.7885 36.9383 50.4137 36.9403C50.4137 37.7973 50.4137 38.6543 50.4137 39.5113C50.9413 40.1807 50.796 40.937 50.6626 41.6755C50.573 42.1672 50.1608 42.3133 49.7128 42.4042C48.2315 42.7063 48.2315 42.7102 48.1877 44.1814C48.1817 44.4104 48.1379 44.6355 48.1339 44.8666C48.116 46.1738 48.128 47.481 48.1081 48.7863C48.0961 49.4616 48.2813 49.7914 49.0518 49.7973C50.5312 49.8111 50.7502 50.0679 50.7761 51.535C50.796 52.6784 50.788 53.8237 50.7761 54.967C50.7721 55.3916 50.784 55.822 50.5371 56.1992C50.2206 56.4954 50.0653 56.1834 49.9119 56.0077C49.5197 55.5555 49.02 55.6048 48.5441 55.7411C48.0901 55.8694 48.2036 56.3236 48.1638 56.6633C48.0224 57.9251 47.7556 58.2548 46.4555 58.3812C45.7009 58.4543 45.448 58.7998 45.3783 59.4949C45.2469 60.8101 45.1533 60.9088 43.7954 60.9621C43.0886 60.9898 42.8158 61.2366 42.772 61.9475C42.6944 63.233 42.5311 63.387 41.2489 63.541C40.5918 63.62 40.2573 63.8609 40.1896 64.5639C40.0582 65.8968 39.658 66.1891 38.2543 66.1535C38.2543 64.0525 38.2125 61.9514 38.2722 59.8543C38.3001 58.8887 37.9517 58.5471 37.0099 58.6379C36.6356 58.6735 36.2095 58.7761 35.875 58.4602C36.5858 57.8994 37.3842 58.0672 38.1448 58.2529C38.7899 58.4108 38.7481 59.0348 38.8337 59.5463C38.8695 59.7615 38.8417 60.0775 39.1583 60.0636C39.4569 60.0518 39.433 59.7457 39.4669 59.5265C39.4947 59.331 39.5067 59.1336 39.5127 58.9381C39.5366 58.1364 39.9666 57.7868 40.7591 57.7118C41.9716 57.5953 41.9676 57.5657 42.099 56.371C42.2125 55.3304 42.4674 55.0124 43.5167 54.9828C44.3489 54.9591 44.6854 54.6886 44.6974 53.8296C44.7133 52.6527 44.9443 52.4118 46.1051 52.4118C47.0408 52.4118 47.3574 51.9872 47.3216 51.1697C47.2459 49.432 47.2658 47.6923 47.2439 45.9546C47.236 45.3188 46.8557 45.2042 46.33 45.2062C45.8124 45.2062 45.3982 45.299 45.4002 45.9388C45.4002 46.1343 45.3743 46.3318 45.3684 46.5292C45.3445 47.331 44.9263 47.7417 44.1239 47.7437C42.9572 47.7456 42.7939 47.8306 42.786 49.0252C42.78 49.8625 42.338 50.2436 41.5316 50.3917C40.1657 50.6405 40.1717 50.6682 39.9826 51.9695C39.8511 52.8719 39.5903 53.0496 38.545 52.943C38.4455 52.8857 38.3559 52.8186 38.2722 52.7416L38.2822 52.7376Z" fill="#F2A364"/>
<path d="M27.9229 63.3969C27.9043 61.8198 27.1046 61.0319 25.5237 61.0333C24.7949 61.0333 24.0682 61.0352 23.3395 61.0333C22.8457 61.0313 22.559 61.2683 22.6406 61.754C22.8357 62.9309 22.7302 64.1118 22.7183 65.2887C22.7123 66.0055 22.993 66.2365 23.656 66.1575C23.7536 66.1457 23.8551 66.1556 23.9547 66.1556C25.3464 66.1556 25.4102 66.1615 25.3245 67.5457C25.2648 68.5113 25.5913 68.768 26.5391 68.7503C29.5834 68.691 32.6277 68.7226 35.6741 68.7187C35.7398 68.853 35.7119 68.9635 35.5904 69.0544C35.3037 69.2518 34.9732 69.2913 34.6407 69.2953C31.8214 69.321 29.004 69.317 26.1847 69.2973C25.9179 69.2973 25.6571 69.2538 25.4042 69.161C24.8785 68.9319 24.8069 68.4778 24.8128 67.9861C24.8029 66.7539 24.6516 66.5683 23.7277 66.6788C23.4729 66.7085 23.1702 66.7025 23.1165 67.0422C23.0687 67.3443 23.3474 67.3956 23.5426 67.4964C23.6879 67.5714 23.8313 67.6484 23.9368 67.7807C24.2235 68.3711 23.8751 68.6318 23.3853 68.7917C23.005 68.9142 22.6028 68.8865 22.2085 68.9082C21.7685 68.9319 21.5953 69.1511 21.5256 69.5777C21.2309 71.4023 21.219 71.3983 19.3255 71.4714C19.0627 71.4812 18.7979 71.4891 18.535 71.5128C17.9756 71.501 17.4161 71.4753 16.8606 71.4259C16.0821 71.3549 15.7038 70.9481 15.6759 70.1464C15.6321 68.8668 15.6062 68.8668 14.3419 68.8214C13.1731 68.7779 13.0198 68.6259 12.8486 67.3522C12.8267 66.7499 12.9382 66.1536 12.8944 65.5513C12.9939 64.7753 12.6535 63.9459 13.1791 63.2192C13.5932 63.7484 13.3523 64.3626 13.3583 64.9293C13.3643 65.5632 13.5713 65.8475 14.2244 65.7804C14.4872 65.7527 14.756 65.7606 15.0188 65.7804C15.6858 65.8317 16.0203 65.5612 15.9726 64.872C15.9526 64.5778 15.9925 64.2796 15.9646 63.9854C15.9088 63.3693 16.2035 63.1501 16.7869 63.2014C16.984 63.2192 17.1871 63.1797 17.3822 63.2074C18.3001 63.3298 18.6127 62.9408 18.5808 62.0344C18.5331 60.6442 18.5828 60.585 19.9407 60.6541C20.8825 60.7035 21.225 60.431 21.1732 59.4614C21.0975 58.0318 21.1573 58.0179 22.6944 57.9607C23.4271 57.933 23.7994 57.7237 23.7755 56.8628C23.7337 55.3679 23.8452 55.2672 25.3245 55.3304C26.326 55.3719 26.5729 54.9651 26.5391 54.0587C26.4893 52.7456 26.5431 52.6705 27.8831 52.7633C28.9363 52.8364 29.1832 52.4533 29.1354 51.4838C29.0638 50.0028 29.1215 50.0047 30.6546 49.983C31.1046 49.9771 31.6043 50.1015 31.911 49.6098C32.2853 49.2129 32.6755 49.2642 33.0737 49.5683C33.0797 50.5181 33.0439 51.468 33.1036 52.4138C33.1514 53.1721 32.8428 53.3775 32.126 53.3478C31.005 53.3005 29.8821 53.3617 28.7611 53.3242C28.118 53.3024 27.885 53.5295 27.903 54.1733C27.9388 55.6128 27.9149 57.0523 27.9169 58.4938C28.2355 59.7162 29.1633 59.7695 30.1967 59.7142C30.7721 59.6826 31.3873 59.5957 31.903 60.0005C32.0583 60.8259 31.449 60.895 30.8915 60.9681C29.6073 61.1399 29.6073 61.13 29.4421 62.4116C29.3246 63.314 29.1972 63.3969 27.9209 63.4068L27.9229 63.3969Z" fill="#F2A264"/>
<path d="M13.1885 76.4336C12.3244 76.4336 11.4623 76.4316 10.5982 76.4296C10.5982 75.8056 10.5603 75.1797 10.6101 74.5616C10.6679 73.8547 10.3752 73.6256 9.69424 73.6769C9.13475 73.7184 8.57128 73.675 8.00781 73.669C8.00781 72.812 8.0098 71.955 8.01179 71.098C9.69092 71.0954 10.559 70.2364 10.6161 68.5211C11.3389 67.9938 12.1412 68.2269 12.9038 68.3394C13.3399 68.4046 13.4414 68.8469 13.4772 69.2695C13.6007 70.7189 13.6087 70.7426 14.9944 70.7979C15.7849 70.8295 16.1094 71.2422 16.1851 71.959C16.3245 73.28 16.3284 73.284 17.7162 73.3018C18.0149 73.3057 18.3095 73.3373 18.6062 73.3511C20.649 73.2247 22.6958 73.3235 24.7387 73.2939C26.0348 73.2741 26.0348 73.2781 26.1722 72.036C26.2817 71.0447 26.5087 70.8275 27.548 70.7406C28.1254 70.6912 28.7586 70.8077 29.117 70.168C30.8233 69.7671 32.5317 69.8145 34.244 70.1265C34.8134 70.865 34.7079 71.2224 33.8597 71.4041C33.6327 71.4535 33.3978 71.4732 33.1668 71.4653C32.5376 71.4456 32.3206 71.7536 32.2549 72.3559C32.1036 73.7441 31.9124 73.9277 30.4351 74.0146C29.6884 74.0581 29.4535 74.3661 29.4953 75.0612C29.5272 75.5904 29.7462 75.8412 30.2838 75.8471C32.1394 75.8728 33.9971 75.8649 35.8527 75.8511C36.4341 75.8471 36.6512 75.5845 36.7089 75.0177C36.8722 73.4321 37.0195 73.3057 38.5964 73.3037C39.8886 73.3018 41.1808 73.2386 42.473 73.3491C43.3331 73.3314 44.2192 73.0648 45.0076 73.6434C44.5158 74.06 43.9285 73.8389 43.3929 73.8369C42.7458 73.8369 42.4471 73.9771 42.4431 74.7057C42.4372 76.4296 42.3993 76.3941 40.6213 76.4435C39.4446 76.477 38.248 76.2085 37.0912 76.633C36.8383 76.71 36.5914 76.8009 36.3206 76.793C33.3181 76.7199 30.3116 76.9628 27.3131 76.6429C26.5884 76.5659 25.8656 76.637 25.1409 76.71C24.0398 76.8206 23.7013 76.5244 23.5799 75.4522C23.4445 74.2476 23.4445 74.2397 22.2021 74.2318C20.9875 74.2239 19.769 74.1627 18.5724 74.453C18.5505 73.6375 17.9273 73.8606 17.4773 73.8586C15.7709 73.8468 15.9302 73.752 15.984 75.3238C16.0139 76.1848 15.7729 76.5363 14.877 76.4336C14.3215 76.3704 13.75 76.4257 13.1866 76.4296L13.1885 76.4336Z" fill="#F2A363"/>
<path d="M37.083 36.9365C32.6987 36.9365 28.3164 36.9365 23.9321 36.9365L23.944 36.9484C23.9321 36.3915 23.9639 35.8307 23.8982 35.2798C23.7987 34.4603 24.2626 34.2213 24.9395 34.2194C28.7365 34.2075 32.5334 34.2154 36.3304 34.2075C36.8759 34.2075 37.1089 34.4465 37.091 34.9836C37.069 35.6372 37.075 36.2928 37.071 36.9484L37.083 36.9365Z" fill="#F3B58B"/>
<path d="M10.6067 63.1953C8.86255 63.2269 7.99047 62.3824 7.99047 60.6618C7.99047 57.4727 8.03228 54.2817 7.9626 51.0926C7.9387 49.965 8.54399 50.0006 9.33643 49.9868C10.1388 49.9729 10.6326 50.0421 10.6187 51.0728C10.5629 55.117 10.5948 59.163 10.5928 63.2072L10.6047 63.1953H10.6067Z" fill="#F4B58B"/>
<path d="M42.4412 36.9602C42.4432 37.0905 42.4492 37.2208 42.4492 37.3531C42.4651 39.3002 42.4631 39.316 44.4084 39.5055C44.8723 39.5509 45.0634 39.7306 45.0375 40.173C45.0316 40.2697 45.0375 40.3685 45.0375 40.4672C45.0561 41.4651 45.5718 42.0107 46.5846 42.1042C47.6896 42.2069 47.6498 42.2227 47.6399 43.8656C47.6359 44.7759 47.0744 44.6456 46.5209 44.6476C46.0271 44.6476 45.5313 44.6456 45.0375 44.6436C44.7011 44.3138 44.6792 43.8814 44.6792 43.4588C44.6792 42.8862 44.4143 42.6788 43.8469 42.6235C42.2899 42.4715 42.2122 42.3925 42.0968 40.8621C42.049 40.2381 41.8379 39.9301 41.1709 39.859C40.5298 39.7899 39.8907 39.6398 39.2515 39.5292C37.8153 39.524 37.0932 38.8249 37.0853 37.4321C37.0853 37.2682 37.0813 37.1043 37.0813 36.9404L37.0693 36.9523C38.8593 36.9562 40.6512 36.9582 42.4412 36.9621V36.9602Z" fill="#F4B58A"/>
<path d="M36.88 28.8501C36.88 28.9113 36.878 28.9725 36.878 29.0337C32.633 29.0317 28.3881 29.0298 24.1452 29.0278C24.3164 28.7336 24.5414 28.5321 24.3184 28.076C23.8505 27.1262 24.187 26.749 25.288 26.6661C26.0367 26.6108 26.7774 27.0176 27.522 26.6779C27.8167 26.672 28.0855 26.8418 28.3861 26.8102C29.4951 26.2711 30.6659 26.7056 31.8048 26.6068C32.856 26.516 33.9233 26.5812 34.9825 26.5891C36.9676 26.6009 37.1946 26.8734 36.882 28.852L36.88 28.8501Z" fill="#B56822"/>
<path d="M37.0976 29.2451C38.4236 29.2451 39.7477 29.2411 41.0737 29.2451C41.5297 29.247 41.9896 29.1759 42.3918 29.5274C42.5889 29.7012 42.9095 29.715 43.1205 29.4998C43.3216 29.2944 43.1604 29.0614 43.0528 28.8679C42.8318 28.471 42.8836 28.0425 42.8418 27.6199C42.7681 26.8715 43.2082 26.5714 43.8314 26.5694C44.4446 26.5654 44.8986 26.834 44.8488 27.5942C44.793 28.471 44.8727 29.3576 44.7731 30.2265C44.6995 30.8584 44.1121 31.3955 43.5745 31.275C42.9772 31.1407 42.6646 31.4034 42.2544 31.6087C40.8627 31.6087 39.4689 31.5712 38.0772 31.6285C37.2887 31.6601 36.9821 31.4053 37.0717 30.6214C37.1235 30.1672 37.0916 29.7012 37.0976 29.2411V29.2451Z" fill="#B56822"/>
<path d="M18.557 39.5034C18.561 39.9951 18.567 40.4848 18.567 40.9765C18.563 42.2344 18.3957 42.4516 17.1254 42.2127C16.116 42.0231 15.8611 42.3687 15.9587 43.2592C15.9806 43.4528 15.9328 43.6561 15.9587 43.8477C16.0682 44.6237 15.7476 44.916 14.9632 44.841C14.3738 44.7857 13.7765 44.8331 13.1812 44.835L13.1951 44.8488C13.1951 44.294 13.2469 43.7332 13.1891 43.1842C13.0956 42.2917 13.4958 41.9955 14.334 42.1021C14.561 42.1317 14.7979 42.0823 15.0249 42.11C15.7755 42.1988 15.9806 41.8651 15.9686 41.1503C15.9388 39.3849 15.7018 39.5192 17.5814 39.5192C17.9099 39.5192 18.2404 39.5192 18.569 39.5192L18.557 39.5054V39.5034Z" fill="#F3B385"/>
<path d="M18.545 73.665C17.9835 73.663 17.4181 73.6235 16.8586 73.667C15.9965 73.7361 15.7436 73.2957 15.7834 72.5414C15.8591 71.1078 15.8531 71.0545 14.4016 71.1197C13.4638 71.1631 13.1154 70.8945 13.1692 69.925C13.2448 68.5348 13.1831 68.5328 11.8073 68.5309C11.4111 68.5309 11.0128 68.5249 10.6166 68.521C10.6126 66.7458 10.6107 64.9705 10.6067 63.1953L10.5947 63.2072C11.4569 63.2111 12.317 63.2131 13.1791 63.217C13.1751 64.001 13.1712 64.7869 13.1652 65.5708C13.0696 65.6222 12.984 65.6084 12.9044 65.5412C12.6415 65.2095 12.7033 64.7987 12.6336 64.4196C12.5579 64.0109 12.3409 63.7798 11.9048 63.7759C11.4569 63.7719 11.2159 64.0464 11.1881 64.4315C11.1164 65.3931 10.973 66.3627 11.2896 67.3125C11.9048 68.3216 12.5519 67.4902 13.1871 67.348C13.0716 68.2307 13.4121 68.5763 14.3499 68.5486C16.1796 68.4953 15.9945 68.3808 15.9626 70.077C15.9487 70.8452 16.2294 71.1532 17.0059 71.1078C17.5236 71.0762 18.0692 70.9992 18.553 71.3013C19.1324 72.0912 19.0806 72.8791 18.545 73.667V73.665Z" fill="#F6B58A"/>
<path d="M23.9325 36.9361C23.8847 38.6659 22.9881 39.5281 21.2426 39.5229C20.3466 39.5209 19.4526 39.5091 18.5566 39.5012L18.5686 39.515C18.5487 37.7957 19.3889 36.9354 21.0893 36.9341C22.041 36.9341 22.9927 36.944 23.9444 36.9479L23.9325 36.9361Z" fill="#F3B58B"/>
<path d="M13.1805 44.8351C13.1884 46.2766 13.1805 47.7161 13.2083 49.1576C13.2342 50.5754 12.0734 49.9001 11.4662 50.0758C10.8888 50.2437 10.5503 49.827 10.5821 49.1379C10.6359 47.9945 10.6339 46.8453 10.5841 45.7C10.5523 44.9851 10.847 44.7739 11.512 44.8232C12.0715 44.8647 12.6329 44.843 13.1944 44.8489L13.1805 44.8351Z" fill="#F4B58B"/>
<path d="M42.4611 31.8121C43.3412 31.6857 43.9166 31.9483 44.3068 32.8389C44.6632 33.6525 45.3541 33.6189 45.9057 32.9396C46.2342 32.5368 46.8514 32.5822 47.2217 32.5861C47.612 32.5881 47.4049 33.301 47.4089 33.6998C47.4149 34.2429 46.9689 34.1738 46.6145 34.1777C45.6886 34.1856 44.7628 34.1836 43.8369 34.1856C42.9131 34.1922 42.4512 33.7301 42.4512 32.7994C42.4512 32.4716 42.4571 32.1418 42.4611 31.814V31.8121Z" fill="#B56822"/>
<path d="M2.83887 50.1369C2.87072 49.7222 3.30876 49.4556 3.18929 48.9501C3.10766 48.6065 3.48397 48.5789 3.75475 48.6657C4.06138 48.7645 4.29035 48.7092 4.38194 48.3952C4.47352 48.0832 4.40384 47.7238 4.06138 47.6764C3.37446 47.5816 3.22911 47.2104 3.22115 46.5943C3.21319 45.8973 3.75674 45.8676 4.17686 45.6524C4.51135 45.4806 4.8578 45.4115 5.23013 45.4352C5.23013 46.5785 5.17836 47.7258 5.25203 48.8652C5.30579 49.7005 5.04496 50.0263 4.18482 50.0599C3.74281 50.0776 3.26694 49.8565 2.83887 50.1388V50.1369Z" fill="#B66720"/>
<path d="M39.2539 39.5272C39.5845 39.5233 39.917 39.5114 40.2475 39.5134C42.2584 39.5193 42.2724 39.5193 42.4436 41.5019C42.4894 42.0331 42.7064 42.2878 43.242 42.272C43.4411 42.2661 43.6442 42.2997 43.8374 42.2681C44.799 42.116 45.1793 42.5031 45.0459 43.4608C44.9922 43.8478 45.038 44.2487 45.04 44.6436C44.811 44.6317 44.4904 44.6515 44.4765 44.3731C44.4247 43.3087 43.6004 43.2949 42.8597 43.0856C41.683 42.7519 41.3605 42.2562 41.5715 41.0754C41.7746 39.9281 40.5441 40.4474 40.1917 39.8669C40.0225 39.5865 39.903 40.0861 39.8592 40.3092C39.6522 40.0525 39.5765 39.6951 39.252 39.5272H39.2539Z" fill="#F2A364"/>
<path d="M33.0794 49.5623C32.6912 49.5761 32.3029 49.5899 31.9167 49.6037C30.5966 49.5958 29.2765 49.5879 27.9584 49.5781C27.9 48.6473 28.3228 48.1793 29.2267 48.1741C30.0471 48.1682 30.8674 48.1543 31.6857 48.1524C32.6414 48.1497 33.106 48.6197 33.0794 49.5623Z" fill="#B56823"/>
<path d="M22.7542 50.7236C24.4068 50.7296 26.0574 50.7335 27.7099 50.7394C28.1559 51.9223 28.0186 52.1493 26.8339 52.1533C25.9459 52.1553 25.0579 52.1533 24.1679 52.1533C23.1962 52.1533 22.725 51.6767 22.7542 50.7236Z" fill="#B66923"/>
<path d="M36.2834 44.849C36.4168 45.0445 36.5482 45.242 36.6816 45.4394C35.9509 45.5461 35.5905 45.2834 35.6661 44.5035C35.7119 44.0295 35.6801 43.5457 35.6821 43.0679C35.9867 43.3641 35.8433 43.7432 35.8692 44.0888C35.8951 44.4087 35.8254 44.7681 36.2854 44.851L36.2834 44.849Z" fill="#F2A364"/>
<path d="M53.0874 6.89363C53.2248 6.17485 53.1929 5.38498 54.3736 5.5232C55.0864 5.60811 55.4488 5.8589 55.3751 6.52634C55.2696 7.49787 55.2318 8.47139 55.1462 9.44095C55.0725 10.2565 54.527 10.4777 53.9714 9.93857C53.3403 9.32444 53.2567 9.82798 53.0814 10.2565C52.9699 9.13488 52.966 8.01326 53.0874 6.89363Z" fill="#B56823"/>
<path d="M26.4932 26.2651C26.5011 24.8671 26.541 23.469 26.5011 22.0729C26.4812 21.3561 26.7162 21.054 27.4509 21.1132C28.0044 21.1586 28.5639 21.1369 29.1214 21.1468C29.1293 22.8529 29.1353 24.561 29.1433 26.2671C28.8844 26.5001 28.6435 26.4606 28.4165 26.2197C28.1617 25.2462 28.4583 24.2766 28.4603 23.3051C28.4603 23.0444 28.5599 22.7798 28.4743 22.5251C28.3548 22.1677 28.1298 21.834 27.7296 21.832C27.2159 21.828 27.3871 22.2921 27.3374 22.5804C27.1303 23.779 27.3991 24.9915 27.2299 26.194C27.0049 26.4231 26.762 26.4527 26.4952 26.2651H26.4932Z" fill="#B36723"/>
<path d="M36.8808 28.8501C36.8708 26.8774 36.8689 26.9307 34.828 26.8596C33.1257 26.8004 31.4154 27.142 29.7249 26.7451C29.1336 26.6069 28.7573 27.4639 28.1202 27.0729C27.8056 26.593 27.7857 26.3146 28.5144 26.3383C31.282 26.4331 34.0495 26.3758 36.8191 26.3699C37.3925 27.14 36.9724 28.0207 37.0978 28.8402C37.0262 28.8422 36.9545 28.8461 36.8808 28.8481V28.8501Z" fill="#B36723"/>
<path d="M36.8164 26.3699C34.909 26.6167 32.9916 26.4212 31.0802 26.4765C30.3196 26.4983 29.5531 26.5358 28.7985 26.4627C28.2569 26.4094 28.1772 26.6859 28.1175 27.0729C27.8348 27.065 27.6357 26.9347 27.5202 26.678C27.1399 26.2652 26.5506 26.678 26.1523 26.3344C26.2658 26.3107 26.3773 26.2889 26.4908 26.2652C26.7238 26.283 26.9567 26.3047 27.122 26.0856C27.5859 25.894 28.0518 25.894 28.5157 26.0856C28.677 26.3028 28.91 26.281 29.1409 26.2652C31.6994 26.3008 34.2579 26.3344 36.8164 26.3699Z" fill="#B56924"/>
<path d="M33.8841 15.744C33.6571 15.2325 33.2549 14.8514 32.8965 14.4367C32.7193 14.2472 32.5162 14.0635 32.5321 13.7772C32.556 13.3605 32.781 13.0801 33.2111 13.1334C33.6511 13.1887 33.7029 13.4869 33.4938 13.8443C33.452 14.5039 33.9617 14.7408 34.4157 15.0193C34.5252 15.4675 34.4794 15.8032 33.8841 15.742V15.744Z" fill="#B76826"/>
<path d="M18.5728 74.4568C18.7839 74.0579 19.0527 73.8269 19.5723 73.8486C20.7311 73.896 21.8939 73.8979 23.0507 73.8525C23.7615 73.8249 24.0263 74.0994 23.9387 74.7727C23.9307 74.8379 23.9387 74.905 23.9387 74.9702C23.9453 76.022 24.4783 76.4565 25.5375 76.2735C26.6008 76.0918 27.6421 76.4077 28.6953 76.4196C31.1483 76.4492 33.6013 76.4314 36.0523 76.4453C36.4047 76.4453 36.789 76.3426 37.0916 76.6388C37.0943 78.2172 36.2952 79.0064 34.6944 79.0064C31.5784 79.0064 28.4604 79.0084 25.3444 79.0104C25.0995 79.1585 24.8247 79.0538 24.5699 79.0992C23.7356 79.2453 23.4409 78.8524 23.4151 78.0724C23.3752 76.8738 23.3514 76.8698 22.1607 76.775C21.7924 76.7454 21.434 76.7079 21.1552 76.4314C20.9243 76.4255 20.6933 76.4216 20.4623 76.4137C18.3936 76.3485 18.5589 76.8777 18.5748 74.4607L18.5728 74.4568Z" fill="#F3B68B"/>
<path d="M50.4016 56.2997C50.4056 54.5304 50.3976 52.7631 50.4195 50.9938C50.4275 50.3461 50.2762 49.965 49.5116 50.1427C49.2607 50.202 48.982 50.1388 48.7212 50.1704C48.0183 50.2553 47.8013 49.9512 47.8172 49.2719C47.855 47.7988 47.8252 46.3237 47.8232 44.8506C48.4862 44.3017 49.2468 44.428 49.9954 44.5722C50.4852 44.667 50.6823 45.0501 50.7421 45.5023C50.8157 46.0552 50.8317 46.612 50.748 47.1649C50.7242 47.3249 50.7321 47.4868 50.7381 47.6507C50.7779 48.8368 51.3752 49.5707 52.53 49.8525C52.7272 49.8998 52.9004 49.9867 53.0039 50.1724C53.0079 54.1296 52.982 58.0868 53.0338 62.0421C53.0457 63.0038 52.7331 63.3434 51.7894 63.215C51.3354 63.1538 50.8675 63.1973 50.4056 63.1953C50.3598 63.1499 50.312 63.1064 50.2662 63.061C50.0074 62.6463 50.0352 62.1783 50.0333 61.7222C50.0253 60.3439 50.0173 58.9636 50.0372 57.5853C50.0432 57.1331 50.0054 56.6532 50.3996 56.3017L50.4016 56.2997Z" fill="#F4B58B"/>
<path d="M50.4077 63.1954C50.4077 64.6764 50.3778 66.1574 50.4216 67.6345C50.4415 68.3315 50.1886 68.606 49.5037 68.5171C49.3723 68.5013 49.2389 68.5171 49.1055 68.5171C48.2414 68.5211 47.8053 68.9483 47.7974 69.7987C47.7854 71.0427 47.7317 71.1 46.5251 71.1059C46.0273 71.1079 45.5296 71.0961 45.0338 71.0921C44.99 71.0506 44.9462 71.0092 44.9004 70.9677C44.6276 70.5175 44.6635 70.0179 44.6893 69.5282C44.7411 68.5389 44.9999 68.2861 46.0154 68.1795C47.2379 68.0511 47.2518 68.0472 47.3972 66.8584C47.4928 66.0745 47.4569 65.2846 47.439 64.4967C47.4071 63.1539 47.7337 62.834 49.1214 62.8419C49.5873 62.8439 50.0552 62.8498 50.4216 63.2073L50.4096 63.1954H50.4077Z" fill="#F4B589"/>
<path d="M21.1534 76.4276C21.7467 76.4276 22.3421 76.4573 22.9314 76.4217C23.7159 76.3743 23.911 76.7791 23.8234 77.4505C23.7975 77.644 23.7696 77.8376 23.7398 78.0291C23.6362 78.7301 23.8772 79.0974 24.6517 78.9927C24.8767 78.9631 25.1116 79.0006 25.3426 79.0066C24.0225 79.0579 23.7517 79.8478 23.9249 80.9674C23.9608 81.1925 23.907 81.4216 23.7258 81.5934C22.2883 81.7573 20.8527 81.548 19.4172 81.5875C18.802 81.6033 18.4734 81.4295 18.5371 80.7778C18.0593 80.1795 18.127 79.5871 18.559 79.0006C20.2939 78.9862 21.158 78.1291 21.1514 76.4296L21.1534 76.4276Z" fill="#F2A464"/>
<path d="M53.0057 50.1704C52.4064 49.9907 51.7892 50.1704 51.164 50.044C50.501 49.9097 50.3795 49.6234 50.4094 49.0626C50.4373 48.5117 50.4154 47.9568 50.4154 47.4039C50.7837 47.0425 51.2596 47.0405 51.7195 47.0563C52.4084 47.08 52.6593 46.7621 52.6533 46.1065C52.6493 45.6603 52.5956 45.1725 53.0137 44.8309C53.8738 44.821 54.7359 44.8111 55.5961 44.8013C55.5961 46.2428 55.5742 47.6843 55.608 49.1258C55.622 49.7478 55.4348 50.0657 54.7698 49.9828C54.1685 49.9078 53.5931 50.1033 53.0057 50.1684V50.1704Z" fill="#F3A364"/>
<path d="M55.3908 68.5309C54.9966 68.9258 54.5645 69.2832 55.2833 69.8144C55.5222 69.9902 55.3689 70.3733 55.2196 70.6379C55.0185 70.9953 54.9687 71.3784 54.9926 71.7773C55.0324 72.4585 55.0384 73.0628 54.019 72.8219C53.5431 72.7093 53.5431 73.5347 53.0135 73.4656C53.0095 72.1505 53.0474 70.8334 52.9876 69.5202C52.9518 68.7402 53.2066 68.4322 53.9991 68.5171C54.457 68.5664 54.9269 68.5289 55.3908 68.5289V68.5309Z" fill="#B76821"/>
<path d="M47.4271 79.0087C47.3853 79.3977 47.5605 79.8124 46.9513 80.0316C46.3978 80.233 46.8876 80.4522 47.0926 80.6062C47.2778 80.7425 47.3754 80.8846 47.1962 81.0821C47.0289 81.2657 46.8756 81.3526 46.6168 81.1453C45.7467 80.4482 44.7492 80.6951 43.8293 80.9518C43.234 81.1196 42.8537 81.3744 42.9732 80.4561C43.0269 80.0474 42.7482 80.0592 42.4575 80.1777C42.2703 79.2062 42.6924 78.9179 43.6461 78.9771C44.9005 79.0561 46.1648 79.0047 47.4252 79.0087H47.4271Z" fill="#B66720"/>
<path d="M45.0055 73.6475C44.1573 73.6534 43.3091 73.6593 42.4609 73.6653C41.9074 73.0156 42.0129 72.2632 42.1682 71.5306C42.3116 70.8553 42.889 70.7507 43.4684 70.727C44.0259 70.7033 44.5914 70.6776 45.0433 71.1041L45.0314 71.0923C45.0214 71.9434 45.0135 72.7944 45.0035 73.6475H45.0055Z" fill="#F4B589"/>
<path d="M47.4168 23.6448C47.4168 24.1997 47.4685 24.7605 47.4048 25.3074C47.3212 26.0341 46.8553 26.1605 46.262 25.7379C45.2644 25.029 45.8359 23.9923 45.6507 23.1175C45.6009 22.8806 45.816 22.614 45.579 22.379C45.36 22.1638 45.1649 21.9327 45.4655 21.6306C45.8737 21.2179 46.3794 21.3206 46.8573 21.4035C47.148 21.4529 47.4088 21.5951 47.3909 21.99C47.367 22.5409 47.3849 23.0938 47.3849 23.6448C47.3949 23.6448 47.4068 23.6448 47.4168 23.6448Z" fill="#B56721"/>
<path d="M52.5125 14.9051C52.4727 14.7866 52.4329 14.6681 52.3951 14.5496C52.3114 14.285 52.2059 14.0125 51.8555 14.1764C51.6146 14.291 51.5688 14.5417 51.7081 14.7668C51.9112 15.0986 52.1442 15.458 51.5568 15.5784C50.9993 15.693 50.5653 15.3237 50.6529 14.8202C50.852 13.6788 50.7485 12.5374 50.842 11.402C50.8759 10.9992 51.1088 10.8353 51.5309 11.1019C51.961 11.3724 52.196 11.9924 52.0466 12.5098C51.8973 13.0252 52.0227 13.5485 52.4548 13.8348C52.9545 14.1666 52.7933 14.5003 52.5145 14.9051H52.5125Z" fill="#B56721"/>
<path d="M12.9897 18.0682C12.9897 18.394 12.9936 18.7218 12.9897 19.0476C12.9777 19.9145 12.5576 20.3469 11.6397 20.2916C10.8652 20.2462 11.0245 19.5867 11.0066 19.0989C10.9827 18.4137 11.0086 17.7265 10.9986 17.0413C10.9926 16.5417 11.1659 16.2752 11.7214 16.2041C12.9837 16.0441 12.9857 16.0204 12.9897 17.2842C12.9897 17.5449 12.9897 17.8075 12.9897 18.0682Z" fill="#B56723"/>
<path d="M18.561 78.9989C18.5531 79.5913 18.5471 80.1837 18.5391 80.7761C17.2888 81.7516 15.8273 81.2599 14.4495 81.3468C14.0553 81.3725 13.8661 81.0763 14.1369 80.7761C14.8099 80.0317 14.3579 79.9665 13.6989 79.9507C13.5874 79.9487 13.4799 79.8283 13.3704 79.7631C13.3047 79.1529 13.5993 78.9713 14.1887 78.9851C15.6461 79.0167 17.1036 78.9969 18.561 78.9989Z" fill="#B6671F"/>
<path d="M5.0251 2.77238C5.0251 3.16732 5.06691 3.5662 5.01514 3.95521C4.95541 4.40346 5.3357 5.0472 4.43774 5.16766C3.53181 5.29009 2.98626 4.88133 2.89069 4.08554C2.77321 3.114 2.76724 2.10692 2.8867 1.13538C2.98227 0.34749 3.66521 0.189516 4.40389 0.219136C5.23814 0.252705 4.99324 0.849056 5.01912 1.29336C5.047 1.78505 5.0251 2.27872 5.0251 2.77238Z" fill="#B56824"/>
<path d="M26.1286 7.94816C26.1286 8.30953 26.1286 8.67089 26.1286 9.03226C26.1286 9.52988 26.1704 10.1657 25.5213 10.1835C24.8364 10.2032 24.1993 9.8399 24.1555 9.03818C24.1037 8.06664 24.1196 7.08721 24.1634 6.1137C24.1913 5.5055 24.707 5.58054 25.137 5.55092C25.6866 5.5134 26.0629 5.70494 26.1027 6.27759C26.1405 6.83248 26.1107 7.39328 26.1107 7.95014C26.1166 7.95014 26.1226 7.95014 26.1286 7.95014V7.94816Z" fill="#B56722"/>
<path d="M53.014 44.8329C53.014 44.8645 53.0121 44.8981 53.0101 44.9297C52.9875 46.5924 52.1227 47.4178 50.4157 47.4059C50.4117 47.3408 50.4078 47.2756 50.4058 47.2085C50.3766 45.5721 49.5158 44.7868 47.8234 44.8527C47.8234 44.4281 47.8214 44.0055 47.8194 43.581C47.8174 42.2343 47.8831 42.0881 49.235 42.1178C50.2126 42.1395 50.5332 41.8058 50.4177 40.8836C50.362 40.4334 50.4137 39.9713 50.4177 39.5151C51.2759 39.5151 52.134 39.5151 52.9941 39.5151L53.014 44.8329Z" fill="#E98926"/>
<path d="M33.4935 13.8447C33.4676 13.5959 33.5234 13.2662 33.1212 13.3076C32.8066 13.3412 32.6931 13.5801 32.7449 13.8763C32.7767 14.0659 32.8444 14.2495 32.8962 14.4371C32.1973 14.3048 31.9226 14.0422 32.3108 13.2859C32.5697 12.7824 32.5637 12.1465 32.4721 11.564C32.4124 11.173 32.4482 10.8788 32.9101 10.8985C33.3024 10.9163 33.9236 10.6517 34.0192 11.2046C34.1526 11.9668 34.0789 12.7685 34.045 13.5525C34.0331 13.8408 33.7245 13.827 33.4935 13.8447Z" fill="#B56822"/>
<path d="M32.4327 15.5647C32.152 15.5548 32.1161 15.3613 32.1122 15.1579C32.1102 15.0019 32.0863 14.7965 32.2933 14.759C32.5442 14.7116 32.6318 14.9111 32.6657 15.1105C32.6995 15.3139 32.6776 15.5054 32.4307 15.5647H32.4327Z" fill="#B76826"/>
<path d="M45.0455 71.1039C44.8165 71.1039 44.5876 71.096 44.3606 71.1039C42.2302 71.171 42.4352 70.6379 42.4432 73.0845C42.4432 73.278 42.4551 73.4735 42.4611 73.667C40.9698 73.667 39.4785 73.6907 37.9872 73.6552C37.3202 73.6394 37.0494 73.823 37.0514 74.5379C37.0554 76.242 37.0196 76.242 35.3033 76.242C33.5472 76.242 31.791 76.2183 30.0349 76.2499C29.3639 76.2617 29.0195 76.0702 29.121 75.3593C29.135 75.2626 29.127 75.1618 29.127 75.0631C29.1283 74.139 29.5889 73.6756 30.5088 73.6729C31.8289 73.671 31.9424 73.6177 31.8727 72.267C31.8229 71.2875 32.1833 70.9578 33.1151 71.0921C33.3739 71.1296 33.6447 71.096 33.9095 71.094C34.5487 71.0881 34.5467 70.7741 34.2819 70.3318C34.9051 70.0119 35.4207 69.5874 35.6855 68.9179C35.6816 68.8528 35.6776 68.7856 35.6736 68.7205C35.809 68.4164 36.1096 68.1458 35.8807 67.7647C36.2749 67.2849 36.8483 67.4922 37.3401 67.3856C37.5571 67.3382 37.8359 67.3362 37.7941 67.0065C37.7622 66.7616 37.5293 66.7557 37.3421 66.7182C36.8145 66.6135 36.2112 66.8327 35.7732 66.3528C36.5815 66.0033 37.4417 66.3173 38.266 66.1574C38.3914 66.0527 38.5188 65.8513 38.6403 65.8552C39.8389 65.9026 39.9763 65.1799 39.8548 64.2597C39.7453 63.4205 40.3108 63.2763 40.9459 63.2131C42.4432 63.0611 42.495 63.063 42.4452 61.663C42.4153 60.8198 42.718 60.5967 43.5243 60.6243C44.936 60.6717 44.9579 60.6283 45.0475 59.1749C45.1013 58.308 45.4835 58.002 46.3715 58.0395C47.6379 58.0928 47.7693 57.8677 47.841 56.6394C47.8688 56.1734 47.4607 55.4527 48.3885 55.3144C49.6906 55.1209 50.051 55.2927 50.4034 56.3018C50.4094 58.6042 50.4174 60.9067 50.4234 63.2092C49.5732 63.2704 48.506 62.8597 47.9325 63.4007C47.4049 63.8983 47.8828 64.939 47.8031 65.7367C47.7414 66.3548 47.6319 66.9788 47.6797 67.591C47.7474 68.4539 47.3073 68.5941 46.6065 68.521C46.3775 68.4973 46.1426 68.5388 45.9136 68.5131C45.2844 68.446 44.9937 68.6751 45.0415 69.3366C45.0833 69.923 45.0495 70.5154 45.0475 71.1059L45.0455 71.1039Z" fill="#E98A24"/>
<path d="M38.4828 52.7436C39.4385 52.8898 39.8268 52.5086 39.6715 51.545C39.5261 50.6465 39.7113 50.2318 40.8621 50.0976C42.6799 49.8863 42.4569 50.3484 42.433 48.4053C42.4231 47.6253 42.66 47.3034 43.4445 47.4061C43.6735 47.4357 43.9104 47.3863 44.1394 47.414C44.8343 47.4969 45.1349 47.2106 45.0413 46.5214C45.0373 46.4898 45.0413 46.4563 45.0413 46.4227C45.0652 44.9299 45.782 44.4322 47.2434 44.8607C47.6456 44.9792 47.6277 45.2616 47.6277 45.5539C47.6337 47.6806 47.6217 49.8093 47.6456 51.936C47.6516 52.5205 47.4625 52.8108 46.8472 52.7397C46.7497 52.7278 46.6481 52.7397 46.5486 52.7397C44.882 52.7476 45.0015 52.6034 45.0592 54.2148C45.0911 55.0797 44.8363 55.368 43.9462 55.3324C42.451 55.2732 42.3733 55.3324 42.4689 56.7581C42.5406 57.8323 42.0129 58.1463 41.1289 58.0456C40.0338 57.9212 39.7013 58.3813 39.8447 59.3765C39.8765 59.6017 39.8526 59.8366 39.8347 60.0657C39.7969 60.5376 39.4783 60.6344 39.0682 60.6364C38.654 60.6403 38.5047 60.4587 38.4569 60.0499C38.2697 58.4484 38.2558 58.4484 36.5774 58.4524C36.3444 58.4524 36.1134 58.4603 35.8805 58.4642C35.4962 57.4888 35.7272 56.4797 35.7471 55.4884C35.753 55.2357 35.8128 54.9809 35.759 54.7222C36.0159 54.4004 36.3922 54.3727 36.7426 54.4063C37.5331 54.4813 37.9731 54.1555 38.1005 53.3893C38.3096 53.2235 38.3315 52.947 38.4808 52.7456L38.4828 52.7436Z" fill="#E98A25"/>
<path d="M36.876 45.4391C37.4753 44.8329 38.3693 44.3787 37.9372 43.2571C37.8755 43.0952 38.1224 42.9194 38.3394 42.9016C38.5126 42.8878 38.7675 42.9964 38.7117 43.1287C38.4469 43.7409 39.2075 44.3037 38.7635 44.9059C38.662 45.0442 38.642 45.2634 38.7715 45.366C39.329 45.7985 39.086 46.3613 39.0701 46.8944C39.0542 47.4138 39.1577 47.8127 39.7949 47.3802C40.0477 47.2084 40.2827 47.2459 40.5475 47.3308C40.8939 47.4434 41.0452 47.2597 41.0492 46.9339C41.0512 46.6219 41.0054 46.3494 40.6032 46.2902C39.4444 46.1223 39.1378 45.5003 39.8845 44.6117C40.3086 44.1082 40.3524 43.7823 39.8685 43.3914C39.6057 43.1781 39.3688 42.9767 39.7849 42.7279C40.1493 42.5087 40.6749 42.2066 40.876 42.7851C41.2901 43.9739 42.1543 44.2721 43.2712 44.2602C43.554 44.2563 43.8108 44.3984 43.8845 44.6769C43.9641 44.979 43.6257 45.0007 43.4664 45.1449C42.9129 45.6524 42.2897 45.3621 41.6585 45.3621C42.2777 45.7373 42.7795 46.4817 43.6794 45.8913C43.8407 45.7847 44 45.5911 44.1752 45.8182C44.2668 45.9367 44.3046 46.1263 44.3026 46.2843C44.2986 46.5331 44.0776 46.62 43.8825 46.6002C43.1498 46.5212 42.656 47.0129 42.0667 47.2894C41.6067 47.5046 41.4992 47.7396 41.7381 48.2036C41.993 48.6973 41.8317 49.185 41.2822 49.2798C40.8023 49.3628 40.5913 48.9876 40.7108 48.4979C40.7526 48.3241 40.7446 48.1582 40.5475 48.095C40.3046 48.016 40.1214 48.1898 40.0955 48.3675C39.9402 49.3746 39.1358 50.1447 39.0681 51.1775C39.0502 51.4401 39.0641 51.8193 38.7496 51.8074C38.3036 51.7916 38.4828 51.3552 38.4808 51.1025C38.4628 49.5247 38.4728 47.9489 38.4708 46.3711C38.4708 46.1105 38.5027 45.84 38.2837 45.6326C37.8416 45.3759 37.3518 45.4588 36.876 45.4391Z" fill="#F2A364"/>
<path d="M27.9229 63.397C29.0398 63.3259 29.2728 62.6426 29.1155 61.6948C28.9721 60.824 29.3524 60.5633 30.2106 60.6028C30.794 60.6304 31.5725 60.9523 31.8851 60.0538C32.2673 59.6787 32.6576 59.6945 33.0558 60.0262C33.0697 61.0037 33.0817 61.9811 33.0956 62.9566C33.1016 63.314 33.0419 63.6201 32.5819 63.6161C31.1046 63.6023 29.6272 63.5885 28.1498 63.5648C28.0742 63.5648 27.9985 63.4542 27.9229 63.395V63.397Z" fill="#E78A28"/>
<path d="M33.0554 60.0301C32.6652 60.038 32.2749 60.0479 31.8847 60.0558C31.0604 60.0459 30.2381 60.0459 29.4138 60.0242C27.9285 59.9867 27.8508 60.3856 27.9205 58.484C29.147 58.482 30.3735 58.48 31.602 58.478C32.6439 58.4767 33.1284 58.9934 33.0554 60.0281V60.0301Z" fill="#B66822"/>
<path d="M35.7715 66.3511C36.3608 66.3531 36.9522 66.3788 37.5395 66.3511C38.091 66.3255 38.2941 66.5427 38.2862 67.0916C38.2782 67.6248 38.0174 67.7551 37.5495 67.7453C36.994 67.7334 36.4365 67.7551 35.881 67.763C35.5684 67.3128 35.7117 66.829 35.7734 66.3511H35.7715Z" fill="#B56722"/>
<path d="M38.2718 53.3498C38.2758 54.2661 37.8278 54.7222 36.9279 54.7183C36.5396 54.7183 36.1494 54.7183 35.7611 54.7183C35.8607 54.2187 35.2375 53.4604 36.2808 53.3024C36.9478 53.2175 37.6128 53.1326 38.2718 53.3498Z" fill="#B56722"/>
<path d="M38.2723 53.3499C37.6093 53.3341 36.9443 53.3183 36.2812 53.3025C36.6635 53.0241 37.1036 53.1762 37.5177 53.1446C37.8402 53.1209 38.1966 53.186 38.2843 52.7378C38.3519 52.7378 38.4177 52.7417 38.4853 52.7417C38.4615 52.959 38.4714 53.19 38.2743 53.348L38.2723 53.3499Z" fill="#F2A364"/>
<path d="M18.5449 73.665C18.5469 72.8771 18.5489 72.0892 18.5529 71.2994C19.0925 70.9143 19.7097 71.1118 20.2851 71.1137C20.9083 71.1137 21.1612 70.9439 21.1711 70.2804C21.199 68.5802 21.2289 68.5881 22.977 68.521C23.435 68.5032 24.1298 68.6533 23.7296 67.7647C24.1955 67.3184 24.6654 67.3717 25.1333 67.7607C25.1891 68.1498 25.0119 68.5783 25.3245 68.9258C25.6888 69.8993 26.4614 70.0178 27.3812 69.9704C27.9766 69.9388 28.6436 69.7947 29.1373 70.3397C29.1573 70.8511 28.9801 71.1651 28.3927 71.0979C28.2294 71.0782 28.0622 71.0979 27.8969 71.0979C26.9877 71.1019 26.531 71.5403 26.5271 72.4131C26.5211 73.669 26.5211 73.6749 25.203 73.6749C22.985 73.6749 20.7669 73.669 18.5489 73.665H18.5449Z" fill="#E98924"/>
<path d="M29.1332 70.3398C28.3169 70.3299 27.4985 70.3141 26.6822 70.3101C25.7769 70.3062 25.323 69.8448 25.3203 68.9259C28.7748 68.9219 32.2293 68.92 35.6838 68.916C35.6811 69.8244 35.2132 70.2957 34.2801 70.3299C32.5638 70.3319 30.8475 70.3358 29.1332 70.3378V70.3398Z" fill="#B66620"/>
<path d="M25.131 67.761C24.6631 67.761 24.1952 67.763 23.7273 67.765C23.1977 67.7294 22.5347 67.8973 22.682 66.9573C22.7497 66.5268 22.903 66.3037 23.359 66.3471C23.4884 66.359 23.6198 66.3471 23.7512 66.3471C24.7188 66.3392 25.1794 66.8105 25.133 67.761H25.131Z" fill="#B5661F"/>
<path d="M13.1863 67.348C12.2087 68.5427 12.0713 68.5565 11.1973 67.5455C11.2032 66.882 11.5616 66.4298 12.147 66.2086C12.5114 66.0704 12.7164 65.792 12.9892 65.5708H13.1664C13.1724 66.1632 13.1804 66.7556 13.1863 67.348Z" fill="#F3B58A"/>
<path d="M39.7856 76.2323C39.3556 76.2323 38.9155 76.177 38.4954 76.2422C37.4322 76.4081 37.2251 75.9223 37.2411 74.9685C37.255 74.1293 37.4481 73.7778 38.3541 73.845C39.3755 73.92 40.4049 73.8825 41.4302 73.8548C42.0057 73.839 42.2526 74.0108 42.2685 74.6309C42.3083 76.2304 42.3382 76.2304 40.6796 76.2304C40.381 76.2304 40.0843 76.2304 39.7856 76.2304V76.2323Z" fill="#F4B589"/>
<path d="M12.9898 65.5709C12.938 65.9896 13.2307 66.5602 12.3009 66.4319C11.6956 66.3489 11.6438 67.2336 11.1958 67.5456C10.8633 67.4903 10.7976 67.2593 10.7996 66.9729C10.8036 66.1258 10.7737 65.2787 10.8155 64.4335C10.8494 63.7641 11.1739 63.3593 11.9445 63.3909C12.6971 63.4225 13.0117 63.7779 12.9898 64.4967C12.9778 64.8541 12.9898 65.2135 12.9898 65.5709Z" fill="#F4B88F"/>
<path d="M14.1907 68.7402C14.8438 68.7738 15.6362 69.5439 15.5347 70.0356C15.4232 70.5747 14.8577 70.8314 14.4973 70.7327C13.9657 70.5885 13.4043 70.2015 13.4162 69.5044C13.4242 69.0048 13.7646 68.7639 14.1907 68.7402Z" fill="#F3B58A"/>
<path d="M28.5164 26.0857C28.0524 26.3464 27.5865 26.3464 27.1226 26.0857C26.6627 24.6817 27.0689 23.2442 26.9733 21.8244C26.9414 21.3643 27.4412 21.2596 27.7916 21.3801C28.4407 21.6032 29.0539 22.0297 28.8728 22.7939C28.6119 23.8859 28.8847 25.0174 28.5164 26.0857Z" fill="#B56822"/>
<path d="M48.225 47.2955C48.225 47.0664 48.2091 46.8354 48.229 46.6063C48.2608 46.2331 48.0598 45.698 48.5316 45.5657C49.0115 45.4294 49.3938 46.0159 49.4515 46.2805C49.6108 47.0032 50.003 47.6588 50.0269 48.423C50.0588 49.4933 49.1309 49.1003 48.667 49.2524C48.1912 49.4084 48.2469 48.814 48.231 48.4763C48.2111 48.0834 48.227 47.6904 48.227 47.2955H48.225Z" fill="#F4B58C"/>
</g>
<defs>
<clipPath id="clip0_2082_4963">
<rect width="61" height="87" fill="white"/>
</clipPath>
</defs>
</svg>
