<svg width="238" height="194" viewBox="0 0 238 194" fill="none" xmlns="http://www.w3.org/2000/svg">
<g clip-path="url(#clip0_2314_4378)">
<path d="M61.3104 43.834H52.5547V52.6016H61.3104V43.834Z" fill="#B9D2FF"/>
<path d="M61.3104 26.2891H52.5547V35.0566H61.3104V26.2891Z" fill="#B9D2FF"/>
<path d="M61.3104 52.6016H52.5547V61.3691H61.3104V52.6016Z" fill="#B9D2FF"/>
<path d="M61.3104 61.3799H52.5547V70.1475H61.3104V61.3799Z" fill="#B9D2FF"/>
<path d="M61.3104 70.1475H52.5547V78.915H61.3104V70.1475Z" fill="#B9D2FF"/>
<path d="M61.3104 78.9248H52.5547V87.6924H61.3104V78.9248Z" fill="#B9D2FF"/>
<path d="M52.5545 61.3799H43.7988V70.1475H52.5545V61.3799Z" fill="#B9D2FF"/>
<path d="M52.5545 70.1475H43.7988V78.915H52.5545V70.1475Z" fill="#B9D2FF"/>
<path d="M43.7986 70.1475H35.043V78.915H43.7986V70.1475Z" fill="#B9D2FF"/>
<path d="M43.7986 87.6924H35.043V96.46H43.7986V87.6924Z" fill="#B9D2FF"/>
<path d="M43.7986 52.6016H35.043V61.3691H43.7986V52.6016Z" fill="#B9D2FF"/>
<path d="M35.033 70.1475H26.2773V78.915H35.033V70.1475Z" fill="#B9D2FF"/>
<path d="M26.2772 70.1475H17.5215V78.915H26.2772V70.1475Z" fill="#B9D2FF"/>
<path d="M8.75568 70.1475H0V78.915H8.75568V70.1475Z" fill="#B9D2FF"/>
<path d="M52.5545 78.9248H43.7988V87.6924H52.5545V78.9248Z" fill="#B9D2FF"/>
<path d="M70.076 61.3799H61.3203V70.1475H70.076V61.3799Z" fill="#B9D2FF"/>
<path d="M70.076 70.1475H61.3203V78.915H70.076V70.1475Z" fill="#B9D2FF"/>
<path d="M78.8319 70.1475H70.0762V78.915H78.8319V70.1475Z" fill="#B9D2FF"/>
<path d="M78.8319 87.6924H70.0762V96.46H78.8319V87.6924Z" fill="#B9D2FF"/>
<path d="M78.8319 52.6016H70.0762V61.3691H78.8319V52.6016Z" fill="#B9D2FF"/>
<path d="M87.5985 70.1475H78.8428V78.915H87.5985V70.1475Z" fill="#B9D2FF"/>
<path d="M96.3533 70.1475H87.5977V78.915H96.3533V70.1475Z" fill="#B9D2FF"/>
<path d="M113.876 70.1475H105.12V78.915H113.876V70.1475Z" fill="#B9D2FF"/>
<path d="M70.076 78.9248H61.3203V87.6924H70.076V78.9248Z" fill="#B9D2FF"/>
<path d="M61.3104 87.6924H52.5547V96.46H61.3104V87.6924Z" fill="#B9D2FF"/>
<path d="M61.3104 96.46H52.5547V105.228H61.3104V96.46Z" fill="#B9D2FF"/>
<path d="M61.3104 114.006H52.5547V122.773H61.3104V114.006Z" fill="#B9D2FF"/>
<path d="M193.027 94.7793H184.271V103.547H193.027V94.7793Z" fill="#B9D2FF"/>
<path d="M193.027 77.2334H184.271V86.001H193.027V77.2334Z" fill="#B9D2FF"/>
<path d="M193.027 103.557H184.271V112.324H193.027V103.557Z" fill="#B9D2FF"/>
<path d="M193.027 112.324H184.271V121.092H193.027V112.324Z" fill="#B9D2FF"/>
<path d="M193.027 121.092H184.271V129.859H193.027V121.092Z" fill="#EFF6FC"/>
<path d="M193.027 129.87H184.271V138.638H193.027V129.87Z" fill="#B9D2FF"/>
<path d="M184.261 112.324H175.505V121.092H184.261V112.324Z" fill="#B9D2FF"/>
<path d="M184.261 121.092H175.505V129.859H184.261V121.092Z" fill="#B9D2FF"/>
<path d="M175.505 121.092H166.749V129.859H175.505V121.092Z" fill="#B9D2FF"/>
<path d="M158.427 0.96582H149.671V9.73339H158.427V0.96582Z" fill="#EFF6FC"/>
<path d="M158.427 44.8242H149.671V53.5918H158.427V44.8242Z" fill="#EFF6FC"/>
<path d="M167.192 0.96582H158.437V9.73339H167.192V0.96582Z" fill="#EFF6FC"/>
<path d="M149.671 9.7334H140.915V18.501H149.671V9.7334Z" fill="#EFF6FC"/>
<path d="M149.671 36.0566H140.915V44.8242H149.671V36.0566Z" fill="#EFF6FC"/>
<path d="M175.948 9.7334H167.192V18.501H175.948V9.7334Z" fill="#EFF6FC"/>
<path d="M140.905 18.5117H132.149V27.2793H140.905V18.5117Z" fill="#EFF6FC"/>
<path d="M140.905 27.2793H132.149V36.0469H140.905V27.2793Z" fill="#EFF6FC"/>
<path d="M184.704 18.5117H175.948V27.2793H184.704V18.5117Z" fill="#EFF6FC"/>
<path d="M184.704 27.2793H175.948V36.0469H184.704V27.2793Z" fill="#EFF6FC"/>
<path d="M175.948 36.0566H167.192V44.8242H175.948V36.0566Z" fill="#EFF6FC"/>
<path d="M167.192 44.8242H158.437V53.5918H167.192V44.8242Z" fill="#EFF6FC"/>
<path d="M175.505 138.638H166.749V147.405H175.505V138.638Z" fill="#B9D2FF"/>
<path d="M175.505 103.557H166.749V112.324H175.505V103.557Z" fill="#B9D2FF"/>
<path d="M103.884 176.42H95.1279V185.187H103.884V176.42Z" fill="#EFF6FC"/>
<path d="M86.3621 176.42H77.6064V185.187H86.3621V176.42Z" fill="#EFF6FC"/>
<path d="M95.1278 185.198H86.3721V193.966H95.1278V185.198Z" fill="#EFF6FC"/>
<path d="M95.1278 167.652H86.3721V176.42H95.1278V167.652Z" fill="#EFF6FC"/>
<path d="M166.739 121.092H157.983V129.859H166.739V121.092Z" fill="#B9D2FF"/>
<path d="M149.227 121.092H140.472V129.859H149.227V121.092Z" fill="#B9D2FF"/>
<path d="M184.261 129.87H175.505V138.638H184.261V129.87Z" fill="#B9D2FF"/>
<path d="M201.782 112.324H193.026V121.092H201.782V112.324Z" fill="#B9D2FF"/>
<path d="M201.782 121.092H193.026V129.859H201.782V121.092Z" fill="#B9D2FF"/>
<path d="M210.538 121.092H201.782V129.859H210.538V121.092Z" fill="#B9D2FF"/>
<path d="M210.538 138.638H201.782V147.405H210.538V138.638Z" fill="#B9D2FF"/>
<path d="M210.538 103.557H201.782V112.324H210.538V103.557Z" fill="#B9D2FF"/>
<path d="M238 63.3701H229.244V72.1377H238V63.3701Z" fill="#B9D2FF"/>
<path d="M219.305 121.092H210.549V129.859H219.305V121.092Z" fill="#B9D2FF"/>
<path d="M236.826 121.092H228.07V129.859H236.826V121.092Z" fill="#B9D2FF"/>
<path d="M201.782 129.87H193.026V138.638H201.782V129.87Z" fill="#B9D2FF"/>
<path d="M193.027 138.638H184.271V147.405H193.027V138.638Z" fill="#B9D2FF"/>
<path d="M193.027 147.415H184.271V156.183H193.027V147.415Z" fill="#B9D2FF"/>
<path d="M193.027 164.95H184.271V173.718H193.027V164.95Z" fill="#B9D2FF"/>
</g>
<defs>
<clipPath id="clip0_2314_4378">
<rect width="238" height="193" fill="white" transform="translate(0 0.96582)"/>
</clipPath>
</defs>
</svg>
