<svg width="155" height="32" viewBox="0 0 155 32" fill="none" xmlns="http://www.w3.org/2000/svg">
<path d="M12.9277 0H19.3916V6.4H12.9277V0ZM6.46386 0H12.9277V6.4H6.46386V0ZM0 6.4H6.46386V12.8H0V6.4ZM0 12.8H6.46386V19.2H0V12.8ZM6.46386 12.8H12.9277V19.2H6.46386V12.8ZM12.9277 12.8H19.3916V19.2H12.9277V12.8ZM12.9277 19.2H19.3916V25.6H12.9277V19.2ZM12.9277 25.6H19.3916V32H12.9277V25.6ZM6.46386 25.6H12.9277V32H6.46386V25.6ZM0 25.6H6.46386V32H0V25.6ZM0 0H6.46386V6.4H0V0Z" fill="white"/>
<path d="M25.8302 0H32.294V6.4H25.8302V0ZM25.8302 6.4H32.294V12.8H25.8302V6.4ZM25.8302 12.8H32.294V19.2H25.8302V12.8ZM25.8302 19.2H32.294V25.6H25.8302V19.2ZM25.8302 25.6H32.294V32H25.8302V25.6ZM32.294 0H38.7579V6.4H32.294V0ZM38.7579 0H45.2217V6.4H38.7579V0ZM38.7579 6.4H45.2217V12.8H38.7579V6.4ZM38.7579 12.8H45.2217V19.2H38.7579V12.8ZM32.294 12.8H38.7579V19.2H32.294V12.8Z" fill="white"/>
<path d="M71.033 25.6H77.4968V32H71.033V25.6ZM71.033 19.2H77.4968V25.6H71.033V19.2ZM71.033 12.8H77.4968V19.2H71.033V12.8ZM71.033 6.4H77.4968V12.8H71.033V6.4ZM71.033 0H77.4968V6.4H71.033V0ZM77.4968 12.8H83.9607V19.2H77.4968V12.8ZM83.9607 0H90.4246V6.4H83.9607V0ZM83.9607 6.4H90.4246V12.8H83.9607V6.4ZM83.9607 12.8H90.4246V19.2H83.9607V12.8ZM83.9607 19.2H90.4246V25.6H83.9607V19.2ZM83.9607 25.6H90.4246V32H83.9607V25.6Z" fill="white"/>
<path d="M96.8632 0H103.327V6.4H96.8632V0ZM96.8632 6.4H103.327V12.8H96.8632V6.4ZM96.8632 12.8H103.327V19.2H96.8632V12.8ZM96.8632 19.2H103.327V25.6H96.8632V19.2ZM96.8632 25.6H103.327V32H96.8632V25.6Z" fill="white"/>
<path d="M109.778 0H116.242V6.4H109.778V0ZM109.778 6.4H116.242V12.8H109.778V6.4ZM109.778 12.8H116.242V19.2H109.778V12.8ZM109.778 19.2H116.242V25.6H109.778V19.2ZM116.242 25.6H122.706V32H116.242V25.6ZM122.706 19.2H129.17V25.6H122.706V19.2ZM122.706 12.8H129.17V19.2H122.706V12.8ZM122.706 6.4H129.17V12.8H122.706V6.4ZM122.706 0H129.17V6.4H122.706V0Z" fill="white"/>
<path d="M135.608 0H142.072V6.4H135.608V0ZM135.608 6.4H142.072V12.8H135.608V6.4ZM135.608 12.8H142.072V19.2H135.608V12.8ZM135.608 19.2H142.072V25.6H135.608V19.2ZM135.608 25.6H142.072V32H135.608V25.6ZM142.072 0H148.536V6.4H142.072V0ZM142.072 25.6H148.536V32H142.072V25.6ZM142.072 12.8H148.536V19.2H142.072V12.8ZM148.536 0H155V6.4H148.536V0ZM148.536 25.6H155V32H148.536V25.6Z" fill="white"/>
</svg>
