<svg width="32" height="32" viewBox="0 0 32 32" fill="none" xmlns="http://www.w3.org/2000/svg">
<g clip-path="url(#clip0_2022_1524)">
<path d="M32 7.62H30.48V9.14H32V7.62Z" fill="#6295F5"/>
<path d="M27.4301 15.24V16.76H24.3901V18.29H27.4301V27.43H21.3401V28.95H27.4301V30.48H32.0001V15.24H27.4301Z" fill="#6295F5"/>
<path d="M30.48 9.14H28.96V10.67H30.48V9.14Z" fill="#6295F5"/>
<path d="M28.9599 7.62H27.4299V9.14H28.9599V7.62Z" fill="#6295F5"/>
<path d="M27.4299 9.14H25.9099V10.67H27.4299V9.14Z" fill="#6295F5"/>
<path d="M27.4299 1.53H25.9099V3.05H27.4299V1.53Z" fill="#6295F5"/>
<path d="M25.9099 7.62H24.3899V9.14H25.9099V7.62Z" fill="#6295F5"/>
<path d="M24.3901 15.24H22.8601V16.76H24.3901V15.24Z" fill="#6295F5"/>
<path d="M22.8601 13.72H21.3401V15.24H22.8601V13.72Z" fill="#6295F5"/>
<path d="M21.34 22.86H19.81V25.91H16.77V28.95H18.29V27.43H21.34V22.86Z" fill="#6295F5"/>
<path d="M19.81 21.34H18.29V22.86H19.81V21.34Z" fill="#6295F5"/>
<path d="M19.81 3.05H18.29V4.57H19.81V3.05Z" fill="#6295F5"/>
<path d="M18.29 19.81H16.77V21.34H18.29V19.81Z" fill="#6295F5"/>
<path d="M18.29 16.76H16.77V18.29H18.29V16.76Z" fill="#6295F5"/>
<path d="M21.34 12.19H15.24V13.72H21.34V12.19Z" fill="#6295F5"/>
<path d="M18.29 4.57001H16.77V6.10001H18.29V4.57001Z" fill="#6295F5"/>
<path d="M18.29 1.53H16.77V3.05H18.29V1.53Z" fill="#6295F5"/>
<path d="M16.77 24.38H15.24V25.91H16.77V24.38Z" fill="#6295F5"/>
<path d="M16.77 18.29H15.24V19.81H16.77V18.29Z" fill="#6295F5"/>
<path d="M16.77 3.05H15.24V4.57H16.77V3.05Z" fill="#6295F5"/>
<path d="M13.7199 30.48H9.1499V32H15.2399V30.48H16.7699V28.95H13.7199V30.48Z" fill="#6295F5"/>
<path d="M15.24 13.72H13.72V15.24H15.24V13.72Z" fill="#6295F5"/>
<path d="M13.7199 27.43H12.1899V28.95H13.7199V27.43Z" fill="#6295F5"/>
<path d="M15.2399 19.81H12.1899V21.34H15.2399V19.81Z" fill="#6295F5"/>
<path d="M13.7199 15.24H12.1899V16.76H13.7199V15.24Z" fill="#6295F5"/>
<path d="M13.7199 12.19H10.6699V13.72H13.7199V12.19Z" fill="#6295F5"/>
<path d="M12.1899 25.91H10.6699V27.43H12.1899V25.91Z" fill="#6295F5"/>
<path d="M12.1899 16.76H10.6699V19.81H12.1899V16.76Z" fill="#6295F5"/>
<path d="M12.1899 6.10001H10.6699V7.62001H12.1899V6.10001Z" fill="#6295F5"/>
<path d="M10.6699 13.72H9.1499V15.24H10.6699V13.72Z" fill="#6295F5"/>
<path d="M9.15012 28.95H7.62012V30.48H9.15012V28.95Z" fill="#6295F5"/>
<path d="M9.15012 15.24H7.62012V16.76H9.15012V15.24Z" fill="#6295F5"/>
<path d="M4.58 27.43V18.29H7.62V16.76H4.58V15.24H0V30.48H4.58V28.95H7.62V27.43H4.58Z" fill="#6295F5"/>
<path d="M7.6201 0H6.1001V1.53H7.6201V0Z" fill="#6295F5"/>
<path d="M4.58003 12.19V10.67H6.10003V9.14H4.58003V7.62H3.05003V9.14H1.53003V10.67H3.05003V12.19H4.58003Z" fill="#6295F5"/>
</g>
<defs>
<clipPath id="clip0_2022_1524">
<rect width="32" height="32" fill="white"/>
</clipPath>
</defs>
</svg>
