<svg width="32" height="32" viewBox="0 0 32 32" fill="none" xmlns="http://www.w3.org/2000/svg">
<g clip-path="url(#clip0_2123_4036)">
<path d="M18.28 3.05V1.52H16.76V3.05H15.24V1.52H13.71V3.05H0V4.57H1.52V6.1H3.05V21.33H4.57V6.1H27.43V21.33H28.95V6.1H30.47V4.57H32V3.05H18.28Z" fill="#6295F5"/>
<path d="M27.4299 21.33H25.8999V22.86H27.4299V21.33Z" fill="#6295F5"/>
<path d="M6.09009 22.86V24.38H15.2401V28.95H16.7601V24.38H25.9001V22.86H6.09009Z" fill="#6295F5"/>
<path d="M9.14012 18.29V16.76H10.6601V15.24H9.14012V7.62H7.62012V19.81H24.3801V18.29H9.14012Z" fill="#6295F5"/>
<path d="M22.8601 9.14H21.3301V10.67H22.8601V9.14Z" fill="#6295F5"/>
<path d="M21.3301 10.67H19.8101V12.19H21.3301V10.67Z" fill="#6295F5"/>
<path d="M19.81 12.19H18.28V13.72H19.81V12.19Z" fill="#6295F5"/>
<path d="M18.28 28.95H16.76V30.48H18.28V28.95Z" fill="#6295F5"/>
<path d="M18.28 13.72H16.76V15.24H18.28V13.72Z" fill="#6295F5"/>
<path d="M16.76 30.48H15.24V32H16.76V30.48Z" fill="#6295F5"/>
<path d="M16.76 15.24H15.24V16.76H16.76V15.24Z" fill="#6295F5"/>
<path d="M16.76 0H15.24V1.52H16.76V0Z" fill="#6295F5"/>
<path d="M15.24 28.95H13.71V30.48H15.24V28.95Z" fill="#6295F5"/>
<path d="M15.24 13.72H13.71V15.24H15.24V13.72Z" fill="#6295F5"/>
<path d="M13.7099 12.19H12.1899V13.72H13.7099V12.19Z" fill="#6295F5"/>
<path d="M12.1899 13.72H10.6599V15.24H12.1899V13.72Z" fill="#6295F5"/>
<path d="M6.09007 21.33H4.57007V22.86H6.09007V21.33Z" fill="#6295F5"/>
</g>
<defs>
<clipPath id="clip0_2123_4036">
<rect width="32" height="32" fill="white"/>
</clipPath>
</defs>
</svg>
