<svg width="32" height="32" viewBox="0 0 32 32" fill="none" xmlns="http://www.w3.org/2000/svg">
<path d="M30.4748 15.245H28.9548V16.765H30.4748V15.245Z" fill="#6295F5"/>
<path d="M28.9548 16.765H27.4248V18.285H28.9548V16.765Z" fill="#6295F5"/>
<path d="M28.9548 13.715H27.4248V15.245H28.9548V13.715Z" fill="#6295F5"/>
<path d="M27.4248 18.285H25.9048V19.815H27.4248V18.285Z" fill="#6295F5"/>
<path d="M27.4248 12.195H25.9048V13.715H27.4248V12.195Z" fill="#6295F5"/>
<path d="M24.3849 24.385H19.8049V25.905H25.9049V19.815H24.3849V24.385Z" fill="#6295F5"/>
<path d="M15.235 16.765H13.715V15.245H12.185V13.715H10.665V15.245H9.14502V16.765H10.665V18.285H12.185V19.815H13.715V21.335H15.235V19.815H16.765V18.285H18.285V16.765H19.805V15.245H21.335V13.715H22.855V12.195H21.335V10.665H19.805V12.195H18.285V13.715H16.765V15.245H15.235V16.765Z" fill="#6295F5"/>
<path d="M24.3849 7.625V12.195H25.9049V6.095H19.8049V7.625H24.3849Z" fill="#6295F5"/>
<path d="M19.8049 25.905H18.2849V27.435H19.8049V25.905Z" fill="#6295F5"/>
<path d="M19.8049 4.575H18.2849V6.095H19.8049V4.575Z" fill="#6295F5"/>
<path d="M18.2849 27.435H16.7649V28.955H18.2849V27.435Z" fill="#6295F5"/>
<path d="M18.2849 3.05499H16.7649V4.57499H18.2849V3.05499Z" fill="#6295F5"/>
<path d="M16.7649 28.955H15.2349V30.475H16.7649V28.955Z" fill="#6295F5"/>
<path d="M16.7649 1.52499H15.2349V3.05499H16.7649V1.52499Z" fill="#6295F5"/>
<path d="M15.2348 27.435H13.7148V28.955H15.2348V27.435Z" fill="#6295F5"/>
<path d="M15.2348 3.05499H13.7148V4.57499H15.2348V3.05499Z" fill="#6295F5"/>
<path d="M13.7148 25.905H12.1848V27.435H13.7148V25.905Z" fill="#6295F5"/>
<path d="M13.7148 4.575H12.1848V6.095H13.7148V4.575Z" fill="#6295F5"/>
<path d="M7.61497 24.385V19.815H6.09497V25.905H12.185V24.385H7.61497Z" fill="#6295F5"/>
<path d="M7.61497 7.625H12.185V6.095H6.09497V12.195H7.61497V7.625Z" fill="#6295F5"/>
<path d="M6.09495 18.285H4.57495V19.815H6.09495V18.285Z" fill="#6295F5"/>
<path d="M6.09495 12.195H4.57495V13.715H6.09495V12.195Z" fill="#6295F5"/>
<path d="M4.57492 16.765H3.04492V18.285H4.57492V16.765Z" fill="#6295F5"/>
<path d="M4.57492 13.715H3.04492V15.245H4.57492V13.715Z" fill="#6295F5"/>
<path d="M3.0449 15.245H1.5249V16.765H3.0449V15.245Z" fill="#6295F5"/>
</svg>
