<svg width="32" height="32" viewBox="0 0 32 32" fill="none" xmlns="http://www.w3.org/2000/svg">
<g clip-path="url(#clip0_2022_1526)">
<path d="M28.1899 9.14V10.67H26.6699V12.19H28.1899V13.72H29.7099V12.19H31.2399V10.67H29.7099V9.14H28.1899Z" fill="#6295F5"/>
<path d="M29.7099 25.91H28.1899V27.43H29.7099V25.91Z" fill="#6295F5"/>
<path d="M25.1401 24.38H23.6201V25.91H25.1401V27.43H26.6701V19.81H25.1401V24.38Z" fill="#6295F5"/>
<path d="M26.6699 4.57001H25.1399V6.10001H26.6699V4.57001Z" fill="#6295F5"/>
<path d="M25.1401 18.29H23.6201V19.81H25.1401V18.29Z" fill="#6295F5"/>
<path d="M20.5701 4.57V3.05H19.0501V1.52H17.5201V0H12.9501V1.52H11.4301V3.05H9.90011V4.57H8.38011V16.76H6.86011V18.29H8.38011V22.86H6.86011V24.38H9.90011V7.62H20.5701V24.38H23.6201V22.86H22.1001V18.29H23.6201V16.76H22.1001V4.57H20.5701Z" fill="#6295F5"/>
<path d="M19.05 27.43H17.52V30.48H19.05V27.43Z" fill="#6295F5"/>
<path d="M20.5699 24.38H9.8999V25.91H20.5699V24.38Z" fill="#6295F5"/>
<path d="M17.52 18.29H16V19.81H17.52V18.29Z" fill="#6295F5"/>
<path d="M17.52 10.67H16V12.19H17.52V10.67Z" fill="#6295F5"/>
<path d="M16 27.43H14.48V32H16V27.43Z" fill="#6295F5"/>
<path d="M16 19.81H14.48V21.33H16V19.81Z" fill="#6295F5"/>
<path d="M16 16.76H14.48V18.29H16V16.76Z" fill="#6295F5"/>
<path d="M16 12.19H14.48V13.72H16V12.19Z" fill="#6295F5"/>
<path d="M16 9.14H14.48V10.67H16V9.14Z" fill="#6295F5"/>
<path d="M14.48 18.29H12.95V19.81H14.48V18.29Z" fill="#6295F5"/>
<path d="M14.48 10.67H12.95V12.19H14.48V10.67Z" fill="#6295F5"/>
<path d="M12.9499 27.43H11.4299V30.48H12.9499V27.43Z" fill="#6295F5"/>
<path d="M6.86008 18.29H5.33008V19.81H6.86008V18.29Z" fill="#6295F5"/>
<path d="M5.33006 19.81H3.81006V27.43H5.33006V25.91H6.86006V24.38H5.33006V19.81Z" fill="#6295F5"/>
<path d="M5.33006 4.57001H3.81006V6.10001H5.33006V4.57001Z" fill="#6295F5"/>
<path d="M3.81004 12.19H2.29004V13.72H3.81004V12.19Z" fill="#6295F5"/>
<path d="M3.81004 6.10001H2.29004V7.62001H3.81004V6.10001Z" fill="#6295F5"/>
<path d="M3.81004 3.05H2.29004V4.57H3.81004V3.05Z" fill="#6295F5"/>
<path d="M2.29001 28.95H0.76001V30.48H2.29001V28.95Z" fill="#6295F5"/>
<path d="M2.29001 4.57001H0.76001V6.10001H2.29001V4.57001Z" fill="#6295F5"/>
</g>
<defs>
<clipPath id="clip0_2022_1526">
<rect width="32" height="32" fill="white"/>
</clipPath>
</defs>
</svg>
