<svg width="32" height="32" viewBox="0 0 32 32" fill="none" xmlns="http://www.w3.org/2000/svg">
<g clip-path="url(#clip0_2115_8307)">
<path d="M31.24 3.81H29.71V28.19H31.24V3.81Z" fill="white"/>
<path d="M29.7099 28.19H28.1899V29.71H29.7099V28.19Z" fill="white"/>
<path d="M29.7099 2.28H28.1899V3.81H29.7099V2.28Z" fill="white"/>
<path d="M28.1901 29.71H3.81006V31.24H28.1901V29.71Z" fill="white"/>
<path d="M28.1901 0.76001H3.81006V2.28001H28.1901V0.76001Z" fill="white"/>
<path d="M3.81004 28.19H2.29004V29.71H3.81004V28.19Z" fill="white"/>
<path d="M3.81004 2.28H2.29004V3.81H3.81004V2.28Z" fill="white"/>
<path d="M2.29001 3.81H0.76001V28.19H2.29001V3.81Z" fill="white"/>
<path d="M8.21736 26H10.4493V23.7697H12.6667V21.5539H14.884V19.3382H17.116V21.5539H19.3333V23.7697H21.5653V26H23.7826V23.7697H26V21.5539H23.7826V19.3382H21.5653V17.1079H19.3333V14.8921H21.5653V12.6764H23.7826V10.4461H26V8.23032H23.7826V6H21.5653V8.23032H19.3333V10.4461H17.116V12.6764H14.884V10.4461H12.6667V8.23032H10.4493V6H8.21736V8.23032H6V10.4461H8.21736V12.6764H10.4493V14.8921H12.6667V17.1079H10.4493V19.3382H8.21736V21.5539H6V23.7697H8.21736V26Z" fill="white"/>
</g>
<defs>
<clipPath id="clip0_2115_8307">
<rect width="32" height="32" fill="white"/>
</clipPath>
</defs>
</svg>
