<svg width="32" height="32" viewBox="0 0 32 32" fill="none" xmlns="http://www.w3.org/2000/svg">
<g clip-path="url(#clip0_2022_1304)">
<path d="M32 15.24H30.48V25.91H32V15.24Z" fill="#6295F5"/>
<path d="M30.48 25.91H28.96V27.43H30.48V25.91Z" fill="#6295F5"/>
<path d="M30.48 13.72H28.96V15.24H30.48V13.72Z" fill="#6295F5"/>
<path d="M27.4299 30.48H25.9099V32H28.9599V27.43H27.4299V30.48Z" fill="#6295F5"/>
<path d="M25.91 12.19H19.81V10.67H18.29V12.19H15.24V13.72H28.96V12.19H27.43V7.62H25.91V12.19Z" fill="#6295F5"/>
<path d="M25.9099 28.96H24.3799V30.48H25.9099V28.96Z" fill="#6295F5"/>
<path d="M25.91 15.24H22.86V16.77H21.34V15.24H18.29V16.77H16.76V19.81H18.29V21.34H19.81V22.86H21.34V24.39H22.86V22.86H24.38V21.34H25.91V19.81H27.43V16.77H25.91V15.24Z" fill="#6295F5"/>
<path d="M25.9099 6.10001H24.3799V7.62001H25.9099V6.10001Z" fill="#6295F5"/>
<path d="M24.3801 27.43H22.8601V28.96H24.3801V27.43Z" fill="#6295F5"/>
<path d="M24.3801 4.58H22.8601V6.1H24.3801V4.58Z" fill="#6295F5"/>
<path d="M22.86 25.91H15.24V27.43H22.86V25.91Z" fill="#6295F5"/>
<path d="M22.8601 3.05H19.8101V4.58H22.8601V3.05Z" fill="#6295F5"/>
<path d="M19.81 1.53H16.76V3.05H19.81V1.53Z" fill="#6295F5"/>
<path d="M19.81 9.15001V10.67H21.34V7.62001H16.76V6.10001H15.24V9.15001H19.81Z" fill="#6295F5"/>
<path d="M15.24 24.39H13.72V25.91H15.24V24.39Z" fill="#6295F5"/>
<path d="M15.24 13.72H13.72V15.24H15.24V13.72Z" fill="#6295F5"/>
<path d="M15.24 4.58H13.72V6.1H15.24V4.58Z" fill="#6295F5"/>
<path d="M13.7201 15.24H10.6701V16.77H12.1901V22.86H7.62012V24.39H13.7201V15.24Z" fill="#6295F5"/>
<path d="M13.7199 3.05H12.1899V4.58H13.7199V3.05Z" fill="#6295F5"/>
<path d="M16.7599 0H10.6699V1.53H16.7599V0Z" fill="#6295F5"/>
<path d="M12.1899 4.58H10.6699V6.1H12.1899V4.58Z" fill="#6295F5"/>
<path d="M10.6699 16.77H9.1499V18.29H10.6699V16.77Z" fill="#6295F5"/>
<path d="M10.6701 1.53H7.62012V3.05H10.6701V1.53Z" fill="#6295F5"/>
<path d="M9.15012 18.29H7.62012V19.81H9.15012V18.29Z" fill="#6295F5"/>
<path d="M9.15012 12.19H7.62012V15.24H9.15012V12.19Z" fill="#6295F5"/>
<path d="M7.6201 15.24H6.1001V18.29H7.6201V15.24Z" fill="#6295F5"/>
<path d="M7.6201 10.67H6.1001V12.19H7.6201V10.67Z" fill="#6295F5"/>
<path d="M10.6701 9.15001V6.10001H9.15007V7.62001H4.57007V10.67H6.10007V9.15001H10.6701Z" fill="#6295F5"/>
<path d="M7.62007 3.05H4.57007V4.58H7.62007V3.05Z" fill="#6295F5"/>
<path d="M3.05 24.39V22.86H1.53V24.39H0V25.91H7.62V24.39H3.05Z" fill="#6295F5"/>
<path d="M4.57005 19.81H3.05005V22.86H4.57005V19.81Z" fill="#6295F5"/>
<path d="M4.57005 4.58H3.05005V6.1H4.57005V4.58Z" fill="#6295F5"/>
<path d="M3.05003 18.29H1.53003V19.81H3.05003V18.29Z" fill="#6295F5"/>
<path d="M3.05003 6.10001H1.53003V7.62001H3.05003V6.10001Z" fill="#6295F5"/>
<path d="M1.53 7.62H0V18.29H1.53V7.62Z" fill="#6295F5"/>
</g>
<defs>
<clipPath id="clip0_2022_1304">
<rect width="32" height="32" fill="white"/>
</clipPath>
</defs>
</svg>
