<svg width="32" height="32" viewBox="0 0 32 32" fill="none" xmlns="http://www.w3.org/2000/svg">
<g clip-path="url(#clip0_2022_1527)">
<path d="M28.96 6.1V0H13.72V1.52H7.62V3.05H3.05V13.72H1.53V16.76H0V32H32V6.1H28.96ZM7.62 30.48H1.53V21.33H7.62V30.48ZM7.62 19.81H4.58V4.57H7.62V19.81ZM9.15 3.05H13.72V4.57H10.67V19.81H9.15V3.05ZM13.72 6.1V19.81H12.2V6.1H13.72ZM15.24 30.48H9.15V21.33H15.24V30.48ZM30.48 30.48H16.77V19.81H15.24V1.52H27.43V6.1H22.86V7.62H30.48V30.48Z" fill="#6295F5"/>
<path d="M27.4299 21.33H25.9099V22.86H27.4299V21.33Z" fill="#6295F5"/>
<path d="M27.4299 18.29H25.9099V19.81H27.4299V18.29Z" fill="#6295F5"/>
<path d="M25.9101 22.86H22.8601V24.38H25.9101V22.86Z" fill="#6295F5"/>
<path d="M22.8601 21.33H21.3401V22.86H22.8601V21.33Z" fill="#6295F5"/>
<path d="M22.8601 18.29H21.3401V19.81H22.8601V18.29Z" fill="#6295F5"/>
<path d="M22.8601 7.62H21.3401V10.67H22.8601V7.62Z" fill="#6295F5"/>
<path d="M21.3401 10.67H19.8101V13.72H21.3401V10.67Z" fill="#6295F5"/>
<path d="M19.81 13.72H18.29V16.76H19.81V13.72Z" fill="#6295F5"/>
<path d="M19.81 3.05H18.29V4.57H19.81V3.05Z" fill="#6295F5"/>
<path d="M18.29 16.76H16.77V19.81H18.29V16.76Z" fill="#6295F5"/>
<path d="M13.7199 24.38H10.6699V27.43H13.7199V24.38Z" fill="#6295F5"/>
<path d="M6.10005 24.38H3.05005V27.43H6.10005V24.38Z" fill="#6295F5"/>
</g>
<defs>
<clipPath id="clip0_2022_1527">
<rect width="32" height="32" fill="white"/>
</clipPath>
</defs>
</svg>
