<svg width="1920" height="94" viewBox="0 0 1920 94" fill="none" xmlns="http://www.w3.org/2000/svg">
<g clip-path="url(#clip0_2115_6968)">
<path d="M17.0492 34.1958H8.52441V25.6597H17.0492V34.1958Z" fill="#DCE9FB"/>
<path d="M25.6 42.7319H17.0752V34.1958H25.6V42.7319Z" fill="#DCE9FB"/>
<path d="M42.6498 51.2681H34.125V42.7319H42.6498V51.2681Z" fill="#DCE9FB"/>
<path d="M8.5248 51.2681H0V42.7319H8.5248V51.2681Z" fill="#DCE9FB"/>
<path d="M8.5248 25.634H0V17.0979H8.5248V25.634Z" fill="#DCE9FB"/>
<path d="M25.6 25.634H17.0752V17.0979H25.6V25.634Z" fill="#DCE9FB"/>
<path d="M42.6498 25.634H34.125V17.0979H42.6498V25.634Z" fill="#DCE9FB"/>
<path d="M59.725 25.634H51.2002V17.0979H59.725V25.634Z" fill="#DCE9FB"/>
<path d="M76.8002 25.634H68.2754V17.0979H76.8002V25.634Z" fill="#DCE9FB"/>
<path d="M93.85 25.634H85.3252V17.0979H93.85V25.634Z" fill="#DCE9FB"/>
<path d="M110.925 25.634H102.4V17.0979H110.925V25.634Z" fill="#DCE9FB"/>
<path d="M128 25.634H119.476V17.0979H128V25.634Z" fill="#DCE9FB"/>
<path d="M145.049 25.634H136.524V17.0979H145.049V25.634Z" fill="#DCE9FB"/>
<path d="M162.124 25.634H153.6V17.0979H162.124V25.634Z" fill="#DCE9FB"/>
<path d="M179.2 25.634H170.675V17.0979H179.2V25.634Z" fill="#DCE9FB"/>
<path d="M196.249 25.634H187.725V17.0979H196.249V25.634Z" fill="#DCE9FB"/>
<path d="M213.325 25.634H204.8V17.0979H213.325V25.634Z" fill="#DCE9FB"/>
<path d="M230.4 25.634H221.875V17.0979H230.4V25.634Z" fill="#DCE9FB"/>
<path d="M247.45 25.634H238.925V17.0979H247.45V25.634Z" fill="#DCE9FB"/>
<path d="M264.525 25.634H256V17.0979H264.525V25.634Z" fill="#DCE9FB"/>
<path d="M281.6 25.634H273.075V17.0979H281.6V25.634Z" fill="#DCE9FB"/>
<path d="M298.65 25.634H290.125V17.0979H298.65V25.634Z" fill="#DCE9FB"/>
<path d="M315.725 25.634H307.2V17.0979H315.725V25.634Z" fill="#DCE9FB"/>
<path d="M332.8 25.634H324.275V17.0979H332.8V25.634Z" fill="#DCE9FB"/>
<path d="M349.85 25.634H341.325V17.0979H349.85V25.634Z" fill="#DCE9FB"/>
<path d="M366.925 25.634H358.4V17.0979H366.925V25.634Z" fill="#DCE9FB"/>
<path d="M384 25.634H375.476V17.0979H384V25.634Z" fill="#DCE9FB"/>
<path d="M401.049 25.634H392.524V17.0979H401.049V25.634Z" fill="#DCE9FB"/>
<path d="M418.124 25.634H409.6V17.0979H418.124V25.634Z" fill="#DCE9FB"/>
<path d="M435.2 25.634H426.675V17.0979H435.2V25.634Z" fill="#DCE9FB"/>
<path d="M452.249 25.634H443.725V17.0979H452.249V25.634Z" fill="#DCE9FB"/>
<path d="M469.325 25.634H460.8V17.0979H469.325V25.634Z" fill="#DCE9FB"/>
<path d="M486.4 25.634H477.875V17.0979H486.4V25.634Z" fill="#DCE9FB"/>
<path d="M503.45 25.634H494.925V17.0979H503.45V25.634Z" fill="#DCE9FB"/>
<path d="M520.525 25.634H512V17.0979H520.525V25.634Z" fill="#DCE9FB"/>
<path d="M537.6 25.634H529.075V17.0979H537.6V25.634Z" fill="#DCE9FB"/>
<path d="M554.65 25.634H546.125V17.0979H554.65V25.634Z" fill="#DCE9FB"/>
<path d="M571.725 25.634H563.2V17.0979H571.725V25.634Z" fill="#DCE9FB"/>
<path d="M588.8 25.634H580.275V17.0979H588.8V25.634Z" fill="#DCE9FB"/>
<path d="M605.85 25.634H597.325V17.0979H605.85V25.634Z" fill="#DCE9FB"/>
<path d="M622.925 25.634H614.4V17.0979H622.925V25.634Z" fill="#DCE9FB"/>
<path d="M640 25.634H631.476V17.0979H640V25.634Z" fill="#DCE9FB"/>
<path d="M657.049 25.634H648.524V17.0979H657.049V25.634Z" fill="#DCE9FB"/>
<path d="M674.124 25.634H665.6V17.0979H674.124V25.634Z" fill="#DCE9FB"/>
<path d="M691.2 25.634H682.675V17.0979H691.2V25.634Z" fill="#DCE9FB"/>
<path d="M708.249 25.634H699.725V17.0979H708.249V25.634Z" fill="#DCE9FB"/>
<path d="M725.325 25.634H716.8V17.0979H725.325V25.634Z" fill="#DCE9FB"/>
<path d="M742.4 25.634H733.875V17.0979H742.4V25.634Z" fill="#DCE9FB"/>
<path d="M759.45 25.634H750.925V17.0979H759.45V25.634Z" fill="#DCE9FB"/>
<path d="M776.525 25.634H768V17.0979H776.525V25.634Z" fill="#DCE9FB"/>
<path d="M793.6 25.634H785.075V17.0979H793.6V25.634Z" fill="#DCE9FB"/>
<path d="M810.65 25.634H802.125V17.0979H810.65V25.634Z" fill="#DCE9FB"/>
<path d="M827.725 25.634H819.2V17.0979H827.725V25.634Z" fill="#DCE9FB"/>
<path d="M844.8 25.634H836.275V17.0979H844.8V25.634Z" fill="#DCE9FB"/>
<path d="M861.85 25.634H853.325V17.0979H861.85V25.634Z" fill="#DCE9FB"/>
<path d="M878.925 25.634H870.4V17.0979H878.925V25.634Z" fill="#DCE9FB"/>
<path d="M896 25.634H887.476V17.0979H896V25.634Z" fill="#DCE9FB"/>
<path d="M913.049 25.634H904.524V17.0979H913.049V25.634Z" fill="#DCE9FB"/>
<path d="M930.124 25.634H921.6V17.0979H930.124V25.634Z" fill="#DCE9FB"/>
<path d="M947.2 25.634H938.675V17.0979H947.2V25.634Z" fill="#DCE9FB"/>
<path d="M964.249 25.634H955.725V17.0979H964.249V25.634Z" fill="#DCE9FB"/>
<path d="M981.325 25.634H972.8V17.0979H981.325V25.634Z" fill="#DCE9FB"/>
<path d="M998.4 25.634H989.875V17.0979H998.4V25.634Z" fill="#DCE9FB"/>
<path d="M1015.45 25.634H1006.92V17.0979H1015.45V25.634Z" fill="#DCE9FB"/>
<path d="M1032.52 25.634H1024V17.0979H1032.52V25.634Z" fill="#DCE9FB"/>
<path d="M1049.6 25.634H1041.08V17.0979H1049.6V25.634Z" fill="#DCE9FB"/>
<path d="M1066.65 25.634H1058.12V17.0979H1066.65V25.634Z" fill="#DCE9FB"/>
<path d="M1083.72 25.634H1075.2V17.0979H1083.72V25.634Z" fill="#DCE9FB"/>
<path d="M1100.8 25.634H1092.28V17.0979H1100.8V25.634Z" fill="#DCE9FB"/>
<path d="M1117.85 25.634H1109.32V17.0979H1117.85V25.634Z" fill="#DCE9FB"/>
<path d="M1134.93 25.634H1126.4V17.0979H1134.93V25.634Z" fill="#DCE9FB"/>
<path d="M1152 25.634H1143.48V17.0979H1152V25.634Z" fill="#DCE9FB"/>
<path d="M1169.05 25.634H1160.52V17.0979H1169.05V25.634Z" fill="#DCE9FB"/>
<path d="M1186.12 25.634H1177.6V17.0979H1186.12V25.634Z" fill="#DCE9FB"/>
<path d="M1203.2 25.634H1194.68V17.0979H1203.2V25.634Z" fill="#DCE9FB"/>
<path d="M1220.25 25.634H1211.72V17.0979H1220.25V25.634Z" fill="#DCE9FB"/>
<path d="M1237.32 25.634H1228.8V17.0979H1237.32V25.634Z" fill="#DCE9FB"/>
<path d="M1254.4 25.634H1245.88V17.0979H1254.4V25.634Z" fill="#DCE9FB"/>
<path d="M1271.45 25.634H1262.92V17.0979H1271.45V25.634Z" fill="#DCE9FB"/>
<path d="M1288.52 25.634H1280V17.0979H1288.52V25.634Z" fill="#DCE9FB"/>
<path d="M1305.6 25.634H1297.08V17.0979H1305.6V25.634Z" fill="#DCE9FB"/>
<path d="M1322.65 25.634H1314.12V17.0979H1322.65V25.634Z" fill="#DCE9FB"/>
<path d="M1339.73 25.634H1331.2V17.0979H1339.73V25.634Z" fill="#DCE9FB"/>
<path d="M1356.8 25.634H1348.28V17.0979H1356.8V25.634Z" fill="#DCE9FB"/>
<path d="M1373.85 25.634H1365.33V17.0979H1373.85V25.634Z" fill="#DCE9FB"/>
<path d="M1390.93 25.634H1382.4V17.0979H1390.93V25.634Z" fill="#DCE9FB"/>
<path d="M1408 25.634H1399.47V17.0979H1408V25.634Z" fill="#DCE9FB"/>
<path d="M1425.05 25.634H1416.52V17.0979H1425.05V25.634Z" fill="#DCE9FB"/>
<path d="M1442.12 25.634H1433.6V17.0979H1442.12V25.634Z" fill="#DCE9FB"/>
<path d="M1459.2 25.634H1450.67V17.0979H1459.2V25.634Z" fill="#DCE9FB"/>
<path d="M1476.25 25.634H1467.72V17.0979H1476.25V25.634Z" fill="#DCE9FB"/>
<path d="M1493.32 25.634H1484.8V17.0979H1493.32V25.634Z" fill="#DCE9FB"/>
<path d="M1510.4 25.634H1501.88V17.0979H1510.4V25.634Z" fill="#DCE9FB"/>
<path d="M1527.45 25.634H1518.92V17.0979H1527.45V25.634Z" fill="#DCE9FB"/>
<path d="M1544.52 25.634H1536V17.0979H1544.52V25.634Z" fill="#DCE9FB"/>
<path d="M1561.6 25.634H1553.08V17.0979H1561.6V25.634Z" fill="#DCE9FB"/>
<path d="M1578.65 25.634H1570.12V17.0979H1578.65V25.634Z" fill="#DCE9FB"/>
<path d="M1595.73 25.634H1587.2V17.0979H1595.73V25.634Z" fill="#DCE9FB"/>
<path d="M1612.8 25.634H1604.28V17.0979H1612.8V25.634Z" fill="#DCE9FB"/>
<path d="M1629.85 25.634H1621.33V17.0979H1629.85V25.634Z" fill="#DCE9FB"/>
<path d="M1646.93 25.634H1638.4V17.0979H1646.93V25.634Z" fill="#DCE9FB"/>
<path d="M1664 25.634H1655.47V17.0979H1664V25.634Z" fill="#DCE9FB"/>
<path d="M1681.05 25.634H1672.53V17.0979H1681.05V25.634Z" fill="#DCE9FB"/>
<path d="M1698.12 25.634H1689.6V17.0979H1698.12V25.634Z" fill="#DCE9FB"/>
<path d="M1715.2 25.634H1706.68V17.0979H1715.2V25.634Z" fill="#DCE9FB"/>
<path d="M1732.25 25.634H1723.72V17.0979H1732.25V25.634Z" fill="#DCE9FB"/>
<path d="M1749.32 25.634H1740.8V17.0979H1749.32V25.634Z" fill="#DCE9FB"/>
<path d="M1766.4 25.634H1757.88V17.0979H1766.4V25.634Z" fill="#DCE9FB"/>
<path d="M1783.45 25.634H1774.92V17.0979H1783.45V25.634Z" fill="#DCE9FB"/>
<path d="M1800.52 25.634H1792V17.0979H1800.52V25.634Z" fill="#DCE9FB"/>
<path d="M1817.6 25.634H1809.08V17.0979H1817.6V25.634Z" fill="#DCE9FB"/>
<path d="M1834.65 25.634H1826.12V17.0979H1834.65V25.634Z" fill="#DCE9FB"/>
<path d="M1851.73 25.634H1843.2V17.0979H1851.73V25.634Z" fill="#DCE9FB"/>
<path d="M1868.8 25.634H1860.28V17.0979H1868.8V25.634Z" fill="#DCE9FB"/>
<path d="M1885.85 25.634H1877.33V17.0979H1885.85V25.634Z" fill="#DCE9FB"/>
<path d="M1902.93 25.634H1894.4V17.0979H1902.93V25.634Z" fill="#DCE9FB"/>
<path d="M1920 25.634H1911.47V17.0979H1920V25.634Z" fill="#DCE9FB"/>
<path d="M25.6 68.366H17.0752V59.8298H25.6V68.366Z" fill="#DCE9FB"/>
<path d="M59.725 68.366H51.2002V59.8298H59.725V68.366Z" fill="#DCE9FB"/>
<path d="M93.85 68.366H85.3252V59.8298H93.85V68.366Z" fill="#DCE9FB"/>
<path d="M128 68.366H119.476V59.8298H128V68.366Z" fill="#DCE9FB"/>
<path d="M162.124 68.366H153.6V59.8298H162.124V68.366Z" fill="#DCE9FB"/>
<path d="M196.249 68.366H187.725V59.8298H196.249V68.366Z" fill="#DCE9FB"/>
<path d="M230.4 68.366H221.875V59.8298H230.4V68.366Z" fill="#DCE9FB"/>
<path d="M264.525 68.366H256V59.8298H264.525V68.366Z" fill="#DCE9FB"/>
<path d="M298.65 68.366H290.125V59.8298H298.65V68.366Z" fill="#DCE9FB"/>
<path d="M332.8 68.366H324.275V59.8298H332.8V68.366Z" fill="#DCE9FB"/>
<path d="M366.925 68.366H358.4V59.8298H366.925V68.366Z" fill="#DCE9FB"/>
<path d="M401.049 68.366H392.524V59.8298H401.049V68.366Z" fill="#DCE9FB"/>
<path d="M435.2 68.366H426.675V59.8298H435.2V68.366Z" fill="#DCE9FB"/>
<path d="M469.325 68.366H460.8V59.8298H469.325V68.366Z" fill="#DCE9FB"/>
<path d="M503.45 68.366H494.925V59.8298H503.45V68.366Z" fill="#DCE9FB"/>
<path d="M537.6 68.366H529.075V59.8298H537.6V68.366Z" fill="#DCE9FB"/>
<path d="M571.725 68.366H563.2V59.8298H571.725V68.366Z" fill="#DCE9FB"/>
<path d="M605.85 68.366H597.325V59.8298H605.85V68.366Z" fill="#DCE9FB"/>
<path d="M640 68.366H631.476V59.8298H640V68.366Z" fill="#DCE9FB"/>
<path d="M674.124 68.366H665.6V59.8298H674.124V68.366Z" fill="#DCE9FB"/>
<path d="M708.249 68.366H699.725V59.8298H708.249V68.366Z" fill="#DCE9FB"/>
<path d="M742.4 68.366H733.875V59.8298H742.4V68.366Z" fill="#DCE9FB"/>
<path d="M776.525 68.366H768V59.8298H776.525V68.366Z" fill="#DCE9FB"/>
<path d="M810.65 68.366H802.125V59.8298H810.65V68.366Z" fill="#DCE9FB"/>
<path d="M844.8 68.366H836.275V59.8298H844.8V68.366Z" fill="#DCE9FB"/>
<path d="M878.925 68.366H870.4V59.8298H878.925V68.366Z" fill="#DCE9FB"/>
<path d="M913.049 68.366H904.524V59.8298H913.049V68.366Z" fill="#DCE9FB"/>
<path d="M947.2 68.366H938.675V59.8298H947.2V68.366Z" fill="#DCE9FB"/>
<path d="M981.325 68.366H972.8V59.8298H981.325V68.366Z" fill="#DCE9FB"/>
<path d="M1015.45 68.366H1006.92V59.8298H1015.45V68.366Z" fill="#DCE9FB"/>
<path d="M1049.6 68.366H1041.08V59.8298H1049.6V68.366Z" fill="#DCE9FB"/>
<path d="M1083.72 68.366H1075.2V59.8298H1083.72V68.366Z" fill="#DCE9FB"/>
<path d="M1117.85 68.366H1109.32V59.8298H1117.85V68.366Z" fill="#DCE9FB"/>
<path d="M1152 68.366H1143.48V59.8298H1152V68.366Z" fill="#DCE9FB"/>
<path d="M1186.12 68.366H1177.6V59.8298H1186.12V68.366Z" fill="#DCE9FB"/>
<path d="M1220.25 68.366H1211.72V59.8298H1220.25V68.366Z" fill="#DCE9FB"/>
<path d="M1254.4 68.366H1245.88V59.8298H1254.4V68.366Z" fill="#DCE9FB"/>
<path d="M1288.52 68.366H1280V59.8298H1288.52V68.366Z" fill="#DCE9FB"/>
<path d="M1322.65 68.366H1314.12V59.8298H1322.65V68.366Z" fill="#DCE9FB"/>
<path d="M1356.8 68.366H1348.28V59.8298H1356.8V68.366Z" fill="#DCE9FB"/>
<path d="M1390.93 68.366H1382.4V59.8298H1390.93V68.366Z" fill="#DCE9FB"/>
<path d="M1425.05 68.366H1416.52V59.8298H1425.05V68.366Z" fill="#DCE9FB"/>
<path d="M1459.2 68.366H1450.67V59.8298H1459.2V68.366Z" fill="#DCE9FB"/>
<path d="M1493.32 68.366H1484.8V59.8298H1493.32V68.366Z" fill="#DCE9FB"/>
<path d="M1527.45 68.366H1518.92V59.8298H1527.45V68.366Z" fill="#DCE9FB"/>
<path d="M1561.6 68.366H1553.08V59.8298H1561.6V68.366Z" fill="#DCE9FB"/>
<path d="M1595.73 68.366H1587.2V59.8298H1595.73V68.366Z" fill="#DCE9FB"/>
<path d="M1629.85 68.366H1621.33V59.8298H1629.85V68.366Z" fill="#DCE9FB"/>
<path d="M1664 68.366H1655.47V59.8298H1664V68.366Z" fill="#DCE9FB"/>
<path d="M1698.12 68.366H1689.6V59.8298H1698.12V68.366Z" fill="#DCE9FB"/>
<path d="M1732.25 68.366H1723.72V59.8298H1732.25V68.366Z" fill="#DCE9FB"/>
<path d="M1766.4 68.366H1757.88V59.8298H1766.4V68.366Z" fill="#DCE9FB"/>
<path d="M1800.52 68.366H1792V59.8298H1800.52V68.366Z" fill="#DCE9FB"/>
<path d="M1834.65 68.366H1826.12V59.8298H1834.65V68.366Z" fill="#DCE9FB"/>
<path d="M1868.8 68.366H1860.28V59.8298H1868.8V68.366Z" fill="#DCE9FB"/>
<path d="M1902.93 68.366H1894.4V59.8298H1902.93V68.366Z" fill="#DCE9FB"/>
<path d="M1885.85 94H1877.33V85.4639H1885.85V94Z" fill="#DCE9FB"/>
<path d="M1851.73 94H1843.2V85.4639H1851.73V94Z" fill="#DCE9FB"/>
<path d="M1817.6 94H1809.08V85.4639H1817.6V94Z" fill="#DCE9FB"/>
<path d="M1783.45 94H1774.92V85.4639H1783.45V94Z" fill="#DCE9FB"/>
<path d="M1749.32 94H1740.8V85.4639H1749.32V94Z" fill="#DCE9FB"/>
<path d="M1715.2 94H1706.68V85.4639H1715.2V94Z" fill="#DCE9FB"/>
<path d="M1681.05 94H1672.53V85.4639H1681.05V94Z" fill="#DCE9FB"/>
<path d="M1646.93 94H1638.4V85.4639H1646.93V94Z" fill="#DCE9FB"/>
<path d="M1612.8 94H1604.28V85.4639H1612.8V94Z" fill="#DCE9FB"/>
<path d="M1578.65 94H1570.12V85.4639H1578.65V94Z" fill="#DCE9FB"/>
<path d="M1544.52 94H1536V85.4639H1544.52V94Z" fill="#DCE9FB"/>
<path d="M1510.4 94H1501.88V85.4639H1510.4V94Z" fill="#DCE9FB"/>
<path d="M1476.25 94H1467.72V85.4639H1476.25V94Z" fill="#DCE9FB"/>
<path d="M1442.12 94H1433.6V85.4639H1442.12V94Z" fill="#DCE9FB"/>
<path d="M1408 94H1399.47V85.4639H1408V94Z" fill="#DCE9FB"/>
<path d="M1373.85 94H1365.33V85.4639H1373.85V94Z" fill="#DCE9FB"/>
<path d="M1339.73 94H1331.2V85.4639H1339.73V94Z" fill="#DCE9FB"/>
<path d="M1305.6 94H1297.08V85.4639H1305.6V94Z" fill="#DCE9FB"/>
<path d="M1271.45 94H1262.92V85.4639H1271.45V94Z" fill="#DCE9FB"/>
<path d="M1237.32 94H1228.8V85.4639H1237.32V94Z" fill="#DCE9FB"/>
<path d="M1203.2 94H1194.68V85.4639H1203.2V94Z" fill="#DCE9FB"/>
<path d="M1169.05 94H1160.52V85.4639H1169.05V94Z" fill="#DCE9FB"/>
<path d="M1134.93 94H1126.4V85.4639H1134.93V94Z" fill="#DCE9FB"/>
<path d="M1100.8 94H1092.28V85.4639H1100.8V94Z" fill="#DCE9FB"/>
<path d="M1066.65 94H1058.12V85.4639H1066.65V94Z" fill="#DCE9FB"/>
<path d="M1032.52 94H1024V85.4639H1032.52V94Z" fill="#DCE9FB"/>
<path d="M998.4 94H989.875V85.4639H998.4V94Z" fill="#DCE9FB"/>
<path d="M964.249 94H955.725V85.4639H964.249V94Z" fill="#DCE9FB"/>
<path d="M930.124 94H921.6V85.4639H930.124V94Z" fill="#DCE9FB"/>
<path d="M896 94H887.476V85.4639H896V94Z" fill="#DCE9FB"/>
<path d="M861.85 94H853.325V85.4639H861.85V94Z" fill="#DCE9FB"/>
<path d="M827.725 94H819.2V85.4639H827.725V94Z" fill="#DCE9FB"/>
<path d="M793.6 94H785.075V85.4639H793.6V94Z" fill="#DCE9FB"/>
<path d="M759.45 94H750.925V85.4639H759.45V94Z" fill="#DCE9FB"/>
<path d="M725.325 94H716.8V85.4639H725.325V94Z" fill="#DCE9FB"/>
<path d="M691.2 94H682.675V85.4639H691.2V94Z" fill="#DCE9FB"/>
<path d="M657.049 94H648.524V85.4639H657.049V94Z" fill="#DCE9FB"/>
<path d="M622.925 94H614.4V85.4639H622.925V94Z" fill="#DCE9FB"/>
<path d="M588.8 94H580.275V85.4639H588.8V94Z" fill="#DCE9FB"/>
<path d="M554.65 94H546.125V85.4639H554.65V94Z" fill="#DCE9FB"/>
<path d="M520.525 94H512V85.4639H520.525V94Z" fill="#DCE9FB"/>
<path d="M486.4 94H477.875V85.4639H486.4V94Z" fill="#DCE9FB"/>
<path d="M452.249 94H443.725V85.4639H452.249V94Z" fill="#DCE9FB"/>
<path d="M418.124 94H409.6V85.4639H418.124V94Z" fill="#DCE9FB"/>
<path d="M384 94H375.476V85.4639H384V94Z" fill="#DCE9FB"/>
<path d="M349.85 94H341.325V85.4639H349.85V94Z" fill="#DCE9FB"/>
<path d="M315.725 94H307.2V85.4639H315.725V94Z" fill="#DCE9FB"/>
<path d="M281.6 94H273.075V85.4639H281.6V94Z" fill="#DCE9FB"/>
<path d="M247.45 94H238.925V85.4639H247.45V94Z" fill="#DCE9FB"/>
<path d="M213.325 94H204.8V85.4639H213.325V94Z" fill="#DCE9FB"/>
<path d="M179.2 94H170.675V85.4639H179.2V94Z" fill="#DCE9FB"/>
<path d="M145.049 94H136.524V85.4639H145.049V94Z" fill="#DCE9FB"/>
<path d="M110.925 94H102.4V85.4639H110.925V94Z" fill="#DCE9FB"/>
<path d="M76.8002 94H68.2754V85.4639H76.8002V94Z" fill="#DCE9FB"/>
<path d="M42.6498 94H34.125V85.4639H42.6498V94Z" fill="#DCE9FB"/>
<path d="M8.5248 94H0V85.4639H8.5248V94Z" fill="#DCE9FB"/>
<path d="M1920 94H1911.47V85.4639H1920V94Z" fill="#DCE9FB"/>
<path d="M76.8002 51.2681H68.2754V42.7319H76.8002V51.2681Z" fill="#DCE9FB"/>
<path d="M110.925 51.2681H102.4V42.7319H110.925V51.2681Z" fill="#DCE9FB"/>
<path d="M145.049 51.2681H136.524V42.7319H145.049V51.2681Z" fill="#DCE9FB"/>
<path d="M179.2 51.2681H170.675V42.7319H179.2V51.2681Z" fill="#DCE9FB"/>
<path d="M213.325 51.2681H204.8V42.7319H213.325V51.2681Z" fill="#DCE9FB"/>
<path d="M247.45 51.2681H238.925V42.7319H247.45V51.2681Z" fill="#DCE9FB"/>
<path d="M281.6 51.2681H273.075V42.7319H281.6V51.2681Z" fill="#DCE9FB"/>
<path d="M315.725 51.2681H307.2V42.7319H315.725V51.2681Z" fill="#DCE9FB"/>
<path d="M349.85 51.2681H341.325V42.7319H349.85V51.2681Z" fill="#DCE9FB"/>
<path d="M384 51.2681H375.476V42.7319H384V51.2681Z" fill="#DCE9FB"/>
<path d="M418.124 51.2681H409.6V42.7319H418.124V51.2681Z" fill="#DCE9FB"/>
<path d="M452.249 51.2681H443.725V42.7319H452.249V51.2681Z" fill="#DCE9FB"/>
<path d="M486.4 51.2681H477.875V42.7319H486.4V51.2681Z" fill="#DCE9FB"/>
<path d="M520.525 51.2681H512V42.7319H520.525V51.2681Z" fill="#DCE9FB"/>
<path d="M554.65 51.2681H546.125V42.7319H554.65V51.2681Z" fill="#DCE9FB"/>
<path d="M588.8 51.2681H580.275V42.7319H588.8V51.2681Z" fill="#DCE9FB"/>
<path d="M622.925 51.2681H614.4V42.7319H622.925V51.2681Z" fill="#DCE9FB"/>
<path d="M657.049 51.2681H648.524V42.7319H657.049V51.2681Z" fill="#DCE9FB"/>
<path d="M691.2 51.2681H682.675V42.7319H691.2V51.2681Z" fill="#DCE9FB"/>
<path d="M725.325 51.2681H716.8V42.7319H725.325V51.2681Z" fill="#DCE9FB"/>
<path d="M759.45 51.2681H750.925V42.7319H759.45V51.2681Z" fill="#DCE9FB"/>
<path d="M793.6 51.2681H785.075V42.7319H793.6V51.2681Z" fill="#DCE9FB"/>
<path d="M827.725 51.2681H819.2V42.7319H827.725V51.2681Z" fill="#DCE9FB"/>
<path d="M861.85 51.2681H853.325V42.7319H861.85V51.2681Z" fill="#DCE9FB"/>
<path d="M896 51.2681H887.476V42.7319H896V51.2681Z" fill="#DCE9FB"/>
<path d="M930.124 51.2681H921.6V42.7319H930.124V51.2681Z" fill="#DCE9FB"/>
<path d="M964.249 51.2681H955.725V42.7319H964.249V51.2681Z" fill="#DCE9FB"/>
<path d="M998.4 51.2681H989.875V42.7319H998.4V51.2681Z" fill="#DCE9FB"/>
<path d="M1032.52 51.2681H1024V42.7319H1032.52V51.2681Z" fill="#DCE9FB"/>
<path d="M1066.65 51.2681H1058.12V42.7319H1066.65V51.2681Z" fill="#DCE9FB"/>
<path d="M1100.8 51.2681H1092.28V42.7319H1100.8V51.2681Z" fill="#DCE9FB"/>
<path d="M1134.93 51.2681H1126.4V42.7319H1134.93V51.2681Z" fill="#DCE9FB"/>
<path d="M1169.05 51.2681H1160.52V42.7319H1169.05V51.2681Z" fill="#DCE9FB"/>
<path d="M1203.2 51.2681H1194.68V42.7319H1203.2V51.2681Z" fill="#DCE9FB"/>
<path d="M1237.32 51.2681H1228.8V42.7319H1237.32V51.2681Z" fill="#DCE9FB"/>
<path d="M1271.45 51.2681H1262.92V42.7319H1271.45V51.2681Z" fill="#DCE9FB"/>
<path d="M1305.6 51.2681H1297.08V42.7319H1305.6V51.2681Z" fill="#DCE9FB"/>
<path d="M1339.73 51.2681H1331.2V42.7319H1339.73V51.2681Z" fill="#DCE9FB"/>
<path d="M1373.85 51.2681H1365.33V42.7319H1373.85V51.2681Z" fill="#DCE9FB"/>
<path d="M1408 51.2681H1399.47V42.7319H1408V51.2681Z" fill="#DCE9FB"/>
<path d="M1442.12 51.2681H1433.6V42.7319H1442.12V51.2681Z" fill="#DCE9FB"/>
<path d="M1476.25 51.2681H1467.72V42.7319H1476.25V51.2681Z" fill="#DCE9FB"/>
<path d="M1510.4 51.2681H1501.88V42.7319H1510.4V51.2681Z" fill="#DCE9FB"/>
<path d="M1544.52 51.2681H1536V42.7319H1544.52V51.2681Z" fill="#DCE9FB"/>
<path d="M1578.65 51.2681H1570.12V42.7319H1578.65V51.2681Z" fill="#DCE9FB"/>
<path d="M1612.8 51.2681H1604.28V42.7319H1612.8V51.2681Z" fill="#DCE9FB"/>
<path d="M1646.93 51.2681H1638.4V42.7319H1646.93V51.2681Z" fill="#DCE9FB"/>
<path d="M1681.05 51.2681H1672.53V42.7319H1681.05V51.2681Z" fill="#DCE9FB"/>
<path d="M1715.2 51.2681H1706.68V42.7319H1715.2V51.2681Z" fill="#DCE9FB"/>
<path d="M1749.32 51.2681H1740.8V42.7319H1749.32V51.2681Z" fill="#DCE9FB"/>
<path d="M1783.45 51.2681H1774.92V42.7319H1783.45V51.2681Z" fill="#DCE9FB"/>
<path d="M1817.6 51.2681H1809.08V42.7319H1817.6V51.2681Z" fill="#DCE9FB"/>
<path d="M1851.73 51.2681H1843.2V42.7319H1851.73V51.2681Z" fill="#DCE9FB"/>
<path d="M1885.85 51.2681H1877.33V42.7319H1885.85V51.2681Z" fill="#DCE9FB"/>
<path d="M1920 51.2681H1911.47V42.7319H1920V51.2681Z" fill="#DCE9FB"/>
<path d="M59.725 42.7319H51.2002V34.1958H59.725V42.7319Z" fill="#DCE9FB"/>
<path d="M93.85 42.7319H85.3252V34.1958H93.85V42.7319Z" fill="#DCE9FB"/>
<path d="M128 42.7319H119.476V34.1958H128V42.7319Z" fill="#DCE9FB"/>
<path d="M162.124 42.7319H153.6V34.1958H162.124V42.7319Z" fill="#DCE9FB"/>
<path d="M196.249 42.7319H187.725V34.1958H196.249V42.7319Z" fill="#DCE9FB"/>
<path d="M230.4 42.7319H221.875V34.1958H230.4V42.7319Z" fill="#DCE9FB"/>
<path d="M264.525 42.7319H256V34.1958H264.525V42.7319Z" fill="#DCE9FB"/>
<path d="M298.65 42.7319H290.125V34.1958H298.65V42.7319Z" fill="#DCE9FB"/>
<path d="M332.8 42.7319H324.275V34.1958H332.8V42.7319Z" fill="#DCE9FB"/>
<path d="M366.925 42.7319H358.4V34.1958H366.925V42.7319Z" fill="#DCE9FB"/>
<path d="M401.049 42.7319H392.524V34.1958H401.049V42.7319Z" fill="#DCE9FB"/>
<path d="M435.2 42.7319H426.675V34.1958H435.2V42.7319Z" fill="#DCE9FB"/>
<path d="M469.325 42.7319H460.8V34.1958H469.325V42.7319Z" fill="#DCE9FB"/>
<path d="M503.45 42.7319H494.925V34.1958H503.45V42.7319Z" fill="#DCE9FB"/>
<path d="M537.6 42.7319H529.075V34.1958H537.6V42.7319Z" fill="#DCE9FB"/>
<path d="M571.725 42.7319H563.2V34.1958H571.725V42.7319Z" fill="#DCE9FB"/>
<path d="M605.85 42.7319H597.325V34.1958H605.85V42.7319Z" fill="#DCE9FB"/>
<path d="M640 42.7319H631.476V34.1958H640V42.7319Z" fill="#DCE9FB"/>
<path d="M674.124 42.7319H665.6V34.1958H674.124V42.7319Z" fill="#DCE9FB"/>
<path d="M708.249 42.7319H699.725V34.1958H708.249V42.7319Z" fill="#DCE9FB"/>
<path d="M742.4 42.7319H733.875V34.1958H742.4V42.7319Z" fill="#DCE9FB"/>
<path d="M776.525 42.7319H768V34.1958H776.525V42.7319Z" fill="#DCE9FB"/>
<path d="M810.65 42.7319H802.125V34.1958H810.65V42.7319Z" fill="#DCE9FB"/>
<path d="M844.8 42.7319H836.275V34.1958H844.8V42.7319Z" fill="#DCE9FB"/>
<path d="M878.925 42.7319H870.4V34.1958H878.925V42.7319Z" fill="#DCE9FB"/>
<path d="M913.049 42.7319H904.524V34.1958H913.049V42.7319Z" fill="#DCE9FB"/>
<path d="M947.2 42.7319H938.675V34.1958H947.2V42.7319Z" fill="#DCE9FB"/>
<path d="M981.325 42.7319H972.8V34.1958H981.325V42.7319Z" fill="#DCE9FB"/>
<path d="M1015.45 42.7319H1006.92V34.1958H1015.45V42.7319Z" fill="#DCE9FB"/>
<path d="M1049.6 42.7319H1041.08V34.1958H1049.6V42.7319Z" fill="#DCE9FB"/>
<path d="M1083.72 42.7319H1075.2V34.1958H1083.72V42.7319Z" fill="#DCE9FB"/>
<path d="M1117.85 42.7319H1109.32V34.1958H1117.85V42.7319Z" fill="#DCE9FB"/>
<path d="M1152 42.7319H1143.48V34.1958H1152V42.7319Z" fill="#DCE9FB"/>
<path d="M1186.12 42.7319H1177.6V34.1958H1186.12V42.7319Z" fill="#DCE9FB"/>
<path d="M1220.25 42.7319H1211.72V34.1958H1220.25V42.7319Z" fill="#DCE9FB"/>
<path d="M1254.4 42.7319H1245.88V34.1958H1254.4V42.7319Z" fill="#DCE9FB"/>
<path d="M1288.52 42.7319H1280V34.1958H1288.52V42.7319Z" fill="#DCE9FB"/>
<path d="M1322.65 42.7319H1314.12V34.1958H1322.65V42.7319Z" fill="#DCE9FB"/>
<path d="M1356.8 42.7319H1348.28V34.1958H1356.8V42.7319Z" fill="#DCE9FB"/>
<path d="M1390.93 42.7319H1382.4V34.1958H1390.93V42.7319Z" fill="#DCE9FB"/>
<path d="M1425.05 42.7319H1416.52V34.1958H1425.05V42.7319Z" fill="#DCE9FB"/>
<path d="M1459.2 42.7319H1450.67V34.1958H1459.2V42.7319Z" fill="#DCE9FB"/>
<path d="M1493.32 42.7319H1484.8V34.1958H1493.32V42.7319Z" fill="#DCE9FB"/>
<path d="M1527.45 42.7319H1518.92V34.1958H1527.45V42.7319Z" fill="#DCE9FB"/>
<path d="M1561.6 42.7319H1553.08V34.1958H1561.6V42.7319Z" fill="#DCE9FB"/>
<path d="M1595.73 42.7319H1587.2V34.1958H1595.73V42.7319Z" fill="#DCE9FB"/>
<path d="M1629.85 42.7319H1621.33V34.1958H1629.85V42.7319Z" fill="#DCE9FB"/>
<path d="M1664 42.7319H1655.47V34.1958H1664V42.7319Z" fill="#DCE9FB"/>
<path d="M1698.12 42.7319H1689.6V34.1958H1698.12V42.7319Z" fill="#DCE9FB"/>
<path d="M1732.25 42.7319H1723.72V34.1958H1732.25V42.7319Z" fill="#DCE9FB"/>
<path d="M1766.4 42.7319H1757.88V34.1958H1766.4V42.7319Z" fill="#DCE9FB"/>
<path d="M1800.52 42.7319H1792V34.1958H1800.52V42.7319Z" fill="#DCE9FB"/>
<path d="M1834.65 42.7319H1826.12V34.1958H1834.65V42.7319Z" fill="#DCE9FB"/>
<path d="M1868.8 42.7319H1860.28V34.1958H1868.8V42.7319Z" fill="#DCE9FB"/>
<path d="M1902.93 42.7319H1894.4V34.1958H1902.93V42.7319Z" fill="#DCE9FB"/>
<path d="M34.1244 34.1958H25.5996V25.6597H34.1244V34.1958Z" fill="#DCE9FB"/>
<path d="M51.1996 34.1958H42.6748V25.6597H51.1996V34.1958Z" fill="#DCE9FB"/>
<path d="M68.2494 34.1958H59.7246V25.6597H68.2494V34.1958Z" fill="#DCE9FB"/>
<path d="M85.3246 34.1958H76.7998V25.6597H85.3246V34.1958Z" fill="#DCE9FB"/>
<path d="M102.4 34.1958H93.875V25.6597H102.4V34.1958Z" fill="#DCE9FB"/>
<path d="M119.45 34.1958H110.925V25.6597H119.45V34.1958Z" fill="#DCE9FB"/>
<path d="M136.525 34.1958H128V25.6597H136.525V34.1958Z" fill="#DCE9FB"/>
<path d="M153.6 34.1958H145.075V25.6597H153.6V34.1958Z" fill="#DCE9FB"/>
<path d="M170.65 34.1958H162.125V25.6597H170.65V34.1958Z" fill="#DCE9FB"/>
<path d="M187.725 34.1958H179.2V25.6597H187.725V34.1958Z" fill="#DCE9FB"/>
<path d="M204.8 34.1958H196.275V25.6597H204.8V34.1958Z" fill="#DCE9FB"/>
<path d="M221.85 34.1958H213.325V25.6597H221.85V34.1958Z" fill="#DCE9FB"/>
<path d="M238.925 34.1958H230.4V25.6597H238.925V34.1958Z" fill="#DCE9FB"/>
<path d="M256 34.1958H247.476V25.6597H256V34.1958Z" fill="#DCE9FB"/>
<path d="M273.049 34.1958H264.524V25.6597H273.049V34.1958Z" fill="#DCE9FB"/>
<path d="M290.124 34.1958H281.6V25.6597H290.124V34.1958Z" fill="#DCE9FB"/>
<path d="M307.2 34.1958H298.675V25.6597H307.2V34.1958Z" fill="#DCE9FB"/>
<path d="M324.249 34.1958H315.725V25.6597H324.249V34.1958Z" fill="#DCE9FB"/>
<path d="M341.325 34.1958H332.8V25.6597H341.325V34.1958Z" fill="#DCE9FB"/>
<path d="M358.4 34.1958H349.875V25.6597H358.4V34.1958Z" fill="#DCE9FB"/>
<path d="M375.45 34.1958H366.925V25.6597H375.45V34.1958Z" fill="#DCE9FB"/>
<path d="M392.525 34.1958H384V25.6597H392.525V34.1958Z" fill="#DCE9FB"/>
<path d="M409.6 34.1958H401.075V25.6597H409.6V34.1958Z" fill="#DCE9FB"/>
<path d="M426.65 34.1958H418.125V25.6597H426.65V34.1958Z" fill="#DCE9FB"/>
<path d="M443.725 34.1958H435.2V25.6597H443.725V34.1958Z" fill="#DCE9FB"/>
<path d="M460.8 34.1958H452.275V25.6597H460.8V34.1958Z" fill="#DCE9FB"/>
<path d="M477.85 34.1958H469.325V25.6597H477.85V34.1958Z" fill="#DCE9FB"/>
<path d="M494.925 34.1958H486.4V25.6597H494.925V34.1958Z" fill="#DCE9FB"/>
<path d="M512 34.1958H503.476V25.6597H512V34.1958Z" fill="#DCE9FB"/>
<path d="M529.049 34.1958H520.524V25.6597H529.049V34.1958Z" fill="#DCE9FB"/>
<path d="M546.124 34.1958H537.6V25.6597H546.124V34.1958Z" fill="#DCE9FB"/>
<path d="M563.2 34.1958H554.675V25.6597H563.2V34.1958Z" fill="#DCE9FB"/>
<path d="M580.249 34.1958H571.725V25.6597H580.249V34.1958Z" fill="#DCE9FB"/>
<path d="M597.325 34.1958H588.8V25.6597H597.325V34.1958Z" fill="#DCE9FB"/>
<path d="M614.4 34.1958H605.875V25.6597H614.4V34.1958Z" fill="#DCE9FB"/>
<path d="M631.45 34.1958H622.925V25.6597H631.45V34.1958Z" fill="#DCE9FB"/>
<path d="M648.525 34.1958H640V25.6597H648.525V34.1958Z" fill="#DCE9FB"/>
<path d="M665.6 34.1958H657.075V25.6597H665.6V34.1958Z" fill="#DCE9FB"/>
<path d="M682.65 34.1958H674.125V25.6597H682.65V34.1958Z" fill="#DCE9FB"/>
<path d="M699.725 34.1958H691.2V25.6597H699.725V34.1958Z" fill="#DCE9FB"/>
<path d="M716.8 34.1958H708.275V25.6597H716.8V34.1958Z" fill="#DCE9FB"/>
<path d="M733.85 34.1958H725.325V25.6597H733.85V34.1958Z" fill="#DCE9FB"/>
<path d="M750.925 34.1958H742.4V25.6597H750.925V34.1958Z" fill="#DCE9FB"/>
<path d="M768 34.1958H759.476V25.6597H768V34.1958Z" fill="#DCE9FB"/>
<path d="M785.049 34.1958H776.524V25.6597H785.049V34.1958Z" fill="#DCE9FB"/>
<path d="M802.124 34.1958H793.6V25.6597H802.124V34.1958Z" fill="#DCE9FB"/>
<path d="M819.2 34.1958H810.675V25.6597H819.2V34.1958Z" fill="#DCE9FB"/>
<path d="M836.249 34.1958H827.725V25.6597H836.249V34.1958Z" fill="#DCE9FB"/>
<path d="M853.325 34.1958H844.8V25.6597H853.325V34.1958Z" fill="#DCE9FB"/>
<path d="M870.4 34.1958H861.875V25.6597H870.4V34.1958Z" fill="#DCE9FB"/>
<path d="M887.45 34.1958H878.925V25.6597H887.45V34.1958Z" fill="#DCE9FB"/>
<path d="M904.525 34.1958H896V25.6597H904.525V34.1958Z" fill="#DCE9FB"/>
<path d="M921.6 34.1958H913.075V25.6597H921.6V34.1958Z" fill="#DCE9FB"/>
<path d="M938.65 34.1958H930.125V25.6597H938.65V34.1958Z" fill="#DCE9FB"/>
<path d="M955.725 34.1958H947.2V25.6597H955.725V34.1958Z" fill="#DCE9FB"/>
<path d="M972.8 34.1958H964.275V25.6597H972.8V34.1958Z" fill="#DCE9FB"/>
<path d="M989.85 34.1958H981.325V25.6597H989.85V34.1958Z" fill="#DCE9FB"/>
<path d="M1006.93 34.1958H998.4V25.6597H1006.93V34.1958Z" fill="#DCE9FB"/>
<path d="M1024 34.1958H1015.48V25.6597H1024V34.1958Z" fill="#DCE9FB"/>
<path d="M1041.05 34.1958H1032.52V25.6597H1041.05V34.1958Z" fill="#DCE9FB"/>
<path d="M1058.12 34.1958H1049.6V25.6597H1058.12V34.1958Z" fill="#DCE9FB"/>
<path d="M1075.2 34.1958H1066.67V25.6597H1075.2V34.1958Z" fill="#DCE9FB"/>
<path d="M1092.25 34.1958H1083.72V25.6597H1092.25V34.1958Z" fill="#DCE9FB"/>
<path d="M1109.32 34.1958H1100.8V25.6597H1109.32V34.1958Z" fill="#DCE9FB"/>
<path d="M1126.4 34.1958H1117.88V25.6597H1126.4V34.1958Z" fill="#DCE9FB"/>
<path d="M1143.45 34.1958H1134.92V25.6597H1143.45V34.1958Z" fill="#DCE9FB"/>
<path d="M1160.52 34.1958H1152V25.6597H1160.52V34.1958Z" fill="#DCE9FB"/>
<path d="M1177.6 34.1958H1169.08V25.6597H1177.6V34.1958Z" fill="#DCE9FB"/>
<path d="M1194.65 34.1958H1186.12V25.6597H1194.65V34.1958Z" fill="#DCE9FB"/>
<path d="M1211.72 34.1958H1203.2V25.6597H1211.72V34.1958Z" fill="#DCE9FB"/>
<path d="M1228.8 34.1958H1220.28V25.6597H1228.8V34.1958Z" fill="#DCE9FB"/>
<path d="M1245.85 34.1958H1237.33V25.6597H1245.85V34.1958Z" fill="#DCE9FB"/>
<path d="M1262.93 34.1958H1254.4V25.6597H1262.93V34.1958Z" fill="#DCE9FB"/>
<path d="M1280 34.1958H1271.48V25.6597H1280V34.1958Z" fill="#DCE9FB"/>
<path d="M1297.05 34.1958H1288.52V25.6597H1297.05V34.1958Z" fill="#DCE9FB"/>
<path d="M1314.12 34.1958H1305.6V25.6597H1314.12V34.1958Z" fill="#DCE9FB"/>
<path d="M1331.2 34.1958H1322.68V25.6597H1331.2V34.1958Z" fill="#DCE9FB"/>
<path d="M1348.25 34.1958H1339.72V25.6597H1348.25V34.1958Z" fill="#DCE9FB"/>
<path d="M1365.32 34.1958H1356.8V25.6597H1365.32V34.1958Z" fill="#DCE9FB"/>
<path d="M1382.4 34.1958H1373.88V25.6597H1382.4V34.1958Z" fill="#DCE9FB"/>
<path d="M1399.45 34.1958H1390.92V25.6597H1399.45V34.1958Z" fill="#DCE9FB"/>
<path d="M1416.52 34.1958H1408V25.6597H1416.52V34.1958Z" fill="#DCE9FB"/>
<path d="M1433.6 34.1958H1425.08V25.6597H1433.6V34.1958Z" fill="#DCE9FB"/>
<path d="M1450.65 34.1958H1442.12V25.6597H1450.65V34.1958Z" fill="#DCE9FB"/>
<path d="M1467.73 34.1958H1459.2V25.6597H1467.73V34.1958Z" fill="#DCE9FB"/>
<path d="M1484.8 34.1958H1476.28V25.6597H1484.8V34.1958Z" fill="#DCE9FB"/>
<path d="M1501.85 34.1958H1493.33V25.6597H1501.85V34.1958Z" fill="#DCE9FB"/>
<path d="M1518.93 34.1958H1510.4V25.6597H1518.93V34.1958Z" fill="#DCE9FB"/>
<path d="M1536 34.1958H1527.47V25.6597H1536V34.1958Z" fill="#DCE9FB"/>
<path d="M1553.05 34.1958H1544.52V25.6597H1553.05V34.1958Z" fill="#DCE9FB"/>
<path d="M1570.12 34.1958H1561.6V25.6597H1570.12V34.1958Z" fill="#DCE9FB"/>
<path d="M1587.2 34.1958H1578.67V25.6597H1587.2V34.1958Z" fill="#DCE9FB"/>
<path d="M1604.25 34.1958H1595.72V25.6597H1604.25V34.1958Z" fill="#DCE9FB"/>
<path d="M1621.32 34.1958H1612.8V25.6597H1621.32V34.1958Z" fill="#DCE9FB"/>
<path d="M1638.4 34.1958H1629.88V25.6597H1638.4V34.1958Z" fill="#DCE9FB"/>
<path d="M1655.45 34.1958H1646.92V25.6597H1655.45V34.1958Z" fill="#DCE9FB"/>
<path d="M1672.52 34.1958H1664V25.6597H1672.52V34.1958Z" fill="#DCE9FB"/>
<path d="M1689.6 34.1958H1681.08V25.6597H1689.6V34.1958Z" fill="#DCE9FB"/>
<path d="M1706.65 34.1958H1698.12V25.6597H1706.65V34.1958Z" fill="#DCE9FB"/>
<path d="M1723.73 34.1958H1715.2V25.6597H1723.73V34.1958Z" fill="#DCE9FB"/>
<path d="M1740.8 34.1958H1732.28V25.6597H1740.8V34.1958Z" fill="#DCE9FB"/>
<path d="M1757.85 34.1958H1749.33V25.6597H1757.85V34.1958Z" fill="#DCE9FB"/>
<path d="M1774.93 34.1958H1766.4V25.6597H1774.93V34.1958Z" fill="#DCE9FB"/>
<path d="M1792 34.1958H1783.47V25.6597H1792V34.1958Z" fill="#DCE9FB"/>
<path d="M1809.05 34.1958H1800.52V25.6597H1809.05V34.1958Z" fill="#DCE9FB"/>
<path d="M1826.12 34.1958H1817.6V25.6597H1826.12V34.1958Z" fill="#DCE9FB"/>
<path d="M1843.2 34.1958H1834.67V25.6597H1843.2V34.1958Z" fill="#DCE9FB"/>
<path d="M1860.25 34.1958H1851.72V25.6597H1860.25V34.1958Z" fill="#DCE9FB"/>
<path d="M1877.32 34.1958H1868.8V25.6597H1877.32V34.1958Z" fill="#DCE9FB"/>
<path d="M1894.4 34.1958H1885.88V25.6597H1894.4V34.1958Z" fill="#DCE9FB"/>
<path d="M1911.45 34.1958H1902.92V25.6597H1911.45V34.1958Z" fill="#DCE9FB"/>
<path d="M1911.47 17.0979H1885.88V8.56176H1911.47V17.0979Z" fill="#DCE9FB"/>
<path d="M1877.32 17.0979H1851.72V8.56176H1877.32V17.0979Z" fill="#DCE9FB"/>
<path d="M1843.2 17.0979H1817.6V8.56176H1843.2V17.0979Z" fill="#DCE9FB"/>
<path d="M1809.07 17.0979H1783.47V8.56176H1809.07V17.0979Z" fill="#DCE9FB"/>
<path d="M1774.93 17.0979H1749.33V8.56176H1774.93V17.0979Z" fill="#DCE9FB"/>
<path d="M1740.8 17.0979H1715.2V8.56176H1740.8V17.0979Z" fill="#DCE9FB"/>
<path d="M1706.68 17.0979H1681.08V8.56176H1706.68V17.0979Z" fill="#DCE9FB"/>
<path d="M1672.52 17.0979H1646.92V8.56176H1672.52V17.0979Z" fill="#DCE9FB"/>
<path d="M1638.4 17.0979H1612.8V8.56176H1638.4V17.0979Z" fill="#DCE9FB"/>
<path d="M1604.27 17.0979H1578.67V8.56176H1604.27V17.0979Z" fill="#DCE9FB"/>
<path d="M1570.12 17.0979H1544.52V8.56176H1570.12V17.0979Z" fill="#DCE9FB"/>
<path d="M1536 17.0979H1510.4V8.56176H1536V17.0979Z" fill="#DCE9FB"/>
<path d="M1501.88 17.0979H1476.28V8.56176H1501.88V17.0979Z" fill="#DCE9FB"/>
<path d="M1467.72 17.0979H1442.12V8.56176H1467.72V17.0979Z" fill="#DCE9FB"/>
<path d="M1433.6 17.0979H1408V8.56176H1433.6V17.0979Z" fill="#DCE9FB"/>
<path d="M1399.47 17.0979H1373.88V8.56176H1399.47V17.0979Z" fill="#DCE9FB"/>
<path d="M1365.32 17.0979H1339.72V8.56176H1365.32V17.0979Z" fill="#DCE9FB"/>
<path d="M1331.2 17.0979H1305.6V8.56176H1331.2V17.0979Z" fill="#DCE9FB"/>
<path d="M1297.08 17.0979H1271.48V8.56176H1297.08V17.0979Z" fill="#DCE9FB"/>
<path d="M1262.93 17.0979H1237.33V8.56176H1262.93V17.0979Z" fill="#DCE9FB"/>
<path d="M1228.8 17.0979H1203.2V8.56176H1228.8V17.0979Z" fill="#DCE9FB"/>
<path d="M1194.68 17.0979H1169.08V8.56176H1194.68V17.0979Z" fill="#DCE9FB"/>
<path d="M1160.52 17.0979H1134.92V8.56176H1160.52V17.0979Z" fill="#DCE9FB"/>
<path d="M1126.4 17.0979H1100.8V8.56176H1126.4V17.0979Z" fill="#DCE9FB"/>
<path d="M1092.27 17.0979H1066.67V8.56176H1092.27V17.0979Z" fill="#DCE9FB"/>
<path d="M1058.12 17.0979H1032.52V8.56176H1058.12V17.0979Z" fill="#DCE9FB"/>
<path d="M1024 17.0979H998.4V8.56176H1024V17.0979Z" fill="#DCE9FB"/>
<path d="M989.875 17.0979H964.275V8.56176H989.875V17.0979Z" fill="#DCE9FB"/>
<path d="M955.725 17.0979H930.125V8.56176H955.725V17.0979Z" fill="#DCE9FB"/>
<path d="M921.6 17.0979H896V8.56176H921.6V17.0979Z" fill="#DCE9FB"/>
<path d="M887.475 17.0979H861.875V8.56176H887.475V17.0979Z" fill="#DCE9FB"/>
<path d="M853.325 17.0979H827.725V8.56176H853.325V17.0979Z" fill="#DCE9FB"/>
<path d="M819.2 17.0979H793.6V8.56176H819.2V17.0979Z" fill="#DCE9FB"/>
<path d="M785.076 17.0979H759.476V8.56176H785.076V17.0979Z" fill="#DCE9FB"/>
<path d="M750.925 17.0979H725.325V8.56176H750.925V17.0979Z" fill="#DCE9FB"/>
<path d="M716.8 17.0979H691.2V8.56176H716.8V17.0979Z" fill="#DCE9FB"/>
<path d="M682.675 17.0979H657.075V8.56176H682.675V17.0979Z" fill="#DCE9FB"/>
<path d="M648.525 17.0979H622.925V8.56176H648.525V17.0979Z" fill="#DCE9FB"/>
<path d="M614.4 17.0979H588.8V8.56176H614.4V17.0979Z" fill="#DCE9FB"/>
<path d="M580.275 17.0979H554.675V8.56176H580.275V17.0979Z" fill="#DCE9FB"/>
<path d="M546.124 17.0979H520.524V8.56176H546.124V17.0979Z" fill="#DCE9FB"/>
<path d="M512 17.0979H486.4V8.56176H512V17.0979Z" fill="#DCE9FB"/>
<path d="M477.875 17.0979H452.275V8.56176H477.875V17.0979Z" fill="#DCE9FB"/>
<path d="M443.725 17.0979H418.125V8.56176H443.725V17.0979Z" fill="#DCE9FB"/>
<path d="M409.6 17.0979H384V8.56176H409.6V17.0979Z" fill="#DCE9FB"/>
<path d="M375.475 17.0979H349.875V8.56176H375.475V17.0979Z" fill="#DCE9FB"/>
<path d="M341.325 17.0979H315.725V8.56176H341.325V17.0979Z" fill="#DCE9FB"/>
<path d="M307.2 17.0979H281.6V8.56176H307.2V17.0979Z" fill="#DCE9FB"/>
<path d="M273.076 17.0979H247.476V8.56176H273.076V17.0979Z" fill="#DCE9FB"/>
<path d="M238.925 17.0979H213.325V8.56176H238.925V17.0979Z" fill="#DCE9FB"/>
<path d="M204.8 17.0979H179.2V8.56176H204.8V17.0979Z" fill="#DCE9FB"/>
<path d="M170.675 17.0979H145.075V8.56176H170.675V17.0979Z" fill="#DCE9FB"/>
<path d="M136.525 17.0979H110.925V8.56176H136.525V17.0979Z" fill="#DCE9FB"/>
<path d="M102.4 17.0979H76.7998V8.56176H102.4V17.0979Z" fill="#DCE9FB"/>
<path d="M68.2748 17.0979H42.6748V8.56176H68.2748V17.0979Z" fill="#DCE9FB"/>
<path d="M34.1244 17.0979H8.52441V8.56176H34.1244V17.0979Z" fill="#DCE9FB"/>
<path d="M1920 8.56177H1902.92V0.0256395H1920V8.56177Z" fill="#DCE9FB"/>
<path d="M1894.4 8.56177H1868.8V0.0256395H1894.4V8.56177Z" fill="#DCE9FB"/>
<path d="M1860.27 8.56177H1834.67V0.0256395H1860.27V8.56177Z" fill="#DCE9FB"/>
<path d="M1826.12 8.56177H1800.52V0.0256395H1826.12V8.56177Z" fill="#DCE9FB"/>
<path d="M1792 8.56177H1766.4V0.0256395H1792V8.56177Z" fill="#DCE9FB"/>
<path d="M1757.88 8.56177H1732.28V0.0256395H1757.88V8.56177Z" fill="#DCE9FB"/>
<path d="M1723.72 8.56177H1698.12V0.0256395H1723.72V8.56177Z" fill="#DCE9FB"/>
<path d="M1689.6 8.56177H1664V0.0256395H1689.6V8.56177Z" fill="#DCE9FB"/>
<path d="M1655.47 8.56177H1629.88V0.0256395H1655.47V8.56177Z" fill="#DCE9FB"/>
<path d="M1621.32 8.56177H1595.72V0.0256395H1621.32V8.56177Z" fill="#DCE9FB"/>
<path d="M1587.2 8.56177H1561.6V0.0256395H1587.2V8.56177Z" fill="#DCE9FB"/>
<path d="M1553.07 8.56177H1527.47V0.0256395H1553.07V8.56177Z" fill="#DCE9FB"/>
<path d="M1518.93 8.56177H1493.33V0.0256395H1518.93V8.56177Z" fill="#DCE9FB"/>
<path d="M1484.8 8.56177H1459.2V0.0256395H1484.8V8.56177Z" fill="#DCE9FB"/>
<path d="M1450.68 8.56177H1425.08V0.0256395H1450.68V8.56177Z" fill="#DCE9FB"/>
<path d="M1416.52 8.56177H1390.92V0.0256395H1416.52V8.56177Z" fill="#DCE9FB"/>
<path d="M1382.4 8.56177H1356.8V0.0256395H1382.4V8.56177Z" fill="#DCE9FB"/>
<path d="M1348.28 8.56177H1322.68V0.0256395H1348.28V8.56177Z" fill="#DCE9FB"/>
<path d="M1314.12 8.56177H1288.52V0.0256395H1314.12V8.56177Z" fill="#DCE9FB"/>
<path d="M1280 8.56177H1254.4V0.0256395H1280V8.56177Z" fill="#DCE9FB"/>
<path d="M1245.88 8.56177H1220.28V0.0256395H1245.88V8.56177Z" fill="#DCE9FB"/>
<path d="M1211.72 8.56177H1186.12V0.0256395H1211.72V8.56177Z" fill="#DCE9FB"/>
<path d="M1177.6 8.56177H1152V0.0256395H1177.6V8.56177Z" fill="#DCE9FB"/>
<path d="M1143.47 8.56177H1117.88V0.0256395H1143.47V8.56177Z" fill="#DCE9FB"/>
<path d="M1109.32 8.56177H1083.72V0.0256395H1109.32V8.56177Z" fill="#DCE9FB"/>
<path d="M1075.2 8.56177H1049.6V0.0256395H1075.2V8.56177Z" fill="#DCE9FB"/>
<path d="M1041.08 8.56177H1015.48V0.0256395H1041.08V8.56177Z" fill="#DCE9FB"/>
<path d="M1006.93 8.56177H981.325V0.0256395H1006.93V8.56177Z" fill="#DCE9FB"/>
<path d="M972.8 8.56177H947.2V0.0256395H972.8V8.56177Z" fill="#DCE9FB"/>
<path d="M938.675 8.56177H913.075V0.0256395H938.675V8.56177Z" fill="#DCE9FB"/>
<path d="M904.525 8.56177H878.925V0.0256395H904.525V8.56177Z" fill="#DCE9FB"/>
<path d="M870.4 8.56177H844.8V0.0256395H870.4V8.56177Z" fill="#DCE9FB"/>
<path d="M836.275 8.56177H810.675V0.0256395H836.275V8.56177Z" fill="#DCE9FB"/>
<path d="M802.124 8.56177H776.524V0.0256395H802.124V8.56177Z" fill="#DCE9FB"/>
<path d="M768 8.56177H742.4V0.0256395H768V8.56177Z" fill="#DCE9FB"/>
<path d="M733.875 8.56177H708.275V0.0256395H733.875V8.56177Z" fill="#DCE9FB"/>
<path d="M699.725 8.56177H674.125V0.0256395H699.725V8.56177Z" fill="#DCE9FB"/>
<path d="M665.6 8.56177H640V0.0256395H665.6V8.56177Z" fill="#DCE9FB"/>
<path d="M631.475 8.56177H605.875V0.0256395H631.475V8.56177Z" fill="#DCE9FB"/>
<path d="M597.325 8.56177H571.725V0.0256395H597.325V8.56177Z" fill="#DCE9FB"/>
<path d="M563.2 8.56177H537.6V0.0256395H563.2V8.56177Z" fill="#DCE9FB"/>
<path d="M529.076 8.56177H503.476V0.0256395H529.076V8.56177Z" fill="#DCE9FB"/>
<path d="M494.925 8.56177H469.325V0.0256395H494.925V8.56177Z" fill="#DCE9FB"/>
<path d="M460.8 8.56177H435.2V0.0256395H460.8V8.56177Z" fill="#DCE9FB"/>
<path d="M426.675 8.56177H401.075V0.0256395H426.675V8.56177Z" fill="#DCE9FB"/>
<path d="M392.525 8.56177H366.925V0.0256395H392.525V8.56177Z" fill="#DCE9FB"/>
<path d="M358.4 8.56177H332.8V0.0256395H358.4V8.56177Z" fill="#DCE9FB"/>
<path d="M324.275 8.56177H298.675V0.0256395H324.275V8.56177Z" fill="#DCE9FB"/>
<path d="M290.124 8.56177H264.524V0.0256395H290.124V8.56177Z" fill="#DCE9FB"/>
<path d="M256 8.56177H230.4V0.0256395H256V8.56177Z" fill="#DCE9FB"/>
<path d="M221.875 8.56177H196.275V0.0256395H221.875V8.56177Z" fill="#DCE9FB"/>
<path d="M187.725 8.56177H162.125V0.0256395H187.725V8.56177Z" fill="#DCE9FB"/>
<path d="M153.6 8.56177H128V0.0256395H153.6V8.56177Z" fill="#DCE9FB"/>
<path d="M119.475 8.56177H93.875V0.0256395H119.475V8.56177Z" fill="#DCE9FB"/>
<path d="M85.3246 8.56177H59.7246V0.0256395H85.3246V8.56177Z" fill="#DCE9FB"/>
<path d="M51.1996 8.56177H25.5996V0.0256395H51.1996V8.56177Z" fill="#DCE9FB"/>
<path d="M17.0752 8.56177H0V0.0256395H17.0752V8.56177Z" fill="#DCE9FB"/>
</g>
<defs>
<clipPath id="clip0_2115_6968">
<rect width="1920" height="94" fill="white" transform="matrix(1 0 0 -1 0 94)"/>
</clipPath>
</defs>
</svg>
