<svg width="32" height="32" viewBox="0 0 32 32" fill="none" xmlns="http://www.w3.org/2000/svg">
<path fill-rule="evenodd" clip-rule="evenodd" d="M1.52 22.86H3.04V25.9H4.57V27.43H6.09V28.95H9.14V30.48H12.19V32H19.81V30.48H22.85V28.95H25.9V27.43H27.42V25.9H28.95V22.86H30.47V19.81H32V12.19H30.47V9.14H28.95V6.09H27.42V4.57H25.9V3.05H22.85V1.52H19.81V0H12.19V1.52H9.14V3.05H6.09V4.57H4.57V6.09H3.04V9.14H1.52V12.19H0V19.81H1.52V22.86ZM24.4103 6.29112H25.7009V7.58224H27V24.4093H25.7009V25.7089H24.4103V27H7.58973V25.7089H6.29911V24.4093H5V7.58224H6.29911V6.29112H7.58973V5H24.4103V6.29112ZM23.1196 23.1181H24.4103V8.88185H23.1196V7.58224H8.88035V8.88185H7.58973V23.1181H8.88035V24.4093H23.1196V23.1181ZM23 9H21V11H23V9ZM19.5609 12.2195H20.7805V13.4391H22V19.5529H20.7805V20.7805H19.5609V22H13.4471V20.7805H12.2195V19.5529H11V13.4391H12.2195V12.2195H13.4471V11H19.5609V12.2195ZM18.3333 18.3333H19.5609V14.6667H18.3333V13.4391H14.6667V14.6667H13.4471V18.3333H14.6667V19.5529H18.3333V18.3333Z" fill="#6295F5"/>
</svg>
