<svg width="32" height="32" viewBox="0 0 32 32" fill="none" xmlns="http://www.w3.org/2000/svg">
<path d="M28.9499 6.10001H27.4299V18.29H28.9499V6.10001Z" fill="#6295F5"/>
<path d="M27.4301 18.29H25.9001V19.81H27.4301V18.29Z" fill="#6295F5"/>
<path d="M27.4301 4.57001H25.9001V6.10001H27.4301V4.57001Z" fill="#6295F5"/>
<path d="M25.9001 19.81H24.3801V21.33H25.9001V19.81Z" fill="#6295F5"/>
<path d="M25.9001 3.05H24.3801V4.57H25.9001V3.05Z" fill="#6295F5"/>
<path d="M24.3801 21.33H22.8501V22.86H24.3801V21.33Z" fill="#6295F5"/>
<path d="M24.3801 1.52H22.8501V3.05H24.3801V1.52Z" fill="#6295F5"/>
<path d="M18.2801 22.86V16.76H16.7601V22.86H15.2401V16.76H13.7101V22.86H9.14014V24.38H10.6601V30.48H12.1901V28.95H19.8101V30.48H21.3301V24.38H22.8501V22.86H18.2801ZM19.8101 25.9H12.1901V24.38H19.8101V25.9Z" fill="#6295F5"/>
<path d="M21.3301 10.67H19.8101V13.71H21.3301V10.67Z" fill="#6295F5"/>
<path d="M19.81 13.71H18.28V16.76H19.81V13.71Z" fill="#6295F5"/>
<path d="M19.8099 30.48H12.1899V32H19.8099V30.48Z" fill="#6295F5"/>
<path d="M13.7099 13.71H12.1899V16.76H13.7099V13.71Z" fill="#6295F5"/>
<path d="M12.1902 10.67H10.6602V13.71H12.1902V10.67Z" fill="#6295F5"/>
<path d="M22.8501 0H9.14014V1.52H22.8501V0Z" fill="#6295F5"/>
<path d="M9.14012 21.33H7.62012V22.86H9.14012V21.33Z" fill="#6295F5"/>
<path d="M9.14012 1.52H7.62012V3.05H9.14012V1.52Z" fill="#6295F5"/>
<path d="M7.62009 19.81H6.09009V21.33H7.62009V19.81Z" fill="#6295F5"/>
<path d="M7.62009 3.05H6.09009V4.57H7.62009V3.05Z" fill="#6295F5"/>
<path d="M6.09007 18.29H4.57007V19.81H6.09007V18.29Z" fill="#6295F5"/>
<path d="M6.09007 4.57001H4.57007V6.10001H6.09007V4.57001Z" fill="#6295F5"/>
<path d="M4.57005 6.10001H3.05005V18.29H4.57005V6.10001Z" fill="#6295F5"/>
</svg>
