<svg width="32" height="32" viewBox="0 0 32 32" fill="none" xmlns="http://www.w3.org/2000/svg">
<g clip-path="url(#clip0_2022_1307)">
<path d="M30.47 9.14H28.95V10.67H25.9V9.14H24.38V10.67H7.62V9.14H6.09V10.67H3.05V9.14H1.52V12.19H0V19.81H1.52V22.86H3.05V21.33H6.09V22.86H7.62V21.33H24.38V22.86H25.9V21.33H28.95V22.86H30.47V19.81H32V12.19H30.47V9.14ZM10.66 18.28H9.14V19.81H7.62V18.28H6.09V19.81H4.57V18.28H3.05V13.71H4.57V18.28H6.09V15.24H7.62V18.28H9.14V13.71H10.66V18.28ZM19.81 18.28H18.28V19.81H16.76V18.28H15.24V19.81H13.71V18.28H12.19V13.71H13.71V18.28H15.24V15.24H16.76V18.28H18.28V13.71H19.81V18.28ZM28.95 18.28H27.43V19.81H25.9V18.28H24.38V19.81H22.85V18.28H21.33V13.71H22.85V18.28H24.38V15.24H25.9V18.28H27.43V13.71H28.95V18.28Z" fill="#6295F5"/>
<path d="M28.9499 22.86H27.4299V25.9H28.9499V22.86Z" fill="#6295F5"/>
<path d="M28.9499 6.09H27.4299V9.14H28.9499V6.09Z" fill="#6295F5"/>
<path d="M27.4299 25.9H25.8999V27.43H27.4299V25.9Z" fill="#6295F5"/>
<path d="M27.4299 4.57001H25.8999V6.09001H27.4299V4.57001Z" fill="#6295F5"/>
<path d="M25.9001 7.62001V6.09001H21.3301V4.57001H19.8101V7.62001H22.8501V9.14001H24.3801V7.62001H25.9001Z" fill="#6295F5"/>
<path d="M25.9001 27.43H22.8501V28.95H25.9001V27.43Z" fill="#6295F5"/>
<path d="M22.8501 24.38H19.8101V27.43H21.3301V25.9H25.9001V24.38H24.3801V22.86H22.8501V24.38Z" fill="#6295F5"/>
<path d="M25.9001 3.05H22.8501V4.57H25.9001V3.05Z" fill="#6295F5"/>
<path d="M22.8501 28.95H19.8101V30.48H22.8501V28.95Z" fill="#6295F5"/>
<path d="M22.8501 1.52H19.8101V3.05H22.8501V1.52Z" fill="#6295F5"/>
<path d="M19.81 27.43H18.28V28.95H19.81V27.43Z" fill="#6295F5"/>
<path d="M19.81 3.05H18.28V4.57H19.81V3.05Z" fill="#6295F5"/>
<path d="M18.2799 28.95H16.7599V30.48H15.2399V28.95H13.7099V30.48H12.1899V32H19.8099V30.48H18.2799V28.95Z" fill="#6295F5"/>
<path d="M19.8099 7.62H12.1899V9.14H19.8099V7.62Z" fill="#6295F5"/>
<path d="M19.8099 22.86H12.1899V24.38H19.8099V22.86Z" fill="#6295F5"/>
<path d="M13.7099 3.05H15.2399V1.52H16.7599V3.05H18.2799V1.52H19.8099V0H12.1899V1.52H13.7099V3.05Z" fill="#6295F5"/>
<path d="M13.7099 27.43H12.1899V28.95H13.7099V27.43Z" fill="#6295F5"/>
<path d="M13.7099 3.05H12.1899V4.57H13.7099V3.05Z" fill="#6295F5"/>
<path d="M12.1899 28.95H9.13989V30.48H12.1899V28.95Z" fill="#6295F5"/>
<path d="M12.1899 1.52H9.13989V3.05H12.1899V1.52Z" fill="#6295F5"/>
<path d="M9.14009 27.43H6.09009V28.95H9.14009V27.43Z" fill="#6295F5"/>
<path d="M9.14009 7.62001H12.1901V4.57001H10.6601V6.09001H6.09009V7.62001H7.62009V9.14001H9.14009V7.62001Z" fill="#6295F5"/>
<path d="M9.14009 3.05H6.09009V4.57H9.14009V3.05Z" fill="#6295F5"/>
<path d="M6.09009 24.38V25.9H10.6601V27.43H12.1901V24.38H9.14009V22.86H7.62009V24.38H6.09009Z" fill="#6295F5"/>
<path d="M6.09007 25.9H4.57007V27.43H6.09007V25.9Z" fill="#6295F5"/>
<path d="M6.09007 4.57001H4.57007V6.09001H6.09007V4.57001Z" fill="#6295F5"/>
<path d="M4.57005 22.86H3.05005V25.9H4.57005V22.86Z" fill="#6295F5"/>
<path d="M4.57005 6.09H3.05005V9.14H4.57005V6.09Z" fill="#6295F5"/>
</g>
<defs>
<clipPath id="clip0_2022_1307">
<rect width="32" height="32" fill="white"/>
</clipPath>
</defs>
</svg>
