<svg width="32" height="32" viewBox="0 0 32 32" fill="none" xmlns="http://www.w3.org/2000/svg">
<path fill-rule="evenodd" clip-rule="evenodd" d="M1.52 22.86H3.04V25.9H4.57V27.43H6.09V28.95H9.14V30.48H12.19V32H19.81V30.48H22.85V28.95H25.9V27.43H27.42V25.9H28.95V22.86H30.47V19.81H32V12.19H30.47V9.14H28.95V6.09H27.42V4.57H25.9V3.05H22.85V1.52H19.81V0H12.19V1.52H9.14V3.05H6.09V4.57H4.57V6.09H3.04V9.14H1.52V12.19H0V19.81H1.52V22.86ZM6 23V9H27V23H6ZM22.3435 13.6718H24.6718V11.3282H22.3435V13.6718ZM20 16H22.3435V13.6718H20V16ZM13 16V18.3282H20V16H13ZM10.6718 13.6718V16H13V13.6718H10.6718ZM10.6718 13.6718V11.3282H8.32823V13.6718H10.6718Z" fill="#6295F5"/>
</svg>
