<svg width="32" height="32" viewBox="0 0 32 32" fill="none" xmlns="http://www.w3.org/2000/svg">
<g clip-path="url(#clip0_2073_4259)">
<path d="M29.72 23.62H28.19V22.1H26.67V20.57H25.14V17.53H23.62V20.57H22.1V22.1H20.57V23.62H17.53V25.14H20.57V26.67H22.1V28.19H23.62V29.72H25.14V31.24H29.72V29.72H31.24V25.14H29.72V23.62ZM29.72 28.19H28.19V26.67H26.67V25.14H25.14V23.62H26.67V25.14H28.19V26.67H29.72V28.19Z" fill="#6295F5"/>
<path d="M26.6699 9.90999H25.1399V17.53H26.6699V9.90999Z" fill="#6295F5"/>
<path d="M25.1401 6.86H23.6201V9.91H25.1401V6.86Z" fill="#6295F5"/>
<path d="M23.6201 5.34H22.1001V6.86H23.6201V5.34Z" fill="#6295F5"/>
<path d="M22.1001 3.81H20.5701V5.34H22.1001V3.81Z" fill="#6295F5"/>
<path d="M19.05 19.05H17.53V20.57H19.05V19.05Z" fill="#6295F5"/>
<path d="M20.57 2.28999H17.53V3.80999H20.57V2.28999Z" fill="#6295F5"/>
<path d="M17.5299 20.57H9.90991V22.1H17.5299V20.57Z" fill="#6295F5"/>
<path d="M17.53 12.95H16V16H17.53V12.95Z" fill="#6295F5"/>
<path d="M17.5299 25.14H9.90991V26.67H17.5299V25.14Z" fill="#6295F5"/>
<path d="M15.9999 17.53H11.4299V19.05H15.9999V17.53Z" fill="#6295F5"/>
<path d="M17.5299 0.759995H9.90991V2.28999H17.5299V0.759995Z" fill="#6295F5"/>
<path d="M11.4299 12.95H9.90991V16H11.4299V12.95Z" fill="#6295F5"/>
<path d="M9.91011 23.62H6.86011V25.14H9.91011V23.62Z" fill="#6295F5"/>
<path d="M9.91013 19.05H8.38013V20.57H9.91013V19.05Z" fill="#6295F5"/>
<path d="M9.91011 2.28999H6.86011V3.80999H9.91011V2.28999Z" fill="#6295F5"/>
<path d="M8.38011 11.43H9.91011V9.91H17.5301V11.43H19.0501V19.05H20.5701V8.38H19.0501V6.86H17.5301V5.34H9.91011V6.86H8.38011V8.38H6.86011V19.05H8.38011V11.43Z" fill="#6295F5"/>
<path d="M6.86008 22.1H5.33008V23.62H6.86008V22.1Z" fill="#6295F5"/>
<path d="M6.86008 3.81H5.33008V5.34H6.86008V3.81Z" fill="#6295F5"/>
<path d="M5.33006 20.57H3.81006V22.1H5.33006V20.57Z" fill="#6295F5"/>
<path d="M5.33006 5.34H3.81006V6.86H5.33006V5.34Z" fill="#6295F5"/>
<path d="M3.81004 17.53H2.29004V20.57H3.81004V17.53Z" fill="#6295F5"/>
<path d="M3.81004 6.86H2.29004V9.91H3.81004V6.86Z" fill="#6295F5"/>
<path d="M2.29001 9.90999H0.76001V17.53H2.29001V9.90999Z" fill="#6295F5"/>
</g>
<defs>
<clipPath id="clip0_2073_4259">
<rect width="32" height="32" fill="white"/>
</clipPath>
</defs>
</svg>
