<svg width="96" height="81" viewBox="0 0 96 81" fill="none" xmlns="http://www.w3.org/2000/svg">
<g clip-path="url(#clip0_2314_4449)">
<path d="M39.9342 24.6191H35.5225V29.0301H39.9342V24.6191Z" fill="#B9D2FF"/>
<path d="M39.9342 20.2031H35.5225V24.6141H39.9342V20.2031Z" fill="#B9D2FF"/>
<path d="M39.9342 15.792H35.5225V20.203H39.9342V15.792Z" fill="#DCE9FB"/>
<path d="M39.9342 29.0303H35.5225V33.4413H39.9342V29.0303Z" fill="#B9D2FF"/>
<path d="M39.9342 33.4463H35.5225V37.8573H39.9342V33.4463Z" fill="#B9D2FF"/>
<path d="M39.9342 37.8574H35.5225V42.2684H39.9342V37.8574Z" fill="#B9D2FF"/>
<path d="M39.9342 42.2686H35.5225V46.6796H39.9342V42.2686Z" fill="#B9D2FF"/>
<path d="M35.5221 33.4463H31.1104V37.8573H35.5221V33.4463Z" fill="#DCE9FB"/>
<path d="M35.5221 37.8574H31.1104V42.2684H35.5221V37.8574Z" fill="#B9D2FF"/>
<path d="M31.1051 37.8574H26.6934V42.2684H31.1051V37.8574Z" fill="#B9D2FF"/>
<path d="M31.1051 46.6846H26.6934V51.0956H31.1051V46.6846Z" fill="#DCE9FB"/>
<path d="M31.1051 29.0303H26.6934V33.4413H31.1051V29.0303Z" fill="#DCE9FB"/>
<path d="M26.694 37.8574H22.2822V42.2684H26.694V37.8574Z" fill="#B9D2FF"/>
<path d="M22.277 37.8574H17.8652V42.2684H22.277V37.8574Z" fill="#DCE9FB"/>
<path d="M35.5221 42.2686H31.1104V46.6796H35.5221V42.2686Z" fill="#DCE9FB"/>
<path d="M44.3463 33.4463H39.9346V37.8573H44.3463V33.4463Z" fill="#DCE9FB"/>
<path d="M44.3463 37.8574H39.9346V42.2684H44.3463V37.8574Z" fill="#B9D2FF"/>
<path d="M91.5885 24.1104H87.1768V28.5214H91.5885V24.1104Z" fill="#B9D2FF"/>
<path d="M91.5885 28.5215H87.1768V32.9325H91.5885V28.5215Z" fill="#B9D2FF"/>
<path d="M91.5885 32.9375H87.1768V37.3485H91.5885V32.9375Z" fill="#B9D2FF"/>
<path d="M87.1715 28.5215H82.7598V32.9325H87.1715V28.5215Z" fill="#B9D2FF"/>
<path d="M95.9997 28.5215H91.5879V32.9325H95.9997V28.5215Z" fill="#B9D2FF"/>
<path d="M8.82387 67.7275H4.41211V72.1385H8.82387V67.7275Z" fill="#B9D2FF"/>
<path d="M8.82387 76.5498H4.41211V80.9608H8.82387V76.5498Z" fill="#B9D2FF"/>
<path d="M4.41176 72.1387H0V76.5497H4.41176V72.1387Z" fill="#B9D2FF"/>
<path d="M13.2409 72.1387H8.8291V76.5497H13.2409V72.1387Z" fill="#B9D2FF"/>
<path d="M48.7633 37.8574H44.3516V42.2684H48.7633V37.8574Z" fill="#B9D2FF"/>
<path d="M48.7633 46.6846H44.3516V51.0956H48.7633V46.6846Z" fill="#DCE9FB"/>
<path d="M48.7633 29.0303H44.3516V33.4413H48.7633V29.0303Z" fill="#DCE9FB"/>
<path d="M77.6989 0.96582H73.2871V5.37682H77.6989V0.96582Z" fill="#DCE9FB"/>
<path d="M53.1745 37.8574H48.7627V42.2684H53.1745V37.8574Z" fill="#B9D2FF"/>
<path d="M57.5915 37.8574H53.1797V42.2684H57.5915V37.8574Z" fill="#DCE9FB"/>
<path d="M44.3463 42.2686H39.9346V46.6796H44.3463V42.2686Z" fill="#DCE9FB"/>
<path d="M39.9342 46.6846H35.5225V51.0956H39.9342V46.6846Z" fill="#B9D2FF"/>
<path d="M39.9342 51.0957H35.5225V55.5067H39.9342V51.0957Z" fill="#B9D2FF"/>
<path d="M39.9342 55.5117H35.5225V59.9227H39.9342V55.5117Z" fill="#B9D2FF"/>
<path d="M39.9342 59.9229H35.5225V64.3339H39.9342V59.9229Z" fill="#DCE9FB"/>
<path d="M82.9831 60.0684H78.5713V64.4794H82.9831V60.0684Z" fill="#B9D2FF"/>
<path d="M78.5709 60.0684H74.1592V64.4794H78.5709V60.0684Z" fill="#B9D2FF"/>
<path d="M82.9831 73.3066H78.5713V77.7176H82.9831V73.3066Z" fill="#B9D2FF"/>
<path d="M78.5709 73.3066H74.1592V77.7176H78.5709V73.3066Z" fill="#B9D2FF"/>
<path d="M87.4 64.4795H82.9883V68.8905H87.4V64.4795Z" fill="#B9D2FF"/>
<path d="M87.4 68.8955H82.9883V73.3065H87.4V68.8955Z" fill="#B9D2FF"/>
<path d="M74.154 64.4795H69.7422V68.8905H74.154V64.4795Z" fill="#B9D2FF"/>
<path d="M74.154 68.8955H69.7422V73.3065H74.154V68.8955Z" fill="#B9D2FF"/>
</g>
<defs>
<clipPath id="clip0_2314_4449">
<rect width="96" height="80" fill="white" transform="translate(0 0.96582)"/>
</clipPath>
</defs>
</svg>
