<svg width="32" height="32" viewBox="0 0 32 32" fill="none" xmlns="http://www.w3.org/2000/svg">
<g clip-path="url(#clip0_2115_8375)">
<path d="M30.4801 19.045H28.9501V16H27.4301V19.05H22.8601V20.57H21.3301V26.67H22.8601V28.19H24.3801V29.72H25.9101V28.19H28.9501V26.67H30.4801V25.15H32.0001V20.57H30.4801V19.045ZM25.9101 25.145H24.3801V22.1H25.9101V25.145ZM28.9501 25.145H27.4301V22.1H28.9501V25.145Z" fill="#6295F5"/>
<path d="M27.4299 14.475H25.9099V15.995H27.4299V14.475Z" fill="#6295F5"/>
<path d="M25.9099 15.995H24.3799V17.525H25.9099V15.995Z" fill="#6295F5"/>
<path d="M25.9099 11.425H24.3799V14.475H25.9099V11.425Z" fill="#6295F5"/>
<path d="M24.3801 9.905H21.3301V11.425H24.3801V9.905Z" fill="#6295F5"/>
<path d="M24.3801 3.80499H22.8601V5.33499H24.3801V3.80499Z" fill="#6295F5"/>
<path d="M24.3801 29.715H21.3301V31.235H24.3801V29.715Z" fill="#6295F5"/>
<path d="M21.3299 28.185H12.1899V29.715H21.3299V28.185Z" fill="#6295F5"/>
<path d="M21.3301 15.995H19.8101V17.525H21.3301V15.995Z" fill="#6295F5"/>
<path d="M19.81 8.375H18.29V9.905H19.81V8.375Z" fill="#6295F5"/>
<path d="M19.81 3.805H21.33V2.285H19.81V0.764999H18.29V2.285H16.76V3.805H18.29V5.335H19.81V3.805Z" fill="#6295F5"/>
<path d="M21.33 14.475V11.425H19.81V12.955H18.29V11.425H16.76V14.475H21.33Z" fill="#6295F5"/>
<path d="M16.76 9.905H13.71V11.425H16.76V9.905Z" fill="#6295F5"/>
<path d="M16.76 5.33501H15.24V6.85501H16.76V5.33501Z" fill="#6295F5"/>
<path d="M13.7099 3.80499H12.1899V8.37499H13.7099V3.80499Z" fill="#6295F5"/>
<path d="M13.7099 14.475V11.425H12.1899V12.955H9.13989V14.475H13.7099Z" fill="#6295F5"/>
<path d="M12.1899 8.375H10.6699V9.905H12.1899V8.375Z" fill="#6295F5"/>
<path d="M12.1899 2.285H10.6699V3.805H12.1899V2.285Z" fill="#6295F5"/>
<path d="M12.1899 29.715H9.13989V31.235H12.1899V29.715Z" fill="#6295F5"/>
<path d="M9.14012 26.665H7.62012V29.715H9.14012V26.665Z" fill="#6295F5"/>
<path d="M9.14012 14.475H7.62012V15.995H9.14012V14.475Z" fill="#6295F5"/>
<path d="M10.6701 9.905H6.1001V11.425H10.6701V9.905Z" fill="#6295F5"/>
<path d="M10.6701 3.80499H6.1001V8.37499H10.6701V3.80499Z" fill="#6295F5"/>
<path d="M10.6701 0.764999H6.1001V2.285H10.6701V0.764999Z" fill="#6295F5"/>
<path d="M7.6201 25.145H6.1001V26.665H7.6201V25.145Z" fill="#6295F5"/>
<path d="M7.6201 15.995H6.1001V17.525H7.6201V15.995Z" fill="#6295F5"/>
<path d="M6.10007 17.525H4.57007V25.145H6.10007V17.525Z" fill="#6295F5"/>
<path d="M6.10007 8.375H4.57007V9.905H6.10007V8.375Z" fill="#6295F5"/>
<path d="M6.10007 2.285H4.57007V3.805H6.10007V2.285Z" fill="#6295F5"/>
<path d="M4.57005 12.955H3.05005V14.475H4.57005V12.955Z" fill="#6295F5"/>
<path d="M4.57005 3.80499H3.05005V8.37499H4.57005V3.80499Z" fill="#6295F5"/>
<path d="M3.05002 14.475H1.52002V15.995H3.05002V14.475Z" fill="#6295F5"/>
<path d="M3.05002 11.425H1.52002V12.955H3.05002V11.425Z" fill="#6295F5"/>
<path d="M3.05002 0.764999H1.52002V2.285H3.05002V0.764999Z" fill="#6295F5"/>
<path d="M1.52 12.955H0V14.475H1.52V12.955Z" fill="#6295F5"/>
<path d="M1.52 6.855H0V8.375H1.52V6.855Z" fill="#6295F5"/>
</g>
<defs>
<clipPath id="clip0_2115_8375">
<rect width="32" height="32" fill="white"/>
</clipPath>
</defs>
</svg>
