<svg width="32" height="32" viewBox="0 0 32 32" fill="none" xmlns="http://www.w3.org/2000/svg">
<g clip-path="url(#clip0_2022_1525)">
<path d="M29.72 23.62H28.19V22.09H26.67V20.57H25.15V17.52H23.62V20.57H22.1V22.09H20.57V23.62H17.53V25.14H20.57V26.67H22.1V28.19H23.62V29.71H25.15V31.24H29.72V29.71H31.24V25.14H29.72V23.62ZM29.72 28.19H28.19V26.67H26.67V25.14H25.15V23.62H26.67V25.14H28.19V26.67H29.72V28.19Z" fill="#6295F5"/>
<path d="M26.6699 9.89999H25.1499V17.52H26.6699V9.89999Z" fill="#6295F5"/>
<path d="M25.1501 6.86H23.6201V9.9H25.1501V6.86Z" fill="#6295F5"/>
<path d="M23.6201 5.32999H22.1001V6.85999H23.6201V5.32999Z" fill="#6295F5"/>
<path d="M22.1001 9.89999H20.5701V17.52H22.1001V9.89999Z" fill="#6295F5"/>
<path d="M22.1001 3.81H20.5701V5.33H22.1001V3.81Z" fill="#6295F5"/>
<path d="M20.57 17.52H19.05V19.05H20.57V17.52Z" fill="#6295F5"/>
<path d="M20.57 8.37999H19.05V9.89999H20.57V8.37999Z" fill="#6295F5"/>
<path d="M19.05 19.05H17.53V20.57H19.05V19.05Z" fill="#6295F5"/>
<path d="M19.05 6.86H17.53V8.38H19.05V6.86Z" fill="#6295F5"/>
<path d="M20.57 2.28H17.53V3.81H20.57V2.28Z" fill="#6295F5"/>
<path d="M17.5299 20.57H9.90991V22.09H17.5299V20.57Z" fill="#6295F5"/>
<path d="M17.53 14.47H16V16H17.53V14.47Z" fill="#6295F5"/>
<path d="M17.5299 25.14H9.90991V26.67H17.5299V25.14Z" fill="#6295F5"/>
<path d="M11.4299 16V17.52H12.9599V19.05H14.4799V17.52H15.9999V16H11.4299Z" fill="#6295F5"/>
<path d="M15.9999 11.43V9.89999H14.4799V8.37999H12.9599V9.89999H11.4299V11.43H15.9999Z" fill="#6295F5"/>
<path d="M15.9999 12.95H11.4299V14.47H15.9999V12.95Z" fill="#6295F5"/>
<path d="M17.5299 5.32999H9.90991V6.85999H17.5299V5.32999Z" fill="#6295F5"/>
<path d="M17.5299 0.759995H9.90991V2.27999H17.5299V0.759995Z" fill="#6295F5"/>
<path d="M11.4299 11.43H9.90991V12.95H11.4299V11.43Z" fill="#6295F5"/>
<path d="M9.91011 23.62H6.86011V25.14H9.91011V23.62Z" fill="#6295F5"/>
<path d="M9.91013 19.05H8.38013V20.57H9.91013V19.05Z" fill="#6295F5"/>
<path d="M9.91013 6.86H8.38013V8.38H9.91013V6.86Z" fill="#6295F5"/>
<path d="M9.91011 2.28H6.86011V3.81H9.91011V2.28Z" fill="#6295F5"/>
<path d="M8.38011 17.52H6.86011V19.05H8.38011V17.52Z" fill="#6295F5"/>
<path d="M8.38011 8.37999H6.86011V9.89999H8.38011V8.37999Z" fill="#6295F5"/>
<path d="M6.86009 22.09H5.34009V23.62H6.86009V22.09Z" fill="#6295F5"/>
<path d="M6.86009 9.89999H5.34009V17.52H6.86009V9.89999Z" fill="#6295F5"/>
<path d="M6.86009 3.81H5.34009V5.33H6.86009V3.81Z" fill="#6295F5"/>
<path d="M5.34006 20.57H3.81006V22.09H5.34006V20.57Z" fill="#6295F5"/>
<path d="M5.34006 5.32999H3.81006V6.85999H5.34006V5.32999Z" fill="#6295F5"/>
<path d="M3.81004 17.52H2.29004V20.57H3.81004V17.52Z" fill="#6295F5"/>
<path d="M3.81004 6.86H2.29004V9.9H3.81004V6.86Z" fill="#6295F5"/>
<path d="M2.29001 9.89999H0.76001V17.52H2.29001V9.89999Z" fill="#6295F5"/>
</g>
<defs>
<clipPath id="clip0_2022_1525">
<rect width="32" height="32" fill="white"/>
</clipPath>
</defs>
</svg>
