<svg width="32" height="32" viewBox="0 0 32 32" fill="none" xmlns="http://www.w3.org/2000/svg">
<g clip-path="url(#clip0_2115_8374)">
<path d="M32 18.29H30.47V19.81H32V18.29Z" fill="#6295F5"/>
<path d="M30.4699 19.81H28.95V21.33H30.4699V19.81Z" fill="#6295F5"/>
<path d="M30.4699 16.76H28.95V18.29H30.4699V16.76Z" fill="#6295F5"/>
<path d="M28.9499 21.33H27.4299V22.86H28.9499V21.33Z" fill="#6295F5"/>
<path d="M28.9499 15.24H27.4299V16.76H28.9499V15.24Z" fill="#6295F5"/>
<path d="M27.4299 22.86H25.8999V24.38H27.4299V22.86Z" fill="#6295F5"/>
<path d="M27.4299 13.72H25.8999V15.24H27.4299V13.72Z" fill="#6295F5"/>
<path d="M25.8999 24.38H24.3799V25.91H25.8999V24.38Z" fill="#6295F5"/>
<path d="M25.8999 12.19H24.3799V13.72H25.8999V12.19Z" fill="#6295F5"/>
<path d="M24.3801 25.91H22.8601V27.43H24.3801V25.91Z" fill="#6295F5"/>
<path d="M24.3801 10.67H22.8601V12.19H24.3801V10.67Z" fill="#6295F5"/>
<path d="M22.8601 27.43H21.3301V28.95H22.8601V27.43Z" fill="#6295F5"/>
<path d="M22.8601 21.33H21.3301V22.86H22.8601V21.33Z" fill="#6295F5"/>
<path d="M22.8601 16.76H21.3301V19.81H22.8601V16.76Z" fill="#6295F5"/>
<path d="M22.8601 9.14H21.3301V10.67H22.8601V9.14Z" fill="#6295F5"/>
<path d="M21.3301 28.95H19.8101V30.48H21.3301V28.95Z" fill="#6295F5"/>
<path d="M21.3301 19.81H19.8101V21.33H21.3301V19.81Z" fill="#6295F5"/>
<path d="M21.33 15.24H18.28V16.76H21.33V15.24Z" fill="#6295F5"/>
<path d="M21.3301 7.62H19.8101V9.14H21.3301V7.62Z" fill="#6295F5"/>
<path d="M19.81 30.48H18.28V32H19.81V30.48Z" fill="#6295F5"/>
<path d="M19.81 18.29H18.28V19.81H19.81V18.29Z" fill="#6295F5"/>
<path d="M19.81 6.10001H18.28V7.62001H19.81V6.10001Z" fill="#6295F5"/>
<path d="M18.28 28.95H16.76V30.48H18.28V28.95Z" fill="#6295F5"/>
<path d="M19.81 21.33H16.76V22.86H19.81V21.33Z" fill="#6295F5"/>
<path d="M18.28 16.76H16.76V18.29H18.28V16.76Z" fill="#6295F5"/>
<path d="M18.28 12.19H15.24V13.72H18.28V12.19Z" fill="#6295F5"/>
<path d="M18.28 4.57001H16.76V6.10001H18.28V4.57001Z" fill="#6295F5"/>
<path d="M16.76 27.43H15.24V28.95H16.76V27.43Z" fill="#6295F5"/>
<path d="M16.76 15.24H15.24V16.76H16.76V15.24Z" fill="#6295F5"/>
<path d="M16.76 3.05H15.24V4.57H16.76V3.05Z" fill="#6295F5"/>
<path d="M15.24 25.91H13.71V27.43H15.24V25.91Z" fill="#6295F5"/>
<path d="M16.76 18.29H13.71V19.81H16.76V18.29Z" fill="#6295F5"/>
<path d="M15.24 13.72H13.71V15.24H15.24V13.72Z" fill="#6295F5"/>
<path d="M13.7099 24.38H12.1899V25.91H13.7099V24.38Z" fill="#6295F5"/>
<path d="M13.7099 15.24H12.1899V18.29H13.7099V15.24Z" fill="#6295F5"/>
<path d="M13.7099 12.19H12.1899V13.72H13.7099V12.19Z" fill="#6295F5"/>
<path d="M12.1899 22.86H10.6599V24.38H12.1899V22.86Z" fill="#6295F5"/>
<path d="M10.6599 21.33H9.13989V22.86H10.6599V21.33Z" fill="#6295F5"/>
<path d="M9.14007 7.62001H7.62007V9.14001H6.09007V7.62001H4.57007V10.67H10.6601V4.57001H7.62007V6.10001H9.14007V7.62001Z" fill="#6295F5"/>
<path d="M9.14012 19.81H7.62012V21.33H9.14012V19.81Z" fill="#6295F5"/>
<path d="M7.62009 18.29H6.09009V19.81H7.62009V18.29Z" fill="#6295F5"/>
<path d="M7.62009 6.10001H6.09009V7.62001H7.62009V6.10001Z" fill="#6295F5"/>
<path d="M15.2401 1.52H4.57007V3.05H15.2401V1.52Z" fill="#6295F5"/>
<path d="M6.09007 16.76H4.57007V18.29H6.09007V16.76Z" fill="#6295F5"/>
<path d="M6.09007 4.57001H4.57007V6.10001H6.09007V4.57001Z" fill="#6295F5"/>
<path d="M4.57005 15.24H3.05005V16.76H4.57005V15.24Z" fill="#6295F5"/>
<path d="M4.57005 3.05H3.05005V4.57H4.57005V3.05Z" fill="#6295F5"/>
<path d="M3.05002 4.57001H1.52002V15.24H3.05002V4.57001Z" fill="#6295F5"/>
<path d="M3.05002 1.52H1.52002V3.05H3.05002V1.52Z" fill="#6295F5"/>
<path d="M1.52 0H0V1.52H1.52V0Z" fill="#6295F5"/>
</g>
<defs>
<clipPath id="clip0_2115_8374">
<rect width="32" height="32" fill="white"/>
</clipPath>
</defs>
</svg>
