<svg width="32" height="32" viewBox="0 0 32 32" fill="none" xmlns="http://www.w3.org/2000/svg">
<path d="M18.2848 6.09501H21.3348V7.61501H22.8548V9.14501H24.3848V12.195H25.9048V19.805H24.3848V22.855H22.8548V24.385H21.3348V25.905H18.2848V27.425H10.6648V28.955H21.3348V27.425H24.3848V25.905H25.9048V24.385H27.4348V22.855H28.9548V19.805H30.4748V12.195H28.9548V9.14501H27.4348V7.61501H25.9048V6.09501H24.3848V4.57501H21.3348V3.04501H10.6648V4.57501H18.2848V6.09501Z" fill="#6295F5"/>
<path d="M24.385 12.195H22.855V19.805H24.385V12.195Z" fill="#6295F5"/>
<path d="M22.855 19.805H21.335V21.335H22.855V19.805Z" fill="#6295F5"/>
<path d="M22.855 10.665H21.335V12.195H22.855V10.665Z" fill="#6295F5"/>
<path d="M21.3349 21.335H19.8149V22.855H21.3349V21.335Z" fill="#6295F5"/>
<path d="M21.3349 9.14502H19.8149V10.665H21.3349V9.14502Z" fill="#6295F5"/>
<path d="M19.8149 22.855H18.2849V24.385H19.8149V22.855Z" fill="#6295F5"/>
<path d="M19.8149 7.61502H18.2849V9.14502H19.8149V7.61502Z" fill="#6295F5"/>
<path d="M18.2848 24.385H10.6648V25.905H18.2848V24.385Z" fill="#6295F5"/>
<path d="M18.2849 16.765H16.7649V19.805H18.2849V16.765Z" fill="#6295F5"/>
<path d="M18.2849 12.195H16.7649V13.715H18.2849V12.195Z" fill="#6295F5"/>
<path d="M18.2848 6.095H10.6648V7.615H18.2848V6.095Z" fill="#6295F5"/>
<path d="M13.7148 21.335V22.855H15.2348V21.335H16.7648V19.805H15.2348V16.765H16.7648V15.235H15.2348V12.195H16.7648V10.665H15.2348V9.14502H13.7148V10.665H12.1948V12.195H13.7148V15.235H12.1948V16.765H13.7148V19.805H12.1948V21.335H13.7148Z" fill="#6295F5"/>
<path d="M12.1948 18.285H10.6648V19.805H12.1948V18.285Z" fill="#6295F5"/>
<path d="M12.1948 12.195H10.6648V15.235H12.1948V12.195Z" fill="#6295F5"/>
<path d="M10.665 25.905H7.625V27.425H10.665V25.905Z" fill="#6295F5"/>
<path d="M10.665 22.855H9.14502V24.385H10.665V22.855Z" fill="#6295F5"/>
<path d="M10.665 7.61502H9.14502V9.14502H10.665V7.61502Z" fill="#6295F5"/>
<path d="M10.665 4.57501H7.625V6.09501H10.665V4.57501Z" fill="#6295F5"/>
<path d="M9.145 21.335H7.625V22.855H9.145V21.335Z" fill="#6295F5"/>
<path d="M9.145 9.14502H7.625V10.665H9.145V9.14502Z" fill="#6295F5"/>
<path d="M7.62497 24.385H6.09497V25.905H7.62497V24.385Z" fill="#6295F5"/>
<path d="M7.62497 19.805H6.09497V21.335H7.62497V19.805Z" fill="#6295F5"/>
<path d="M7.62497 10.665H6.09497V12.195H7.62497V10.665Z" fill="#6295F5"/>
<path d="M7.62497 6.095H6.09497V7.615H7.62497V6.095Z" fill="#6295F5"/>
<path d="M6.09495 22.855H4.57495V24.385H6.09495V22.855Z" fill="#6295F5"/>
<path d="M6.09495 12.195H4.57495V19.805H6.09495V12.195Z" fill="#6295F5"/>
<path d="M6.09495 7.61502H4.57495V9.14502H6.09495V7.61502Z" fill="#6295F5"/>
<path d="M4.57492 19.805H3.04492V22.855H4.57492V19.805Z" fill="#6295F5"/>
<path d="M4.57492 9.14502H3.04492V12.195H4.57492V9.14502Z" fill="#6295F5"/>
<path d="M3.0449 12.195H1.5249V19.805H3.0449V12.195Z" fill="#6295F5"/>
</svg>
