<svg width="32" height="32" viewBox="0 0 32 32" fill="none" xmlns="http://www.w3.org/2000/svg">
<g clip-path="url(#clip0_2345_4778)">
<path d="M28.9519 4.57498H27.4319V30.475H28.9519V4.57498Z" fill="#6295F5"/>
<path d="M27.4321 3.04498H25.9021V4.57498H27.4321V3.04498Z" fill="#6295F5"/>
<path d="M25.9021 1.52499H24.3821V3.04499H25.9021V1.52499Z" fill="#6295F5"/>
<path d="M25.9 7.61498H24.38V6.09998H22.86V4.57498H21.33V3.04498H3.052V32H25.9V7.61498ZM24.38 30.475H4.572V4.57498H18.282V10.665H24.382L24.38 30.475Z" fill="#6295F5"/>
<path d="M24.382 -0.00500488H4.57202V1.525H24.382V-0.00500488Z" fill="#6295F5"/>
<path d="M21.3321 25.905H7.62207V27.425H21.3321V25.905Z" fill="#6295F5"/>
<path d="M21.3321 19.805H7.62207V21.335H21.3321V19.805Z" fill="#6295F5"/>
<path d="M21.3321 13.715H7.62207V15.235H21.3321V13.715Z" fill="#6295F5"/>
<path d="M13.7121 7.61499H7.62207V9.14499H13.7121V7.61499Z" fill="#6295F5"/>
</g>
<defs>
<clipPath id="clip0_2345_4778">
<rect width="32" height="32" fill="white"/>
</clipPath>
</defs>
</svg>
