<svg width="32" height="32" viewBox="0 0 32 32" fill="none" xmlns="http://www.w3.org/2000/svg">
<path d="M0 3.81V28.19H32V3.81H0ZM7.61 26.66H1.52V5.33H7.61V26.66ZM22.85 26.66H9.14V5.33H22.85V26.66ZM30.47 26.66H24.38V5.33H30.47V26.66Z" fill="#6295F5"/>
<path d="M28.9499 20.57H25.8999V23.62H28.9499V20.57Z" fill="#6295F5"/>
<path d="M28.9499 14.47H25.8999V17.52H28.9499V14.47Z" fill="#6295F5"/>
<path d="M28.9499 8.38H25.8999V11.43H28.9499V8.38Z" fill="#6295F5"/>
<path d="M15.2299 19.05H16.7599V17.52H18.2799V16H19.7999V14.47H18.2799V12.95H16.7599V11.43H15.2299V9.89999H12.1899V20.57H15.2299V19.05Z" fill="#6295F5"/>
<path d="M6.09004 20.57H3.04004V23.62H6.09004V20.57Z" fill="#6295F5"/>
<path d="M6.09004 14.47H3.04004V17.52H6.09004V14.47Z" fill="#6295F5"/>
<path d="M6.09004 8.38H3.04004V11.43H6.09004V8.38Z" fill="#6295F5"/>
</svg>
