<svg width="32" height="32" viewBox="0 0 32 32" fill="none" xmlns="http://www.w3.org/2000/svg">
<path d="M24.375 9.14999V10.67H22.8549V12.19H24.375V27.43H21.325V28.95H24.375V30.48H30.475V9.14999H24.375ZM27.4249 15.24H25.905V12.19H27.4249V15.24Z" fill="#6295F5"/>
<path d="M22.8549 9.14999H21.325V10.67H22.8549V9.14999Z" fill="#6295F5"/>
<path d="M21.3249 7.62H19.8049V9.14999H21.3249V7.62Z" fill="#6295F5"/>
<path d="M21.3249 28.95H19.8049V30.48H21.3249V28.95Z" fill="#6295F5"/>
<path d="M19.8049 1.53H18.2849V7.62H19.8049V1.53Z" fill="#6295F5"/>
<path d="M18.2849 0H15.2349V1.53H18.2849V0Z" fill="#6295F5"/>
<path d="M19.805 30.48H6.09497V32H19.805V30.48Z" fill="#6295F5"/>
<path d="M16.7549 10.67H15.2349V12.19H16.7549V10.67Z" fill="#6295F5"/>
<path d="M15.2348 1.53H13.7148V3.05H15.2348V1.53Z" fill="#6295F5"/>
<path d="M15.2348 9.14999H13.7148V10.67H15.2348V9.14999Z" fill="#6295F5"/>
<path d="M13.7148 3.04999H12.1848V9.14999H13.7148V3.04999Z" fill="#6295F5"/>
<path d="M15.2349 12.19H4.56494V13.72H15.2349V12.19Z" fill="#6295F5"/>
<path d="M10.6649 27.43V25.91H3.04492V28.95H4.56492V27.43H10.6649Z" fill="#6295F5"/>
<path d="M6.09494 28.95H4.56494V30.48H6.09494V28.95Z" fill="#6295F5"/>
<path d="M4.56492 13.72H3.04492V15.24H4.56492V13.72Z" fill="#6295F5"/>
<path d="M9.1349 22.86V21.34H3.0449V18.29H9.1349V16.76H3.0449V15.24H1.5249V25.91H3.0449V22.86H9.1349Z" fill="#6295F5"/>
</svg>
