<svg width="32" height="32" viewBox="0 0 32 32" fill="none" xmlns="http://www.w3.org/2000/svg">
<g clip-path="url(#clip0_2115_8261)">
<path d="M31.24 3.81H29.71V28.19H31.24V3.81Z" fill="white"/>
<path d="M29.7099 28.19H28.1899V29.71H29.7099V28.19Z" fill="white"/>
<path d="M29.7099 2.28H28.1899V3.81H29.7099V2.28Z" fill="white"/>
<path d="M28.1901 29.71H3.81006V31.24H28.1901V29.71Z" fill="white"/>
<path d="M25.1401 20.57H6.86008V22.09H5.33008V25.14H6.86008V23.62H25.1401V25.14H26.6701V22.09H25.1401V20.57Z" fill="white"/>
<path d="M25.1401 12.95H6.86008V14.47H5.33008V17.52H6.86008V16H25.1401V17.52H26.6701V14.47H25.1401V12.95Z" fill="white"/>
<path d="M25.1401 5.32999H6.86008V6.84999H5.33008V9.89999H6.86008V8.37999H25.1401V9.89999H26.6701V6.84999H25.1401V5.32999Z" fill="white"/>
<path d="M25.1401 25.14H6.86011V26.66H25.1401V25.14Z" fill="white"/>
<path d="M25.1401 17.52H6.86011V19.04H25.1401V17.52Z" fill="white"/>
<path d="M25.1401 9.89999H6.86011V11.43H25.1401V9.89999Z" fill="white"/>
<path d="M28.1901 0.759995H3.81006V2.27999H28.1901V0.759995Z" fill="white"/>
<path d="M3.81004 28.19H2.29004V29.71H3.81004V28.19Z" fill="white"/>
<path d="M3.81004 2.28H2.29004V3.81H3.81004V2.28Z" fill="white"/>
<path d="M2.29001 3.81H0.76001V28.19H2.29001V3.81Z" fill="white"/>
</g>
<defs>
<clipPath id="clip0_2115_8261">
<rect width="32" height="32" fill="white"/>
</clipPath>
</defs>
</svg>
