<svg width="32" height="32" viewBox="0 0 32 32" fill="none" xmlns="http://www.w3.org/2000/svg">
<g clip-path="url(#clip0_2325_12989)">
<path d="M31.2348 8.38H29.7148V20.57H31.2348V8.38Z" fill="#6295F5"/>
<path d="M29.7148 20.57H28.1948V22.09H29.7148V20.57Z" fill="#6295F5"/>
<path d="M29.7148 6.86002H28.1948V8.38002H29.7148V6.86002Z" fill="#6295F5"/>
<path d="M28.1948 22.09H26.6648V23.62H28.1948V22.09Z" fill="#6295F5"/>
<path d="M28.1948 5.33002H26.6648V6.86002H28.1948V5.33002Z" fill="#6295F5"/>
<path d="M26.6648 23.62H25.1448V25.14H26.6648V23.62Z" fill="#6295F5"/>
<path d="M26.6648 3.81H25.1448V5.33H26.6648V3.81Z" fill="#6295F5"/>
<path d="M25.145 25.14H23.615V26.66H25.145V25.14Z" fill="#6295F5"/>
<path d="M25.145 12.95H22.095V16H25.145V12.95Z" fill="white"/>
<path d="M25.145 2.28H22.095V3.81H25.145V2.28Z" fill="#6295F5"/>
<path d="M23.615 26.66H20.575V28.19H23.615V26.66Z" fill="#6295F5"/>
<path d="M20.5749 28.19H17.5249V29.71H20.5749V28.19Z" fill="#6295F5"/>
<path d="M6.85494 29.71V28.19H5.33494V29.71H3.81494V31.24H17.5249V29.71H6.85494Z" fill="#6295F5"/>
<path d="M17.5249 12.95H14.4749V16H17.5249V12.95Z" fill="white"/>
<path d="M22.0948 0.76001H11.4248V2.28001H22.0948V0.76001Z" fill="#6295F5"/>
<path d="M11.425 2.28H8.38501V3.81H11.425V2.28Z" fill="#6295F5"/>
<path d="M8.38498 26.66H9.90498V25.14H6.85498V28.19H8.38498V26.66Z" fill="#6295F5"/>
<path d="M9.90498 12.95H6.85498V16H9.90498V12.95Z" fill="white"/>
<path d="M8.38496 3.81H5.33496V5.33H8.38496V3.81Z" fill="#6295F5"/>
<path d="M6.85496 23.62H5.33496V25.14H6.85496V23.62Z" fill="#6295F5"/>
<path d="M5.33494 22.09H3.81494V23.62H5.33494V22.09Z" fill="#6295F5"/>
<path d="M5.33494 5.33002H3.81494V6.86002H5.33494V5.33002Z" fill="#6295F5"/>
<path d="M3.81491 20.57H2.28491V22.09H3.81491V20.57Z" fill="#6295F5"/>
<path d="M3.81491 6.86002H2.28491V8.38002H3.81491V6.86002Z" fill="#6295F5"/>
<path d="M2.28489 8.38H0.764893V20.57H2.28489V8.38Z" fill="#6295F5"/>
</g>
<defs>
<clipPath id="clip0_2325_12989">
<rect width="32" height="32" fill="white"/>
</clipPath>
</defs>
</svg>
