<svg width="32" height="32" viewBox="0 0 32 32" fill="none" xmlns="http://www.w3.org/2000/svg">
<path d="M2.28518 8.38H3.81519V14.47H2.28518V8.38Z" fill="#6295F5"/>
<path d="M3.81521 14.47H5.33521V17.52H3.81521V14.47Z" fill="#6295F5"/>
<path d="M3.81521 6.85999H5.33521V8.37999H3.81521V6.85999Z" fill="#6295F5"/>
<path d="M5.33498 17.52H6.85498V19.05H5.33498V17.52Z" fill="#6295F5"/>
<path d="M5.33498 5.32999H6.85498V6.85999H5.33498V5.32999Z" fill="#6295F5"/>
<path d="M6.85501 19.05H8.38501V20.57H6.85501V19.05Z" fill="#6295F5"/>
<path d="M6.85501 9.89999H8.38501V14.47H6.85501V9.89999Z" fill="#6295F5"/>
<path d="M6.85508 3.81H12.9551V5.33H6.85508V3.81Z" fill="#6295F5"/>
<path d="M8.38503 20.57H9.90503V22.09H8.38503V20.57Z" fill="#6295F5"/>
<path d="M8.38503 14.47H9.90503V16H8.38503V14.47Z" fill="#6295F5"/>
<path d="M8.38508 8.38H12.9551V9.9H8.38508V8.38Z" fill="#6295F5"/>
<path d="M9.90506 22.09H11.4351V23.62H9.90506V22.09Z" fill="#6295F5"/>
<path d="M9.90506 16H11.4351V17.52H9.90506V16Z" fill="#6295F5"/>
<path d="M11.4351 23.62H12.9551V25.14H11.4351V23.62Z" fill="#6295F5"/>
<path d="M11.4351 17.52H12.9551V19.05H11.4351V17.52Z" fill="#6295F5"/>
<path d="M12.9551 25.14H14.4751V26.67H12.9551V25.14Z" fill="#6295F5"/>
<path d="M12.9551 19.05H14.4751V20.57H12.9551V19.05Z" fill="#6295F5"/>
<path d="M12.9551 9.89999H14.4751V11.43H12.9551V9.89999Z" fill="#6295F5"/>
<path d="M14.4751 20.57H16.0051V22.09H14.4751V20.57Z" fill="#6295F5"/>
<path d="M14.4751 11.43H16.0051V12.95H14.4751V11.43Z" fill="#6295F5"/>
<path d="M12.9551 5.32999H16.0051V6.85999H12.9551V5.32999Z" fill="#6295F5"/>
<path d="M16.0051 22.09H17.5251V23.62H16.0051V22.09Z" fill="#6295F5"/>
<path d="M16.0051 12.95H17.5251V14.47H16.0051V12.95Z" fill="#6295F5"/>
<path d="M16.0051 6.85999H17.5251V8.37999H16.0051V6.85999Z" fill="#6295F5"/>
<path d="M17.5252 23.62H19.0552V25.14H17.5252V23.62Z" fill="#6295F5"/>
<path d="M17.5252 14.47H19.0552V16H17.5252V14.47Z" fill="#6295F5"/>
<path d="M17.5252 8.38H19.0552V9.9H17.5252V8.38Z" fill="#6295F5"/>
<path d="M19.0552 25.14H20.5752V26.67H19.0552V25.14Z" fill="#6295F5"/>
<path d="M19.0552 16H20.5752V17.52H19.0552V16Z" fill="#6295F5"/>
<path d="M19.0552 9.89999H20.5752V11.43H19.0552V9.89999Z" fill="#6295F5"/>
<path d="M20.575 17.52H22.095V19.05H20.575V17.52Z" fill="#6295F5"/>
<path d="M20.575 11.43H22.095V12.95H20.575V11.43Z" fill="#6295F5"/>
<path d="M22.095 12.95H23.625V14.47H22.095V12.95Z" fill="#6295F5"/>
<path d="M23.625 14.47H25.145V16H23.625V14.47Z" fill="#6295F5"/>
<path d="M20.575 26.67H26.665V28.19H20.575V26.67Z" fill="#6295F5"/>
<path d="M25.145 16H26.665V17.52H25.145V16Z" fill="#6295F5"/>
<path d="M26.6651 25.14H28.1951V26.67H26.6651V25.14Z" fill="#6295F5"/>
<path d="M26.6651 17.52H28.1951V19.05H26.6651V17.52Z" fill="#6295F5"/>
<path d="M28.1951 19.05H29.7151V25.14H28.1951V19.05Z" fill="#6295F5"/>
</svg>
