<svg width="32" height="32" viewBox="0 0 32 32" fill="none" xmlns="http://www.w3.org/2000/svg">
<g clip-path="url(#clip0_2022_1569)">
<path d="M32 9.14H28.95V10.67H32V9.14Z" fill="#6295F5"/>
<path d="M32 21.33H28.95V22.86H32V21.33Z" fill="#6295F5"/>
<path d="M32 15.24H28.95V16.76H32V15.24Z" fill="#6295F5"/>
<path d="M28.9499 27.43H27.4299V28.95H28.9499V27.43Z" fill="#6295F5"/>
<path d="M28.9499 3.05H27.4299V4.57H28.9499V3.05Z" fill="#6295F5"/>
<path d="M27.4299 25.9H25.9099V27.43H27.4299V25.9Z" fill="#6295F5"/>
<path d="M27.4299 12.19H25.9099V19.81H27.4299V12.19Z" fill="#6295F5"/>
<path d="M27.4299 4.57001H25.9099V6.09001H27.4299V4.57001Z" fill="#6295F5"/>
<path d="M25.9099 19.81H24.3799V22.86H25.9099V19.81Z" fill="#6295F5"/>
<path d="M25.9099 9.14H24.3799V12.19H25.9099V9.14Z" fill="#6295F5"/>
<path d="M24.3801 7.62H22.8601V9.14H24.3801V7.62Z" fill="#6295F5"/>
<path d="M22.8601 28.95H21.3401V32H22.8601V28.95Z" fill="#6295F5"/>
<path d="M21.3401 24.38H19.8101V25.9H22.8601V24.38H24.3801V22.86H21.3401V24.38Z" fill="#6295F5"/>
<path d="M22.8601 0H21.3401V3.05H22.8601V0Z" fill="#6295F5"/>
<path d="M21.3401 21.33H19.8101V22.86H21.3401V21.33Z" fill="#6295F5"/>
<path d="M22.8601 6.09H19.8101V7.62H22.8601V6.09Z" fill="#6295F5"/>
<path d="M19.8099 25.9H12.1899V27.43H19.8099V25.9Z" fill="#6295F5"/>
<path d="M16.76 28.95H15.24V32H16.76V28.95Z" fill="#6295F5"/>
<path d="M16.76 0H15.24V3.05H16.76V0Z" fill="#6295F5"/>
<path d="M19.8099 19.81H12.1899V21.33H19.8099V19.81Z" fill="#6295F5"/>
<path d="M19.8099 4.57001H12.1899V6.09001H19.8099V4.57001Z" fill="#6295F5"/>
<path d="M10.6701 24.38V22.86H7.62012V24.38H9.15012V25.9H12.1901V24.38H10.6701Z" fill="#6295F5"/>
<path d="M12.1899 21.33H10.6699V22.86H12.1899V21.33Z" fill="#6295F5"/>
<path d="M12.1899 13.71H13.7199V12.19H18.2899V13.71H19.8099V19.81H21.3399V10.67H19.8099V9.14H12.1899V10.67H10.6699V19.81H12.1899V13.71Z" fill="#6295F5"/>
<path d="M12.1899 6.09H9.1499V7.62H12.1899V6.09Z" fill="#6295F5"/>
<path d="M10.6699 28.95H9.1499V32H10.6699V28.95Z" fill="#6295F5"/>
<path d="M10.6699 0H9.1499V3.05H10.6699V0Z" fill="#6295F5"/>
<path d="M9.15012 7.62H7.62012V9.14H9.15012V7.62Z" fill="#6295F5"/>
<path d="M7.6201 19.81H6.1001V22.86H7.6201V19.81Z" fill="#6295F5"/>
<path d="M7.6201 9.14H6.1001V12.19H7.6201V9.14Z" fill="#6295F5"/>
<path d="M6.10007 25.9H4.57007V27.43H6.10007V25.9Z" fill="#6295F5"/>
<path d="M6.10007 12.19H4.57007V19.81H6.10007V12.19Z" fill="#6295F5"/>
<path d="M6.10007 4.57001H4.57007V6.09001H6.10007V4.57001Z" fill="#6295F5"/>
<path d="M4.57005 27.43H3.05005V28.95H4.57005V27.43Z" fill="#6295F5"/>
<path d="M4.57005 3.05H3.05005V4.57H4.57005V3.05Z" fill="#6295F5"/>
<path d="M3.05 21.33H0V22.86H3.05V21.33Z" fill="#6295F5"/>
<path d="M3.05 15.24H0V16.76H3.05V15.24Z" fill="#6295F5"/>
<path d="M3.05 9.14H0V10.67H3.05V9.14Z" fill="#6295F5"/>
</g>
<defs>
<clipPath id="clip0_2022_1569">
<rect width="32" height="32" fill="white"/>
</clipPath>
</defs>
</svg>
