<svg width="32" height="32" viewBox="0 0 32 32" fill="none" xmlns="http://www.w3.org/2000/svg">
<path d="M29.7148 20.575H28.1948V26.665H29.7148V20.575Z" fill="#6295F5"/>
<path d="M28.1948 26.665H26.6648V28.195H28.1948V26.665Z" fill="#6295F5"/>
<path d="M28.1948 19.055H26.6648V20.575H28.1948V19.055Z" fill="#6295F5"/>
<path d="M26.665 17.525H25.145V19.055H26.665V17.525Z" fill="#6295F5"/>
<path d="M26.665 28.195H20.575V29.715H26.665V28.195Z" fill="#6295F5"/>
<path d="M25.145 16.005H23.615V17.525H25.145V16.005Z" fill="#6295F5"/>
<path d="M23.6149 14.475H19.0449V16.005H23.6149V14.475Z" fill="#6295F5"/>
<path d="M20.5749 26.665H19.0449V28.195H20.5749V26.665Z" fill="#6295F5"/>
<path d="M19.0449 25.145H17.5249V26.665H19.0449V25.145Z" fill="#6295F5"/>
<path d="M14.4748 11.435H11.4248V14.475H12.9548V16.005H14.4748V17.525H16.0048V19.055H17.5248V20.575H20.5748V17.525H19.0448V16.005H17.5248V14.475H16.0048V12.955H14.4748V11.435Z" fill="#6295F5"/>
<path d="M17.5249 23.625H16.0049V25.145H17.5249V23.625Z" fill="#6295F5"/>
<path d="M17.5249 8.38501H16.0049V12.955H17.5249V8.38501Z" fill="#6295F5"/>
<path d="M16.0049 19.055H14.4749V23.625H16.0049V19.055Z" fill="#6295F5"/>
<path d="M16.0049 6.86499H14.4749V8.38499H16.0049V6.86499Z" fill="#6295F5"/>
<path d="M14.4748 5.33499H12.9548V6.86499H14.4748V5.33499Z" fill="#6295F5"/>
<path d="M12.9548 3.815H11.4248V5.335H12.9548V3.815Z" fill="#6295F5"/>
<path d="M12.955 16.005H8.38501V17.525H12.955V16.005Z" fill="#6295F5"/>
<path d="M8.38498 14.475H6.85498V16.005H8.38498V14.475Z" fill="#6295F5"/>
<path d="M11.425 2.285H5.33496V3.815H11.425V2.285Z" fill="#6295F5"/>
<path d="M6.85496 12.955H5.33496V14.475H6.85496V12.955Z" fill="#6295F5"/>
<path d="M5.33494 11.435H3.81494V12.955H5.33494V11.435Z" fill="#6295F5"/>
<path d="M5.33494 3.815H3.81494V5.335H5.33494V3.815Z" fill="#6295F5"/>
<path d="M3.81491 5.33499H2.28491V11.435H3.81491V5.33499Z" fill="#6295F5"/>
</svg>
