<svg width="32" height="32" viewBox="0 0 32 32" fill="none" xmlns="http://www.w3.org/2000/svg">
<path d="M25.905 9.13999V6.09999H30.475V4.56999H25.905V1.51999H24.385V9.13999H25.905Z" fill="#5D89ED"/>
<path d="M25.905 30.48V27.43H30.475V25.9H25.905V22.86H24.385V30.48H25.905Z" fill="#5D89ED"/>
<path d="M30.4749 15.24H9.1449V12.19H7.6249V10.67H6.0949V12.19H4.5749V15.24H1.5249V16.76H4.5749V19.81H6.0949V21.33H7.6249V19.81H9.1449V16.76H30.4749V15.24Z" fill="#5D89ED"/>
<path d="M24.385 30.48H22.855V32H24.385V30.48Z" fill="#5D89ED"/>
<path d="M24.385 21.33H22.855V22.86H24.385V21.33Z" fill="#5D89ED"/>
<path d="M24.385 9.14001H22.855V10.67H24.385V9.14001Z" fill="#5D89ED"/>
<path d="M24.385 0H22.855V1.52H24.385V0Z" fill="#5D89ED"/>
<path d="M22.8549 22.86H21.3349V25.9H1.5249V27.43H21.3349V30.48H22.8549V22.86Z" fill="#5D89ED"/>
<path d="M21.3349 4.56999H1.5249V6.09999H21.3349V9.13999H22.8549V1.51999H21.3349V4.56999Z" fill="#5D89ED"/>
</svg>
