<svg width="32" height="32" viewBox="0 0 32 32" fill="none" xmlns="http://www.w3.org/2000/svg">
<path d="M27.4302 13.71H25.9102V28.95H27.4302V13.71Z" fill="#6295F5"/>
<path d="M25.9101 28.95H24.3801V30.48H25.9101V28.95Z" fill="#6295F5"/>
<path d="M25.9101 12.19H24.3801V13.71H25.9101V12.19Z" fill="#6295F5"/>
<path d="M24.3801 10.67H21.3401V12.19H24.3801V10.67Z" fill="#6295F5"/>
<path d="M24.3801 30.48H7.62012V32H24.3801V30.48Z" fill="#6295F5"/>
<path d="M15.2401 0V1.52H13.7201V3.05H12.1901V4.57H10.6701V6.09H9.15015V7.62H13.7201V16.76H18.2901V7.62H22.8601V6.09H21.3401V4.57H19.8101V3.05H18.2901V1.52H16.7601V0H15.2401Z" fill="#6295F5"/>
<path d="M10.6701 10.67H7.62012V12.19H10.6701V10.67Z" fill="#6295F5"/>
<path d="M7.6201 28.95H6.1001V30.48H7.6201V28.95Z" fill="#6295F5"/>
<path d="M7.6201 12.19H6.1001V13.71H7.6201V12.19Z" fill="#6295F5"/>
<path d="M6.10007 13.71H4.57007V28.95H6.10007V13.71Z" fill="#6295F5"/>
</svg>
