<svg width="32" height="32" viewBox="0 0 32 32" fill="none" xmlns="http://www.w3.org/2000/svg">
<g clip-path="url(#clip0_2364_16332)">
<path d="M24.38 19.81H22.85V22.86H19.81V24.38H16.76V25.9H21.33V27.43H22.85V28.95H24.38V30.48H25.9V32H27.43V30.48H28.95V28.95H30.47V27.43H32V25.9H30.47V24.38H28.95V22.86H27.43V21.33H25.9V16.76H24.38V19.81Z" fill="#6295F5"/>
<path d="M27.4299 10.67H25.8999V16.76H27.4299V10.67Z" fill="#6295F5"/>
<path d="M25.8999 7.62H24.3799V10.67H25.8999V7.62Z" fill="#6295F5"/>
<path d="M24.3801 4.57001H22.8501V7.62001H24.3801V4.57001Z" fill="#6295F5"/>
<path d="M22.8501 12.19H21.3301V15.24H22.8501V12.19Z" fill="#6295F5"/>
<path d="M21.3301 9.14001H19.8101V12.19H21.3301V9.14001Z" fill="#6295F5"/>
<path d="M22.8501 3.04999H19.8101V4.56999H22.8501V3.04999Z" fill="#6295F5"/>
<path d="M19.81 7.62H16.76V9.14H19.81V7.62Z" fill="#6295F5"/>
<path d="M19.81 1.51999H16.76V3.04999H19.81V1.51999Z" fill="#6295F5"/>
<path d="M16.76 6.10001H13.71V7.62001H16.76V6.10001Z" fill="#6295F5"/>
<path d="M16.7599 25.9H10.6599V27.43H16.7599V25.9Z" fill="#6295F5"/>
<path d="M16.7599 0H10.6599V1.52H16.7599V0Z" fill="#6295F5"/>
<path d="M10.6601 24.38H7.62012V25.9H10.6601V24.38Z" fill="#6295F5"/>
<path d="M10.6601 1.51999H7.62012V3.04999H10.6601V1.51999Z" fill="#6295F5"/>
<path d="M7.62007 22.86H4.57007V24.38H7.62007V22.86Z" fill="#6295F5"/>
<path d="M7.62007 3.04999H4.57007V4.56999H7.62007V3.04999Z" fill="#6295F5"/>
<path d="M4.57005 19.81H3.05005V22.86H4.57005V19.81Z" fill="#6295F5"/>
<path d="M4.57005 4.57001H3.05005V7.62001H4.57005V4.57001Z" fill="#6295F5"/>
<path d="M3.05002 16.76H1.52002V19.81H3.05002V16.76Z" fill="#6295F5"/>
<path d="M3.05002 7.62H1.52002V10.67H3.05002V7.62Z" fill="#6295F5"/>
<path d="M1.52 10.67H0V16.76H1.52V10.67Z" fill="#6295F5"/>
</g>
<defs>
<clipPath id="clip0_2364_16332">
<rect width="32" height="32" fill="white"/>
</clipPath>
</defs>
</svg>
