<svg width="32" height="32" viewBox="0 0 32 32" fill="none" xmlns="http://www.w3.org/2000/svg">
<g clip-path="url(#clip0_2089_10410)">
<path d="M30.47 9.905H28.95V6.855H27.42V5.335H25.9V3.805H22.85V2.285H19.81V0.764999H12.19V2.285H9.14V3.805H6.09V5.335H4.57V6.855H3.04V9.905H1.52V12.955H0V20.565H1.52V23.615H3.04V26.665H4.57V28.185H6.09V29.715H9.14V31.235H13.71V20.565H9.14V15.995H13.71V9.905H15.23V8.375H22.85V12.955H18.28V15.995H24.38V17.525H22.85V19.045H21.33V20.565H18.28V31.235H22.85V29.715H25.9V28.185H27.42V26.665H28.95V23.615H30.47V20.565H32V12.955H30.47V9.905Z" fill="#6295F5"/>
</g>
<defs>
<clipPath id="clip0_2089_10410">
<rect width="32" height="32" fill="white"/>
</clipPath>
</defs>
</svg>
