<svg width="32" height="32" viewBox="0 0 32 32" fill="none" xmlns="http://www.w3.org/2000/svg">
<path d="M12.9552 23.615L12.9552 26.665L14.4752 26.665L14.4752 28.185L17.5252 28.185L17.5252 26.665L19.0452 26.665L19.0452 23.615L17.5252 23.615L17.5252 22.095L14.4752 22.095L14.4752 23.615L12.9552 23.615Z" fill="#6295F5"/>
<path d="M12.9552 14.475L12.9552 17.515L14.4752 17.515L14.4752 19.045L17.5252 19.045L17.5252 17.515L19.0452 17.515L19.0452 14.475L17.5252 14.475L17.5252 12.945L14.4752 12.945L14.4752 14.475L12.9552 14.475Z" fill="#6295F5"/>
<path d="M19.0452 5.32502L17.5252 5.32502L17.5252 3.80502L14.4752 3.80502L14.4752 5.32502L12.9552 5.32502L12.9552 8.37502L14.4752 8.37502L14.4752 9.90502L17.5252 9.90502L17.5252 8.37502L19.0452 8.37502L19.0452 5.32502Z" fill="#6295F5"/>
</svg>
