<svg width="32" height="32" viewBox="0 0 32 32" fill="none" xmlns="http://www.w3.org/2000/svg">
<g clip-path="url(#clip0_2062_5211)">
<path d="M32 12.19H30.48V19.81H32V12.19Z" fill="#6295F5"/>
<path d="M30.48 19.81H28.96V22.86H30.48V19.81Z" fill="#6295F5"/>
<path d="M30.48 9.14999H28.96V12.19H30.48V9.14999Z" fill="#6295F5"/>
<path d="M28.9599 22.86H27.4299V25.91H28.9599V22.86Z" fill="#6295F5"/>
<path d="M28.9599 6.10001H27.4299V9.15001H28.9599V6.10001Z" fill="#6295F5"/>
<path d="M27.4299 25.91H25.9099V27.43H27.4299V25.91Z" fill="#6295F5"/>
<path d="M27.4299 4.58H25.9099V6.1H27.4299V4.58Z" fill="#6295F5"/>
<path d="M25.9101 27.43H22.8601V28.96H25.9101V27.43Z" fill="#6295F5"/>
<path d="M25.9101 3.05H22.8601V4.58H25.9101V3.05Z" fill="#6295F5"/>
<path d="M22.8601 28.96H19.8101V30.48H22.8601V28.96Z" fill="#6295F5"/>
<path d="M22.8601 1.53H19.8101V3.05H22.8601V1.53Z" fill="#6295F5"/>
<path d="M15.2401 6.10001V7.62001H13.7201V9.15001H12.2001V10.67H10.6701V12.19H9.15012V13.72H7.62012V16.77H9.15012V18.29H13.7201V19.81H12.2001V22.86H10.6701V25.91H13.7201V24.38H15.2401V22.86H16.7701V21.34H18.2901V19.81H19.8101V18.29H21.3401V15.24H19.8101V13.72H16.7701V12.19H18.2901V10.67H19.8101V9.15001H21.3401V6.10001H15.2401Z" fill="#FFCC00" fill-opacity="0.752941"/>
<path d="M19.81 30.48H12.2V32H19.81V30.48Z" fill="#6295F5"/>
<path d="M19.81 0H12.2V1.53H19.81V0Z" fill="#6295F5"/>
<path d="M12.1999 28.96H9.1499V30.48H12.1999V28.96Z" fill="#6295F5"/>
<path d="M12.1999 1.53H9.1499V3.05H12.1999V1.53Z" fill="#6295F5"/>
<path d="M9.1501 27.43H6.1001V28.96H9.1501V27.43Z" fill="#6295F5"/>
<path d="M9.1501 3.05H6.1001V4.58H9.1501V3.05Z" fill="#6295F5"/>
<path d="M6.10008 25.91H4.58008V27.43H6.10008V25.91Z" fill="#6295F5"/>
<path d="M6.10008 4.58H4.58008V6.1H6.10008V4.58Z" fill="#6295F5"/>
<path d="M4.58005 22.86H3.05005V25.91H4.58005V22.86Z" fill="#6295F5"/>
<path d="M4.58005 6.10001H3.05005V9.15001H4.58005V6.10001Z" fill="#6295F5"/>
<path d="M3.05003 19.81H1.53003V22.86H3.05003V19.81Z" fill="#6295F5"/>
<path d="M3.05003 9.14999H1.53003V12.19H3.05003V9.14999Z" fill="#6295F5"/>
<path d="M1.53 12.19H0V19.81H1.53V12.19Z" fill="#6295F5"/>
</g>
<defs>
<clipPath id="clip0_2062_5211">
<rect width="32" height="32" fill="white"/>
</clipPath>
</defs>
</svg>
