<svg width="32" height="32" viewBox="0 0 32 32" fill="none" xmlns="http://www.w3.org/2000/svg">
<g clip-path="url(#clip0_2115_8378)">
<path d="M31.24 3.81H29.72V29.72H31.24V3.81Z" fill="#6295F5"/>
<path d="M29.7201 29.72H3.81006V31.24H29.7201V29.72Z" fill="#6295F5"/>
<path d="M28.1899 2.29001H26.6699V26.67H28.1899V2.29001Z" fill="#6295F5"/>
<path d="M23.6201 14.48H20.5701V16H23.6201V20.57H25.1501V5.34H23.6201V14.48Z" fill="#6295F5"/>
<path d="M20.5701 19.05H19.0501V20.57H5.34009V22.1H23.6201V20.57H20.5701V19.05Z" fill="#6295F5"/>
<path d="M20.57 16H19.05V17.53H20.57V16Z" fill="#6295F5"/>
<path d="M19.05 17.53H17.53V19.05H19.05V17.53Z" fill="#6295F5"/>
<path d="M17.53 12.95H20.57V11.43H22.1V8.38002H20.57V6.86002H17.53V8.38002H16V11.43H17.53V12.95Z" fill="#6295F5"/>
<path d="M17.53 16H16V17.53H17.53V16Z" fill="#6295F5"/>
<path d="M16 14.48H14.48V16H16V14.48Z" fill="#6295F5"/>
<path d="M14.48 12.95H12.96V14.48H14.48V12.95Z" fill="#6295F5"/>
<path d="M12.9599 11.43H9.90991V12.95H12.9599V11.43Z" fill="#6295F5"/>
<path d="M9.91013 12.95H8.38013V14.48H9.91013V12.95Z" fill="#6295F5"/>
<path d="M8.38011 14.48H6.86011V16H8.38011V14.48Z" fill="#6295F5"/>
<path d="M23.6201 3.81H5.34009V5.34H23.6201V3.81Z" fill="#6295F5"/>
<path d="M5.34006 17.53H6.86006V16H5.34006V5.34H3.81006V20.57H5.34006V17.53Z" fill="#6295F5"/>
<path d="M26.67 0.76001H2.29004V2.29001H26.67V0.76001Z" fill="#6295F5"/>
<path d="M26.67 26.67H2.29004V28.19H26.67V26.67Z" fill="#6295F5"/>
<path d="M2.29001 2.29001H0.76001V26.67H2.29001V2.29001Z" fill="#6295F5"/>
</g>
<defs>
<clipPath id="clip0_2115_8378">
<rect width="32" height="32" fill="white"/>
</clipPath>
</defs>
</svg>
