<svg width="32" height="32" viewBox="0 0 32 32" fill="none" xmlns="http://www.w3.org/2000/svg">
<g clip-path="url(#clip0_2062_5212)">
<path d="M32 12.19H30.47V19.81H32V12.19Z" fill="#6295F5"/>
<path d="M30.4699 19.81H28.95V22.86H30.4699V19.81Z" fill="#6295F5"/>
<path d="M30.4699 9.14H28.95V12.19H30.4699V9.14Z" fill="#6295F5"/>
<path d="M28.9499 22.86H27.4299V25.9H28.9499V22.86Z" fill="#6295F5"/>
<path d="M28.9499 6.09H27.4299V9.14H28.9499V6.09Z" fill="#6295F5"/>
<path d="M27.4299 25.9H25.8999V27.43H27.4299V25.9Z" fill="#6295F5"/>
<path d="M27.4299 4.57001H25.8999V6.09001H27.4299V4.57001Z" fill="#6295F5"/>
<path d="M25.9001 27.43H22.8501V28.95H25.9001V27.43Z" fill="#6295F5"/>
<path d="M24.3801 10.67H22.8501V9.14H18.2801V10.67H16.7601V12.19H15.2301V10.67H13.7101V9.14H9.14009V10.67H7.62009V12.19H6.09009V16.76H7.62009V18.29H9.14009V19.81H10.6601V21.33H12.1901V22.86H13.7101V24.38H15.2301V25.9H16.7601V24.38H18.2801V22.86H19.8101V21.33H21.3301V19.81H22.8501V18.29H24.3801V16.76H25.9001V12.19H24.3801V10.67ZM22.8501 16.76H21.3301V13.71H18.2801V12.19H21.3301V13.71H22.8501V16.76Z" fill="#FF0000"/>
<path d="M25.9001 3.05H22.8501V4.57H25.9001V3.05Z" fill="#6295F5"/>
<path d="M22.8501 28.95H19.8101V30.48H22.8501V28.95Z" fill="#6295F5"/>
<path d="M22.8501 1.52H19.8101V3.05H22.8501V1.52Z" fill="#6295F5"/>
<path d="M19.8099 30.48H12.1899V32H19.8099V30.48Z" fill="#6295F5"/>
<path d="M19.8099 0H12.1899V1.52H19.8099V0Z" fill="#6295F5"/>
<path d="M12.1899 28.95H9.13989V30.48H12.1899V28.95Z" fill="#6295F5"/>
<path d="M12.1899 1.52H9.13989V3.05H12.1899V1.52Z" fill="#6295F5"/>
<path d="M9.14009 27.43H6.09009V28.95H9.14009V27.43Z" fill="#6295F5"/>
<path d="M9.14009 3.05H6.09009V4.57H9.14009V3.05Z" fill="#6295F5"/>
<path d="M6.09007 25.9H4.57007V27.43H6.09007V25.9Z" fill="#6295F5"/>
<path d="M6.09007 4.57001H4.57007V6.09001H6.09007V4.57001Z" fill="#6295F5"/>
<path d="M4.57004 22.86H3.04004V25.9H4.57004V22.86Z" fill="#6295F5"/>
<path d="M4.57004 6.09H3.04004V9.14H4.57004V6.09Z" fill="#6295F5"/>
<path d="M3.04002 19.81H1.52002V22.86H3.04002V19.81Z" fill="#6295F5"/>
<path d="M3.04002 9.14H1.52002V12.19H3.04002V9.14Z" fill="#6295F5"/>
<path d="M1.52 12.19H0V19.81H1.52V12.19Z" fill="#6295F5"/>
</g>
<defs>
<clipPath id="clip0_2062_5212">
<rect width="32" height="32" fill="white"/>
</clipPath>
</defs>
</svg>
