<svg width="32" height="32" viewBox="0 0 32 32" fill="none" xmlns="http://www.w3.org/2000/svg">
<path d="M27.4302 1.51999H25.9102V30.47H27.4302V1.51999Z" fill="#6295F5"/>
<path d="M25.9101 30.47H22.8601V32H25.9101V30.47Z" fill="#6295F5"/>
<path d="M22.8601 28.95H21.3401V30.47H22.8601V28.95Z" fill="#6295F5"/>
<path d="M21.3401 27.43H19.8101V28.95H21.3401V27.43Z" fill="#6295F5"/>
<path d="M19.81 25.9H18.29V27.43H19.81V25.9Z" fill="#6295F5"/>
<path d="M18.29 24.38H16.76V25.9H18.29V24.38Z" fill="#6295F5"/>
<path d="M16.76 22.85H15.24V24.38H16.76V22.85Z" fill="#6295F5"/>
<path d="M15.24 24.38H13.72V25.9H15.24V24.38Z" fill="#6295F5"/>
<path d="M13.7202 25.9H12.1902V27.43H13.7202V25.9Z" fill="#6295F5"/>
<path d="M12.1902 27.43H10.6702V28.95H12.1902V27.43Z" fill="#6295F5"/>
<path d="M10.6701 28.95H9.15015V30.47H10.6701V28.95Z" fill="#6295F5"/>
<path d="M25.9101 0H6.1001V1.52H25.9101V0Z" fill="#6295F5"/>
<path d="M9.1501 30.47H6.1001V32H9.1501V30.47Z" fill="#6295F5"/>
<path d="M6.10007 1.51999H4.57007V30.47H6.10007V1.51999Z" fill="#6295F5"/>
<g clip-path="url(#clip0_2325_12265)">
<path d="M23.24 11.095V10.33H18.665V8.81H17.905V7.285H17.145V5.76H16.38V5H15.62V5.76H14.855V7.285H14.095V8.81H13.335V10.33H8.76V11.095H8V11.855H8.76V12.615H9.525V13.38H11.05V14.14H11.81V15.665H11.05V17.19H10.285V18.715H9.525V20.235H10.285V21H11.81V20.235H12.57V19.475H14.095V18.715H14.855V17.95H15.62V17.19H16.38V17.95H17.145V18.715H17.905V19.475H19.43V20.235H20.19V21H21.715V20.235H22.475V18.715H21.715V17.19H20.95V15.665H20.19V14.14H20.95V13.38H22.475V12.615H23.24V11.855H24V11.095H23.24Z" fill="#FFD93F"/>
</g>
<defs>
<clipPath id="clip0_2325_12265">
<rect width="16" height="16" fill="white" transform="translate(8 5)"/>
</clipPath>
</defs>
</svg>
